<?xml version="1.0" encoding="utf-8"?>
<!-- Generator: Adobe Illustrator 23.0.5, SVG Export Plug-In . SVG Version: 6.00 Build 0)  -->
<svg version="1.1" id="Capa_1" xmlns="http://www.w3.org/2000/svg" xmlns:xlink="http://www.w3.org/1999/xlink" x="0px" y="0px"
	 viewBox="0 0 708.66 737.01" style="enable-background:new 0 0 708.66 737.01;" xml:space="preserve">
<style type="text/css">
	.st0{fill:#767192;}
	.st1{fill:#91BDD0;}
	.st2{fill:#5A556C;}
	.st3{fill:#59546D;}
	.st4{fill:#634D40;}
	.st5{fill:#908CA7;}
	.st6{fill:#3A312B;}
	.st7{fill:#CFE2E9;}
	.st8{fill:#5B566D;}
	.st9{fill:#D2D7E5;}
	.st10{fill:#5D5A70;}
	.st11{fill:#3A312C;}
	.st12{fill:#7E7B8D;}
	.st13{fill:#FBFDFC;}
	.st14{fill:#E7E5E9;}
	.st15{fill:#E7E6EA;}
	.st16{fill:#D4D9E5;}
	.st17{fill:#E2E1E6;}
	.st18{fill:#AFBBC6;}
	.st19{fill:#F9B452;}
	.st20{fill:#FBCFB9;}
	.st21{fill:#C4DBE6;}
	.st22{fill:#F9B454;}
	.st23{fill:#7D7A8C;}
	.st24{fill:#7C7A8C;}
	.st25{fill:#B9D4DF;}
	.st26{fill:#838092;}
	.st27{fill:#C3D9E3;}
	.st28{fill:#B6D0DB;}
	.st29{fill:#B8C1CF;}
	.st30{fill:#B2BCCB;}
	.st31{fill:#E19F4E;}
	.st32{fill:#CDE1E8;}
	.st33{fill:#817E90;}
	.st34{fill:#7F7D8F;}
	.st35{fill:#838091;}
	.st36{fill:#908C9C;}
	.st37{fill:#B4BECC;}
	.st38{fill:#E2A04F;}
	.st39{fill:#4D342F;}
	.st40{fill:#C3DAE4;}
	.st41{fill:#CDE1E7;}
	.st42{fill:#BAD5DF;}
	.st43{fill:#C0D6E0;}
	.st44{fill:#5C596F;}
	.st45{fill:#7E7C8F;}
	.st46{fill:#7F7C8F;}
	.st47{fill:#BDD1DA;}
	.st48{fill:#B8D3DE;}
	.st49{fill:#7D7B8E;}
	.st50{fill:#828599;}
	.st51{fill:#BCD5DE;}
	.st52{fill:#BBD1DA;}
	.st53{fill:#767092;}
	.st54{fill:#757090;}
	.st55{fill:#CABEC8;}
	.st56{fill:#35241F;}
	.st57{fill:#B9D5DF;}
	.st58{fill:#5B586F;}
	.st59{fill:#E2A150;}
	.st60{fill:#7D7C8E;}
	.st61{fill:#868293;}
	.st62{fill:#E9E9EC;}
	.st63{fill:#ECECEF;}
	.st64{fill:#EDEBEE;}
	.st65{fill:#E8E7EB;}
	.st66{fill:#F8FAF9;}
	.st67{fill:#757091;}
	.st68{fill:#382621;}
	.st69{fill:#B5D0DB;}
	.st70{fill:#ACA6A6;}
	.st71{fill:#C3D8E1;}
	.st72{fill:#E9A082;}
	.st73{fill:#B8D4DE;}
	.st74{fill:#5B596F;}
	.st75{fill:#B8D2DC;}
	.st76{fill:#7B7B8E;}
	.st77{fill:#B7D2DC;}
	.st78{fill:#7E7F91;}
	.st79{fill:#7C7B8F;}
	.st80{fill:#E8A689;}
	.st81{fill:#807D8E;}
	.st82{fill:#030405;}
	.st83{fill:#EA9F82;}
	.st84{fill:#7E7D8F;}
	.st85{fill:#7D7C90;}
	.st86{fill:#ECA98C;}
	.st87{fill:#DB8668;}
	.st88{fill:#EBA88B;}
</style>
<g>
	<path class="st0" d="M404.61,730.43c-31.19,0-62.39,0-93.58,0c-6.64-3.42-7.28-10.76-10.67-16.31
		c-10.06-21.5-19.58-43.25-29.14-64.97c-1.11-2.51-2.42-4.97-2.07-7.87c0.31-15.5,6.58-28.71,15.78-40.74
		c2.04-2.67,3.67-6.76,7.94-5.81c3.57,0.8,4.28,4.61,5.45,7.64c6.94,18.04,12.49,36.57,19.3,54.67c1.96,5.22,4.85,10.17,5.19,13.42
		c-3.71-11.67-9.93-25-14.08-39.05c-9.89-33.46-9.75-34.05,5.24-65.29c6.52-13.59,13.08-27.18,19.06-41.03
		c2.37-5.49,3.49-10.88,2.09-16.83c-2.22-9.46-0.44-18.95,0.32-28.42c8.11-6.58,17.73-9.53,27.77-11.44
		c5.77,3.65,6.93,10.5,10.78,15.5c2.59,5.59,5.49,11.03,8.28,16.52c15.23,30.32,31.16,60.28,46.75,90.41
		c2.11,4.58,4.7,8.86,7.81,12.83c6.94,8.87,14.49,17.22,20.89,26.57c4.21,6.15,10.14,11.1,16.94,14.64c3.96,2.06,5.82,5.28,5.8,9.74
		c-0.02,4.51,0.15,9.03-0.05,13.54c-0.3,6.76-2.62,12.46-7.64,17.38c-11.46,11.25-23.7,21.6-35.79,32.14
		C427.65,725.79,416.03,727.79,404.61,730.43z"/>
	<path class="st1" d="M357,109.87c-4.27-7.24-9.5-8.94-18.86-4.85c-22.63,9.91-45.05,20.56-67.35,32.04
		c-9.24,4.76-18.58,9.59-28.23,8.99c-7.56-0.47-10.97-5.28-9.95-14.35c1.56-13.88,7.63-26.16,15.84-37.78
		c8.66-12.26,19.46-21.58,30.07-31.18c19.61,0.59,39.22,1.18,58.84,1.77c0.2,1.29-0.52,2.19-1.38,3.06
		c-2.13,2.13-6.06,3.61-4.05,7.58c1.61,3.17,4.77,2.89,7.98,1.3c3.85-1.91,4.86-4.86,3.37-8.52c-0.4-0.97-0.61-2.02,0.12-3.23
		c14.08,0.42,28.16,0.85,42.24,1.27c2.79,9.33-0.62,16.77-11.39,24.08c-5.39,3.65-10.94,6.82-10.94,15.02
		c-0.23,2.2-1.04,4.22-2.45,6.03c-0.59,0.66-1.27,1.04-2.02,1.15C357.77,111.93,357.2,111.1,357,109.87z"/>
	<path class="st2" d="M350.29,70.49c1.03,0.58,2.06,1.16,3.09,1.74c-0.33,6.98-6.68,11.54-5.73,19.01
		c-0.22,3.08,0.38,6.34-1.06,8.64c1.76-3.61,4.45-7.23,6.49-11.36c2.94-5.65,4.86-11.96,8.21-17.36c-2.59,0.23-4.99,3.72-7.99,1.17
		c-0.29-2,0.72-3.46,1.56-4.99c11.17-5.38,16.35-17.45,23.17-27.65c3.57-5.34,7.81-9.6,13-12.66c2.01,0,4.02,0,6.04,0
		c0.79,4.18-2.47,5.27-4.33,7.28c-6.07,6.56-11.93,13.27-16.24,21.6c-1.71,3.3-1.87,5.19,2.2,5.54c6.18,0.53,11.33,0.28,15.83-6.55
		c4.7-7.13,11.93-11.4,19.56-14.09c2.34-0.38,4.59-1.1,6.81-2.05c13.02-3.28,26.02-3.33,39.02,0.13c2.82,1.1,5.65,2.19,8.39,3.56
		c11.91,7.23,24.43,13.1,35.28,22.66c15.01,13.22,25.81,30.31,35.41,48.66c1.51,1.54,2.28,3.63,3.16,5.64
		c7.83,17.67,9.47,36.95,10.7,56.25c0.36,5.68,1.51,7.32,6.19,4.9c2.96-1.53,6.24-2.22,9.24-3.67c17.72-8.54,33.31-4.62,47.08,10.4
		c14.1,19.12,20.47,41.36,20.77,66.3c0.2,16.87-0.57,33.55-4.76,49.8c-8.45,32.71-27.83,54.17-53.7,68.89
		c-8.48,5-17.49,8.72-25.92,13.87c-4.74,2.9-9.39,4.99-11.98,11.88c-2.17,5.77-9.05,6.48-14.34,8.14c-1.03,0.32-1.8-0.61-2.4-1.64
		c-2.37-4.04,0.94-17.43,4.87-19.64c1.2-0.68,2.46-0.93,3.45,0.26c2.03,2.45-0.37,4.84-0.27,7.39c-0.41,0.93,1.17,0.36,0.18,0.19
		c-0.38-0.06-0.32-0.31-0.15-0.86c1.01-3.29,3.5-4.76,5.84-6.43c7.93-5.64,16.48-9.88,25.03-13.98c11.66-5.6,22.51-12.7,32.75-21.14
		c14.92-13.01,24.77-30.08,29.66-50.72c6.17-26.09,7.13-52.29-0.32-78.39c-1.57-5.51-3.62-10.74-6.32-15.63
		c-1.83-3.44-3.77-6.83-6.08-9.85c-8.69-11.32-18.97-17.55-32.58-13.61c-5.6,1.62-11.06,3.67-16.43,6.01
		c-11.1,4.85-11.08,4.9-11.22,18.56c-0.04,1.8-0.19,3.57-0.7,5.28c-0.3,0.87-0.77,1.6-1.39,2.2c-3.6,2.11-3.92-1.08-4.58-3.74
		c-0.08-0.56-0.15-1.13-0.16-1.7c-0.31-12.22-0.31-12.21-10.88-13.89c-4.68-0.74-9.4-1.37-13.37-4.76
		c-7.3-6.66-10.62-15.71-11.88-26.02c-0.47-14.07-2.4-28.01-1.88-43.61c-2.49,7.84-6.48,11.6-11.07,14.75
		c-2.79-0.03-2.95-2.23-2.89-4.62c1.36-4.78,4.99-7.62,7.54-11.38c3.41-5.04,4.59-9.9,1.37-15.5c-2.66-6.26-5.85-12.01-10.76-16.36
		c-1.88-1.66-4.68-3.84-2.68-6.97c2.35-3.69,5.04-0.66,7.13,1.03c7.03,5.67,11.03,13.92,14.04,22.92c0.73,2.5,1.92,4.79,2.53,7.34
		c2.19,15.11,3.77,30.28,3.59,45.63c-0.08,6.5,1.25,12.65,3.92,18.31c4.02,8.53,13.42,12.98,21.33,10.24
		c5.18-1.8,4.69-6.64,4.34-11.33c-0.48-18.63-3.81-36.56-9.91-53.8c-0.66-1.98-1-4.11-1.98-5.96C521.5,89.85,504.68,71,483.34,57.33
		c-2.63-1.69-5.35-3.17-8.25-4.17c-1.71-0.7-3.44-1.35-5.17-1.99c-16.63-7.1-33.47-8.7-51.48-2.99c3.38,6.56,8.62,9.79,12,14.93
		c0,4.52-2.95,4.27-5.56,4.59c-4.32-3.46-7.51-8.28-11.04-12.65c-2.92-3.61-5.42-3.41-8.32-0.55c-3.2,3.16-6.29,6.45-9.05,10.41
		c3.3,3.43,8.71,3.68,10.11,9.47c-0.37,1.99-1.66,2.52-3.19,2.68c-12.29-4.19-12.29-4.19-19.72,8.12c-1.13,1.88-2.32,3.72-3.53,5.53
		c-1.52,2.86-3.55,4.62-2.51,9.42c1.1,5.12-4.72,6.48-8.3,8.25c-3.03,1.49-6.27,2.62-9.03-0.86c-1.07-1.35-1.79-3.04-1.1-4.75
		c1.86-4.62,1.94-10.29,6-13.62c2.59-0.57,3.04,2.23,4.38,3.81c3.72-5.85,7.73-11.31,11.3-17.21c3.4-5.63,1.44-6.43-3.33-6.75
		c-5.75-0.39-9.49,1.78-11.64,8.13c-1.53,4.53-3.65,8.8-5.51,13.19c-0.45,1.04-0.85,2.15-1.52,2.98
		c-7.36,9.17-11.9,19.03-6.19,31.61c0.45,1-0.12,2.25-0.69,3.25c-1.03,0.77-2.13,0.86-3.27,0.43c-4.35-4.34-5.21-10.13-5.44-15.89
		c-3.77,4.6-9.41,5.97-14.73,8.1c-1.61,0.51-3.26,0.64-4.92,0.73c-11.51,0.89-22.94-0.49-34.38-1.54c-2.73-0.25-5.49-0.46-8.17,0.47
		c-19.29,4.92-33.15,18.15-43.35,37.19c-2.94,5.49-3.23,10.59-0.47,16.24c4.69,9.62,8.4,19.69,9.33,30.85
		c0.05,4.39,0.27,8.81-1.31,12.98c-7.38,7.91-6.85,15.83-0.13,23.91c1.17,1.41,1.8,3.37,2.7,5.07c4.29,8.4,12.23,13.83,14.55,23.83
		c-1.39,6.58-4.01,2.63-6.38,1.01c-7.34-10.54-14.83-20.99-20.8-32.66c-2.34-4.57-4.38-5.65-8.13-2.14
		c-4.26,3.99-8.79,7.6-13.12,11.5c-2.24,1.63-4.42,3.33-6.21,5.62c-1.18,1.36-2.35,2.72-3.48,4.14
		c-5.63,7.5-10.94,15.19-12.08,25.51c-4.14,20.55,6.34,40.07,22.8,50.74c4.55,2.95,9.82,4.46,13.56,9.03
		c0.52,1.99,0.11,3.51-1.67,4.33c-8.81-3.62-16.95-8.71-24.04-15.72c-14.66-14.48-19.93-32.6-15.34-54.35
		c0.35-8.65,4.24-15.34,8.99-21.56c1.69-1.94,3.43-3.83,5.08-5.82c2.83-3.24,5.5-6.76,9.7-7.75c5.29-4.39,10.44-9.04,15.93-13.07
		c3.27-2.4,3.47-4.84,2.05-8.51c-6.36-16.44-8.17-33.29-2.63-50.51c1.29-4.01-0.5-6.61-2.03-9.52
		c-7.16-13.59-14.5-27.07-16.85-43.17c-0.97-6.67-0.79-13.2,0.44-19.81c0.31-1.69,4.41-6.79-2.18-4.99
		c-0.05,0.01-0.65-1.49-0.55-2.21c0.11-0.78,0.62-1.61,1.15-2.17c3.4-3.56,7.22-11.35,10.56-8.96c4.51,3.22,2.15,11.43,1.87,17.71
		c-4.55-0.26-2.01-4.74-3.55-6.57c-9.78,15.39-4.26,43.56,14.07,70.27c12.47-24.49,28.75-43.12,54.34-47.31
		c13.28-1.88,26.6-0.25,39.88-0.64c2.01,0.19,3.86-0.7,5.74-1.27c7.14-2.02,12.35-5.68,10.42-15.73c-0.21-1.08,0.6-2.1,1.22-2.99
		C341.27,83.91,345.22,76.9,350.29,70.49z"/>
	<path class="st3" d="M404.61,730.43c1.79-2.03,4.42-2.42,6.76-2.92c15.88-3.4,27.69-13.27,39.04-23.99
		c6.91-6.53,14.03-12.86,20.88-19.45c6.32-6.07,10.21-25.74,6.99-33.77c-0.74-1.83-2.26-2.57-3.81-3.4
		c-9.97-5.36-17.32-13.33-23.48-22.71c-7.38-11.25-18.6-19.72-23.71-32.63c3.99-3.39,9.08-2.96,13.65-3.23
		c14.02-0.83,28.08-1.12,42.11-2.05c3.23-0.21,6.6-0.16,9.16,2.49c2.01,12.03,4.19,24.04,5.98,36.1
		c1.91,12.84,2.95,25.83,5.27,38.59c2.51,13.87,0.6,26.78-5.57,39.28c-2.53,5.14-4.89,10.36-7.33,15.55
		c-0.79,5.09-3,9.32-7.46,12.17C456.93,730.43,430.77,730.43,404.61,730.43z"/>
	<path class="st4" d="M200.85,730.43c-37.73,0-75.47,0-113.2,0c-1.21-11.15,2.99-18.58,12.96-22.65c7.92-3.23,16.39-4.66,24.55-7.1
		c3.35-1,6.46-0.02,9.35,1.7c4.86,2.9,9.87,2.9,15.22,1.46c17.27-4.63,34.02-10.52,49.33-19.9c4.13-2.53,7.82-2.7,11.95-0.37
		c6.82,3.85,14.22,6.19,21.85,7.84c0.77,0.33,1.41,0.82,1.93,1.47c1.6,5.08,2.68,10.22,1.98,15.59c-2.44,4.84-7.67,5.37-11.85,7.3
		C216.29,719.72,207.19,722.77,200.85,730.43z"/>
	<path class="st5" d="M600.82,76.89c4.18,10.45,8.53,20.83,9.85,32.17c1.13,9.75-0.16,19.13-4.71,27.74
		c-5.38,10.17-14.64,12.78-24.85,7.42c-3.95-2.07-7.47-6.1-11.5-6.58c-3.99-0.48-8.38,2.39-12.7,3.83c-0.1-0.78-0.36-1.32-0.19-1.59
		c4.99-7.62,3.58-13.22-3.13-19.94c-13.63-13.66-25.95-28.63-38.8-43.05c10.06,0,20.12,0,30.19,0c6.16,5,12.03,10.28,17.09,16.42
		c0.03-0.03,0.06-0.06-0.32,0.31c-2.78-7.17-11.65-9.02-13.75-16.73c3.02,0,6.04,0,9.06,0c15.21,12,24.3,27.97,29.22,42.28
		c-1.54-7.69-11.14-24.71-20.28-34.26c-2.26-2.36-6.12-3.77-5.92-8.02c3.02,0,6.04,0,9.06,0c12.72,11.34,20.16,25.94,25.47,39.9
		c-3.65-12.27-11.64-24.09-20.32-35.54c-0.99-1.31-2.99-2.14-2.14-4.36C581.7,76.89,591.26,76.89,600.82,76.89z"/>
	<path class="st6" d="M232.75,692.38c-8.72,0.52-15.96-3.77-23.25-7.53c-3.27-1.68-5.56-1.78-8.78,0.27
		c-17.09,10.91-36.1,17.08-55.63,21.92c-4.1,1.02-7.71-0.42-10.6-2.47c-4.02-2.86-7.54-2.78-11.89-1.27
		c-5.66,1.96-11.53,3.31-17.32,4.84c-9.72,2.57-15.92,8.11-16.31,18.8c-0.04,1.18-0.86,2.33-1.32,3.5c-0.5,0-1.01,0-1.51,0
		c-3.87-9.24,0.99-15.75,6.93-22.34c-2.28-2.46-7.8-2.56-6.96-7.93c19.18-5.99,37.37-14.16,54.94-23.92
		c5.21-2.9,9.31-6.16,9.54-12.17c0.34-8.58,4.41-7.44,9.67-4.36c8.56,2.77,10.08,6.09,6.68,14.31c-0.81,1.96-3.07,4.15-1.18,6.11
		c2.2,2.28,4.67,0.05,6.77-1c6.21-3.12,12.35-6.39,17.93-10.58c3.04-3.65,1.76-9.31,5.81-12.48c4.35-0.54,7.61,2,10.93,4.1
		c4.77,3.02,6.98,7.19,4.1,12.69c-2.65,5.05-0.6,7.8,4.05,9.91c4.32,1.96,8.61,3.88,13.25,5.03
		C230.81,688.35,234.03,688.47,232.75,692.38z"/>
	<path class="st7" d="M148.28,75.87c-15.22,20.06-30.8,39.88-42.48,62.34c-4.24,8.14-8.31,16.37-12.46,24.56
		c-7.03-2.86-6.88-9.26-6.85-15.09c0.06-9.57,4.77-17.14,11.55-23.67c5.31-5.11,9.89-10.63,9.44-18.82
		c-0.29-5.3-1.53-9.87-6.08-13.09c-1.22-0.86-2.39-1.88-2.25-3.64c2.38-5.54,9.11-7.34,11.24-13.09c3.01-0.2,6.02-0.41,9.04-0.61
		c7.46,2.29,15.01,1.81,22.55,0.65C144.17,75.08,146.29,74.14,148.28,75.87z"/>
	<path class="st8" d="M254.7,94.64c-16.68,10.62-33.48,20.99-47.83,34.89c-24.39,23.63-40.85,51.3-45.01,85.48
		c-2.66,21.88,1.4,42.92,7.87,63.73c5.88,18.9,12.45,37.74,11.14,58.03c-0.19,2.98-0.47,6.01-1.18,8.9
		c-4.89,19.86-16.67,27.25-36.78,23.33c-6.89-1.34-13.78-2.83-20.74-3.69c-9.93-1.23-19.14,0.62-25.91,8.75
		c-1.32,1.58-5.78,3.5-0.54,6.59c2.03,1.19-0.81,3.47-2.11,4.74c-2.8,2.72-4.32,6.83-8.48,8c-0.39,0.11-1.61-1.21-1.76-2
		c-1-5.23-1.67-10.48-0.24-16.04c3.95,1.75,1.42,4.99,3.19,6.9c2.55-3.7,4.76-7.63,7.64-10.98c8.35-9.69,19.55-10.36,31.14-9.03
		c5.97,0.68,11.96,1.59,17.82,2.92c24.29,5.52,33.55-8.31,34.67-29.3c0.97-18.1-4.51-35.2-10.07-52.14
		c-10.64-32.48-14.3-65.04-2.26-98.08c13.25-36.34,38.88-62.07,70.22-83.07c3.9-2.61,8.53-4.17,11.66-7.93
		C249.67,94.64,252.18,94.64,254.7,94.64z"/>
	<path class="st4" d="M86.11,700.17c2.21,4.54,6.49,5.73,12.26,6.89c-9.96,5.41-12.37,13.8-12.22,23.38c-14.59,0-29.18,0-43.77,0
		c-1.23-1.51-1.23-3.02-0.01-4.53c2.61-11.54,9.97-17.62,21.49-19.77C71.38,704.72,78.7,702.19,86.11,700.17z"/>
	<path class="st9" d="M302,713.8c3.01,5.54,6.02,11.09,9.03,16.63c-24.65,0-49.3,0-73.96,0c-3.29-5.12-3.05-10.29-0.27-15.52
		c1.2-0.96,2.62-1.58,4.11-1.6C261.27,713.03,281.65,712.07,302,713.8z"/>
	<path class="st9" d="M483.09,730.43c2.49-4.06,4.97-8.11,7.46-12.17c2.99,2.68,6.67,3.01,10.43,3.09
		c27.84,0.62,55.37,4.44,82.95,7.84c0.64,0.08,1.2,0.81,1.8,1.23C551.52,730.43,517.3,730.43,483.09,730.43z"/>
	<path class="st10" d="M624.97,76.89c1.95,18.48,7.8,36.25,9.96,54.72c3.41,29.12-21.18,51.52-49.61,44.79
		c-2.55-0.6-5.3-0.99-6.81-3.57c2.09-2.75,3.96-0.86,5.65-0.37c24.6,7.1,46.55-9.19,47.05-34.76c0.29-14.78-4.18-28.71-6.89-42.97
		c-1.12-5.89-2.68-11.74-2.38-17.83C622.96,76.89,623.96,76.89,624.97,76.89z"/>
	<path class="st11" d="M237,715.37c0.02,5.02,0.05,10.04,0.07,15.07c-12.07,0-24.15,0-36.22,0c1.97-5.42,5.29-9.02,11.1-11.03
		c8-2.77,15.61-6.65,23.39-10.05C237.42,710.93,238.15,712.89,237,715.37z"/>
	<path class="st12" d="M413.82,90.56c2.08-6.21,6.8-10.11,11.92-13.66c6.54,0,13.08,0,19.62,0c8.08,3.72,17.11,5.8,22.93,13.4
		c-2.66-0.15-5.55,1.24-7.87-1.17c-6.12-3.94-13.08-5.69-20.03-7.05c-8.01-1.56-15.3,0.18-20.64,7.04
		C418.12,91.05,415.84,90.28,413.82,90.56z"/>
	<path class="st13" d="M327.63,76.89c3.48,2.67,7.3,5.31,2.65,10.06c-3.67,3.75-10.99,3.8-14.27,0.4c-2.29-2.37-1.69-4.62,0.23-6.55
		c1.53-1.55,3.55-2.62,5.35-3.9C323.61,76.89,325.62,76.89,327.63,76.89z"/>
	<path class="st14" d="M560.07,76.89c13.31,13.42,23.87,28.45,27.95,47.36c-6.71-18.17-17.3-33.78-30.97-47.36
		C558.06,76.89,559.06,76.89,560.07,76.89z"/>
	<path class="st15" d="M572.14,76.89c10.95,13.31,20.31,27.47,24.03,44.73c-6.38-16.53-15.52-31.36-27.05-44.73
		C570.13,76.89,571.14,76.89,572.14,76.89z"/>
	<path class="st16" d="M42.36,725.9c0,1.51,0.01,3.02,0.01,4.53c-10.57,0-21.13,0-31.7,0C21.02,727.4,31.56,725.76,42.36,725.9z"/>
	<path class="st17" d="M547.99,76.89c6.07,7.01,14.42,12.1,17.67,21.53c-6.28-7.8-14.52-13.65-20.69-21.53
		C545.98,76.89,546.99,76.89,547.99,76.89z"/>
	<path class="st18" d="M148.02,76.89c-5.03,2.39-10.06,2.43-15.09,0C137.96,76.89,142.99,76.89,148.02,76.89z"/>
	<path class="st19" d="M226.88,355.34c0.5-1.04,1-2.07,1.5-3.11c0.19-4.73,4.35-7.58,5.57-11.82c0.77-1.56,1.52-3.12,2.4-4.62
		c3.55-4.34,4.76-10.46,10.14-13.41c9.82,3.84,18.57,9.92,28.44,13.66c1.29,3.03-0.51,5.68-1.01,8.5c-0.24,1.41-0.58,2.79-1.05,4.14
		c-1.77,3.74-3.07,7.65-4.11,11.64c-0.98,1.74-0.81,3.76-1.31,5.63c-6.53,14.25-10.09,29.49-15.27,44.78
		c8.48-5.61,16.44-11.1,24.76-16.06c1.2-0.76,2.42-1.5,3.6-2.3c18.97-11.6,36.46-25.73,57.54-33.73c2.94-1.26,6.04-1.5,9.18-1.52
		c2.3,0.08,4.63-0.01,6.8,0.94c4.75,6.33,8.03,13.67,13.5,19.58c3.22,3.48-1.49,4.68-2.75,6.54c7.9-5.92,17.3-9.42,26.03-14.13
		c1.63-0.88,4.08-0.73,4.58-3.26c3.1-3.94,7.79-5.36,12.05-7.2c11.23-4.84,21.99-10.61,32.99-15.91c2.59-1.16,5.33-1.58,8.14-1.62
		c14.61-0.95,27.64,2.41,37.78,13.76c2.01,2.25,3.95,4.48,4.59,7.54c0.25,3.33,1.89,6.22,2.99,9.28
		c7.96,22.17-0.11,43.91-20.61,55.45c-1.53,0.86-3.04,1.87-4.7,2.37c-7.35,2.24-9.77,7.61-10.45,14.77
		c-1.29,13.75-3.18,27.43-4.76,41.15c-1.01,8.79-5.19,14.6-12.68,19.17c-11.89,7.26-23.6,11.63-37.42,4.99
		c-7.37-3.54-16.18-3.8-22.68-9.57c-2.74-5.49-5.48-10.99-8.23-16.48c14.5-11.19,30.82-19.51,46.1-29.47
		c8.13-5.3,16.36-10.44,24.9-15.04c-9.24,4.85-19.21,7.92-28.89,11.62c-14.26,5.46-28.51,10.96-42.82,16.3
		c-2.51,0.94-4.99,2.54-7.92,1.44c-9.35,2.75-18.33,6.46-27.17,10.52c-1.19,1.22-2.25,2.59-3.91,3.23
		c-20.93,9.79-42.99,10.2-65.32,7.48c-9.42-1.15-18.9-1.89-28.25-3.54c-0.79-0.22-1.6-0.37-2.41-0.44
		c-5.42-0.81-9.52,1.08-12.99,5.41c-6.12,7.63-14.04,11.76-24.1,10.79c-3.01-0.29-5.9-0.98-8.06-3.37
		c-8.37-4.52-15.47-10.22-18.66-19.68c-0.3-0.89-0.98-2.27-1.61-2.34c-11.33-1.29-9.26-11.45-11.93-18.25
		c-2.6-6.64-0.01-12.75,3.61-18.41c2.43-3.79,4.92-7.54,7.46-11.26c3.39-4.97,7.45-8.43,14.17-7.02c2.32,0.49,5.02,0.6,6.58-2.24
		C203.09,398.59,214.99,376.97,226.88,355.34z"/>
	<path class="st5" d="M140.32,213.75c-12.95,6.61-6.2,17.22-4.99,26.06c2.06,15.08,5.73,29.95,8.71,44.91
		c0.24,1.23,0.54,2.46,0.64,3.7c0.97,13.03-6.8,18.65-18.93,13.54c-10.87-4.58-18.61-12.83-24.31-22.76
		c-11.78-20.54-13.65-42.06-4.72-64.23c2.97-7.37,7.45-13.72,14.07-18.21c7.12-4.82,13.8-2.89,17.33,4.62
		C132.07,209.75,132.07,209.75,140.32,213.75z"/>
	<path class="st3" d="M236.93,484.65c0.56,0.08,1.12,0.16,1.67,0.24c2.66,4.03,0.29,7.84-0.83,11.51
		c-3.44,11.29-6.61,22.66-9.8,34.01c-2.4,8.53-2.37,8.97,6.12,9.76c15.71,1.46,30.71,4.78,44.03,13.8c2.92,1.98,5.81,3.95,8.36,6.39
		c3.9,3.74,6.83,3.12,9.49-1.56c8.33-14.61,17.16-28.94,25.45-43.57c5.43-9.58,11.9-18.8,10.6-30.72c-0.14-1.26,0.81-2.34,1.49-3.39
		c0.77-1.12,1.91-1.3,3.14-1.24c0.49,11.13-1.14,22.2,1.13,33.47c1.75,8.64-4.67,16.14-8.04,23.85c-6.91,15.84-14.25,31.51-21.92,47
		c-4.62,9.33-4.64,18.4-2.3,28.34c4.66,19.81,11.19,38.96,18.42,57.92c0.9,2.35,2.49,4.8,1.2,9.57c-4.6-12.12-8.63-22.52-12.5-32.98
		c-5.65-15.27-11.18-30.59-16.8-45.88c-0.76-2.08-1.07-5.07-3.43-5.46c-2.53-0.42-3.15,2.67-4.57,4.32
		c-10.23,11.94-15.55,25.92-17.49,41.35c-5.33-3.13-6.59-8.53-7.84-13.96c-0.11-3.41,1.19-6.45,2.84-9.25
		c3.18-5.41,1.2-8.86-3.69-11.74c-5.02-2.96-10.25-5.38-15.84-6.93c-20.34-5.65-40.91-10.3-61.79-13.49
		c-2.82-0.43-5.4-1.07-7.5-3.08c-3.23-0.1-4.99-1.11-4.33-4.98c1.64-9.59,3.24-19.2,4.23-28.87c0.52-5.07,4.7-4.3,7.34-6.03
		c7.94-5.75,17.03-3.45,25.52-2.85c6.7,0.47,9.52-1.42,11.09-7.71c3.15-12.66,7.4-25.02,10.96-37.57
		C232.42,491.13,232.81,486.82,236.93,484.65z"/>
	<path class="st20" d="M176.55,582.89c24.96,3.66,49.72,8.28,73.78,16.09c1.66,0.54,3.3,1.17,4.9,1.86
		c16.09,6.96,16.24,7.38,9.41,23.47c-0.48,1.13-0.6,2.42-0.89,3.63c-1.85,5.23-3.13,10.77-7.86,14.45
		c-7.89-0.43-15.71-1.08-22.08-6.61c2.26-6.46,7.95-5.16,12.47-4.73c5.75,0.55,8.89-0.32,7.84-6.91c-0.28-1.77,0.5-3.42,1.35-4.99
		c3.31-6.12,3.11-9.71-3.46-10.76c-10.8-1.72-19.92-8.05-30.79-9.14c-5.08-0.51-6.86,1.3-7.35,5.81c-0.25,2.24-0.64,4.47-0.73,6.72
		c-0.28,7.27,1.97,9.98,9.08,11.09c7.73,1.2,9.84,3.92,9.41,12.12c-2.99,2.23-5.64,0.14-8.31-0.76c-6.79-2.29-13.05-5.9-19.86-8.08
		c-4.03,1.95-1.78,7.59-5.66,9.62c-11-2.22-19.66-8.78-28.36-15.28C171.82,607.96,174.18,595.43,176.55,582.89z"/>
	<path class="st7" d="M90.82,168.86c-5.21,5.77-4.86,14.54-11.32,19.86c-6.07,5-7.89,4.9-11.09-2.46
		c-11.88-27.31-4.83-51.48,11.93-74.2c4.04-5.48,8.8-10.22,13.54-15.01c1.48-1.5,3.3-3.03-0.5-3.84c5.97-4.74,14.9-1.04,16.49,7.28
		c1.14,5.97,0.72,11.74-3.67,17c-4.21,5.03-9.65,8.7-13.61,14.01c-7.34,9.84-8.53,19.98-3.34,31.01
		C90.2,164.49,91.68,166.4,90.82,168.86z"/>
	<path class="st21" d="M211.26,263.96c-2.94,2.68-5.89,5.35-8.83,8.03c-12.76,5.93-33.23-5.78-33.34-23.56
		c-0.09-13.63,0.46-26.97,6.09-39.75c3.01-6.84,8.26-9.94,15.03-10.95c3.71-0.55,7.63-0.28,9.34,4.21
		c-5.23,4.55-3.18,10.69-3.12,16.15C196.64,234.84,201.78,250.14,211.26,263.96z"/>
	<path class="st0" d="M236.93,484.65c-4.98,16.52-10.17,32.97-14.83,49.58c-1.76,6.26-3,9.95-11.44,8.08
		c-8.61-1.91-17.95-1.23-26.88,0.7c2.61-14.52,5.22-29.05,7.83-43.58c14.34,4.16,25.57,0.13,33.64-12.58
		C228.26,482.13,232.89,484.62,236.93,484.65z"/>
	<path class="st22" d="M169.46,620.5c9.43,4.96,18.86,9.91,28.28,14.87c3.18,6.44-0.14,12.62-1.56,18.53
		c-1.3,5.38-2.31,10.98-4.44,16.2c-6.92,5.33-14.98,8.63-22.55,12.81c-2.49,1.38-4.38,0.32-6.17-0.96
		c-2.53-1.81-0.14-3.62,0.53-5.17c4.85-11.26,4.9-11.23-3.29-17.06C163.33,646.64,166.39,633.57,169.46,620.5z"/>
	<path class="st23" d="M24.68,143.64c-1.86,25.21-7.03,50.57,5.88,74.57c3.06-0.79,3.11-3.21,4.17-4.79
		c3.95-5.85,9.25-8.64,16.17-6.61c6.96,2.04,10.82,7.27,11.76,14.28c0.85,6.35-4.57,11.03-12.36,10.92
		c-5.6-0.08-10.82-1.91-16.53-4.96c-6.05,26.3,1.34,49.64,14.6,72.16c-4.37,0.46-4.77-2-5.72-3.52
		c-12.92-20.76-16.39-43.4-13.06-67.31c0.36-2.55,0.9-4.75-0.77-7.12c-10.01-14.2-10.45-30.56-9.89-46.95
		C19.3,163.94,20.2,153.54,24.68,143.64z"/>
	<path class="st24" d="M101.02,163.27c-10.07-17.03-8.4-29.98,5.56-43.9c3.37-3.36,6.97-6.6,9.74-10.42
		c4.04-5.56,4.23-11.97,0.46-17.64c-3.02-4.54-7.8-6-13.19-3.69c-10.62,1.78-19.13,6.93-25.55,15.64
		c-9.38,12.72-14.58,27.3-19.13,42.2c-0.51,1.68,0.19,4.91-2.91,4.03c-2.31-0.65-0.64-3.16-0.27-4.57
		c4.1-15.59,9.63-30.66,19.42-43.64c9.36-12.4,21.94-18.7,37.77-17.65c10.95,7.27,12.86,17.94,5.26,28.79
		c-2.61,3.73-6,6.63-9.32,9.65c-11.66,10.58-13.96,22.89-6.75,35.31c3.69,7.85,10.62,9.7,18.47,10.55
		c7.52,0.81,13.25-4.73,21.35-6.09C132.01,173.74,114.05,173.86,101.02,163.27z"/>
	<path class="st21" d="M175.16,203.67c1.45-14.36,7.07-26.83,17.05-37.25c1.67-1.75,3.85-3.77,6.49-2.75
		c2.47,0.95,1.65,3.81,2.26,5.89c2.8,9.54-1.35,18.62-1.57,27.94C190.55,196.54,182.87,200.19,175.16,203.67z"/>
	<path class="st24" d="M175.16,203.67c7-6.28,14.72-9.75,24.24-6.17c17.61,10.42,22.72,26.58,13.35,42.38
		c-1.24,2.09-2.16,4.63-6.76,5.37c9.95-16.71,12.57-32.05-6.44-43.31c-10.64-4.41-18.15-1.97-22.81,7.9
		c-6.28,13.29-7.53,27.53-5.68,41.83c1.49,11.51,10.72,18.76,23.11,19.88c2.74,0.25,5.5,0.31,8.26,0.45
		c-1.48,1.38-2.96,2.75-4.45,4.13c-6.8,1.32-12.84-0.24-18.09-4.78c-15.63-11.61-12.93-28.15-11.6-44.13
		C168.97,218.99,171.91,211.24,175.16,203.67z"/>
	<path class="st23" d="M330.88,152.16c-1.68,0.49-3.37,0.97-5.05,1.46c-1.49-5.04,0.09-9.78,1.48-14.52
		c0.47-1.62,1.77-3.11,0.41-4.85c-3.35-8.38-10.44-6.72-16.65-5.55c-7.19,1.35-13.48,5.34-19.78,9.02
		c-12.57,7.33-24.48,15.82-37.85,21.75c-5.32,2.36-10.77,4.16-16.73,3.68c-8.24-0.67-14.03-6.94-14.01-15.39
		c0.72,0.28,1.69,0.34,1.97,0.81c7.25,12.19,11.88,13.78,25.17,8.52c13.88-5.49,25.81-14.43,38.62-21.8
		c7.61-4.38,15.17-8.89,23.99-10.5c9.8-1.79,14.92,0.72,19.65,9.55C336.18,140.58,333.46,146.36,330.88,152.16z"/>
	<path class="st12" d="M180.32,361.32c0.51,9.55-1.4,18.62-8.98,25.21c-6.44,5.6-13.63,3.14-20.49,0.15
		c-5.05-2.2-10.04-4.54-15.15-6.6c-6.84-2.76-11.78,0.81-15.67,5.71c-3.75,4.73-4.83,9.95,0.35,14.78c0.84,0.78,2.23,1.66,0.89,3.05
		c-1.21,1.25-2.32,0.23-3.26-0.53c-4.12-3.35-5.45-7.71-4.17-12.78c2.73-10.8,14.18-16.97,24.68-13.05
		c5.85,2.19,11.37,5.28,17.19,7.58c8.7,3.44,13.47,1.38,17.91-6.86C176.48,372.65,176.91,366.54,180.32,361.32z"/>
	<path class="st25" d="M327.71,134.25c2.61,6.77-0.41,13-1.88,19.37c-14.06,1.42-27.95-1.64-41.96-1.53
		c15.39-0.18,26.9-11.15,41.07-14.73C326.7,136.91,327.39,135.82,327.71,134.25z"/>
	<path class="st26" d="M126.57,320.08c-23.45,2.1-48.01-10.25-70.51,6.79c-0.41-5.38,3.47-6.76,6.49-8.49
		c5.82-3.34,12.47-4.08,18.93-4.14C96.68,314.09,111.64,316.57,126.57,320.08z"/>
	<path class="st27" d="M179.89,271.34c6.03,1.59,12.06,3.19,18.09,4.78c-4.05,5.8-7.85,11.75-10.49,18.35
		c-0.43-5.9-4.34-10.51-5.95-15.99C180.85,276.12,179.33,273.99,179.89,271.34z"/>
	<path class="st28" d="M330.88,152.16c-0.97-6.04,2.46-11.77,1.21-17.83c3.01-0.06,6.02-0.11,9.04-0.17
		C342.9,147.67,342.9,147.67,330.88,152.16z"/>
	<path class="st26" d="M37.32,118.77c-1.76-8.54,3.26-18.17,12.17-22.67C45.06,104.56,39.55,110.84,37.32,118.77z"/>
	<path class="st29" d="M186.71,348.78c-0.56,2-1.79,3.03-3.83,2.69c-1.65-0.27-2.81-1.36-2.59-3.05c0.26-2,1.69-3.01,3.73-2.64
		C185.61,346.07,186.64,347.07,186.71,348.78z"/>
	<path class="st30" d="M147.63,322.55c0.06,1.73-0.96,2.75-2.46,3.1c-1.62,0.38-2.92-0.31-3.15-2.07c-0.24-1.81,0.04-3.48,2.45-3.49
		C146.13,320.08,147.13,321.02,147.63,322.55z"/>
	<path class="st31" d="M380.68,500.97c11.47,3.59,23,7.02,34.39,10.88c3.65,1.24,6.79,1.36,10.02-0.66c0.64-0.4,1.31-0.8,2.02-1.02
		c18.96-5.85,26.27-18.97,26.12-38.4c-0.09-11.61,2.9-23.23,4.13-34.88c0.42-4.02,3.42-4.59,5.95-5.93
		c8.15-4.32,16.4-8.08,22.38-15.88c10.54-13.72,12.17-28.11,5.71-43.78c-1.05-2.54-2.66-4.9-2.14-7.85c3.74,0.35,4.38,3.6,5.44,6.18
		c1.58,3.86,3.09,7.73,4.89,11.5c2.25,14.01,5.02,27.93,7.79,41.84c3.9,12.46,2.95,25.16,1.91,37.87
		c-0.33,4.04-1.41,7.85-3.23,11.47c-1.63,16.65-4.49,33.18-4.95,49.94c1.33,1.81-0.77,2.69-1.09,4.04
		c-2.6,20.82-5.21,41.64-7.81,62.46c-21.68-0.07-43.28,1.77-64.92,2.8C411.74,561.36,396.21,531.16,380.68,500.97z"/>
	<path class="st7" d="M506.05,472.31c0.39-4.96,0.49-9.97,1.24-14.88c1.81-11.76,0.14-23.31-1.64-34.87
		c1.42-3.68,4.93-4.78,7.99-6.35c22.29-11.46,43.98-23.84,62.8-40.64c8.71-5.36,17.82-10.11,25.66-16.83
		c20.49-17.58,29.68-40.59,31.72-66.78c1.33-17.07,0.84-34.06-5.45-50.46c-3.37-8.8-8.43-16.43-14.06-23.81
		c-2.02-4.78-4.07-10.79,1.25-13.41c5.24-2.59,7.37,3.88,9.37,7.49c15.17,27.39,26.2,56.29,31.01,87.36
		c-1.96,9.15-9.5,13.93-15.75,19.89c5.63-3.08,8.1-9.88,14.63-11.58c1.1,3.12-1.06,6.93,2.05,9.62c0.02,4.37-3.7,6.26-6.1,8.94
		c-4.66,5.21-10.23,9.58-13.98,15.63c-4.81,7.77-4.59,10.5,1.67,17.17c3.39,3.62,7.43,6.81,8.24,12.19
		c-2.13,5.12-5.65,9.66-6.43,15.36c-9.76,6.06-21.06,5.96-31.83,7.97c-8.63,1.61-17.37,2.78-25.35,6.83
		c-7.86,3.99-10.74,9.66-9.33,18.4c2.18,13.44,0.27,17.1-12.9,22.14c-12.94,4.95-24.79,11.08-31.83,23.83
		c-0.7,1.26-1.61,2.64-3.49,2.33C519.05,469.32,512.55,470.81,506.05,472.31z"/>
	<path class="st7" d="M632.2,391.89c-15.65,23-35.26,41.78-59.26,55.99c-13.18,7.8-27.19,13.61-41.69,18.33
		c-0.71-6.41,3.98-9.76,7.94-13.26c6.88-6.07,15.49-9.01,23.89-12.26c10.01-3.87,12.62-8.4,10.8-18.86
		c-2.15-12.36,1.76-18.91,14.4-23.25c10.44-3.58,21.4-4.83,32.29-6.1C624.38,392.04,628.21,389.32,632.2,391.89z"/>
	<path class="st24" d="M632.2,391.89c-12.33,2.16-24.68,4.23-36.99,6.53c-3.18,0.59-6.33,1.63-9.3,2.9
		c-9.57,4.09-12.49,9.76-10.46,19.74c2.35,11.55-0.25,16.69-11.22,21.02c-11.72,4.63-23.65,8.83-30.99,20.14
		c-0.8,1.24-1.33,2.66-1.98,3.99c-5.28,7.34-5.6,16.54-9.37,24.55c-2.63-8.28,2.24-15.34,3.67-22.93
		c7.1-13.95,18.73-22.13,33.2-27.39c14.71-5.34,15.25-6.91,12.9-21.98c-1.28-8.22,1.79-14.6,9.35-18.6
		c11.53-6.09,24.41-6.85,36.93-8.98c7.58-1.29,15.3-2.01,22.12-6.07c2.08-4.49,6.04-8.15,5.99-13.58
		c-2.18-4.92-6.37-8.19-9.87-12.03c-5.99-6.57-6.32-10.56-1.49-17.97c6.05-9.29,15.12-15.82,22.18-24.19
		c4.34-3.56,8.69-7.12,12.89-10.56c-2.12,7.61-10.12,11.52-14.61,17.95c-2.45,5.12-7.03,8.42-10.65,12.54
		c-6.79,7.71-11.21,14.98-0.58,22.83c1.85,1.37,2.71,3.57,3.39,5.75c6.04,11.49,3.6,18.54-8.26,23.73
		C636.81,390.25,634.49,391.02,632.2,391.89z"/>
	<path class="st23" d="M654.81,307.42c-6.04,4.97-10.36,11.99-18.43,14.8c5.26-8.14,14.22-13.24,18.44-22.14
		c0.05-3.61,1.78-6.75,2.84-10.08c7.83-24.65,8.11-48.86-5.2-71.92c-10.74-18.6-25.31-25.52-46.7-22.38
		c-5.76,0.85-11.49,1.06-17.26,0.93c-14.2-0.31-22.45-7.02-25.65-20.69c-0.23-0.98-0.4-1.97-0.61-2.95
		c-3.43-15.61-6.56-17.88-22.06-16.04c-1.61-1.27-1.14-3.06-1.2-4.72c15.18-4.71,23.81,0,27.49,14.99
		c5.65,23.01,10.89,26.51,34.82,23.27c35.07-4.75,61.04,15.56,65.95,51.43C670.42,265.18,668.34,287.37,654.81,307.42z"/>
	<path class="st12" d="M646.51,160.87c2.25-4.79,6.9-5.35,10.87-6.96c6.95-2.83,14.27-4.88,20.93-8.24
		c9.46-4.78,12.87-12.64,10.22-20.91c-3.34-10.42-14.34-18.8-23.48-17.89c-6.53,0.65-9.63,6.69-8.02,15.81
		c0.24,1.33,1.97,2.99-0.16,3.74c-2,0.7-3.38-0.88-3.5-2.87c-0.4-6.3-0.84-12.7,4.51-17.49c5.02-4.48,10.6-3.75,16.19-1.31
		c7.14,3.11,12.65,8.01,16.18,15.05c5.09,10.13,2.83,19.96-6.37,26.52C672.72,154.28,658.96,155.76,646.51,160.87z"/>
	<path class="st32" d="M647.3,365.55c-15.83-15.48-15.87-17.77-0.36-33.46c2.63-2.66,5.47-5.11,8.21-7.66
		C654.83,338.57,650.76,352,647.3,365.55z"/>
	<path class="st33" d="M636.28,424.72c-0.83,1.9-2.56,2.11-4.29,2.39c-5.93,0.96-11.85,1.97-17.78,2.93
		c-12.3,1.98-19.58,9.29-22.47,21.22c-1.18,4.87-2.18,9.78-3.44,14.62c-0.27,1.03-0.79,2.74-2.29,2.45
		c-2.08-0.4-1.57-2.06-1.18-3.58c1.18-4.6,2.46-9.18,3.4-13.84c3.11-15.46,13.52-22.7,28.13-25.24c5.42-0.94,10.9-1.6,16.33-2.47
		C634.28,422.95,635.71,422.7,636.28,424.72z"/>
	<path class="st34" d="M500.01,526.29c0.36-1.35,0.73-2.7,1.09-4.04c20.8-2.89,39.04-12.36,57.24-22.04
		C541.49,514.66,521.58,522.32,500.01,526.29z"/>
	<path class="st33" d="M688.19,232.03c-2.76-16.42-8.8-31.46-17.2-45.6C678.85,185.89,691.95,219.1,688.19,232.03z"/>
	<path class="st35" d="M657.61,407.96c2.51-4.71,5-9.42,7.53-14.11c0.47-0.87,1.13-1.72,2.32-1.4c1.24,0.33,1.43,1.43,0.99,2.32
		c-2.54,5.16-4.3,10.88-9.12,14.47C658.75,408.82,658.18,408.39,657.61,407.96z"/>
	<path class="st36" d="M683.6,279.6c-2.39-5.48-0.85-10.48,1.49-15.39C688.06,269.66,686.22,274.66,683.6,279.6z"/>
	<path class="st37" d="M635.88,179.38c-2.18,0.2-3.19-0.63-3.33-2.36c-0.12-1.55,0.29-3.05,2.07-3.27c1.92-0.24,3.33,0.76,3.49,2.77
		C638.25,178.23,636.92,178.97,635.88,179.38z"/>
	<path class="st38" d="M363.83,469.34c23.33-9.05,46.64-18.16,70.01-27.08c4.31-1.64,8.33-4.48,15.49-4.24
		c-9.77,6.13-17.88,11.25-26.01,16.32c-15.07,9.41-30.14,18.83-45.27,28.15c-1.65,1.02-3.72,1.35-5.6,2
		C369.58,479.44,366.7,474.39,363.83,469.34z"/>
	<path class="st13" d="M293.5,99.43c-5.65,0.33-9.34-0.81-8.89-4.78c0.67-5.82,5.71-7.97,10.94-8.5c3.23-0.33,6.64,1.6,6.09,5.05
		C300.83,96.37,296.74,98.99,293.5,99.43z"/>
	<path class="st39" d="M424.22,111.58c2.03-0.73,4.06-1.46,6.09-2.19c0.16-1.4,1.13-2.19,2.3-2.65c3.28-1.3,7.9-2.97,9.27,0.71
		c1.46,3.9-3.52,4.24-6.42,5.19c-0.71,0.23-1.45,0.33-2.18,0.43c-6.49,1.4-13.02,2.7-16.51,4.33c3.1-1.73,9.53-2.33,15.56-4.17
		c2.07-0.05,4.07-0.84,6.16-0.67c6.5,0.03,13-0.03,19.49,0.02c6.79,1.43,14.42,0.77,19,7.67c1.76,3.73,2.86,7.73,4.41,11.55
		c0.56,0.96,1.07,1.95,1.53,2.96c3.18,7.85,6.23,15.75,9.18,23.7c0.96,2.59,1.98,5.12,1.47,7.96c-0.1,1.57-0.05,3.08,1.43,4.09
		c4.59,4.06,5.13,10.13,7.62,15.24c2.67,7.41,5.94,14.64,6.58,22.63c0.04,2.39,0.01,4.78-0.5,7.13
		c-3.62,15.54-6.98,31.14-10.76,46.65c-2.71,11.16,2.33,21.58,4.01,32.31c0.07,0.42,1.11-0.52,1.81-0.54
		c0.73,0.28,1.25,0.76,1.61,1.45c1.36,7.93,1.14,16.08,3.44,23.86c0.4,2.39,0.55,4.84,1.55,7.1c1.54,5.26,3.48,10.46,3.27,16.04
		c-0.14,3.72-0.43,7.55-4.17,9.82c-3.7,0.45-5.24-2.49-7.13-4.71c-12.07-14.11-23.57-28.71-35.86-42.62
		c-5.91-6.69-7.26-13.92-6.15-22.26c2.78-20.96,1.59-41.29-7.04-61.17c-5.58-12.84-9.69-26.37-14.64-39.52
		c-4.92-13.07-7.45-14.74-21.65-15.16c-8.92-4.22-17.37-9.56-27.14-11.86c-7.97-3.99-12.83,1.16-17.78,6.07
		c-2.24,0.83-4.42,0.87-6.49-0.49c-1.33-5.65,3.66-6.85,6.72-9.3c2.15-1.72,4.82-2.77,7.52-3.18c5.28-0.8,7.25-3.65,6.36-8.82
		c-0.25-1.45-0.02-2.98,0.25-4.47c2.62-8.1,8.22-13.07,16.28-15.42c1.35-0.02,2.61-0.26,3.46-1.46
		C411.25,113,416.95,110.01,424.22,111.58z"/>
	<path class="st39" d="M365.42,159.92c2.63-0.07,5.27-0.14,7.9-0.21c3.45-2.62,7.04-0.33,10.57-0.31c6.76,2.31,15.1,0.62,19.94,7.82
		c0.96,8.47,1.3,16.96,1.49,25.5c0.17,7.59-2.71,12.09-9.69,15.09c-11.79,5.07-23.88,9.26-35.89,13.7
		c-5.62,1.11-11.2,2.52-16.89,3.19c-2.77,0.32-6.83,0.92-6.14-3.94c0.73-5.17-2.51-4.58-5.46-4.35c-15.11,1.19-29.41,4.95-42,13.83
		c-1.46,1.03-3.01,1.77-4.87,1.49c-7.91-4.96-8.83-7.03-6.93-15.56c0.44-1.42,1.04-2.78,1.51-4.19c1.55-3.92,3.12-7.84,4.71-11.75
		c0.59-1.28,1.23-2.53,1.79-3.82c2.69-7.87,7.36-13.92,15.45-16.82c2.22-1.03,4.57-1.73,6.8-2.73c1.59-0.72,3.2-1.41,4.84-2.01
		c4.71-1.52,9.38-3.16,14.09-4.69c1.37-0.43,2.71-0.97,4.07-1.43c6.01-1.51,11.53-5.06,18.08-4.27c1.14-0.13,2.28-0.25,3.42-0.38
		C356.04,160.88,360.23,158.81,365.42,159.92z"/>
	<path class="st20" d="M274.67,336.62c-10.73-2.03-19.54-8-28.46-13.76c-1.01-1.86-0.1-3.51,0.55-5.19
		c1.86-3.49,3.91-6.88,6.06-10.18c3.2-4.91,5.93-9.73,2.98-15.79c-0.54-1.11-0.01-2.42,1.2-3.18c1.6-0.02,3.85,5.3,4.72-0.58
		c-1.09-8.2,2.74-15.51,4.18-23.26c0.47-1.43,1.06-2.81,1.6-4.22c1.43-8.96,1.94-18.33,10.6-24.12c0.58-0.53,1.21-0.98,1.88-1.4
		c12.34-7.56,24.27-16.1,39.22-17.81c5.22-0.6,10.36-1.75,15.6-2.07c1.45-0.09,3.17-0.24,3.78,1.61c0.56,1.69-0.57,2.83-1.66,3.88
		c-3,2.88-6.82,4.24-10.67,5.37c-7.71,2.27-15.35,4.73-23.67,8.33c4.94-1.85,9.07-3.12,12.86-4.95c12.47-6.03,25.24-1.66,37.86-1.56
		c2.58,0.02,4.97,1.52,5.17,4.55c0.19,2.88-1.89,4.5-4.15,5.78c-5.76,3.25-12.41,3.17-18.41,2.81c-9.31-0.56-17.7,2.88-24.2,3.47
		c10.24-2.7,22.94-5,35.94-2.38c3.2,0.64,8.09,0.05,7.92,5.02c-0.18,5.43-5.26,6.02-9.07,5.66c-12.75-1.2-24.8,3.49-35.1,3.5
		c10.93-1.93,24.07-2.25,37.13,0.82c3.02,0.71,7.16,0.62,7.14,5.16c-0.01,4.22-3.34,5.88-6.93,6.81c-4.15,1.08-8.33,1.94-12.66,1.14
		c-2.74-0.51-5.45-0.6-8.23-0.11c-18.03,3.13-18.95,3.87-24.84,21.23c-0.89,2.61-1.88,5.23-2.52,7.87
		c-2.63,10.84-8.47,18.49-19.73,21.15c-0.15,0.7-0.33,1.37-0.47,2.07C278.52,327.11,279.31,332.93,274.67,336.62z"/>
	<path class="st21" d="M190.52,298.87c1.53-9.32,6.55-16.61,13.31-22.89c4.79-2.42,9.58-2.43,14.37-0.02
		c7.83,8.07,13.25,17.87,19.46,27.12c0.43,3.92-2.17,6.4-4.42,8.97c-5.85,6.69-11.92,13.26-6.54,23.11c-2.1,1.4-3.87,0.34-5.49-0.87
		C208.4,324.72,197.6,313.4,190.52,298.87z"/>
	<path class="st40" d="M546.71,204.97c1.53,11.67,0.89,12.5-9.69,12.46c-14.84-0.06-22.66-7.39-23.45-24.04
		c-0.7-14.73-1.98-29.37-3.43-44.02c-0.41-1.61,0.49-1.88,1.78-1.75c3.02,6.23,11.39,8.23,12.59,15.91
		c-3.02,6.82-6.99,13.23-6.79,21.2c0.24,9.56,2.6,14.05,11,18.83c-0.88-0.49,0.47,0.13,0.2-0.02c-15.02-8.64-12.64-20.94-7.19-33.86
		c0.88-2.09,2.1-4.07,4.79-4.27c3.5,1,4.92,4.1,6.69,6.78C539.83,182.24,544.22,193.22,546.71,204.97z"/>
	<path class="st41" d="M594.87,359.36c5.39-8.38,11.26-16.5,16.09-25.2c17.56-31.61,17.36-64.92,8.69-98.92
		c-0.37-1.44-0.48-2.94-0.71-4.41c7.04,9.56,9.98,20.74,11.14,32.15c2.96,29.11-0.23,57.06-18.82,81.23
		C606.7,350.14,601.75,355.85,594.87,359.36z"/>
	<path class="st42" d="M244.9,230.64c2.36-7.37,0.99-15.71,5.86-22.42c1.19,1.13,1.6,2.62,1.34,4.12
		c-3.28,18.57,2.79,34.43,14.02,48.83c0.79,1.01,1.11,2.23,1.21,3.49c-1,7.97-3.29,15.63-5.61,23.28
		c-5.06-6.52-10.12-13.05-15.17-19.57c-1.84-8.38-4.29-16.68-3.3-25.42C245.46,239.07,244.33,234.74,244.9,230.64z"/>
	<path class="st28" d="M365.42,159.92c-4.41,1.38-8.82,2.77-13.23,4.15c-9.51-13.45-1.61-23.24,6.93-32.88
		c2.2-1.45,4.38-1.93,6.45,0.23c-1.63,3.88-3.35,7.71-4.85,11.64c-0.89,2.32,0.5,4.53,2.55,4.24c4.69-0.66,9.15-2.48,12.92-5.55
		c0.44-0.36,0.79-1.44,0.57-1.89c-1.16-2.35-3.17,0.87-4.66-0.67c2.29-2.64,4.58-5.27,6.88-7.9c3.49-0.45,6.99-0.94,9.09,2.92
		c0.12,0.97,0.16,1.97,0.39,2.92c1.96,8.33-1.3,12.7-9.77,13.99C373.12,151.98,368.96,155.64,365.42,159.92z"/>
	<path class="st25" d="M277.75,165.77c2.55-2.71,5.09-5.42,8.07-8.59c-2.47-0.18-4.56-0.33-6.65-0.49
		c5.78-2.7,11.87-1.42,17.69-0.76c9.24,1.05,18.44,1.22,27.68,1.01c2.73,4.54,3,9.53,2.72,14.63c-4.74,1.85-9.34,4.08-14.48,4.7
		c-3.26-0.5-6.17-1.95-8.97-3.56c-7.07-4.07-14.57-6.23-22.79-5.54C279.75,167.28,278.58,166.86,277.75,165.77z"/>
	<path class="st43" d="M520.79,217.3c6.97,2.84,14.09,4.76,21.7,3.19c3.5-0.72,4.36,0.96,4.18,4.07c-0.23,3.97-0.23,7.95-0.34,11.92
		c-1.92,7.08-7.78,11.24-13.21,14.59c-5.96,3.68-6.22-2.78-7.35-6.6c-0.38-6.56-3.04-12.53-4.86-18.72
		C520.09,222.98,518.4,220.14,520.79,217.3z"/>
	<path class="st23" d="M507.44,144.38c3.37-6.94,1.09-13-2.97-18.76c-4.84-6.86-11.78-10.72-19.47-13.46
		c-2.95-1.05-4.65-0.54-4.57,3.28c0.12,5.76-0.27,11.53-0.44,17.29c-1.43-3.56-2.86-7.13-4.3-10.69c-0.28-9.93-0.96-10.55-10-8.94
		c-2.19,0.39-4.52,0.15-6.55,1.37c-7.15-0.01-14.3-0.03-21.45-0.04c1.67-0.36,3.37-1.14,5-1.01c6.56,0.53,12.6-0.19,18.17-4.33
		c3.96-2.95,9.12-1.76,13.86-2.33c0.66-4.22-3.04-6.62-3.98-10.08c1.69,0.51,3.39,1.02,5.08,1.54c1.71,6.16,5.47,9.47,11.86,11.54
		c12.4,4.03,21.7,11.81,24.78,25.49c0.99,4.41-0.38,8.38-0.78,12.54c-0.52,0.53-1.03,1.05-1.55,1.58
		C508.6,148.05,507.8,146.33,507.44,144.38z"/>
	<path class="st44" d="M507.58,207.86c-1.91,14.8,4.16,25.52,16.72,33.05c1.19,0.72,1.88,2.28,2.8,3.46
		c0.86,2.28,1.72,4.56,3.06,8.1c5.85-5.78,11.01-10.89,16.17-15.99c0.01,2.47,1.21,2.94,3.28,1.95c-0.99,4.63-1.97,9.27-2.96,13.9
		c-1.51-0.79-1.8-2.52-2.88-3.64c-8.35,1.82-10.83,8.77-13.62,15.44c-3.01,14.8-14.01,22.77-25.75,30.11c0,0-0.38,0.22-0.38,0.22
		l-0.44-0.05c-0.93-1.41-0.84-2.9-0.34-4.41c1.74-3.28,5.26-4.48,7.9-6.71c7.4-6.26,13.82-13.11,13.8-23.7
		c-0.04-1.44-0.01-2.89-0.18-4.32c-0.9-7.79-5.59-12.99-11.67-17.3c-2.78-1.97-6.16-3.39-7.29-7.1c-0.37-5.03,0.76-9.93,1.18-14.89
		C507.19,213.28,507.38,210.57,507.58,207.86z"/>
	<path class="st27" d="M481.28,134.39c6.73,1.14,12.07,5.37,18.08,8.13c1.22,0.56,2.2,2.29,3.69,0.47
		c4.81,10.17,3.78,12.73-9.46,23.41C489.14,155.86,484.59,145.36,481.28,134.39z"/>
	<path class="st45" d="M235.52,340.89c-3.05-1.93-6.1-3.86-9.15-5.8c-6.01-9.22-5.8-10.41,1.06-18.76c3.42-4.16,7.8-7.72,9.24-13.28
		c-0.33-0.95-0.84-1.89-0.75-2.9c0.95-10.5-3.59-17.36-13.57-20.72c-1.17-0.39-2.3-1.02-3.34-1.73c-4.9-1.95-10.1-1.34-15.18-1.72
		c0.75-1.42,1.78-2.51,3.39-2.93c2.41-1.71,4.86-1.94,7.35-0.17c1.72,0.28,3.45,0.52,5.16,0.86c18.86,3.67,24.94,13.48,20,32.26
		c-0.38,5.07-3.47,8.64-6.7,12.16c-7.11,7.73-6.93,9.6,1.4,15.76c1.17,0.87,2.68,1.43,2.82,3.2
		C236.68,338.38,236.1,339.63,235.52,340.89z"/>
	<path class="st46" d="M549.68,233.58c8.82-3.46,17.4-7.05,27.41-6.28c20.94,1.62,41.59,22.59,42.02,43.53
		c0.02,1.18,0.34,2.49-2.16,3.57c-2.84-15.77-8.95-29.72-23.33-38.08c-15.01-8.73-29.74-7.21-43.94,2.25
		C549.68,236.91,549.68,235.24,549.68,233.58z"/>
	<path class="st47" d="M510.09,196.2c-4.68-2.14-4.47-8.46-9.1-10.64c-2.85-4.68-4.18-9.97-5.97-15.07
		c3.81-4.24,7.61-8.48,12.92-14.39C508.71,170.64,509.4,183.42,510.09,196.2z"/>
	<path class="st48" d="M348.78,164.45c-5.76,2.8-11.9,4.48-18.1,5.97c-5.19-3.97-4.27-8.66-1.57-13.54
		c4.67-2.17,9.34-4.33,14.31-6.64C345.21,154.98,346.99,159.71,348.78,164.45z"/>
	<path class="st49" d="M535.92,156.87c-3.56,2.46-7.02,5.02-9.3,8.83c-4.89,5.17-6.77,11.61-7.22,18.44
		c-0.59,8.99,3.16,14.64,11.3,18.39c1.63,0.75,4.14,0.36,4.78,2.9c-8.93,2.01-18.22-6.11-19.33-16.5
		c-1.04-9.77,2.33-18.17,7.49-26.11c3.62-3.49,7.25-6.98,10.87-10.47C536.19,153.48,535.83,155.25,535.92,156.87z"/>
	<path class="st50" d="M329.11,156.87c0.12,4.56-0.94,9.26,1.57,13.54c-1.14,0.39-2.27,0.78-3.41,1.16
		c-2.95-4.5-2.53-9.62-2.72-14.63C326.07,156.92,327.59,156.89,329.11,156.87z"/>
	<path class="st51" d="M345.8,132.69c2.88-0.52,5.75-1.05,8.63-1.57c-2,3.83-4.18,7.51-7.91,10.5
		C344.82,138.31,345.34,135.5,345.8,132.69z"/>
	<path class="st52" d="M214.58,272.89c-2.45,0.06-4.9,0.11-7.35,0.17c1.01-2.47,2.92-3.95,5.36-4.84
		C213.25,269.77,213.92,271.33,214.58,272.89z"/>
	<path class="st53" d="M453.65,603.04c6.49-2.6,13.17-1.66,19.37-3.42c2.49-0.71,3.57,0.59,4.76,2.43c3.4,5.3,4.65,11.1,3.68,17.19
		c-0.86,5.44-1.63,10.83-1.43,16.35c0.12,3.33-0.85,5.13-4.22,2.27C464.82,628.53,458,616.6,453.65,603.04z"/>
	<path class="st54" d="M480.05,644.34c-4.65,0.69-10.38-1.68-15.77-7.74c-7.12-8.01-14.2-16.18-18.52-26.2
		c-0.86-2-3.71-4.65-0.12-6.35c3.24-1.54,5.79,0.14,6.9,3.62c2.78,8.69,7.72,16.21,12.73,23.7
		C468.94,636.85,474.75,639.99,480.05,644.34z"/>
	<path class="st22" d="M256.35,641.64c-6.83,14.14-13.64,28.28-20.52,42.4c-1.22,2.5-2.19,5.02-2.36,7.79
		c-0.11,0.35-0.35,0.54-0.72,0.55c0-1.92-1.13-2.52-2.86-2.63c-4.81-0.32-9.09-2.3-13.35-4.37c-9.75-4.72-9.87-4.73-6.4-14.53
		c1.41-3.98,0.43-6.82-3.05-8.86c-3.43-2.01-6.96-3.83-10.45-5.73c-1.66-8.3,2.31-15.83,3.38-23.77c0.41-3.06,0.24-6.55,2.4-9.27
		c9.54,3.91,19.08,7.83,28.61,11.74c1.09-0.62,2.11-0.57,3.04,0.32C241.13,638.72,248.93,639.52,256.35,641.64z"/>
	<path class="st55" d="M202.42,623.24c-0.66,11.23-4.16,21.97-5.78,33.03c-2.16,4.42-1.57,9.82-4.9,13.82c2-11.57,4-23.15,6-34.72
		C200.06,631.62,197.42,625.95,202.42,623.24z"/>
	<path class="st22" d="M169,455.49c-1.15-9.47,4.6-15.51,10.55-21.14c3.44-3.25,7.42-5.12,12.99-3.54
		c4.91,1.39,10.44,0.74,15.7,0.75c19.61,0.06,39.23,0.56,58.81-0.18c11.55-0.44,22.72-0.09,33.94,2.92
		c6.65,1.78,13.48-0.5,20.01-1.93c6.13-1.35,6.89-6.43,1.88-10.46c-2.19-1.77-4.82-2.93-4.12-6.39c0.75-3.71,4.13-2.69,6.45-3.78
		c7.76-3.64,15.25-7.85,22.82-11.91c0.86-0.46,1.57-1.96,2.24-1.89c9.19,0.92,14.42-8.54,23.16-8.72c2.52-0.05,3.98-1.97,5.26-3.86
		c1.54-2.26,3.72-3.59,6.33-3.45c4.22,0.22,7.27-1.23,9.41-4.9c0.46-0.79,1.48-1.55,2.37-1.73c15.71-3.18,27.99-14.02,42.86-19.08
		c4.64-1.58,8.37-5.03,13.96-4.73c12.79,0.69,21.99,7.92,29.48,16.81c3.03,3.6,1.17,10.92,3.37,15.71
		c2.95,6.41,2.61,12.18-0.3,17.91c-4.68,9.21-12.15,16.01-21.35,20.38c-2.69,1.28-5.56,1.76-7.3,4.46c-1.32,2.06-3.39,3.28-5.67,3.2
		c-4.55-0.14-7.97,3.04-11.81,3.91c-11.55,2.64-21.53,9.26-33.23,11.65c-8.54,1.74-16.58,6.13-24.72,9.61
		c-12.09,5.18-23.89,11.25-37.51,11.17c-3.15-0.02-6.05,0-7.48,3.55c-0.36,0.88-1.09,2.07-1.86,2.25
		c-13.68,3.28-25.62,13.17-41.16,9.74c-6.48-1.43-13.52-0.55-20.3-0.37c-8.09,0.22-16.16-0.4-23.68-3.09
		c-11.29-4.05-22.84-2.46-34.29-3.41c-13.8-1.14-27.9-1.76-41.25-6.59C167.77,465.89,169.13,460.41,169,455.49z"/>
	<path class="st56" d="M508.97,351.67c-2.42,10.14-7.65,19.18-11.25,28.86c-4.42-4.9-3.36-12.52-8.47-17.09
		c-6.99-12.7-18.17-18.39-32.23-19.23c-2.97-0.18-5.95-0.16-8.93-0.23c-0.49-0.57-1.33-1.07-1.43-1.7
		c-1.88-11.35-9.91-19.14-15.84-28.23c-7.43-11.41-8.98-24.58-8.8-37.97c6.16-5.08,8.92-11.7,9.81-19.59
		c0.87-7.71,2.03-15.41,3.66-23.03c1.45-6.77-0.62-12.86-4.17-18.61c-4.22-6.83-8.18-13.82-12-20.88c1.09-6.4-0.28-18.73-2.94-26.59
		c-0.15-0.45,0.04-0.96,0.28-1.43c8.72-3.13,16.8-0.42,20.35,7.6c10.14,22.87,18.76,46.41,25.59,70.4
		c3.22,11.3,1.74,23.96,0.2,35.86c-1.13,8.71-1.54,16.22,5.02,23.53C481.95,319.09,495.3,335.52,508.97,351.67z"/>
	<path class="st0" d="M333.52,481.11c3.33,15.42-5.81,26.9-12.6,39c-7.72,13.75-16.37,26.99-23.79,40.89
		c-3.59,6.72-6.76,5.8-11.11,1.69c-10.31-9.74-22.6-15.65-36.38-18.34c-6.59-1.29-13.32-2.21-20.02-2.4
		c-5.82-0.17-6.69-1.86-5.05-7.3c4.98-16.5,9.4-33.16,14.04-49.76C270.45,488.82,302.39,495.03,333.52,481.11z"/>
	<path class="st22" d="M222.99,420.99c-5.28,0-10.56,0.14-15.83-0.05c-2.8-0.1-5.21-0.97-6.45-4.16c-1.36-3.49,1.67-3.9,2.94-5.78
		c3.82-5.65,9.9-9.99,10.81-17.41c0.27-2.21,1.36-4,3.15-4.86c3.82-1.83,4.77-4.8,4.41-8.64c-0.09-0.98-0.2-2.52,0.34-2.9
		c9.67-6.84,8.73-21.25,19.47-27.24c3.05-1.7,2.65-4.49,2.85-7.22c0.61-8.44,7.07-5.85,11.92-6.22c5.24-0.4,6.21,2.75,6.19,7.15
		c-0.03,7.58-0.13,14.99-5.76,21.09c-1.51,1.63-1.9,4.01-1.87,6.38c0.09,6.16,1.27,12.62-6.03,16.26c-2.13,1.06-1.7,4.1-1.45,6.31
		c0.83,7.34-1.59,14.41-1.57,21.67c0.01,4.43-3.09,5.44-6.54,5.56C234.05,421.13,228.51,420.99,222.99,420.99z"/>
	<path class="st20" d="M440.89,345.18c-13.22,6.5-26.45,12.99-39.65,19.53c-1.98,0.98-3.82,2.26-5.72,3.4
		c-18.11,10.87-22.84,10.3-37.68-4.53c-1.25-1.25-1.91-2.9-3.03-4.23c-2.46-0.21-4.92-0.43-7.38-0.64c0.92-3.72,4.19-2.65,6.61-3.12
		c6.97-1.35,14.08-2.15,20.58-5.29c10.07-9.76,18.92-20.58,26.88-32.08c3.63-5.25,4.14-11.65,4.25-18
		c0.07-4.44-0.93-9.02,1.27-13.27c0.57-0.6,1.26-0.82,2.07-0.67c2.54,1.66,3.2,4.45,3.95,7.06c4.9,16.92,13.16,31.9,25.24,44.78
		C440.02,340,442.73,341.84,440.89,345.18z"/>
	<path class="st22" d="M381.37,487.41c13.33-4.36,21.45-14.01,31.91-20.01c0.42-0.24,0.7-0.91,1.11-0.98
		c11.31-1.72,18.06-10.62,26.6-16.71c2.19-1.56,5.33-3.23,7.63-1.98c2.67,1.45,1.56,5.15,1.1,7.62c-2.25,12.15-0.4,25.13-7.12,36.41
		c-0.25,0.41-0.2,1-0.42,1.44c-2.68,5.28-23.64,13.58-29.47,12.42c-7.71-1.53-14.09-6.28-21.72-7.96
		C385.98,496.55,386.94,489.87,381.37,487.41z"/>
	<path class="st22" d="M354.34,377.28c-0.46,3.66-3.05,5.61-6.47,7.18c-14.02,6.42-28.1,12.58-41.67,20.1
		c-9.99,5.53-20.44,10.57-30.68,15.84c-2.71,1.4-5.82-0.11-7.42-2.1c-1.81-2.24-1.35-5.33,1.32-7.26c4.02-2.91,6.67-7.2,13.07-7.26
		c5.84-0.06,8.77-6.78,12.9-10.64c1.41-1.32,2.09-3.87,4.38-3.61c9.93,1.12,14.25-6.53,19.78-12.31c0.17-0.18,0.32-0.52,0.5-0.54
		c9.01-0.81,14.75-9.51,23.86-9.94C350.78,366.4,354.34,370.05,354.34,377.28z"/>
	<path class="st42" d="M375.9,351.74c-6.76,4.1-14.54,4.42-22.01,5.87c-2.14,0.42-4.53-0.57-6.47,1.1
		c-3.08,0.53-6.17,1.06-9.25,1.59c-1.62-0.39-3.62,0.57-4.82-1.35c2.82-4.54,8.22-4.78,11.87-7.41c-6.1,2.56-12.02,6.6-19.27,6.72
		c-3.32-2.01-8.04-1.98-9.6-6.56c4.37-7.12,12.26-10.27,17.94-15.92c10.76,0.62,21.49,1.15,30.52-6.49
		c0.93-0.79,2.28-0.94,3.57-0.71C373.71,335.38,374.92,343.52,375.9,351.74z"/>
	<path class="st57" d="M440.89,345.18c-3.41-6.45-8.74-11.43-13.27-17.01c-9.87-12.18-13.76-26.96-18.57-41.36
		c3.49-5.29,6.33-11.27,13.5-12.63c0.4,0.37,0.59,0.78,0.56,1.23c-0.03,0.47-0.09,0.7-0.2,0.7c2.09,18.82,5.25,37.05,20.29,50.93
		c4.48,4.14,3.25,11.26,4.88,16.95C445.69,344.39,443.29,344.79,440.89,345.18z"/>
	<path class="st40" d="M237.25,337.12c-2.18-1.17-4.53-2.11-6.5-3.56c-6.11-4.49-6.61-8.58-1.43-14.09
		c3.92-4.18,7.43-8.61,10.42-13.47c1.37,4.99,5.73,8.07,7.98,12.51c-0.51,1.45-1.01,2.91-1.52,4.36
		C243.07,327.52,241.17,332.95,237.25,337.12z"/>
	<path class="st58" d="M267.29,360.96c5.87,1.53,11.88,0.73,17.83,1.03c2.48-0.88,5.09-1.21,7.64-1.76
		c8.02,0.06,15.78-1.89,23.64-3.04c3.18-0.46,6.37-1.4,9.55,0.02c6.85-1.58,13.23-4.28,19.29-7.83c1.16-0.68,2.54-2.56,3.81-0.85
		c1.65,2.23-0.92,3.05-2.2,3.75c-4.34,2.39-8.83,4.5-13.26,6.72c-15.68,4.32-31.62,6.71-47.92,6.38c-2.2,0.76-4.4,1.91-6.55-0.1
		c-4.2-0.27-8.39-0.54-12.6-0.81C266.78,363.31,267.04,362.14,267.29,360.96z"/>
	<path class="st59" d="M354.81,359.35c5.84,4.17,12.03,7.94,17.4,12.64c4.32,3.78,7.86,3.93,12.51,1c3.31-2.08,7.18-3.28,10.8-4.88
		c-0.37,3.38-3.62,3.29-5.66,4.35c-9.43,4.91-19.02,9.52-29.3,14.6c0.58-3.26,2.58-3.24,3.85-4.02c2.91-1.79,3.29-2.78,0.56-5.9
		C360.48,372.04,355.43,366.84,354.81,359.35z"/>
	<path class="st60" d="M272.04,344.25c8.75-0.11,16.85-2.13,23.6-8.09c0.93-1.76,2.03-3.4,3.46-4.81
		c7.64-7.52,8.84-16.24,4.84-25.95c-0.93-2.25-2.3-4.53-0.5-7.01c2.25-1.03,3.93-0.02,5.47,1.52c8.79,15.3,4.43,32.41-10.06,39.48
		c-8.41,4.81-17.15,8.58-27.1,8.49C271.85,346.67,271.94,345.46,272.04,344.25z"/>
	<path class="st61" d="M279.13,365.3c2.18,0.03,4.37,0.07,6.55,0.1c-9.48,8.92-10.34,14.52-4.32,28.16
		c-1.04,0.57-2.09,1.14-3.14,1.71C272.04,385.08,272.66,375.1,279.13,365.3z"/>
	<path class="st62" d="M107.79,216.45c-0.55,11.88-1.46,23.74,0.72,35.63c2.18,11.85,6.72,22.81,13.05,34.43
		C109.55,279.22,98.77,233.94,107.79,216.45z"/>
	<path class="st63" d="M113.23,216.47c-1.03,12.58-2.17,23.68,0.01,34.8c2.18,11.14,6.61,21.37,11.99,32.07
		C112.53,274.66,104.43,231.28,113.23,216.47z"/>
	<path class="st64" d="M117.83,218.37c-3.49,22.13,0.65,42.91,11.19,62.56C116.1,268.48,110.42,232.44,117.83,218.37z"/>
	<path class="st65" d="M120.75,242.19c2.08,12.59,7.3,24.1,11.66,35.89C124.51,267.34,120.82,255.27,120.75,242.19z"/>
	<path class="st0" d="M230.7,544.8c22.92,0.05,42.55,7.98,58.75,24.35c2.8,2.83,4.29,5.3,1.84,9.12
		c-5.42,8.43-10.61,17.01-15.98,25.47c-1.45,2.28-2.74,4.85-6.34,2.24c-16.57-12.02-36.18-15.35-55.65-18.77
		c-4.59-0.8-5.21-2.14-4.2-6.33c2.16-8.98,4.02-18.05,5.52-27.16c1.14-6.87,4.25-10.33,11.54-8.96
		C227.64,545.03,229.19,544.8,230.7,544.8z"/>
	<path class="st0" d="M199.93,543.12c4.1,0.66,7.28,1.39,10.49,1.62c3.1,0.22,3.61,1.22,2.91,4.26
		c-2.36,10.18-4.46,20.42-6.41,30.69c-0.87,4.58-4.04,4.66-7.36,4.24c-6.66-0.84-13.27-2.06-19.92-2.95
		c-4.08-0.54-4.79-3.25-4.38-6.5c0.97-7.65,2.93-15.14,3.2-22.92c0.12-3.43,3.12-4.6,6.17-5.66
		C189.92,544.06,195.65,545.5,199.93,543.12z"/>
	<path class="st20" d="M234.08,635.3c-1.01-0.11-2.03-0.21-3.04-0.32c-0.57-6.98-3.37-10.98-11.37-10.34
		c-7.28,0.59-7.49-5.8-8.73-10.72c-0.22-0.89,0.42-1.95,0.44-2.94c0.08-4.98,1.19-13.84,2.88-13.64c6.92,0.8,15.32-2.87,20.88,4.71
		c1.62,2.21,4.17,3,7.38,2.12c8.4-2.32,13.26,4.22,18.91,8.42c1.92,1.43,0.62,3.25-1.05,4.22c-4.01,2.34-5.11,5.32-3.96,10.03
		c1.42,5.8-2.17,8.24-7.36,6.57C243.51,631.63,238.84,632.88,234.08,635.3z"/>
	<path class="st66" d="M646.04,371.23c3.42,6.92-0.99,10.38-5.99,13.58C638.8,378.85,642.5,375.07,646.04,371.23z"/>
	<path class="st67" d="M416.66,165.96c1.21,1.88,2.4,3.77,3.63,5.63c7.19,10.98,7.19,11.14-0.78,21.34
		c-0.6,0.49-1.26,0.56-1.98,0.28c-6.28-7.73-12.07-15.75-14.73-25.58c-5.55-5.04-13.09-4.19-19.54-6.57
		c0.07-4.18,1.39-7.26,6.3-7.23C400.11,154.49,408.53,159.91,416.66,165.96z"/>
	<path class="st68" d="M504.34,289.57c-0.25,1.62-0.5,3.24-0.76,4.86c-0.47,1.39-0.94,2.78-1.37,4.06
		c-6.24-12.39-7.92-29.13-4.58-42.65c3.27-13.25,6.26-26.56,9.36-39.85c0.18,5.58,0.37,11.16,0.56,16.74
		c2.94,5.32,2.14,11.06,1.51,16.64c-0.58,5.15-1.08,10.28-1.19,15.45c-0.01,1.34-0.02,2.68-0.01,4.01
		C507.98,275.96,507.85,283.05,504.34,289.57z"/>
	<path class="st35" d="M507.35,319.79c14.87-2.27,25.8-9.16,28.68-25.93c4.26,4.43,1.6,7.93,0.37,11
		c-4.02,10.03-12.84,14.18-22.32,17.44c-2.08,0.71-5.44-0.18-5.51,3.66C506.72,324.19,507.58,321.88,507.35,319.79z"/>
	<path class="st69" d="M389.56,153.84c-3.28,1.38-4.53,4.53-6.3,7.23c-3.53,1.16-6.44-2.29-9.94-1.35c-0.38-0.32-1.11-0.65-1.1-0.95
		c0.27-6.02,5.86-5.2,9.32-6.76C384.09,150.87,388.25,147.53,389.56,153.84z"/>
	<path class="st70" d="M432.02,111.97c0,0.76,0.01,1.51,0.01,2.27c-6.28,1.7-12.57,3.4-18.85,5.1
		C418.84,115,425.45,113.56,432.02,111.97z"/>
	<path class="st1" d="M599.47,282.58c-0.69,27.24-8.1,51.83-28.61,71.08c-6.82,6.4-14.54,11.36-23.81,13.75
		c-14.83,3.81-22.55-3.53-19-18.41c1.27-5.31,3.66-10.66-2.64-14.69c-1.63-1.05-2.11-2.75,0.31-4.04
		c17.13-9.06,21.56-26.15,26.62-42.69c3.45-11.27,6.51-22.65,12.44-32.94c1.86-3.22,4.13-6.31,6.67-9.02
		c5.91-6.32,12.06-5.87,17.74,0.97C597.03,256.02,599.43,264.53,599.47,282.58z"/>
	<path class="st2" d="M545.06,247.45c1.76,1.23,1.3,3.18,1.59,4.88c-2.65,23.12-15.48,40.31-32.16,55.25
		c-0.89,0.8-1.91,2.11-3.16,1.04c-1.75-1.51-0.1-2.65,0.89-3.65c5.66-5.7,11.62-11.11,16.49-17.57
		c6.92-9.17,11.52-19.33,13.59-30.62C542.65,253.51,540.25,249.41,545.06,247.45z"/>
	<path class="st71" d="M545.06,247.45c-0.92,3.11-1.85,6.22-2.77,9.33c-3.45-2.29-3.86,1.72-5.58,2.84
		c-2.22,1.43-3.47,4.29-6.56,4.52c-0.28-6.12,7.1-17.74,12.51-19.42C544.98,243.99,544.7,246.14,545.06,247.45z"/>
	<path class="st56" d="M402.8,167.63c5.14,8.48,10.27,16.97,15.41,25.45c7.65,8.76,12.3,19.3,17.51,29.51
		c1.16,2.27,0.92,5.02,0.45,7.41c-2.5,12.76-4.81,25.58-8.96,37.94c-0.87,2.58-1.86,5.23-4.51,6.68c-5.82,2.64-8.49,8.8-13.63,12.19
		c-0.44-0.19-0.89-0.32-1.36-0.4c-3.48-2.77-5.39-6.27-5.03-10.83c7.15-9.55,4.78-20.49,3.79-30.92c-0.58-6.16-9.4-8.34-14.31-4.27
		c-1.7,1.41-2.56,3.71-4.75,4.65c-5.32,0.44-7.7-4.16-10.98-6.85c-6.44-5.29-13.38-10.29-17.04-18.24
		c12.21-4.9,24.37-9.91,36.64-14.65c5.01-1.93,7.53-4.76,7.19-10.53C402.69,185.76,402.9,176.69,402.8,167.63z"/>
	<path class="st72" d="M359.38,219.96c9.03,8.22,18.06,16.44,27.09,24.66c1.43,11.34-0.57,14.69-10.97,17.51
		c-6.26,1.7-11.66,4.77-15.77,9.72c-5.1,6.13-11.42,8.35-19.29,7.89c-7.5-0.43-15.06-0.26-22.58,0.01
		c-4.8,0.17-9.02,1.56-10.72,6.65c-0.73,2.19-2.95,5.04,0.2,6.63c2.77,1.39,6.22,0.9,7.96-2.12c1.59-2.77,2.03-7.25,6.44-3.22
		c3.4,3.11,2.78,6.72-0.33,9.91c-2.15,2.21-4.72,3.72-7.8,4.3c-2.18,0.32-4.14-0.15-5.81-1.65c-1.45-0.38-2.9-0.77-4.35-1.15
		c-2.61,3.66-3.31,8.21-5.63,12.03c-4.41,7.26-10.85,10.45-18.39,8.9c0.37-3.71,3.74-3.03,5.88-3.68
		c5.57-1.68,8.84-5.22,10.65-10.63c3.09-9.24,6.54-18.37,9.58-27.63c1.22-3.7,3.41-5.26,7.08-6.68c11.24-4.35,23.03-2.81,34.51-4.24
		c1.24-0.15,2.56-0.14,3.68-0.62c1.9-0.81,3.57-2.19,3.66-4.39c0.12-3.11-2.5-2.39-4.34-2.74c-13.81-2.58-27.63-4.63-41.67-1.57
		c-1.64,0.36-3.42,0.05-5.92,0.05c1.23-1.05,1.78-1.93,2.31-1.92c13.29,0.34,25.5-7.72,39.09-4.99c0.94,0.19,2,0.02,2.95-0.18
		c2.76-0.59,7.12,0.62,7.39-3.41c0.33-4.99-4.4-2.43-6.83-3.15c-13.96-4.17-27.6-0.7-41.25,2.06c-1.16,0.23-2.32,1.14-4.05-0.85
		c9.51-2.01,18.39-4.66,27.7-5.6c6.94-0.7,13.89-1.46,20.79-2.45c3-0.43,6.73-1.58,6.42-5.11c-0.37-4.27-4.64-2.52-7.35-2.96
		c-18.17-2.98-35.69-1-52.42,7.6c1.25-3.74,4.56-3.37,6.94-4.5c2.7-1.29,5.59-2.17,8.39-3.25c7.01-2.69,14.05-5.31,21-8.14
		c1.7-0.69,4.51-1.4,3.64-3.92c-0.84-2.41-3.43-1.16-5.3-0.98c-18.85,1.75-36.16,7.36-50.51,20.33c-0.47,0.42-1.44,0.29-2.18,0.41
		c-0.4-3.49,1.65-4.99,4.65-5.7c14.35-10.19,30.25-16.06,47.9-16.71c2.48-0.09,5.44-1.97,7.57,0.93c0.74,1.01,0.01,3.34-2.17,7.86
		C344.94,223.66,351.92,220.02,359.38,219.96z"/>
	<path class="st73" d="M301.92,180.99c-8.5,2.31-12.17,9.12-15.3,16.43c-6.93,2.32-13.37,6.13-20.81,6.98
		c-2.82-1.56-4.02-4.1-4.38-7.16c0.61-5.69,5.05-8.25,9.12-11.11c7.3-5.12,15.26-8.49,24.3-8.49
		C297.54,177.65,301.08,176.73,301.92,180.99z"/>
	<path class="st74" d="M262.42,197.67c1.15,1.93,2.3,3.87,3.45,5.8c1.35,1.64,3.88,0.74,5.22,2.4c2.87,2.71,6.92,3.74,9.62,6.69
		c-0.55,1.18-1.1,2.35-1.66,3.53c-4.41,1.41-7.29-1.77-10.64-3.54c-2.03-1.38-3.75-3.09-5.25-5.02c-1.76-2.14-3.87-4.02-5.09-6.59
		c-1.34-3,0.17-6.35-1.12-9.36c-0.47-10.37,5.86-16.59,13.53-21.89c2.25-1.56,4.84-2.63,7.27-3.93c13.36-2.09,24.8,2.2,35.03,10.51
		c-1.5,0.89-2.97,1.88-4.85,1.67c-1.1-0.05-2.1-0.4-3.06-0.91c-3.54-1.83-7.08-3.7-10.89-4.91c-12.71-4.05-23.67,0.74-31.25,13.63
		C260.87,189.68,262.38,193.69,262.42,197.67z"/>
	<path class="st75" d="M268.8,210.97c3.26,2.03,6.43,4.23,10.26,5.12c-3.33,6.62,1.16,10.72,4.87,15.07c-1.55,1.9-3.1,3.8-4.65,5.7
		c0,0,0.07-0.05,0.07-0.05c-2.38,0.94-3.59,4.57-7.05,3.06c-5.32-5.41-7.32-12.32-8.16-19.51
		C263.69,216.62,263.37,212.16,268.8,210.97z"/>
	<path class="st76" d="M306.33,176.48c0.54,0.49,1.07,0.98,1.61,1.46c-1.58,1.85-3.88,2.3-6.02,3.04
		c-12.46-4.46-32.35,3.93-39.5,16.68c-1.58-3.93-4.57-7.7-1.37-12.17c3.23,3.04,4.93-0.42,6.92-1.79
		C279.72,175.65,292.17,171.6,306.33,176.48z"/>
	<path class="st77" d="M280.71,212.57c-4.26-0.53-7.9-2.17-10.37-5.86c4.25-6.47,8.49-8.15,14.86-5.92
		C283.7,204.71,282.21,208.64,280.71,212.57z"/>
	<path class="st78" d="M285.2,200.78c-5.97-0.57-10.42,2.67-14.86,5.92c-1.57-0.97-3.71-1.14-4.47-3.23
		c6.97-1.85,12.83-7.48,20.76-6.05C286.15,198.54,285.67,199.66,285.2,200.78z"/>
	<path class="st25" d="M279.42,320.01c9.96-1.12,16.75-6,19.59-15.97c0.61-2.15,0.72-5.33,4.44-4.96c1.21,5.23,4.7,9.57,4.72,15.41
		c0.05,9.94-4.02,16.96-12.53,21.68c-4.55-5.88-9.89-10.9-16.24-14.79C279.36,320.92,279.37,320.46,279.42,320.01z"/>
	<path class="st79" d="M256.95,191.59c2.31,2.77,0.96,6.51,2.52,9.48c-0.14,0.74,0.01,1.58-0.28,2.21
		c-9.35,20.12-3.29,37.8,8.59,54.57c0.6,0.97,0.92,2.03,1.03,3.17c-0.5,1.21-0.99,2.42-1.49,3.64
		c-15.55-15.87-20.94-34.72-16.56-56.44C252.71,202.63,257.63,198.15,256.95,191.59z"/>
	<path class="st80" d="M268.81,261.02c-0.45-0.48-0.91-0.96-1.36-1.44c-0.87-6.09-1.41-12.15,1.8-17.83
		c1.02-1.49,2.58-1.91,4.25-2.08c2.05-0.73,3.28-3.14,5.83-2.84C271.24,242.9,271.06,252.41,268.81,261.02z"/>
	<path class="st81" d="M526.65,259.92c-6.07,4.87-12.3,9.35-20.66,8.91c0.01-1.18,0.03-2.36,0.04-3.54
		c8.85,0.37,14.83-4.96,20.74-10.44C526.73,256.55,526.69,258.23,526.65,259.92z"/>
	<path class="st82" d="M422.69,274.62c5.46-13.69,7.9-28.2,11.43-42.41c1.2-4.84,0.83-9.3-1.68-13.69
		c-4.83-8.43-9.5-16.95-14.24-25.44c0.44,0,0.87-0.05,1.3-0.15c7.72,11.37,18.22,21.9,17.98,36.54c-0.2,11.76-3.18,23.5-5.32,35.18
		c-0.96,5.24-3.23,10.01-9.25,11.46C422.84,275.62,422.77,275.12,422.69,274.62z"/>
	<path class="st83" d="M403.19,276.2c1.5,3.41,3.01,6.81,4.51,10.22c-0.02,4-0.18,8-0.03,12c0.37,10.07-1.76,19.16-8.75,26.96
		c-7.79,8.68-14.06,18.69-23.01,26.37c-3.86-7.12-4.92-15.2-7.66-22.7c-0.75-3.65,2.16-5.37,4.11-7.5
		c4.75-5.17,9.98-9.86,14.49-15.3c5.97-7.2,9.83-15,9.96-24.57C396.85,278.04,397.09,273.35,403.19,276.2z"/>
	<path class="st20" d="M403.19,276.2c-3.05-0.31-4.9,0.73-4.63,4.14c1.18,14.52-7.28,24.41-16.33,34
		c-4.64,4.92-9.33,9.8-13.99,14.69c-10.04,8.15-21.01,12.07-33.86,7.44c-1.2,0.11-2.19-0.33-3.05-1.14
		c-3.59-4.47-7.12-9.01-9.59-14.23c-1.12-2.37-3.19-4.65-1.61-7.63c6.25-1.22,12.11-4.1,18.51-4.75c-6.5,0.4-12.33,3.93-18.84,4.33
		c-4.48-3.01-7.21-6.84-5.8-12.57c10.33-6.03,10.85-7.57,4.46-13.42c-2.94,1.84,3.85,5.47-1.37,7.06c-4.4,1.33-8.76,2.11-13.29,1.34
		c-1.08-0.19-1.12-1.23-1.12-2.36c-0.01-8.8,5.84-15.17,14.77-15.39c8.52-0.21,17.07-0.29,25.57,0.12
		c5.75,0.27,10.17-1.32,13.8-5.82c5.72-7.08,12.91-11.72,22.23-12.54c4.17-0.37,5.1-3.73,5.75-6.9c0.54-2.65-0.03-5.53,1.67-7.96
		c3.31-4.48,5.42-10.01,13.27-8.22c6.91,1.58,10.04,4.74,9.55,11.81c-0.4,5.76-0.48,11.54-0.5,17.32
		C408.77,270.13,407.38,273.86,403.19,276.2z"/>
	<path class="st84" d="M332.27,334.59c0.7,0.63,1.41,1.26,2.11,1.88c-4.09,6.97-11.5,10.11-17.38,15.02
		c-6.73,6.02-15.22,8.05-23.59,10.34c-2.76,0.05-5.53,0.1-8.29,0.15c7.77-5.73,17.35-7.68,25.69-12.21
		C317.9,344.63,324.03,338.12,332.27,334.59z"/>
	<path class="st42" d="M332.27,334.59c-6.35,6.2-12.82,12.22-21.46,15.19c-3.99-3.46-7.97-6.93-11.96-10.39
		c13-10.76,16.04-23.8,8.95-39.16c2.07,0.09,4.14,0.17,6.2,0.26c1.39,4.3,3.03,8.47,6.03,11.95c0.55,0.3,0.76,0.63,0.61,0.99
		c-0.15,0.37-0.31,0.56-0.48,0.56C323.07,321.52,328.33,327.67,332.27,334.59z"/>
	<path class="st13" d="M563.23,333.24c-0.76,4.16-3.26,7.7-7.72,8.52c-2.69,0.49-4.53-2.4-3.94-5.1c0.98-4.48,2.99-8.76,8.33-9.18
		C563.59,327.17,563.16,330.36,563.23,333.24z"/>
	<path class="st13" d="M566.02,310.36c0.12-4.06,1.36-7.69,6.03-7.9c3.23-0.14,5.04,2.51,4.44,5.6c-0.76,3.9-2.09,8.33-6.87,8.56
		C565.95,316.81,566.18,313.13,566.02,310.36z"/>
	<path class="st13" d="M582.94,280.79c-0.05,3.92-0.53,8.07-4.81,8.33c-3.47,0.22-4.54-3.39-4.41-6.64
		c0.15-3.89,1.88-7.19,5.92-7.52C584.12,274.6,582.4,278.67,582.94,280.79z"/>
	<path class="st25" d="M270.56,241.7c-2.64,5.68-0.66,12.17-3.11,17.88c-14.96-17.69-18.91-39.06-10.22-55.58
		c0.57-1.07,1.49-1.96,2.24-2.93c1.64,1.87,3.27,3.73,4.91,5.6C263.19,218.92,266.37,230.4,270.56,241.7z"/>
	<path class="st48" d="M306.33,176.48c-16.77-1.86-31.71,1.95-43.93,14.7c-1.99-1.88-0.94-3.96-1.35-5.68
		C270.48,166.99,288.55,163.39,306.33,176.48z"/>
	<path class="st85" d="M270.56,241.7c-7.26-10.76-9.81-22.35-6.17-35.03c1.47,1.43,2.94,2.87,4.41,4.3
		c-5.55,6.16-2.38,12.59-0.29,18.79c1.17,3.47,3.3,6.62,5,9.91C272.52,240.34,271.54,241.02,270.56,241.7z"/>
	<path class="st86" d="M404.62,258.12c-3.24,3.99-9,3.96-8.53,9.66c-3.43-7.22,0.6-13.64,0.13-20.36c0.65-0.01,1.3-0.03,1.95-0.04
		c0.11,1.72,0.84,3.71,0.21,5.11C395.84,258.19,398.12,259.68,404.62,258.12z"/>
	<path class="st87" d="M320.17,313.99c-0.04-0.52-0.09-1.03-0.13-1.55c7.57-1.49,14.64-6.16,22.9-3.54
		C334.98,309.06,328.1,313.78,320.17,313.99z"/>
	<path class="st88" d="M378.2,268.29c-1.96,4.67-4.49,8.8-10.23,12.5C371.2,275.08,373.74,270.93,378.2,268.29z"/>
	<path class="st1" d="M246.63,88.77c19.82-26.43,46.39-45.17,86-48.76c13.16-1.19,26.48-0.29,40,4.33
		c21.6,7.39,26.37,20.47,11.48,32.51c-5.31,4.3-12.09,7.78-6.85,16.52c1.36,2.27,0.78,4.31-3.21,3.76
		c-28.19-3.94-45.74,9.63-63.72,22.18c-12.24,8.55-24.07,17.51-38.81,23.21c-4.62,1.79-9.66,3.13-14.8,3.91
		c-11.96,1.8-19.49-3.27-22-14.32C231.28,116.88,234.12,106.66,246.63,88.77z"/>
	<path class="st13" d="M275.59,108.43c0.12,4.53-6.69,10.57-11.65,10.86c-3.65,0.22-5.79-1.2-5.89-4.7
		c-0.13-4.59,5.93-9.89,11.4-10.23C273.23,104.12,274.99,105.82,275.59,108.43z"/>
	<path class="st13" d="M298.31,89.76c0.12,4.53-6.69,10.57-11.65,10.86c-3.65,0.22-5.79-1.2-5.89-4.7
		c-0.13-4.59,5.93-9.89,11.4-10.23C295.96,85.45,297.71,87.14,298.31,89.76z"/>
	<path class="st13" d="M326.6,69.61c0.12,4.53-6.69,10.57-11.65,10.86c-3.65,0.22-5.79-1.2-5.89-4.7
		c-0.13-4.59,5.93-9.89,11.4-10.23C324.24,65.3,326,66.99,326.6,69.61z"/>
	<path class="st5" d="M547.98,151.1c17.2-15.05,2.26-24.61-3.36-34.92c-9.59-17.59-21.58-34.06-32.55-51
		c-0.9-1.39-1.88-2.76-2.55-4.25c-7.04-15.62,2.59-26.71,23.49-26.81c18.74-0.09,34.21,6.02,47.23,15.31
		c26.93,19.2,38.96,44.86,34.58,77.05c-1.46,10.7-5.68,20.94-14,30.01c-8.95,9.75-20.1,10.89-28.75,3.46
		C562.44,151.68,562.44,151.68,547.98,151.1z"/>
	<path class="st62" d="M597.12,130.5c-4.2-15-7.83-30.18-16.26-43.75c-8.41-13.53-20.08-24.68-34.79-35.72
		C567.72,53.69,603.62,104.06,597.12,130.5z"/>
	<path class="st63" d="M588.7,133.37c-3.75-16.12-6.71-30.48-14.8-43.1c-8.11-12.64-19.3-22.96-32.16-33.37
		C565.04,60.93,596,110.35,588.7,133.37z"/>
	<path class="st64" d="M580.78,133.45c-4.01-29.26-19.24-52.8-43.87-71.55C562.16,70.47,586.25,112.09,580.78,133.45z"/>
	<path class="st65" d="M566.15,105.49c-8.56-14.48-21.53-25.98-33.27-38.26C549.66,76.34,560.48,89.34,566.15,105.49z"/>
	<path class="st1" d="M146.88,97.43c-0.89,30.51-10.53,58.06-37.21,79.62c-8.87,7.17-18.91,12.73-30.97,15.4
		c-19.28,4.27-29.33-3.95-24.71-20.62c1.65-5.95,4.76-11.94-3.43-16.46c-2.13-1.17-2.75-3.08,0.41-4.52
		c22.28-10.15,28.04-29.29,34.63-47.82c4.48-12.62,8.46-25.38,16.18-36.9c2.42-3.61,5.37-7.07,8.68-10.11
		c7.69-7.08,15.68-6.57,23.07,1.09C143.71,67.68,146.83,77.21,146.88,97.43z"/>
	<path class="st8" d="M122.12,85.26c27.13,5.86,54.39,11.93,78.8,14.58c41.5,4.51,72.19,1.67,86.11-12.69
		c8.91-9.19,7.67-22.47,2.8-37.25c-4.43-13.43-9.88-27.28-3.33-36.58c0.96-1.37,2.06-2.7,3.77-3.67
		c11.76-6.68,30.89-2.49,59.81,12.97c9.91,5.3,19.78,10.66,29.9,15.76c14.44,7.28,28.5,12.53,40.38,12.99
		c2.31,0.09,9.37,2.12,2.29-2.94c-2.74-1.96,1.99-1.2,4.21-0.96c4.77,0.51,7.96-0.53,14.38,1.67c0.6,0.21,2.11,1.69,2.15,2.18
		c0.3,3.29,0.1,6.38-3.28,8.21c-5.46-3.53-0.97-3.45-3.16-5.6c-4.62,0.15-8.79,0.63-13.82,0.38c-14.57-0.74-31.33-7.92-48.2-16.36
		c-8.7-4.35-17.36-8.82-25.74-13.42c-34.75-19.06-51.61-18.33-58.04-8.56c-5.55,8.43-1.3,20.68,3.08,32.91
		c8.4,23.43,6.43,42.22-18.92,50.71c-27.88,9.35-71.71,5.06-122.93-5.43c-6.38-1.31-13.6-3.63-19.08-3.84
		C129.57,88.63,125.85,86.95,122.12,85.26z"/>
</g>
<g>
</g>
<g>
</g>
<g>
</g>
<g>
</g>
<g>
</g>
<g>
</g>
</svg>
