<?xml version="1.0" encoding="utf-8"?>
<!-- Generator: Adobe Illustrator 23.0.5, SVG Export Plug-In . SVG Version: 6.00 Build 0)  -->
<svg version="1.1" id="Capa_1" xmlns="http://www.w3.org/2000/svg" xmlns:xlink="http://www.w3.org/1999/xlink" x="0px" y="0px"
	 viewBox="0 0 453.54 425.2" style="enable-background:new 0 0 453.54 425.2;" xml:space="preserve">
<style type="text/css">
	.st0{fill:#DFDEE3;}
	.st1{fill:#AE6F5C;}
	.st2{fill:#4F5368;}
	.st3{fill:#818392;}
	.st4{fill:#E0DFE4;}
	.st5{fill:#87554B;}
	.st6{fill:#989AA6;}
	.st7{fill:#2F334C;}
	.st8{fill:#828493;}
	.st9{fill:#88564C;}
	.st10{fill:#797A8B;}
	.st11{fill:#787B8B;}
	.st12{fill:#DBD9E0;}
	.st13{fill:#D3D9E0;}
	.st14{fill:#EBEBED;}
	.st15{fill:#FFFFFF;}
	.st16{fill:#A6B8C7;}
	.st17{fill:#9BA3B4;}
	.st18{fill:#DBDAE0;}
	.st19{fill:#F5BBA6;}
	.st20{fill:#30324C;}
	.st21{fill:#D49987;}
	.st22{fill:#F7CBBA;}
	.st23{fill:#828494;}
	.st24{fill:#7A5653;}
	.st25{fill:#747D93;}
	.st26{fill:#B1B8C5;}
	.st27{fill:#AAB3C2;}
	.st28{fill:#9EA7B7;}
	.st29{fill:#939AAD;}
	.st30{fill:#747D92;}
	.st31{fill:#525F7E;}
	.st32{fill:#ABAAB2;}
	.st33{fill:#AAA9B2;}
	.st34{fill:#ABABB2;}
	.st35{fill:#919AB2;}
	.st36{fill:#FAE4DC;}
	.st37{fill:#F8CBBD;}
	.st38{fill:#BD816F;}
	.st39{fill:#CF9684;}
	.st40{fill:#AE715D;}
	.st41{fill:#D19686;}
	.st42{fill:#F8D0C4;}
	.st43{fill:#997F85;}
	.st44{fill:#9FA7B8;}
	.st45{fill:#929BB5;}
	.st46{fill:#5D647B;}
	.st47{fill:#C79A8D;}
	.st48{fill:#606983;}
	.st49{fill:#E57D7C;}
</style>
<g>
	<path class="st0" d="M61,337.02c-0.04-0.97-0.64-1.66-1.24-2.31c-3.78-4.1-7.1-8.58-10.4-13.06c-3.79-5.14-7.06-10.61-10.29-16.11
		c-3.05-5.18-5.6-10.62-8.15-16.04c-1.44-3.06-2.57-6.28-3.76-9.45c-2.01-5.34-3.76-10.77-5.25-16.28c-0.7-2.59-1.43-5.17-1.92-7.8
		c-0.85-4.58-1.89-9.12-2.47-13.75c-0.49-3.86-1.03-7.71-1.36-11.59c-0.26-3.16-0.55-6.32-0.54-9.49c0.02-4.37-0.06-8.74,0.02-13.11
		c0.09-4.46,0.52-8.91,0.89-13.36c0.3-3.56,0.72-7.1,1.08-10.65c0.28-2.74,0.8-5.45,1.22-8.18c0.88-5.69,1.94-11.34,3.14-16.97
		c1.05-4.93,2.27-9.81,3.59-14.67c1.27-4.66,2.72-9.27,4.22-13.87c1.23-3.78,2.54-7.54,3.99-11.23c1.9-4.82,3.87-9.61,6.03-14.33
		c2.06-4.5,4.19-8.97,6.55-13.31c2.4-4.41,4.85-8.81,7.58-13.06c1.42-2.22,2.73-4.54,4.25-6.67c2.37-3.29,4.64-6.66,7.16-9.86
		c2.04-2.58,4.09-5.13,6.21-7.64c2.33-2.77,4.8-5.41,7.25-8.08c2.11-2.31,4.45-4.38,6.7-6.55c3.69-3.56,7.64-6.83,11.7-9.95
		c4.45-3.43,9.07-6.61,13.96-9.39c5.12-2.91,10.37-5.52,15.83-7.76c6-2.46,12.23-4.09,18.52-5.51c4.58-1.04,9.23-1.83,13.91-2.24
		c4.5-0.39,9.01-0.76,13.53-0.52c4.98,0.27,9.96,0.76,14.8,1.99c4.24,1.08,8.37,2.5,12.41,4.26c4.97,2.17,9.65,4.84,14.22,7.68
		c4.9,3.05,9.71,6.26,14.69,9.18c3.64,2.13,7.46,3.9,11.43,5.38c2.55,0.95,5.14,1.73,7.76,2.4c4.85,1.23,9.83,1.52,14.78,1.12
		c4.86-0.39,9.58-1.6,14.24-3.1c3.68-1.18,7.3-2.49,10.86-3.96c4.69-1.93,9.38-3.83,14.18-5.46c2.72-0.92,5.57-1.44,8.42-1.86
		c4.15-0.61,8.33-0.94,12.52-0.75c4.26,0.19,8.49,0.62,12.68,1.45c5.78,1.15,11.38,2.88,16.83,5.12c4.35,1.79,8.49,4,12.61,6.26
		c5.4,2.96,10.28,6.65,15.11,10.4c3.11,2.42,5.98,5.15,8.82,7.89c3.25,3.13,6.37,6.39,9.35,9.76c4.67,5.31,9.16,10.76,13.3,16.51
		c2.18,3.03,4.39,6.06,6.45,9.17c1.5,2.26,2.93,4.58,4.37,6.89c1.87,3,3.64,6.04,5.33,9.13c1.54,2.81,2.93,5.69,4.44,8.52
		c2.39,4.47,4.31,9.16,6.3,13.8c1.28,3,2.4,6.09,3.47,9.19c1,2.91,1.99,5.83,2.95,8.75c1.45,4.39,2.53,8.9,3.57,13.4
		c1.35,5.81,2.44,11.67,3.17,17.59c0.57,4.63,1.05,9.26,1.3,13.93c0.34,6.33,0.26,12.65,0.12,18.96c-0.1,4.36-0.56,8.73-1.09,13.09
		c-0.94,7.7-2.28,15.32-4.17,22.84c-1.47,5.85-3.13,11.65-5.01,17.39c-1.16,3.54-2.36,7.07-3.71,10.53
		c-1.47,3.77-3.04,7.5-4.67,11.21c-1.97,4.46-4.08,8.84-6.31,13.16c-2.46,4.77-5.12,9.43-7.97,13.98
		c-3.28,5.24-6.61,10.46-10.39,15.35c-2.56,3.3-5.01,6.69-7.83,9.8c-3.11,3.44-6.11,6.99-9.36,10.3c-2.91,2.96-5.93,5.8-9.02,8.56
		c-1.55,1.38-3.05,2.81-4.66,4.12c-0.35,0.29-0.71,0.54-1.18,0.6c-0.48-0.44-0.41-1.04-0.41-1.6c-0.01-6.53-0.18-13.06,0.05-19.58
		c0.17-4.69,0.29-9.38,0.14-14.06c-0.21-6.47-0.22-12.95-0.63-19.42c-0.31-4.88-0.48-9.77-0.82-14.64
		c-0.46-6.59-0.95-13.17-1.56-19.74c-0.42-4.52-1.12-8.98-2-13.42c0.01-0.29,0.07-0.59,0.27-0.79c1.91-1.88,1.09-4.14,0.88-6.31
		c-0.02-0.2-0.13-0.38-0.18-0.58c-0.2-3.43-0.08-6.86-0.08-10.28c0.01-4.29-0.42-8.55-0.84-12.82c-0.17-1.75-0.29-3.5-0.57-5.23
		c-0.16-1.33-0.45-2.64-0.52-3.97c-0.01-0.7,0.21-1.25,0.87-1.63c5.44-3.15,7.9-8.15,8.7-14.14c0.71-5.27,0.09-10.41-1.44-15.48
		c-1.68-5.55-4.09-10.74-7.57-15.41c-0.64-0.85-1.41-1.59-2.03-2.45c-0.28-0.4-0.64-0.75-0.65-1.29c0.68-2.48,1.59-4.89,1.93-7.45
		c0.75-5.67-0.47-10.87-3.61-15.63c-2.28-3.45-5.01-6.55-7.71-9.66c-3.06-3.51-5.08-7.57-6.63-11.91
		c-1.46-4.12-2.58-8.35-3.96-12.49c-2.23-6.7-7.16-9.82-13.8-10.85c-5.01-0.77-9.55,0.54-13.8,3.08c-0.7,0.42-1.32,0.55-2.07,0.24
		c-6.79-2.78-12.82-0.04-17,4.58c-5.25,5.8-7.73,12.69-7.72,20.48c0,2.04,0.24,4.1,0.96,6.02c2.21,5.93,2.15,11.98,1.13,18.1
		c-0.58,3.5-1.27,6.99-1.57,10.53c-0.49,5.67,0.45,10.99,4.04,15.62c0.2,0.26,0.38,0.53,0.47,0.85c0.13,2-0.61,3.85-1,5.76
		c-1.15,5.68-2.29,11.35-2.76,17.13c-0.31,3.82-0.62,7.68,0.93,11.33c1.26,2.94,3,5.52,6.2,6.71c1.74,0.64,3.45,0.53,5.12-0.19
		c1.87-0.81,3.39-2.07,4.59-3.73c0.29-0.4,0.42-1.15,1.23-0.89c0.49,1.01,0.43,2.11,0.55,3.18c0.67,6.12,1.41,12.23,1.73,18.39
		c0.27,5.25,0.64,10.5,0.69,15.76c0.01,0.61,0.05,1.23-0.14,1.82c-1.81,0.91-1.18,2.28-0.85,3.74c0.34,1.51,1.29,2.43,2.41,3.29
		c0.53,2.77,0.72,5.58,1.02,8.37c1.12,10.42,2.17,20.85,3.11,31.29c0.6,6.7,1.28,13.39,1.63,20.11c0.28,5.45,0.74,10.9,1.1,16.34
		c0.28,4.35,0.52,8.71,0.83,13.06c0.29,4.06,0.59,8.13,0.86,12.2c0.27,4.11,0.55,8.21,0.84,12.32c0.3,4.39,0.55,8.78,0.9,13.17
		c0.06,0.72,0.24,1.47-0.32,2.1c-2.82,1.11-5.59,2.38-8.47,3.3c-3.28,1.05-6.47,2.36-9.79,3.26c-2.89,0.78-5.74,1.75-8.64,2.5
		c-5.01,1.29-10.06,2.45-15.14,3.47c-2.86,0.57-5.76,0.94-8.61,1.54c-0.98,0.21-2.04,0.11-2.95,0.63c-0.38-0.28-0.39-0.7-0.41-1.1
		c-0.27-6.62-1.38-13.15-2.11-19.71c-1.29-11.48-2.76-22.94-4.06-34.42c-0.79-6.98-1.7-13.94-2.51-20.91
		c-1.32-11.43-2.71-22.86-4.09-34.29c-0.86-7.17-1.75-14.34-2.56-21.52c-1.16-10.18-2.44-20.35-3.62-30.52
		c-0.88-7.62-1.8-15.24-2.72-22.86c-0.75-6.2-1.46-12.4-2.21-18.6c-0.87-7.21-1.72-14.43-2.59-21.64
		c-1.16-9.64-2.3-19.29-3.45-28.94c-1.37-11.39-2.74-22.78-4.09-34.17c-1.12-9.44-2.26-18.89-3.36-28.33
		c-0.89-7.54-1.82-15.07-2.6-22.63c-0.33-3.19-1.39-6.14-3.31-8.72c-2.57-3.46-6.13-5.19-10.36-5.54
		c-4.23-0.35-8.47-0.39-12.71-0.54c-7.92-0.27-15.84-0.04-23.75-0.3c-7.8-0.26-15.6-0.32-23.39-0.12
		c-11.07,0.28-22.13-0.11-33.19,0.22c-12.25,0.37-24.49,0.06-36.74,0.2c-1.89,0.02-3.75,0.24-5.58,0.69
		c-4.56,1.13-7.22,4.09-7.93,8.75c-0.46,3.01-0.39,6.03-0.24,9.05c0.2,3.99,0.51,7.98,0.9,11.96c0.61,6.17,1.24,12.34,1.94,18.51
		c0.76,6.73,1.48,13.47,2.24,20.2c0.94,8.36,1.85,16.71,2.79,25.07c0.8,7.14,1.57,14.28,2.37,21.42c0.86,7.67,1.76,15.33,2.59,23
		c1.16,10.79,2.46,21.57,3.58,32.37c0.47,4.51,1.04,9,1.54,13.5c0.07,0.66,0.12,1.3-0.12,1.93c-0.89,3.14-2.09,6.18-3.1,9.28
		c-1.25,3.84-2.61,7.65-3.85,11.49c-2.94,8.4-5.73,16.85-8.59,25.28c-2.72,8-5.41,16.01-8.09,24.03
		c-3.37,10.07-6.78,20.12-10.14,30.19C61.69,336.15,61.68,336.8,61,337.02z"/>
	<path class="st1" d="M95.31,235.53c0.37-2.09-0.19-4.13-0.39-6.18c-0.49-4.9-1.08-9.8-1.64-14.7c-0.59-5.18-1.18-10.36-1.76-15.54
		c-0.47-4.21-0.93-8.42-1.4-12.63c-0.87-7.69-1.76-15.38-2.63-23.07c-0.53-4.74-1.01-9.48-1.54-14.22
		c-0.71-6.35-1.44-12.7-2.15-19.06c-0.6-5.38-1.17-10.77-1.76-16.16c-0.62-5.63-1.27-11.25-1.89-16.88
		c-0.52-4.74-1.05-9.48-1.51-14.22c-0.53-5.52-1.07-11.04-1.24-16.58c-0.09-2.77-0.2-5.56,0.34-8.3c1.09-5.55,4.72-8.63,10.53-9.2
		c3.83-0.38,7.67-0.16,11.5-0.21c6.82-0.08,13.64-0.02,20.46-0.05c12.61-0.07,25.23-0.05,37.84-0.28c8-0.15,16.01-0.17,24-0.06
		c6.65,0.09,13.31-0.01,19.96,0.22c6.16,0.21,12.32,0.21,18.47,0.6c7.83,0.5,13.37,5.34,14.63,13.13c0.67,4.14,0.98,8.33,1.48,12.49
		c0.55,4.61,1.12,9.22,1.67,13.83c0.53,4.49,1.02,8.99,1.55,13.48c0.6,5.06,1.22,10.11,1.82,15.17c0.62,5.18,1.23,10.36,1.85,15.53
		c0.53,4.45,1.06,8.9,1.59,13.35c0.61,5.14,1.22,10.27,1.84,15.41c0.69,5.78,1.4,11.57,2.09,17.35c0.54,4.53,1.05,9.06,1.59,13.59
		c0.61,5.14,1.26,10.27,1.87,15.41c0.61,5.14,1.19,10.28,1.8,15.41c0.51,4.33,1.04,8.65,1.56,12.98c0.62,5.18,1.24,10.35,1.86,15.53
		c0.7,5.86,1.41,11.73,2.11,17.59c0.62,5.18,1.21,10.36,1.83,15.53c0.54,4.49,1.1,8.97,1.63,13.46c0.61,5.14,1.18,10.28,1.8,15.42
		c0.78,6.55,1.59,13.1,2.37,19.65c0.6,5.06,1.18,10.11,1.78,15.17c0.61,5.18,1.21,10.36,1.82,15.54c0.61,5.1,1.23,10.19,1.84,15.29
		c0.71,5.86,1.41,11.73,2.12,17.59c0.26,2.15,0.45,4.3,0.39,6.47c-0.7,5.23-3.27,9.14-8.08,11.45c-1.31,0.63-2.69,0.83-4.15,0.83
		c-17.27,0-34.54-0.06-51.82,0.08c-15.72,0.13-31.44,0.06-47.16,0.07c-7.18,0.01-14.37-0.11-21.55-0.29
		c-4.36-0.11-8.72-0.24-13.08-0.56c-5.15-0.38-8.85-2.96-11.66-7.1c-1.44-2.12-2.25-4.51-3.05-6.91c-0.46-0.47-0.55-1.08-0.67-1.68
		c-0.43-2.2-0.71-4.43-0.98-6.65c-0.11-0.89-0.25-1.71-1.4-1.78c-0.23-0.01-0.46-0.19-0.38-0.51c1.42-0.67,1.4-0.67,1.22-2.28
		c-0.43-3.73-0.94-7.44-1.33-11.17c-0.69-5.83-1.38-11.66-2.05-17.49c-0.89-7.82-1.8-15.64-2.67-23.46
		c-0.54-4.82-1.13-9.64-1.66-14.46c-0.6-5.39-1.19-10.78-1.82-16.17c-0.72-6.11-1.38-12.24-2.1-18.35
		c-0.78-6.6-1.47-13.21-2.27-19.81c-0.11-3.06-0.74-6.06-1-9.1c-0.32-3.69-0.79-7.36-1.19-11.04c-0.33-3.07-0.66-6.15-1.07-9.21
		C95.39,237.04,95.59,236.27,95.31,235.53z"/>
	<path class="st2" d="M373.08,256.12c1.77,7,2.19,14.17,2.8,21.32c0.84,9.92,1.44,19.86,1.86,29.8c0.4,9.34,0.6,18.68,0.45,28.03
		c-0.12,7.47-0.14,14.94-0.21,22.41c0,0.37,0.04,0.73,0.06,1.1c-0.29,5.83-0.21,11.67-0.3,17.5c-0.13,8.2-0.24,16.41-0.33,24.61
		c-0.01,0.53-0.12,0.86-0.63,1c-0.45,0.5-1.05,0.56-1.67,0.61c-3.92,0.29-7.79-0.1-11.65-0.77c-1.01-0.17-2.16,0.01-2.85-1.05
		c-0.88,0.05-0.97-0.48-0.94-1.18c0.18-4.11,0.04-8.22-0.09-12.33c-0.13-3.98-0.32-7.97-0.87-11.93c-0.08-0.59-0.42-1.14-0.29-1.77
		c-0.69-1.43-0.63-3.02-0.81-4.53c-0.91-7.29-1.76-14.58-2.62-21.87c-0.58-4.94-1.16-9.88-1.68-14.83
		c-0.03-0.31-0.01-0.62,0.11-0.92c-0.96,10.5-2.17,20.98-3.37,31.46c-0.58,5.11-1.12,10.22-1.77,15.32
		c-0.06,0.44-0.07,0.9-0.39,1.26c-0.53,2.5-0.64,5.06-0.97,7.59c-0.46,3.54-0.89,7.08-1.21,10.64c-0.08,0.83-1.2,0.75-1.05,1.59
		c-2.52-0.74-5.15-0.98-7.64-1.89c-1.98-0.72-3.99-1.35-5.97-2.07c-0.49-0.18-0.79-0.53-1.12-0.88c-0.72-0.28-0.5-0.95-0.57-1.46
		c-0.19-1.4-0.04-2.83-0.36-4.21c-0.28-4.52-0.55-9.04-0.85-13.55c-0.35-5.33-0.74-10.66-1.11-15.99
		c-0.46-6.75-0.93-13.51-1.38-20.26c-0.37-5.53-0.74-11.07-1.07-16.61c-0.46-7.86-1.15-15.7-1.92-23.53
		c-0.69-7.06-1.34-14.13-2.04-21.18c-0.6-6-1.26-12-1.89-18c0.34-0.73,0.99-0.61,1.59-0.56c4.77,0.36,9.52-0.14,14.28-0.26
		c2.08-0.05,4.15-0.17,6.23-0.27c4.52-0.23,9.02-0.61,13.53-0.95c4.75-0.36,9.51-0.73,14.24-1.29c1.05-0.12,2.09-0.36,3.15-0.47
		C372.25,255.71,372.78,255.54,373.08,256.12z"/>
	<path class="st1" d="M61,337.02c1.7-5.01,3.41-10.02,5.1-15.04c3.29-9.77,6.58-19.54,9.87-29.31c3.8-11.27,7.6-22.54,11.41-33.81
		c0.31-0.92,0.68-1.83,1.02-2.74c0.8,0.15,0.77,0.88,0.93,1.42c1.85,6.43,3.51,12.91,4.55,19.53c0.17,1.09,0.48,2.15,0.59,3.25
		c0.03,1.27-0.59,2.37-1,3.5c-4.64,13.03-9.22,26.08-13.84,39.11c-2.82,7.96-5.66,15.91-8.47,23.87c-0.05,0.15-0.07,0.32-0.11,0.48
		c-4.84,13.44-9.52,26.93-14.38,40.37c-0.75,2.09-0.72,2.15,1.53,2.15c5.88,0,11.76,0.07,17.63-0.01
		c9.26-0.13,18.52,0.37,27.78,0.26c0.49-0.01,0.98-0.03,1.43,0.24c0.6,2.24,1.71,4.42,0.93,6.85c-0.14,0.43,0.05,0.78,0.21,1.17
		c0.41,0.98,0.17,1.41-0.89,1.4c-1.75-0.02-3.5,0.24-5.26,0.09c-0.15-0.01-0.33-0.05-0.47,0.19c0.83,0.53,1.73,0.51,2.54,0.13
		c1.42-0.66,2.9-0.32,4.34-0.38c0.69-0.03,1.01,0.49,0.57,1.19c-6.4-0.06-12.81-0.12-19.21-0.18c-3.92-0.04-7.83-0.07-11.75-0.11
		c-7.75-0.08-15.5-0.14-23.25-0.27c-0.98-0.02-1.47,0.32-1.84,1.17c-0.64,1.46-1.4,2.86-2.54,4.01c-0.43,0.43-0.89,0.86-1.41,1.16
		c-2.78,1.59-5.51,0.32-5.96-2.81c-0.46-3.22,0.24-6.31,1.19-9.37c4.24-13.69,8.77-27.29,13.31-40.88
		c1.76-5.25,3.5-10.51,5.24-15.77C60.88,337.58,60.94,337.3,61,337.02z"/>
	<path class="st3" d="M360.62,400.69c2.05,0.87,4.28,0.78,6.41,1.23c1.79,0.38,3.63,0.29,5.43,0.36c1.41,0.05,2.91,0.05,4.32-0.39
		c0.05,1.96-0.12,3.89-0.74,5.78c-0.77,2.34-2.33,3.74-4.73,4.27c-3.07,0.67-6.21,0.83-9.29,1.36c-3.64,0.63-7.23,1.49-10.86,2.18
		c-1.96,0.37-3.95,0.57-5.94,0.14c-2.1-0.46-2.62-1.86-1.3-3.56c1.41-1.81,3.48-2.63,5.45-3.6c2.63-1.29,5.33-2.43,7.83-3.99
		c1.18-0.74,2.29-1.57,3.11-2.71C360.51,401.46,360.94,401.16,360.62,400.69z"/>
	<path class="st3" d="M329.94,394.34c2.1,1.06,4.38,1.66,6.58,2.43c2.4,0.84,4.85,1.55,7.42,1.69c0.51,0.03,0.45,0.51,0.73,0.71
		c-0.13,2.07-0.63,4.06-1.79,5.76c-1.65,2.41-4.18,2.63-6.79,2.21c-3.77-0.6-7.5-1.56-11.38-1.33c-2.69,0.15-5.31,0.84-7.98,1.1
		c-2.23,0.22-4.48,0.45-6.69-0.13c-1.99-0.52-2.29-1.79-0.86-3.32c1.01-1.08,2.35-1.6,3.7-2.08c3.5-1.24,7.14-1.98,10.71-2.97
		c2.27-0.63,4.42-1.46,5.98-3.35C329.73,394.86,329.93,394.65,329.94,394.34z"/>
	<path class="st4" d="M347.9,379.36c0.07-2.69,0.54-5.35,0.82-8.02c0.58-5.51,1.24-11.01,1.86-16.52
		c0.79-7.13,1.57-14.26,2.37-21.39c0.09-0.84-0.04-1.72,0.47-2.71c0.37,2.96,0.72,5.74,1.05,8.52c0.81,6.8,1.65,13.59,2.4,20.4
		c0.5,4.62,1.25,9.21,1.56,13.84c-1.89,0.76-3.46,2.06-5.2,3.08C351.49,377.58,349.76,378.59,347.9,379.36z"/>
	<path class="st5" d="M107.02,400.89c0.04-0.63-0.13-1.03-0.88-0.95c-1.35,0.13-2.7-0.21-4.04,0.54c-0.84,0.47-1.99,0.41-2.92-0.21
		c-0.23-0.15-0.5-0.36-0.37-0.69c0.12-0.31,0.39-0.37,0.71-0.3c1.9,0.39,3.82,0.09,5.73,0.18c0.32,0.02,0.68,0.04,0.88-0.29
		c0.23-0.39-0.14-0.58-0.34-0.82c-0.41-0.49-0.58-1-0.12-1.53c0.49-0.57,0.39-1.18,0.22-1.84c-0.37-1.49-0.78-2.99-0.84-4.54
		c0.21-0.29,0.52-0.38,0.84-0.4c1.57-0.08,3.13-0.08,4.7,0c0.32,0.02,0.64,0.11,0.84,0.41c0.03,0.02,0.07,0.07,0.1,0.07
		c1.62-0.22,1.97,0.77,2.07,2.09c0.21,2.81,0.78,5.58,1.25,8.35C112.24,400.93,109.63,400.91,107.02,400.89z"/>
	<path class="st6" d="M317.24,252.91c0.1-5.73-0.36-11.44-0.65-17.16c-0.19-3.65-0.52-7.28-0.83-10.91
		c-0.23-2.74-0.6-5.47-0.91-8.21c2.84-5.81,3.81-12.07,4.49-18.41c0.41-3.81,0.82-7.61,1.13-11.42c0.24-2.88,0.47-5.77,0.53-8.65
		c0.09-4.15,0.48-8.3,0.29-12.45c-0.04-0.81,0.34-1.61,0.02-2.41c-0.12-0.55,0.24-0.85,0.63-1.07c2.15-1.24,4.33-2.43,6.6-3.45
		c0.19-0.08,0.39-0.1,0.6-0.04c0.37,0.27,0.2,0.66,0.24,1.01c-0.58,2.28-1.41,4.5-1.83,6.83c-0.91,5.08,2.03,8.25,6.6,8.53
		c2.35,0.14,4.51-0.93,6.39-2.39c0.45-0.35,0.77-0.84,1.24-1.17c0.6,0.14,0.53,0.67,0.57,1.08c0.35,3.41,0.96,6.78,1.56,10.15
		c0.83,4.65,1.6,9.33,2.84,13.9c0.75,2.75,1.33,5.55,2.38,8.22c2.53,6.45,6.79,11.28,13.27,13.93c2.83,1.15,5.85,1.41,8.9,1.16
		c0.44-0.03,0.89-0.18,1.3,0.13c0.5,1.94,0.5,3.93,0.74,5.9c0.9,7.57,0.86,15.17,0.76,22.77c-1.07,0.72-2.34,0.66-3.53,0.83
		c-7.6,1.05-15.24,1.72-22.88,2.42c-4.26,0.39-8.54,0.63-12.82,0.85c-5.26,0.26-10.52,0.38-15.78,0.45
		C318.46,253.31,317.78,253.44,317.24,252.91z"/>
	<path class="st7" d="M300.12,177.43c-4.15-5-5.32-10.81-4.54-17.1c0.54-4.36,1.26-8.71,1.88-13.06c0.69-4.85,0.21-9.56-1.34-14.22
		c-3.51-10.61,1.31-24.61,10.51-30.73c4.24-2.82,8.78-3.29,13.51-1.36c0.7,0.29,1.15,0.18,1.75-0.22
		c7.16-4.78,17.66-4.31,23.78,0.99c2.86,2.47,4.03,5.86,5.14,9.28c0.98,3.02,1.86,6.07,2.8,9.1c1.81,5.83,4.91,10.88,9.04,15.36
		c2.4,2.61,4.63,5.38,6.43,8.46c3.79,6.47,3.89,13.22,1.51,20.15c-0.21,0.62-0.44,1.23-0.66,1.84c-0.53,0.37-0.84-0.08-1.14-0.36
		c-3.68-3.52-7.97-6.06-12.66-7.99c-1.1-0.5-2.33-0.67-3.39-1.28c-0.56-0.52-0.83-1.21-1.1-1.9c0.27-1.94-0.77-3.44-1.69-4.97
		c-0.55-0.91-1.75-0.84-2.44-1.55c-1.01-2.27-1.74-4.65-2.59-6.98c-2.43-6.7-5.61-13-9.68-18.86c-1-1.44-2.11-2.8-3.45-3.94
		c-0.86-0.73-1.76-1.51-3.05-1.14c-0.69,0.42-0.21,0.93-0.08,1.38c0.12,0.43,0.5,0.72,0.71,1.11c0.22,0.4,0.34,0.78-0.33,0.85
		c-1.22-0.32-1.92-1.47-3.07-1.9c-0.86-0.24-1.46-0.81-1.98-1.52c-1.53-2.06-3.19-4.02-4.67-6.13c-0.38-0.55-0.69-0.62-1.11-0.06
		c-1.85,2.5-4.17,4.57-6.34,6.79c-1.46,1.49-2.33,3.32-3,5.27c-0.13,0.43-0.11,0.9-0.29,1.31c-1.51,3.46-1.98,7.13-2.3,10.84
		c-0.42,4.87-0.22,9.69,0.8,14.48c0.22,1.03,0.55,2.06,0.34,3.14c-0.24,0.54-0.77,0.82-1.11,1.28c-1.05,1.44-1.2,2.97-0.56,4.61
		c-0.56,2.68-1.55,5.23-2.28,7.86c-0.9,3.22-1.76,6.44-2.54,9.69C300.8,176.5,300.91,177.24,300.12,177.43z"/>
	<path class="st6" d="M356.23,157.35c4.62,1.8,8.79,4.32,12.45,7.68c0.37,0.34,0.63,0.88,1.24,0.89c0.03,0.7,0.64,1.03,1.02,1.47
		c5.43,6.33,8.66,13.72,10.33,21.8c1.23,5.98,1.19,11.98-1.29,17.71c-1.49,3.44-3.75,6.27-7.15,8.03c-0.56,0.29-0.78,0.65-0.72,1.24
		c-1.29-0.36-2.49,0.24-3.72,0.4c-3.66,0.47-6.76-0.79-9.58-2.89c-3.48-2.6-5.84-6.13-7.65-10.02c-3.12-6.69-5.16-13.72-6.64-20.94
		c-1.01-4.96-2.08-9.9-2.9-14.89c-0.35-2.16-0.97-4.29-1.01-6.51c-0.01-0.32-0.17,0.15-0.26-0.01c-0.67-0.89-0.42-1.95-0.54-2.95
		c0.06-1.46,0.92-2.21,2.12-2.99c2.71-1.76,5.65-1.92,8.7-1.79c0.59,0.03,1.01,0.25,1.19,0.83c0.33,0.55,0.67,1.11,1,1.66
		c1.26,1,1.83,2.48,2.59,3.81c2.51,4.43,5.04,8.86,7.62,13.25c1.61,2.74,3.13,5.53,4.69,8.3c1.96,3.47,3.88,6.97,5.47,10.29
		c-2.34-6.38-5.8-12.55-9.19-18.77c-2.18-4.01-4.53-7.92-6.62-11.98c-0.48-0.94-1.2-1.76-1.59-2.75
		C355.66,157.9,355.27,157.24,356.23,157.35z"/>
	<path class="st6" d="M300.12,177.43c0.89-3.33,1.74-6.67,2.68-9.98c0.86-3.05,1.82-6.07,2.74-9.11c0.13-0.35,0.41-0.5,0.75-0.53
		c4.95-0.49,9.76-0.34,13.77,3.21c0.42,0.37,1.05,0.47,1.32,1.03c0.15,0.36-0.09,0.7-0.06,1.05c-0.04,2.77,0.14,5.55-0.1,8.3
		c-0.19,2.24-0.22,4.48-0.36,6.71c-0.43,6.59-0.93,13.17-1.92,19.71c-0.51,3.39-1.06,6.77-1.92,10.09c-0.4,1.55-1,3.02-1.6,4.49
		c-0.18,0.45-0.39,0.91-0.9,1.11c-1.47,2.2-3.2,4.13-5.76,5.07c-2.89,1.07-5.53,0.58-7.83-1.49c-3.06-2.75-4.55-6.21-4.77-10.32
		c-0.29-5.24,0.46-10.36,1.32-15.49c0.73-4.37,1.63-8.7,2.62-13.01C300.15,178.01,300.11,177.72,300.12,177.43z"/>
	<path class="st8" d="M317.24,252.91c5.29-0.08,10.59-0.06,15.88-0.27c4.82-0.19,9.63-0.57,14.44-0.97
		c4.92-0.41,9.84-0.91,14.75-1.47c3.58-0.41,7.17-0.72,10.71-1.42c0.35-0.07,0.73-0.02,1.1-0.03c0.68,0.69,0.5,1.57,0.54,2.4
		c0.08,1.84,0.22,3.71-1.56,4.97c-1.76-0.21-3.44,0.38-5.15,0.58c-1.97,0.23-3.95,0.4-5.92,0.6c-3.79,0.4-7.59,0.69-11.39,0.97
		c-2.88,0.21-5.76,0.37-8.63,0.52c-5.08,0.26-10.15,0.49-15.24,0.57c-2.23,0.03-4.46,0.26-6.69-0.04c-0.44-0.06-0.9-0.06-1.29,0.23
		c-1.48-0.21-1.94-1.31-2.25-2.55c-0.2-0.78-0.48-1.54-0.65-2.33C315.6,253.39,315.9,253.03,317.24,252.91z"/>
	<path class="st9" d="M94.28,280.37c-0.62-1.88-0.84-3.85-1.19-5.79c-0.9-4.95-2.03-9.85-3.47-14.67c-0.38-1.27-0.48-2.64-1.21-3.8
		c0.88-3.26,2.12-6.41,3.17-9.61c1.21-3.67,2.48-7.32,3.73-10.97c0.19-0.06,0.43-0.16,0.43,0.18c0.03,2.64,0.54,5.24,0.76,7.86
		c0.21,2.42,0.52,4.83,0.79,7.25c0.3,2.66,0.6,5.31,0.91,7.96c0.28,2.33,0.57,4.66,0.9,6.98c0.07,0.51,0.03,0.96-0.14,1.43
		c0.11,0.96-0.26,1.83-0.56,2.7c-1.05,2.96-2.08,5.92-3.14,8.87C95.05,279.35,94.96,280.05,94.28,280.37z"/>
	<path class="st10" d="M340.52,161.28c0.01-0.04,0.01-0.08,0.03-0.12c0.05-0.13,0.17-0.2,0.21-0.03c0.34,1.71,0.74,3.41,0.97,5.13
		c0.44,3.38,1.15,6.7,1.81,10.04c0.68,3.46,1.35,6.92,2.17,10.34c0.91,3.78,2.02,7.51,3.38,11.17c1.18,3.16,2.46,6.25,4.23,9.12
		c2.4,3.89,5.39,7.14,9.8,8.75c2.51,0.92,5.08,0.85,7.64,0.09c0.53-0.16,1.09-0.36,1.36,0.4c0.17,1.3,0.33,2.6,0.5,3.91
		c-2.68,0.43-5.31,0.31-7.98-0.29c-5.71-1.27-9.74-4.83-13.02-9.37c-2.51-3.48-3.6-7.57-4.7-11.66c-1.39-5.18-2.39-10.44-3.32-15.71
		c-0.65-3.66-1.4-7.33-1.61-11.06c-0.01-0.15-0.12-0.29-0.19-0.43c-0.49-0.4-0.5-1-0.59-1.55c-0.36-2.41-0.59-4.83-0.96-7.23
		C340.17,162.26,340.1,161.71,340.52,161.28z"/>
	<path class="st11" d="M314.51,213.52c2.15-4.44,2.95-9.23,3.78-14.04c0.73-4.2,1.15-8.44,1.58-12.66c0.27-2.7,0.48-5.42,0.6-8.14
		c0.21-4.76,0.56-9.51,0.49-14.28c-0.01-0.48,0.16-0.96,0.25-1.44c0.06-0.08,0.13-0.09,0.19,0c0.25,0.3,0.64,0.55,0.46,1.04
		c-0.33,0.91-0.2,1.86-0.17,2.79c0.12,3.95-0.14,7.9-0.34,11.83c-0.24,4.76-0.58,9.53-1.09,14.29c-0.52,4.83-1.01,9.66-1.83,14.44
		c-0.53,3.06-1.65,6-3.04,8.79c-0.1,0.2-0.35,0.32-0.53,0.48C314.74,215.59,314.63,214.56,314.51,213.52z"/>
	<path class="st12" d="M263.83,403.82c-2.94,0.01-5.88,0.03-8.81,0.04c-13.39,0.02-26.78-0.09-40.16,0.1
		c-15.63,0.23-31.26,0.04-46.89,0.11c-2.03,0.01-4.08,0.17-6.1-0.2c-3.44-1-6.55-2.66-9.38-4.82c-1.16-0.89-2.2-1.99-2.05-3.68
		c1.55-7.49,3.19-14.96,4.78-22.44c2.58-12.18,5.24-24.34,7.87-36.51c1.73-7.6,3.17-15.26,4.59-22.92
		c1.82-9.83,3.58-19.67,5.26-29.53c0.09-0.51-0.01-1.36,0.72-1.35c0.65,0.01,0.68,0.83,0.81,1.37c1.37,5.8,2.7,11.61,3.99,17.42
		c1.55,6.97,2.98,13.96,4.4,20.96c0.65,3.6,1.41,7.18,1.89,10.82c0.35,2.66-0.5,5.08-1.33,7.5c-1.87,5.47-3.72,10.94-5.74,16.36
		c-2.22,6.05-4.35,12.13-6.56,18.18c-1.73,4.75-3.42,9.52-5.2,14.25c-0.19,0.5-0.33,1.01-0.55,1.49c-0.45,1-0.32,1.73,0.83,2.08
		c0.19,0.06,0.34,0.23,0.46,0.39c0.35,1.62,0.56,3.28,1.13,4.86c0.98,2.67,1.23,2.82,3.8,1.68c3.98-1.77,7.93-3.61,11.79-5.63
		c0.43-0.22,0.85-0.47,1.28-0.78c-0.87-0.79-2.12-1.05-2.55-2.24c0.04-0.68,0.43-1.23,0.72-1.8c5.31-10.47,10.28-21.1,14.75-31.95
		c2.14-5.2,4.18-10.44,5.79-15.84c0.38-2.16,1.2-4.23,1.38-6.44c0.51-3.2,0.46-6.44,0.68-9.66c-0.19-4.55-0.24-9.12-0.55-13.66
		c-0.19-2.76-0.37-5.52-0.58-8.27c-0.58-6.58-1.33-13.14-2.13-19.69c-0.53-4.33-1.1-8.66-1.75-12.97c-0.07-0.44-0.15-0.89-0.09-1.34
		c0.09-0.71,0.59-0.93,1.21-0.94c0.85-0.02,1.19-0.51,1.36-1.27c0.26-1.19,0.41-2.39,0.33-3.61c-0.08-1.2-0.3-2.34-1.45-3.02
		c-0.76-1.48-0.5-3.12-0.67-4.68c-0.75-6.69-2.46-13.12-5.14-19.28c-1.02-2.35-2.22-4.62-3.4-6.91c-0.33-0.65-0.74-1.27-0.87-2.01
		c0.1-1.4-0.86-2.28-1.61-3.27c-0.1-0.06-0.19-0.13-0.29-0.2c-0.99-1.18-1.88-2.39-2.67-3.74c-1.16-1.96-2.27-3.97-3.61-5.82
		c-0.31-0.44-0.61-0.86-0.77-1.37c-0.29-0.98-0.59-1.95-1.05-2.87c-0.24-0.49-0.26-1.03-0.22-1.56c0.08-1.07,0.5-1.42,1.53-1.11
		c1.18,0.35,2.37,0.6,3.56,0.88c0.78,0.19,1.42,0.61,1.96,1.19c2.7,2.86,5.67,5.4,8.92,7.62c2.72,1.55,5.35,3.27,8.39,4.2
		c2.36,0.72,4.69,0.49,6.98-0.15c2.16-0.61,3.43-2.25,4.21-4.28c1.8-4.67,1.33-9.36,0.01-14.03c-0.2-0.7-0.45-1.39-0.6-2.11
		c-0.01-0.13,0.01-0.25,0.05-0.37c4.46-3.63,9.12-6.98,13.99-10.04c2.25-1.41,4.82-2.21,7.11-3.56c0.27-0.16,0.59-0.33,0.9-0.02
		c0.34,0.56,0.23,1.19,0.31,1.79c0.78,5.74,1.42,11.5,2.07,17.25c1.06,9.41,2.35,18.78,3.43,28.19c1.35,11.8,2.76,23.58,4.17,35.37
		c1.07,8.87,2.17,17.74,3.19,26.61c1.51,13.09,3.13,26.17,4.64,39.26c0.78,6.77,1.7,13.52,2.46,20.29
		c1.62,14.39,3.31,28.78,5.15,43.14c0.13,1.01,0.15,2.03,0.28,3.05C264.24,402.84,264.25,403.39,263.83,403.82z"/>
	<path class="st12" d="M102.48,164.66c-0.61-5.46-1.22-10.91-1.84-16.37c-0.53-4.69-1.07-9.38-1.59-14.07
		c-0.43-3.88-0.85-7.76-1.27-11.64c1.55-0.77,2.47-2.22,3.65-3.39c3.19-3.15,6.48-6.2,9.85-9.16c4.14-3.64,8.49-7.02,12.83-10.4
		c4.56-3.56,9.1-7.16,13.77-10.58c0.6-0.44,1.19-0.78,0.89-1.76c-0.24-0.78,0.29-1.2,1.05-0.84c0.76,0.36,1.16,0.06,1.71-0.38
		c3.75-3.02,7.4-6.14,10.99-9.35c1.19-1.06,2.23-2.27,3.43-3.32c0.36-0.31,0.64-0.72,0.3-1.17c-0.34-0.45-0.81-0.27-1.22-0.06
		c-2.33,1.19-4.6,2.48-6.77,3.93c-2.99,2-6.1,3.77-9.17,5.63c-2.48,1.5-4.76,3.3-7.13,4.96c-3.51,2.46-7.05,4.86-11.02,6.56
		c-0.6,0.26-1.25,0.37-1.89,0.52c-1.71,0.4-2.68-0.02-3.66-1.45c-0.57-0.83-0.63-1.63-0.25-2.54c0.67-1.61,1.73-2.96,2.8-4.29
		c2.25-2.76,4.89-5.13,7.61-7.41c4.69-3.93,9.46-7.76,14.02-11.84c1.61-1.44,3.39-2.69,5.04-4.09c0.25-0.22,0.54-0.36,0.88-0.42
		c2.69-0.07,5.38-0.3,8.07-0.31c11.8-0.05,23.59-0.14,35.39,0.03c5.42,0.08,10.85,0.03,16.27,0.24c2.69,0.1,5.38,0.17,8.07,0.2
		c0.49,0.01,0.98,0.01,1.43,0.26c0.6,0.49,0.2,1.01-0.01,1.57c1.02,0.13,2.01,0.27,2.98,0.54c1.15,0.33,2.34,0.25,3.46-0.21
		c0.95-0.39,1.73-0.29,2.35,0.59c0.05,0.11,0.07,0.23,0.07,0.35c-1.27,1.05-1.39,2.29-0.64,3.7c0.18,0.35-0.08,0.71-0.23,1.04
		c-0.23,0.53-0.42,1.07-0.39,1.65c0.04,0.93,0.39,1.66,1.41,1.88c0.36,0.08,0.71,0.18,0.98,0.46c0.14,0.21,0.16,0.44,0.11,0.67
		c-0.45,0.53,0.02,0.88,0.27,1.26c0.11,0.29,0.12,0.59,0.09,0.9c-0.25,0.92-0.64,1.75,0.13,2.73c0.43,0.54,0.32,1.51-0.37,2.11
		c-0.26,0.23-0.42,0.51-0.42,0.85c-0.02,1.75-0.07,3.5,0.03,5.25c0.01,0.16,0.09,0.31,0.26,0.42c0.48-0.04,0.52-0.71,1-0.77
		c0.12,0,0.24,0.03,0.34,0.09c0.2,1.06-0.1,1.92-1.04,2.48c-0.38,0.23-0.67,0.47-0.56,0.96c0.1,0.44,0.44,0.55,0.83,0.57
		c0.81,0.04,1.14,0.69,1.59,1.2c0.05,0.18,0.04,0.36-0.06,0.52c-0.16,0.2-0.38,0.3-0.6,0.41c-0.44,0.23-1.18,0.03-1.27,0.74
		c-0.11,0.84-0.33,1.77,0.2,2.49c1.11,1.51,0.86,3.05,0.28,4.61c-0.33,0.88-0.38,1.74-0.21,2.63c0.1,0.55,0.39,0.84,1.03,0.73
		c1.88-0.34,2.05-0.11,1.41,1.73c0.2,0.39,0.72,0,0.93,0.36c0.19,0.3,0.22,0.63,0.22,0.97c-0.02,0.83-0.75,1.68,0.07,2.5
		c0.04,0.04,0.02,0.16,0,0.24c-1.09,5.86-0.28,11.72,0.07,17.57c0.03,0.58,0.15,1.19-0.47,1.52c-0.54,0.3-1.08,0.04-1.45-0.34
		c-0.77-0.79-1.91-0.36-2.73-0.92c-0.48-0.42-0.76-0.92-0.7-1.58c-0.01-1,0.58-1.92,0.28-2.98c-0.18-0.65,0.43-1.3,0.27-2.14
		c-0.65,0.85-1.44,1.41-2.3,1.9c-0.87-0.47-1.52-1.14-1.86-2.09c0.15-0.52,0.44-0.64,0.9-0.32c0.26,0.18,0.45,0.48,1,0.42
		c-0.56-1.1-1.61-1.61-2.32-2.43c-0.22-0.26-0.73-0.32-0.67-0.77c0.06-0.49,0.55-0.52,0.91-0.7c1.11-0.56,2.24-0.93,3.51-0.69
		c0.34,0.06,0.81,0.08,0.98-0.32c0.19-0.45-0.3-0.6-0.53-0.85c-0.84-0.87-0.82-1.26,0.22-1.86c0.37-0.21,0.5-0.41,0.54-0.83
		c0.13-1.5-0.59-2.66-1.42-3.79c-0.15-0.2-0.37-0.38-0.61-0.35c-1.1,0.14-1.69-0.7-2.41-1.24c-1.04-0.78-1.04-1.2-0.1-2.14
		c-0.29-0.29-0.6-0.14-0.87-0.03c-0.75,0.3-1.44,0.22-2.07-0.27c-0.38-0.3-0.79-0.33-1.26-0.34c-0.89-0.01-1.75,0.29-2.66,0.06
		c-0.57-0.14-0.88,0.53-1.37,0.7c-0.47,0.12-0.87,0-1.21-0.34c-0.13-0.22-0.13-0.47-0.15-0.71c-0.11-0.97-0.52-1.39-1.61-1.31
		c-1.39,0.1-2.86,0.38-4.16-0.5c-0.26-0.18-0.55-0.01-0.82,0.07c-0.53,0.15-0.97,0.05-1.19-0.53c0.29-1.08,0.97-1.63,2.11-1.55
		c0.98,1,1.86,0.93,2.67-0.22c0.07-0.1,0.1-0.24,0.2-0.31c2.24-1.65,1.4-3.82,1-5.91c-0.07-0.35-0.22-0.69-0.65-0.49
		c-0.72,0.32-1.48,0.42-2.25,0.54c-0.24,0.04-0.51,0.13-0.58,0.38c-0.1,0.33,0.19,0.49,0.38,0.71c0.35,0.39,1.3,0.38,0.9,1.29
		c-0.38,0.25-0.81,0.22-1.23,0.22c-0.93,0.14-1.3-0.42-1.45-1.51c-0.43,0.83-0.22,1.56-0.72,2.03c-0.31,0.2-0.65,0.31-1.02,0.21
		c-0.58-0.53-1.25-0.53-2.01-0.6c-1.82-0.16-3.6,0.82-5.41,0.13c-0.22-0.08-0.49-0.03-0.73,0.04c-0.12,0.03-0.22,0.1-0.33,0.4
		c0.97,0.38,1.78,1.12,2.82,1.43c0.49,0.15,0.98,0.23,0.89,0.92c-0.35,0.5-0.82,0.86-1.34,1.17c-0.64,0.18-1.09-0.1-1.46-0.61
		c-0.46-0.62-0.97-0.7-1.49-0.06c-0.37,0.45-0.86,0.59-1.41,0.6c-0.89,0.01-1.58,0.31-1.91,1.22c-0.14,0.38-0.35,0.82-0.83,0.76
		c-0.56-0.06-0.6-0.56-0.67-1.01c-0.17-1.05-0.61-1.19-1.43-0.46c-0.37,0.32-0.69,0.8-1.24,0.47c-0.48-0.29-0.3-0.78-0.21-1.22
		c0.06-0.28,0.15-0.61-0.21-0.73c-0.44-0.16-0.66,0.17-0.84,0.51c-0.21,0.4-0.06,1.05-0.77,1.08c-1.07-0.23-1.74-1.02-2.45-1.76
		c-0.24-0.58-0.31-1.03,0.58-1.01c1.16,0.02,2.11-0.7,3.16-1.06c0.15-0.05,0.31-0.17,0.29-0.35c-0.02-0.25-0.24-0.28-0.44-0.32
		c-0.16-0.03,0.04-0.03-0.12-0.01c-1.62,0.22-3.22,0.49-4.26,1.97c-0.55,0.18-0.93-0.2-1.35-0.42c-1.63-0.88-3.36-1.46-5.2-1.7
		c-0.32-0.04-0.69-0.18-0.9,0.16c-0.21,0.33,0.04,0.63,0.21,0.9c1.48,2.22,3.24,4.19,5.33,5.85c0.54,0.43,1.14,0.8,1.57,1.35
		c0.25,0.32,0.57,0.69,0.31,1.09c-0.26,0.41-0.74,0.29-1.12,0.14c-1.14-0.46-2.33-0.74-3.53-0.99c-5.57-1.18-11.08-1.25-16.47,0.9
		c-1.17,0.47-2.26,1.07-3.33,1.85c0.38,0.49,0.85,0.44,1.26,0.5c3.4,0.56,6.65,1.64,9.79,3.04c0.4,0.18,0.93,0.3,0.95,0.84
		c0.02,0.53-0.49,0.71-0.87,0.92c-0.93,0.52-1.9,0.94-2.89,1.33c-3.29,1.3-6.01,3.41-8.39,5.98c-0.25,0.27-0.48,0.56-0.84,0.7
		c-0.57,0.15-1.08,0.37-1.38,0.93c-0.21,0.39-0.36,0.76,0.19,1.01c0.13,0.35,0.2,0.74,0.7,0.74c1.41,0.76,2.96,0.3,4.44,0.46
		c1.09,0.12,2.25,0.27,3.26-0.56c0.41-0.33,1.08-0.22,1.39,0.34c0.31,0.57-0.09,1.02-0.56,1.16c-1.81,0.54-3.39,1.83-5.46,1.67
		c0.27,0.31,0.72,0.39,0.67,0.86c-0.25,0.33-0.62,0.41-1,0.44c-0.82-0.32-1.46,0.05-2.25,0.29c-1.54,0.48-2.83,1.36-4.24,2.02
		c-1.12,0.52-2.41,0.65-3.19,1.78c-0.11,0.16-0.33,0.29-0.53,0.27c-2.08-0.17-2.58,1.83-3.83,2.79c-0.27,0.21-0.22,0.6-0.11,0.92
		c0.2,0.58,0.43,1.14,0.83,1.63c1.31,1.6,1.17,1.29-0.74,2.07c-1.76,0.72-3.76,1.66-4.29,3.92c-0.17,0.72-0.49,1.23-1.27,1.24
		c-0.73,0.01-1,0.43-1.12,1.05c-0.17,0.86-0.33,1.72-1.45,1.84c-0.16,0.02-0.34,0.13-0.38,0.28c-0.2,0.73-1,1.2-1.16,1.7
		c-0.3,0.93-0.91,1.53-1.48,2.15c-0.84,0.91-1.46,1.83-1.75,3.08c-0.29,1.22-1.17,2.15-2.41,2.58c-0.75,0.26-0.97,0.77-1.01,1.49
		c-0.04,0.61-0.04,1.22-0.04,1.83c0.01,0.95-0.06,1.76-1.09,2.21c-0.5,0.21-0.51,0.79-0.53,1.29c-0.03,1.09-0.01,2.14-0.61,3.18
		c-0.45,0.79-0.24,1.83,0.05,2.75c-0.34,2.91-1.16,5.72-1.85,8.55c-0.32,1.3-0.32,2.67-0.88,3.91c-0.88,0.9-0.48,1.98-0.43,3.02
		c-0.1,1.52-0.36,3.02-0.53,4.54c-0.39,0.71-0.32,1.45-0.16,2.21c0.01,0.58,0.04,1.15-0.08,1.72c-0.24,0.69-0.4,1.36-0.23,2.12
		c0.15,0.68,0.02,1.37-0.32,1.99c-0.31,0.56-0.16,1,0.35,1.34c0.2,0.24,0.32,0.53,0.49,0.79c0.75,1.25,0.84,2.5,0.07,3.78
		c-0.9-0.32-0.62-1.12-0.68-1.76c-0.11-1.18-0.2-1.26-1.19-0.68c-3.39,2.02-6.9,3.78-10.6,5.17c-0.41,0.16-0.75,0.31-1.09-0.09
		c-0.5-4.31-1.01-8.62-1.51-12.92c-0.56-4.83-1.14-9.65-1.67-14.48c-0.45-4.03-0.84-8.06-1.27-12.09c-0.09-0.89-0.35-1.76-0.24-2.66
		C102.72,165.16,103.15,164.82,102.48,164.66z"/>
	<path class="st13" d="M120.74,204.9c0.42-1.26,0.51-2.49-0.25-3.67c0.68-1.04,1.81-1.49,2.82-2.06
		c6.74-3.82,13.37-7.83,19.81-12.15c6.91-4.64,13.76-9.37,20.17-14.69c0.51-0.42,0.97-1.04,1.8-0.83c1.45,2.75,3.55,4.8,6.42,6.03
		c0.16,0.1,0.26,0.24,0.22,0.44c-2.19,1.27-3.73,3.26-5.43,5.05c-1.35,1.41-2.49,3.01-3.48,4.71c-0.59,1.01-0.93,2.08-1.13,3.21
		c-0.18,1.04,0.33,1.63,1.42,1.65c1.75,0.02,3.24-0.75,4.63-1.7c2.86-1.97,5.36-4.39,8.18-6.41c3.93-2.83,7.8-5.74,11.98-8.23
		c2.01-1.19,3.7-2.92,5.53-4.41c2.97-2.41,5.93-4.85,8.86-7.32c0.32-0.27,0.6-0.71,1.15-0.53c0.91,1.15,1.16,2.59,1.59,3.92
		c1.76,5.5,3.66,10.95,5.63,16.37c0.36,0.99,0.58,2.04,1.13,2.95c0.82,2.73,1.83,5.4,2.94,8.03c0.25,0.61,0.46,1.22,0.51,1.88
		c-0.37,1.13,0.65,1.7,1.03,2.52c0.21,0.42,0.5,0.82,0.28,1.33c0,0.08,0,0.17,0,0.25c-0.07,0.44-0.4,0.7-0.71,0.96
		c-3.06,2.5-6.1,5.02-9.09,7.61c-2.12,1.84-4.26,3.67-6.4,5.49c-0.16,0.13-0.28,0.32-0.47,0.39c-1.15,0.45-2.05,1.19-2.73,2.22
		c-3.23-2.14-6.14-4.66-8.78-7.49c-0.73-0.79-1.61-1.17-2.64-1.36c-1.03-0.18-2.05-0.46-3.05-0.78c-0.69-0.22-0.93,0.06-0.92,0.67
		c0.01,0.64-0.07,1.25,0.31,1.88c0.34,0.57,0.66,1.22,0.7,1.93c0.1,1.53,1.61,2.26,2.08,3.6c0.12,0.34,0.42,0.59,0.35,1.04
		c-0.05,0.37,0.11,0.76,0.47,0.92c0.96,0.41,1.46,1.33,1.68,2.13c0.47,1.71,1.86,2.68,2.71,4.07c-2.57,1.81-4.77,4.06-7.19,6.05
		c-4.54,3.72-8.9,7.66-13.56,11.24c-2.98,2.29-6.01,4.49-9.18,6.5c-1.31,0.83-2.72,1.49-4.3,1.67c-0.61,0.07-1.15,0-1.53-0.53
		c-0.41-0.58-0.25-1.13,0.07-1.71c1.18-2.14,2.88-3.85,4.54-5.58c2.6-2.71,5.3-5.32,7.95-7.98c3.48-3.5,6.81-7.15,9.68-11.18
		c1.2-1.69,2.24-3.5,2.76-5.55c0.2-0.78,0.26-1.55-0.39-2.17c-0.66-0.63-1.42-0.5-2.18-0.23c-2.75,1-5.17,2.61-7.55,4.24
		c-3.33,2.28-6.51,4.79-9.53,7.46c-4.44,3.93-9.37,7.22-14.07,10.79c-2.89,2.2-5.92,4.19-8.78,6.43c-0.89,0.7-0.92,1.35-0.58,2.32
		c1.36,3.97,2.53,8.01,4.11,11.91c0.31,0.77,0.62,1.61,0.38,2.5c-0.31,1.72,0.52,3.26,0.81,4.88c0.02,0.12,0.11,0.26,0.21,0.28
		c1.64,0.35,1.35,1.67,1.43,2.81c-0.13,5.5-0.45,11-0.2,16.5c0.34,7.5-0.03,15,0.27,22.49c0.33,8.07,0.06,16.14,0.19,24.2
		c0.01,0.37-0.01,0.73-0.07,1.1c-0.15,0.53-0.23,1.08-0.33,1.63c-0.17,0.49-0.55,0.8-0.94,1.09c-5.61,4.17-11.16,8.43-17.04,12.21
		c-0.55,0.35-1.16,0.86-1.82,0.12c-0.59-2.55-0.66-5.16-0.99-7.74c-0.58-4.56-1.03-9.14-1.55-13.71c-0.46-4.04-0.94-8.09-1.41-12.13
		c-0.64-5.54-1.27-11.08-1.9-16.62c-0.53-4.69-1.03-9.39-1.55-14.08c-0.58-5.22-1.19-10.44-1.78-15.66
		c-0.28-2.51-0.56-5.01-0.85-7.52c4.32-3.14,8.73-6.16,13.03-9.31c2.69-1.98,5.24-4.15,7.99-6.05c0.67-0.46,0.63-1.06,0.43-1.74
		c-0.85-2.98-1.6-5.98-2.38-8.98c-1.08-4.15-1.88-8.35-2.79-12.53c-0.23-1.05-0.66-1.76-1.68-2.19c-2.04-0.85-3.25-2.6-4.25-4.42
		c-1.56-2.84-2.43-5.95-2.97-9.14C120.52,205.74,120.35,205.28,120.74,204.9z"/>
	<path class="st4" d="M94.28,280.37c1.56-4.4,3.12-8.79,4.69-13.19c0.66,2.03,0.65,4.15,0.9,6.24c0.78,6.34,1.48,12.69,2.19,19.04
		c0.69,6.19,1.35,12.38,2.05,18.57c0.77,6.8,1.59,13.59,2.36,20.38c0.7,6.11,1.34,12.22,2.05,18.33c0.77,6.67,1.59,13.34,2.37,20.01
		c0.28,2.38,0.51,4.77,0.77,7.15c-5.56-3.28-11.14-6.55-16.46-10.2c-5.85-4.01-11.45-8.35-16.83-12.97
		c-2.56-2.2-5.01-4.53-7.58-6.72c1.82-5.18,3.62-10.36,5.45-15.54c4.14-11.7,8.29-23.4,12.43-35.1c1.75-4.95,3.51-9.89,5.26-14.84
		C94.06,281.15,94.16,280.76,94.28,280.37z"/>
	<path class="st14" d="M144.99,62.06c-1.44,1.62-3.32,2.72-4.91,4.16c-4.47,4.02-9.14,7.81-13.77,11.65c-1.79,1.48-3.54,3-5.2,4.61
		c-2.12,2.06-4.08,4.3-5.5,6.95c-0.65,1.21-0.52,2.25,0.37,3.23c0.8,0.89,1.72,1.16,2.96,0.86c2.82-0.68,5.26-2.13,7.68-3.62
		c3.6-2.21,6.93-4.8,10.41-7.19c2.68-1.84,5.53-3.43,8.32-5.11c3.13-1.88,6.15-3.94,9.41-5.62c0.67-0.34,1.38-0.68,1.85-0.01
		c0.47,0.67,0.1,1.26-0.58,1.83c-1.61,1.37-3.06,2.92-4.63,4.35c-2.92,2.65-5.97,5.14-9.01,7.65c-0.31,0.26-0.66,0.49-0.93,0.79
		c-0.49,0.54-0.94,0.93-1.57,0.17c-0.2-0.24-0.53-0.26-0.79-0.1c-0.26,0.16-0.22,0.45-0.07,0.65c0.69,0.88,0.03,1.35-0.58,1.74
		c-2.9,1.88-5.52,4.15-8.26,6.25c-3.12,2.39-6.23,4.81-9.3,7.27c-3.84,3.07-7.66,6.16-11.35,9.4c-1.12,0.99-2.29,1.95-3.35,3.01
		c-2.47,2.47-4.93,4.94-7.41,7.4c-0.24,0.24-0.48,0.93-0.98,0.23c-0.93-8.54-1.81-17.09-2.8-25.62c-0.98-8.53-1.89-17.07-2.59-25.63
		c-0.24-3-0.46-6.02-0.27-9.04c0.62-0.56,1.39-0.39,2.1-0.39c9.58-0.01,19.17,0.13,28.75-0.05c6.68-0.13,13.36-0.17,20.05-0.19
		C143.69,61.65,144.42,61.51,144.99,62.06z"/>
	<path class="st15" d="M70.78,347.02c0.4-0.24,0.67-0.04,0.95,0.25c3.07,3.19,6.52,5.95,9.89,8.79c3.42,2.88,6.98,5.57,10.59,8.18
		c4.1,2.97,8.37,5.69,12.71,8.3c1.9,1.15,3.82,2.27,5.76,3.36c0.45,0.25,0.74,0.58,0.97,1.01c0.49,3.96,0.99,7.91,1.46,11.87
		c0.19,1.55,0.17,1.55-1.68,1.66c-2.13,0-4.25-0.01-6.38-0.01c-1.51-0.03-3.02-0.07-4.53-0.08c-14.52-0.08-29.05-0.16-43.57-0.24
		c-1.44-0.01-1.48-0.02-0.98-1.43c3.18-9.02,6.38-18.04,9.59-27.06C67.29,356.75,69.04,351.88,70.78,347.02z"/>
	<path class="st16" d="M144.99,62.06c-4.9,0.05-9.79,0.02-14.69,0.1c-9.62,0.17-19.25,0.11-28.87,0.14
		c-3.1,0.01-6.21-0.01-9.31-0.01c-0.11-1.84-0.04-1.94,1.84-1.94c14-0.02,28.01,0.09,42.01-0.1c8.32-0.11,16.65,0.04,24.97-0.23
		c7.96-0.26,15.91-0.21,23.87-0.09c5.79,0.09,11.59-0.05,17.37,0.21c4.49,0.2,8.97,0.06,13.46,0.23c2.64,0.1,5.28,0.27,7.92,0.47
		c1.18,0.09,2.84,1.43,3.05,3.23c0.19,1.69,0.21,3.4,0.45,5.09c0.53,3.78,0.96,7.57,1.4,11.37c0.38,3.23,0.7,6.46,1.09,9.69
		c0.43,3.62,0.92,7.24,1.36,10.87c0.37,3.06,0.71,6.13,1.07,9.2c0.45,3.79,0.92,7.58,1.36,11.37c0.38,3.23,0.73,6.46,1.1,9.69
		c0.32,2.82,0.66,5.64,1,8.46c0.39,3.26,0.8,6.53,1.2,9.79c0.89,7.26,1.86,14.51,2.64,21.78c0.4,3.72,0.86,7.42,1.28,11.14
		c0.68,5.89,1.53,11.75,2.14,17.65c0.34,3.28,0.83,6.53,1.11,9.82c0.3,3.59,0.9,7.16,1.34,10.75c0.38,3.14,0.7,6.29,1.07,9.44
		c0.42,3.63,0.87,7.26,1.31,10.89c0.45,3.67,0.95,7.33,1.35,11c0.51,4.64,1.06,9.27,1.69,13.89c0.43,3.22,0.68,6.46,1.05,9.68
		c0.41,3.51,0.88,7.01,1.3,10.52c0.4,3.31,0.76,6.62,1.15,9.93c0.33,2.82,0.66,5.64,1,8.46c0.39,3.22,0.79,6.44,1.19,9.67
		c0.56,4.51,1.14,9.03,1.67,13.54c0.54,4.56,0.99,9.13,1.54,13.68c0.43,3.59,0.96,7.16,1.39,10.74c0.46,3.83,0.83,7.67,1.29,11.51
		c0.51,4.28,1.16,8.54,1.58,12.82c0.32,3.23,0.75,6.45,1.11,9.68c0.43,3.79,0.91,7.58,1.36,11.37c0.14,1.21,0.31,2.42,0.35,3.64
		c0.09,2.5-0.21,2.77-2.7,2.63c-0.02-2.93-0.51-5.82-0.84-8.72c-0.34-2.98-0.75-5.95-1.11-8.92c-0.37-2.98-0.71-5.95-1.07-8.93
		c-0.29-2.46-0.6-4.91-0.89-7.37c-0.44-3.74-0.88-7.49-1.31-11.23c-0.3-2.58-0.59-5.15-0.9-7.73c-0.37-2.98-0.77-5.95-1.13-8.92
		c-0.3-2.46-0.53-4.92-0.83-7.37c-0.46-3.78-0.96-7.56-1.4-11.34c-0.3-2.54-0.51-5.08-0.81-7.62c-0.35-2.98-0.76-5.95-1.12-8.93
		c-0.38-3.14-0.71-6.28-1.07-9.42c-0.28-2.38-0.56-4.75-0.85-7.13c-0.36-2.98-0.74-5.96-1.1-8.93c-0.36-3.02-0.7-6.04-1.07-9.06
		c-0.38-3.14-0.77-6.27-1.15-9.41c-0.39-3.18-0.78-6.35-1.16-9.53c-0.36-3.02-0.7-6.04-1.05-9.06c-0.47-4.03-0.95-8.05-1.42-12.08
		c-0.42-3.58-0.84-7.17-1.27-10.75c-0.37-3.02-0.78-6.02-1.15-9.04c-0.37-3.1-0.69-6.21-1.06-9.31c-0.37-3.1-0.78-6.19-1.14-9.29
		c-0.21-1.81-0.38-3.63-0.57-5.44c-0.04-0.35,0.09-0.75-0.23-1.04c-0.79-1.05-0.72-2.33-0.81-3.51c-0.36-4.63-1.14-9.21-1.63-13.83
		c-0.86-8.18-2.04-16.33-2.88-24.51c-0.15-1.46-0.52-2.89-0.46-4.37c-0.47-3.11-0.78-6.23-1.19-9.35c-0.6-4.61-1.01-9.24-1.61-13.86
		c-0.27-2.06-0.56-4.13-0.69-6.2c-0.08-1.34-0.32-2.66-0.29-4.01c-0.01-0.32-0.01-0.64-0.02-0.97c-0.5-0.58-0.35-1.32-0.46-1.99
		c-0.55-3.42-0.9-6.86-1.34-10.29c-0.06-0.48-0.14-0.97,0.09-1.44c0-0.16,0-0.33,0-0.49c-0.82-1.4-0.58-2.96-0.68-4.46
		c-0.01-0.23,0.15-0.47-0.04-0.69l0,0c-0.27-0.28-0.35-0.63-0.37-1c-0.12-2.22-0.52-4.41-0.55-6.65c-0.01-1.03-0.45-2.06-0.31-3.13
		c0-0.32-0.01-0.65-0.01-0.97c-0.28-0.28-0.31-0.62-0.22-0.98c-0.01-0.24-0.02-0.49-0.03-0.73c-0.73-1.24-0.66-2.67-0.77-4.01
		c-0.13-1.61-0.29-3.21-0.44-4.82c0-0.08,0-0.16-0.01-0.24c-0.95-1.27-2.3-1.74-3.8-1.83c-1.09-0.07-2.18-0.01-3.28-0.02
		c-0.52-0.01-1.06,0.05-1.49-0.36c-0.25-0.28-0.59-0.23-0.91-0.22c-5.79,0.07-11.57-0.19-17.35-0.31
		c-14.55-0.29-29.1-0.18-43.65-0.14C150.29,61.87,147.64,62,144.99,62.06z"/>
	<path class="st14" d="M120.74,204.9c0.67,4.61,1.82,9.05,4.84,12.78c0.76,0.94,1.75,1.56,2.87,2c0.65,0.25,1.02,0.66,1.18,1.4
		c0.83,3.96,1.69,7.92,2.63,11.87c0.85,3.59,1.74,7.16,2.83,10.69c0.23,0.74,0.13,1.27-0.56,1.78c-4.45,3.26-8.86,6.59-13.31,9.85
		c-2.48,1.82-5.03,3.56-7.56,5.32c-0.09,0.07-0.3-0.03-0.45-0.05c-1.22-10.76-2.45-21.53-3.67-32.29
		c-0.76-6.68-1.5-13.35-2.25-20.03c-0.02-0.2,0.01-0.41,0.02-0.61c0.65,0.26,1.02-0.34,1.53-0.51c3.59-1.2,6.9-3,10.13-4.95
		c1.25-0.75,1.45-0.65,1.52,0.84C120.53,203.63,120.37,204.3,120.74,204.9z"/>
	<path class="st14" d="M123.22,348c0.5,0.21,1.03,0.1,1.39-0.16c2.49-1.81,5.17-3.35,7.59-5.27c2.51-1.98,5.17-3.78,7.76-5.67
		c0.95-0.69,1.88-1.42,2.82-2.13c0.57,0.68,0.38,1.47,0.32,2.23c-0.38,4.64-1.13,9.23-1.75,13.84c-1.47,10.96-3.2,21.87-4.88,32.8
		c-0.2,1.28-0.3,2.59-0.7,3.84c-0.29,0.55-0.75,0.95-1.22,1.33c-1.51,1.23-2.99,2.49-4.35,3.9c-0.43,0.45-0.82,1.18-1.69,0.91
		c-0.3-2.4-0.62-4.8-0.91-7.21c-0.77-6.46-1.52-12.92-2.28-19.38c-0.64-5.45-1.26-10.9-1.89-16.35
		C123.34,349.79,123.1,348.91,123.22,348z"/>
	<path class="st17" d="M150.63,395.53c0.27,2.12,1.85,3.19,3.42,4.28c2.43,1.7,5.23,2.67,7.82,4.06
		c-5.94-0.01-11.87,0.03-17.81-0.05c-2.79-0.04-5.58-0.3-8.37-0.46c-0.59-0.6-0.61-1.4-0.7-2.16c-0.2-1.72-0.42-3.46,0.1-5.17
		c1.09-0.68,2.25-0.19,3.33-0.08c3.99,0.41,7.95,0.69,11.86-0.48C150.4,395.44,150.52,395.5,150.63,395.53z"/>
	<path class="st18" d="M135.17,396.05c-0.05,2.45,0.02,4.9,0.52,7.31c-1.82-0.05-3.73,0.18-4.9-1.73c-0.99-1.62-1.6-3.38-1.93-5.24
		c-0.17-0.92-0.24-1.85-0.36-2.78c1.07-0.4,1.65-1.4,2.46-2.1c1.47-1.27,2.94-2.55,4.41-3.82c0.05,0.04,0.1,0.08,0.16,0.12
		c0.31,1.43-0.27,2.78-0.4,4.17c-0.08,0.84-0.28,1.67-0.38,2.51C134.69,395.09,134.78,395.59,135.17,396.05z"/>
	<path class="st13" d="M102.48,164.66c0.24-0.21-0.01-0.65,0.48-0.84c0.19,0.63,0.35,1.19-0.35,1.62
		C102.57,165.18,102.52,164.92,102.48,164.66z"/>
	<path class="st19" d="M340.52,161.28c0.42,3.43,0.85,6.85,1.27,10.28c0.06,0.77-0.6,1.05-1.05,1.38c-2.25,1.62-4.65,2.89-7.55,2.36
		c-4.28-0.78-6.46-3.48-6.09-7.82c0.24-2.73,1.09-5.37,2.17-7.91c0.31-0.27,0.69-0.2,1.05-0.16c2.79,0.25,5.4-0.33,7.84-1.69
		c0.46-0.26,0.95-0.47,1.49-0.51c0.75,0.13,0.49,0.67,0.44,1.12C340.29,159.29,340.11,160.33,340.52,161.28z"/>
	<path class="st20" d="M321.4,162.96c-0.06,0-0.13,0-0.19,0c-0.01-0.31-0.02-0.63-0.02-0.94c0.86-2.1,1.15-4.18-0.11-6.24
		c-0.28-0.45-0.21-0.77,0.39-0.83c2.45,0.68,4.89,1.4,7.43,1.66c0.2,0.02,0.38,0.14,0.51,0.3c0.27,0.66,0.38,1.3-0.18,1.89
		C326.52,160.01,323.87,161.33,321.4,162.96z"/>
	<path class="st21" d="M329.22,158.8c0-0.63,0-1.27,0-1.9c0.66-0.6,1.46-0.34,2.21-0.37c2.19-0.08,4.27-0.5,6.06-1.88
		c0.61-0.11,0.59,0.43,0.75,0.76c0.34,0.73,0.59,1.52,1.33,1.98c-2.49,1.41-5.1,2.44-8.02,2.41c-0.76-0.01-1.51-0.15-2.27-0.24
		C329.09,159.32,329.15,159.06,329.22,158.8z"/>
	<path class="st19" d="M337.62,154.68c-0.77,1.53-2.38,1.49-3.7,1.92c-1.52,0.5-3.13,0.21-4.7,0.31c-2.7-0.14-5.31-0.71-7.81-1.76
		c-0.94-0.17-1.86-0.36-2.39-1.29c-0.5-3.99-1.14-7.98-0.86-12.02c0.19-2.7,1.14-5.24,1.8-7.84c0.15-0.6,0.65-0.69,1-0.2
		c0.93,1.3,1.66,2.74,1.66,4.38c0,0.93-0.73,1.5-1.5,1.94c-0.64,0.37-1.29,0.71-1.73,1.33c-0.55,0.79-0.27,1.57,0.65,1.56
		c1.98,0,3.82-0.53,5.37-1.84c-1.1,0.37-2.03,1.13-3.19,1.39c-0.6,0.13-1.17,0.36-1.79,0.38c-0.43,0.01-0.83-0.09-1.02-0.52
		c-0.2-0.43,0-0.8,0.27-1.12c0.44-0.5,1.05-0.76,1.6-1.11c1.53-0.97,1.86-1.89,1.26-3.62c-0.38-1.08-0.87-2.12-1.45-3.1
		c-0.56-0.93-0.77-1.86-0.47-2.91c0.14-0.48,0.05-0.97,0.07-1.43c-0.17,0.42,0.38,1.13-0.51,1.31c-0.35-0.31-0.2-0.85-0.57-1.33
		c-0.87,1.11-1.36,2.31-1.79,3.51c-0.39,1.07-0.76,2.15-1.19,3.21c-0.09,0.21-0.22,0.5-0.51,0.42c-0.27-0.07-0.29-0.36-0.31-0.61
		c-0.04-0.42,0.13-0.8,0.2-1.2c0.49-2.69,1.01-5.36,1.57-8.03c0.15-0.7,0.14-1.42-0.03-2.3c-0.74,0.62-1.03,1.3-1.29,1.96
		c-1.12,2.8-2.17,5.63-2.59,8.65c-0.08,0.57-0.09,1.58-0.68,1.49c-0.71-0.11-0.42-1.07-0.37-1.69c0.26-3.25,0.49-6.5,0.39-9.76
		c-0.01-0.33,0.12-0.84-0.38-0.88c-0.36-0.03-0.49,0.4-0.56,0.71c-0.22,0.91-0.67,1.75-0.89,2.67c-0.12,0.47-0.22,0.96-0.68,1.26
		c-0.85-0.1-0.59-0.74-0.53-1.2c0.12-0.88,0.36-1.75,0.38-2.64c0-0.04,0.25-0.31-0.1-0.18c-0.07,0.02-0.12,0.1-0.2,0.13
		c-0.37-0.79-1.46-1.16-1.3-2.25c0.61-2.02,1.64-3.79,3.13-5.31c2.23-2.26,4.63-4.37,6.47-6.99c0.46-0.66,0.66-0.23,0.94,0.15
		c1.72,2.27,3.48,4.52,5.18,6.81c0.43,0.58,0.93,0.96,1.6,1.17c-0.37,0.48-0.34,0.95-0.04,1.47c0.37,0.64,0.83,1.21,1.33,1.75
		c1.9,2.11,3.14,4.67,4.77,6.96c0.24,0.34,0.48,0.78,0.05,1.08c-0.47,0.33-0.72-0.18-0.98-0.45c-1.97-2.07-3.96-4.11-6.17-5.94
		c-0.09-0.08-0.17-0.17-0.27-0.25c-0.58-0.44-1.34-1.21-1.9-0.69c-0.55,0.52,0.44,1.06,0.81,1.5c1.53,1.86,3.3,3.5,4.77,5.42
		c0.47,0.62,0.9,1.26,1.23,1.97c0.1,0.21,0.25,0.47,0.01,0.66c-0.22,0.18-0.48,0.06-0.67-0.09c-0.58-0.45-1.18-0.87-1.71-1.39
		c-1.11-1.09-2.37-1.99-3.61-2.92c-0.4-0.3-0.83-0.52-1.35-0.46c-0.62,0.6-0.16,1.11,0.16,1.58c0.8,1.18,1.63,2.35,2.74,3.26
		c2.41,1.97,3.59,4.65,4.62,7.47c1.01,2.76,2.26,5.41,4.08,7.75c1.08,1.4,2.64,2.14,4.3,2.65c0.78,0.24,1.37,0.61,0.98,1.58
		C337.86,151.95,338.07,153.46,337.62,154.68z"/>
	<path class="st22" d="M322.19,126.5c1.04-0.24,1.67,0.52,2.35,1.05c1.67,1.32,3.29,2.69,5.16,4.24c-1.22-2.75-3.22-4.49-4.92-6.47
		c-0.74-0.86-1.51-1.7-2.28-2.54c-0.27-0.29-0.45-0.63-0.22-0.99c0.21-0.32,0.6-0.24,0.91-0.18c0.73,0.15,1.32,0.56,1.89,1.05
		c2.43,2.09,4.69,4.34,6.89,6.73c0.38-0.46,0.03-0.68-0.15-0.97c-1.89-3.08-4.04-5.98-6.18-8.88c-0.4-0.53-0.74-1.23,0.42-1.37
		c1.2,0.32,1.89,1.4,2.92,1.99c1.63,0.76,2.48,2.32,3.6,3.59c0.78,0.88,1.43,1.87,1.78,2.45c-1.33-2.44-3.49-4.9-5.39-7.55
		c-0.4-0.55-1.06-1.13-0.39-1.93c0.85-0.54,1.58-0.08,2.27,0.33c1.8,1.05,3.07,2.64,4.27,4.3c5.18,7.16,8.71,15.13,11.55,23.44
		c0.34,1,0.68,2,1.03,3c0.04,0.47-0.34,0.55-0.63,0.55c-2.5,0.05-4.71,0.98-6.87,2.12c-3.99-1.64-7.35-3.9-9.01-8.19
		c-0.89-2.31-1.78-4.62-2.86-6.86c-0.82-1.69-2-3.06-3.41-4.24c-1.12-0.93-1.93-2.09-2.64-3.33
		C322.03,127.43,321.72,126.97,322.19,126.5z"/>
	<path class="st22" d="M308.74,122.33c0.32,0.21,0.02,0.81,0.75,0.87c0.66,0.05,0.33,0.86,0.43,1.34c0.61,0.77,0.18,1.6,0.04,2.34
		c-0.49,2.62-0.41,5.28-0.65,7.91c0.27-2.13-0.1-4.36,1.09-6.34c0.42-1.26,0.83-2.53,1.25-3.79c0.13-0.38,0.13-0.83,0.49-1.09
		c0.25-0.18,0.47-0.54,0.84-0.4c0.36,0.14,0.36,0.5,0.37,0.83c0.05,3.54-0.05,7.08-0.45,10.6c-0.05,0.47-0.01,0.95,0.07,1.44
		c0.52-1.87,0.71-3.81,1.35-5.64c0.72-2.07,1.34-4.18,2.46-6.09c0.22-0.37,0.46-0.93,0.94-0.79c0.45,0.13,0.24,0.71,0.28,1.1
		c0.15,1.61-0.38,3.13-0.67,4.68c-0.39,2.11-0.85,4.21-1.27,6.31c-0.03,0.14,0.03,0.3,0.06,0.64c0.85-2,1.29-3.95,2.21-5.71
		c0.28-0.54,0.6-1.06,0.9-1.59c0.15-0.26,0.33-0.51,0.66-0.43c0.37,0.08,0.31,0.43,0.32,0.7c0.01,0.41,0.02,0.82,0.02,1.22
		c0.45,0.96,0.08,1.91-0.14,2.82c-0.52,2.17-1.12,4.32-1.63,6.49c-0.62,2.61-0.35,5.23-0.09,7.85c0.17,1.73,0.41,3.45,0.49,5.19
		c0.02,0.43,0.11,0.91-0.32,1.23c-0.36,0.19-0.71,0.1-1.06-0.03c-2.91-1.06-5.9-1.4-8.98-1.01c-0.44,0.06-0.9,0.1-1.25-0.27
		c-0.44-2.82-1.06-5.62-1.28-8.45c-0.53-6.78-0.4-13.53,2.22-19.97C308.44,123.65,308.24,122.89,308.74,122.33z"/>
	<path class="st23" d="M307.23,152.71c3.09-0.43,6.14-0.28,9.17,0.49c0.7,0.18,1.26,0.75,2.04,0.68c0.27-0.11,0.54-0.17,0.8,0.03
		c0.72,0.41,1.45,0.82,2.17,1.23c-0.8,0.16-0.14,0.41-0.01,0.56c0.88,1.01,1.13,5.1,0.33,6.11c-0.1,0.13-0.36,0.15-0.54,0.21
		c-1.56-0.59-2.64-1.95-4.16-2.61c-1.53-0.67-3.04-1.21-4.74-1.36c-1.83-0.16-3.63,0.07-5.44,0.05c-0.45-0.01-0.9-0.03-1.29,0.25
		C304.46,156.21,305.28,153.47,307.23,152.71z"/>
	<path class="st8" d="M340.03,150.26c2.17-1.42,4.51-2.29,7.15-2.23c0.21,0,0.39-0.06,0.51-0.25c2.09,0.41,3.02,1.97,3.79,3.74
		c0.41,0.95,0.74,1.87,0.34,2.9c-0.28-0.15-0.41-0.49-0.8-0.49c-3.02,0-6.02-0.18-8.76,1.69c-1.09,0.75-2.05,1.29-2.16,2.69
		c-0.15-0.33,0.18-0.92-0.53-0.92c-1.47,0.07-1.2-1.33-1.71-2.06c-0.12-0.17-0.01-0.48-0.23-0.65c-0.22-1.51-0.18-2.91,1.44-3.71
		C339.15,150.42,339.61,150.37,340.03,150.26z"/>
	<path class="st11" d="M356.23,157.35c-0.79,0.3-0.22,0.74-0.05,1.04c1.93,3.43,3.93,6.82,5.82,10.27
		c3.72,6.83,7.72,13.53,10.62,20.78c0.45,1.12,0.85,2.27,1.1,3.49c-6.63-12.48-13.91-24.58-20.91-36.84
		C353.96,156.5,355.09,156.93,356.23,157.35z"/>
	<path class="st24" d="M328.57,116.71c-0.11,0.8,0.34,1.38,0.78,1.97c1.83,2.48,3.89,4.79,5.3,7.57c0.17,0.34,0.53,0.62,0.39,1.24
		c-1.93-2.63-3.84-5.12-6.07-7.35c0.67-0.13,0.25-0.45,0.08-0.64c-0.49-0.52-0.81-1.12-0.96-1.81
		C328.01,117.3,327.82,116.75,328.57,116.71z"/>
	<path class="st25" d="M143.01,333.28c-0.01-7.91,0.12-15.82-0.07-23.73c-0.12-5.13-0.1-10.26-0.17-15.4
		c-0.08-5.99-0.33-11.98-0.16-17.97c0.07-2.61,0.14-5.21,0.22-7.82c0.27-2.18,0.28-2.12,2.63-2.39c4.34-0.48,8.66-1.12,13-1.56
		c5.52-0.56,11.05-1.13,16.6-0.81c5.1,0.29,10.11,1.25,15.1,2.35c2.91,0.64,5.8,1.35,8.69,2.1c0.82,0.21,1.7,0.42,1.75,1.54
		c0.63,4.63,1.3,9.26,1.88,13.9c0.49,3.83,0.91,7.67,1.31,11.51c0.3,2.87,0.53,5.75,0.79,8.63c0.35,1.13-0.24,1.85-1.05,2.5
		c-1.62,1.3-3.25,2.6-4.89,3.88c-4.99,3.88-9.66,8.15-14.75,11.91c-0.41,0.3-0.74,0.8-1.38,0.56c-2.46-12.1-5.09-24.17-7.89-36.2
		c-0.27-1.18-0.58-2.35-1.11-3.54c-0.27,1.51-0.55,3.02-0.81,4.53c-1.26,7.12-2.48,14.25-3.77,21.36
		c-1.57,8.72-3.23,17.42-5.09,26.08c-0.13,0.59-0.14,1.22-0.52,1.73c-1.84,1.13-3.74,2-5.98,1.31c-2.13-0.66-2.77-2.25-1.67-4.16
		c1.32-2.31,3.52-3.71,5.53-5.29c1.06-0.83,2.15-1.62,3.11-2.57c0.33-0.33,0.85-0.68,0.65-1.22c-0.23-0.63-0.88-0.67-1.45-0.68
		c-2.02-0.05-3.86,0.63-5.61,1.53c-3.93,2.01-7.64,4.38-11.16,7.05c-0.81,0.62-1.65,1.19-2.51,1.75c-0.34,0.22-0.72,0.6-1.1,0.36
		C142.7,334.23,142.93,333.71,143.01,333.28z"/>
	<path class="st26" d="M140.58,260.52c-0.13-1.9-1.13-3.53-1.69-5.3c-1.01-3.17-2.12-6.32-3.17-9.47c-0.23-0.69-0.18-1.17,0.54-1.73
		c5.16-3.96,10.48-7.69,15.74-11.51c3.22-2.34,6.22-4.97,9.29-7.51c4.32-3.58,8.75-7.02,13.75-9.61c0.57-0.3,1.21-0.47,1.81-0.71
		c0.87-0.35,1.69-0.32,2.38,0.36c0.68,0.68,0.67,1.52,0.42,2.4c-0.72,2.53-2.07,4.72-3.63,6.8c-4.87,6.53-10.9,11.99-16.55,17.8
		c-1.75,1.8-3.56,3.57-4.8,5.82c-0.28,0.52-0.51,0.92-0.17,1.43c0.35,0.53,0.87,0.46,1.43,0.38c2.13-0.3,3.84-1.47,5.57-2.6
		c4.76-3.12,9.24-6.62,13.55-10.34c3.42-2.94,6.91-5.79,10.36-8.71c1.09-0.92,2.13-1.89,3.16-2.88c0.44-0.42,0.86-0.75,1.5-0.63
		c0,0,0,0,0,0c0.75,0.96,1.35,2.01,1.71,3.19c1.56,3.2,3.25,6.35,4.66,9.62c1.96,4.55,3.43,9.26,4.24,14.18
		c0.51,3.09,0.81,6.18,1.15,9.28c-0.43,0.3-0.87,0.14-1.29,0.02c-5.5-1.56-11.09-2.73-16.77-3.37c-4.82-0.54-9.66-0.58-14.52-0.29
		c-5.01,0.29-9.99,0.78-14.97,1.32c-4.25,0.46-8.48,1.12-12.66,2.09C141.28,260.62,140.93,260.78,140.58,260.52z"/>
	<path class="st27" d="M143.01,333.28c0.03,0.36,0.06,0.71,0.12,1.29c1.83-1.32,3.5-2.59,5.24-3.77c3.66-2.49,7.32-4.99,11.47-6.63
		c1.3-0.52,2.65-0.75,4.05-0.68c0.7,0.03,1.31,0.34,1.61,0.93c0.28,0.54-0.36,0.84-0.66,1.19c-1.47,1.72-3.45,2.81-5.15,4.25
		c-1.42,1.21-2.95,2.32-3.86,4.02c-0.88,1.65-0.29,2.99,1.5,3.58c1.45,0.48,2.8,0.16,4.15-0.39c0.6-0.24,1.23-0.43,1.84-0.64
		c-0.47,3.58-1.47,7.05-2.2,10.58c-1.12,5.44-2.26,10.87-3.43,16.29c-0.7,3.25-1.47,6.48-2.2,9.72c-1.34,1.45-3.07,2.4-4.66,3.52
		c-4.7,3.3-9.3,6.71-13.79,10.29c-0.46,0.37-0.86,0.9-1.55,0.84c0,0-0.1,0-0.1,0c0.35-2.03,0.71-4.06,1.04-6.1
		c0.54-3.36,1.08-6.72,1.58-10.08c0.55-3.64,1.08-7.29,1.6-10.94c0.55-3.81,1.11-7.62,1.61-11.43c0.48-3.61,1.1-7.21,1.35-10.85
		c0.08-1.17,0.32-2.34,0.21-3.52C142.86,334.27,142.65,333.74,143.01,333.28z"/>
	<path class="st14" d="M232.7,140.96c0.33,3.42,0.72,6.84,1.19,10.24c0.33,2.4,0.52,4.83,0.81,7.24c0.34,2.89,0.72,5.78,1.07,8.67
		c0.3,2.45,0.59,4.9,0.88,7.35c0.27,2.25,0.54,4.5,0.8,6.76c0.23,2.01,0.45,4.02,0.68,6.03c-0.44,0.64-1.18,0.86-1.81,1.13
		c-4.48,1.88-8.54,4.46-12.41,7.37c-2.13,1.6-4.45,2.97-6.36,4.86c-0.28,0.28-0.6,0.4-0.99,0.37c-0.16-0.41-0.33-0.81-0.49-1.22
		c-0.14-0.89-1.16-1.43-0.98-2.45c-1.08-2.89-2.14-5.79-3.24-8.67c-0.18-0.48-0.16-0.95-0.22-1.42c-0.2-0.26-0.13-0.55-0.08-0.82
		c0.28-1.48,0.46-2.97,0.56-4.48c0.08-1.26,0.38-2.5,1.16-3.56c1.46-1.97,1.61-4.22,1.37-6.53c-0.09-0.85-0.18-1.7-0.11-2.56
		c0.11-1.32,0.93-1.7,2-0.9c0.91,0.69,1.71,1.51,2.35,2.47c0.77,1.15,1.55,2.3,2.15,3.55c0.12,0.24,0.2,0.62,0.53,0.6
		c0.42-0.02,0.42-0.45,0.49-0.75c0.56-2.35,0.32-4.7-0.14-7.03c-0.89-4.53-2.3-8.91-3.81-13.27c-0.15-0.42-0.36-0.83-0.32-1.29
		c0.04-0.39,0.25-0.68,0.55-0.9c1.14-0.82,2.05-1.93,3.3-2.6c1,0.19,1.22-0.65,1.62-1.25c2.77-2.3,5.63-4.49,8.36-6.82
		C231.93,140.8,232.3,140.59,232.7,140.96z"/>
	<path class="st25" d="M166.55,393.58c-2.03-1.11-2.06-1.12-1.22-3.43c3.85-10.69,7.71-21.38,11.58-32.07c0.12-0.34,0.3-0.67,0.45-1
		c1.21-1.56,3.01-2.32,4.59-3.35c3.68-2.39,7.49-4.57,11.26-6.82c2.86-1.71,5.76-3.35,8.69-4.93c0.46-0.25,1.1-1,1.7-0.08
		c-1.29,4.46-2.93,8.8-4.65,13.11c-4.89,12.21-10.49,24.1-16.42,35.84c-0.09,0.18-0.19,0.36-0.29,0.54
		c-0.18,0.57-0.67,0.8-1.14,1.02c-4.21,2.01-8.64,2.46-13.21,1.76C167.39,394.07,166.96,393.86,166.55,393.58z"/>
	<path class="st27" d="M203.6,341.88c-0.76-0.44-1.31,0.19-1.83,0.49c-6.05,3.49-12.08,7.01-18.08,10.58
		c-2.16,1.29-4.23,2.74-6.33,4.12c1.56-4.45,3.21-8.86,4.66-13.35c1.05-3.26,2.76-6.41,2.43-9.99c-0.28-3.07-0.92-6.09-1.51-9.11
		c-0.14-0.71-0.27-1.43-0.41-2.14c2.4-1.54,4.56-3.39,6.76-5.19c4.58-3.77,9.12-7.59,13.83-11.21c0.82-0.63,1.66-1.22,1.48-2.45
		c0.47,1.53,0.25,3.13,0.38,4.69c0.34,4.17,0.6,8.35,0.61,12.54c0,1.61,0.2,3.24,0.15,4.87c-2.4,1.88-4.8,3.77-6.9,6
		c-0.73,0.77-1.43,1.57-1.92,2.52c-0.97,1.88-0.07,3.27,2.02,3.13c1.62-0.11,3.03-0.87,4.48-1.52c0.49-0.23,0.95-0.69,1.58-0.39
		c0.12,1.32-0.46,2.51-0.71,3.77C204.1,340.12,203.83,341,203.6,341.88z"/>
	<path class="st28" d="M140.58,260.52c3.75-1.26,7.67-1.64,11.55-2.17c4.33-0.59,8.69-0.94,13.05-1.31
		c4.39-0.37,8.77-0.56,13.16-0.39c2.74,0.11,5.48,0.3,8.22,0.79c2.38,0.43,4.83,0.66,7.17,1.23c2.71,0.65,5.45,1.21,8.1,2.1
		c0.99,0.23,1.39,0.83,1.55,1.87c0.29,1.81,0.14,3.54-0.25,5.3c-0.2,0.88-0.57,1.27-1.48,1.18c-0.4-0.04-0.95-0.21-1.05,0.48
		c-0.31-0.85-1.1-1.02-1.82-1.19c-4.46-1.06-8.91-2.18-13.4-3.07c-2.7-0.53-5.44-0.88-8.18-1.17c-2.85-0.3-5.7-0.28-8.55-0.18
		c-3.48,0.12-6.96,0.46-10.43,0.89c-3.06,0.38-6.12,0.69-9.19,1.04c-1.77,0.2-3.53,0.56-5.33,0.5c-0.47-0.02-0.64,0.22-0.66,0.67
		c-0.02,0.44,0.12,0.91-0.21,1.3c-0.01-0.41-0.04-0.81-0.02-1.21c0.02-0.5-0.16-0.76-0.69-0.75c-0.47,0.01-0.94-0.04-1-0.64
		c-0.14-1.49-0.65-2.9-0.95-4.36C140.07,260.98,140.2,260.7,140.58,260.52z"/>
	<path class="st25" d="M135.48,387.69c5.54-4.38,11.13-8.7,17.03-12.6c1.01-0.67,1.84-1.58,2.98-2.05
		c-0.92,4.39-1.84,8.78-2.76,13.17c-0.62,2.97-1.25,5.94-1.88,8.91c-0.03,0.15-0.14,0.28-0.22,0.42c-1.69,0.91-3.57,1.09-5.4,1.18
		c-3.04,0.16-6.07-0.33-9.09-0.64c-0.32-0.03-0.65-0.01-0.98-0.02c-0.78,0.03-1.02-0.23-0.86-1.09
		C134.77,392.55,135.1,390.12,135.48,387.69z"/>
	<path class="st26" d="M197.15,217.89c0.28-1.05,0.76-1.74,1.94-2.14c0.94-0.31,1.69-1.22,2.49-1.9c3.55-3.02,7.01-6.15,10.66-9.06
		c1.45-1.16,2.84-2.41,4.31-3.57c0.93,1.91,1.37,3.97,1.68,6.04c0.53,3.53,0.38,7.02-0.91,10.42c-1.1,2.89-3.6,4.5-6.63,4.92
		c-4.3,0.59-7.72-1.32-11.17-3.29C198.73,218.86,197.81,218.58,197.15,217.89z"/>
	<path class="st29" d="M166.55,393.58c2.17,0.44,4.37,0.58,6.59,0.48c3.26-0.15,6.29-1.06,9.11-2.7c0.85,0.96,1.93,1.57,3.32,2.18
		c-2.24,1.14-4.28,2.24-6.37,3.24c-3.06,1.47-6.17,2.86-9.23,4.34c-0.47,0.23-0.73,0.18-1.06-0.14c-0.38-0.38-0.67-0.82-0.89-1.3
		C167.14,397.74,166.53,395.74,166.55,393.58z"/>
	<path class="st30" d="M204.99,335.46c-1.58,0.61-3.02,1.57-4.69,2c-0.6,0.16-1.2,0.18-1.8,0.27c-1.93,0.27-2.64-1.62-2.17-3
		c0.33-0.96,0.93-1.73,1.55-2.45c2.11-2.44,4.63-4.43,7.15-6.42c0.21-0.17,0.45-0.16,0.7-0.13c-0.06,2.94-0.18,5.88-0.48,8.8
		C205.22,334.85,205.08,335.15,204.99,335.46z"/>
	<path class="st13" d="M191.79,227.69c-0.81-0.93-1.22-2.08-1.71-3.19C191.03,224.98,192.06,226.91,191.79,227.69z"/>
	<path class="st31" d="M223.43,148.05c-0.1,0.17-0.25,0.32-0.3,0.5c-0.21,0.8-0.68,1-1.42,0.68c-1.56-0.4-2.78-1.5-4.24-2.11
		c-0.78-0.32-1.54-0.69-2.52-0.8c0.34,1.36,1.2,2.3,1.75,3.4c0.44,0.89,1.31,1.6,1.19,2.73c-0.22,0.73-0.86,1.08-1.39,1.5
		c-3.84,3.04-7.64,6.13-11.47,9.18c-0.51,0.41-1.02,1.02-1.84,0.6c-0.61-0.93-0.83-1.83,0.12-2.71c0.38-0.36,0.44-0.87,0.28-1.36
		c-0.31-0.96-0.6-1.97-1.33-2.69c-0.61-0.61-0.79-1.28-0.75-2.08c0.47-3.58,1.49-7.02,2.78-10.38c0.66-1.73,0.71-3.45-0.05-5.12
		c-1.5-3.27-2.73-6.63-3.73-10.09c-0.29-1.01-0.34-0.99-1.09-1.58c-0.35,1.07-0.17,2.1,0.07,3.13c0.52,2.22,1.28,4.4,1.21,6.72
		c-0.02,0.57,0.26,1.47-0.49,1.56c-0.56,0.07-0.65-0.84-0.79-1.37c-0.72-2.93-1.46-5.86-2.26-8.77c-0.16-0.58-0.14-1.58-0.94-1.45
		c-0.65,0.11-0.44,1.05-0.37,1.62c0.24,1.94,0.37,3.89,0.57,5.84c0.02,0.16,0.05,0.32,0.05,0.49c-0.01,0.29,0,0.65-0.32,0.73
		c-0.35,0.09-0.45-0.28-0.55-0.53c-0.27-0.68-0.44-1.4-0.64-2.11c-1.03-3.49-2.25-6.91-3.74-10.22c-0.59-1.32-0.65-1.31-1.78-0.36
		c-1.91,1.6-4.11,2.63-6.42,3.49c-0.4,0.15-0.93,0.4-1.22-0.08c-0.24-0.39,0.19-0.74,0.41-1.07c0.43-0.64,1.06-1.14,1.32-1.9
		c0.08-0.23,0.22-0.49,0-0.68c-0.21-0.19-0.46-0.06-0.69,0.03c-0.81,0.32-1.35,1.05-2.15,1.39c-0.64,0.07-0.8-0.2-0.56-0.77
		c0.17-0.4,0.42-0.77,0.61-1.16c0.2-0.41,0.36-0.83-0.17-1.13c-1.25-0.36-2.12,0.38-2.96,1.07c-1.29,1.07-2.4,2.33-3.36,3.7
		c-1.61,2.31-3.21,4.61-5.51,6.32c-0.83,0.61-1.2,1.51-1.45,2.48c-0.67,2.52-1.12,5.09-1.89,7.58c-0.13,0.43-0.19,0.88-0.5,1.24
		c-0.44,0.36-0.77,0.11-1.05-0.21c-3.8-4.4-8.7-5.26-14.14-4.44c-0.48,0.07-0.96,0.21-1.46,0.11c-0.88-0.19-1.77-0.29-2.65-0.42
		c-1.87-0.27-2.49-1.77-1.32-3.27c0.94-1.21,2.2-2.08,3.52-2.8c2.43-1.34,4.94-2.51,7.49-3.59c0.56-0.24,1.15-0.38,1.77-0.42
		c0.31-0.11,0.61-0.22,0.92-0.33c0.27-0.52,0.81-0.65,1.29-0.84c2.57-1.03,5.13-2.06,7.51-3.49c0.4-0.24,1-0.38,0.9-1
		c-0.09-0.54-0.62-0.71-1.07-0.89c-0.62-0.25-1.26-0.23-1.92-0.15c-1.87,0.24-3.64,0.86-5.4,1.49c-1.71,0.61-3.36,1.4-5.24,1.26
		c-0.96,0.02-0.81-0.41-0.39-0.95c-0.2-0.95,0.39-1.58,0.94-2.21c0.97-0.62,1.61-1.58,2.43-2.36c2.22-2.12,4.81-3.61,7.64-4.75
		c1.05-0.42,2.05-0.96,3.31-1.56c-4.21-2.05-8.38-3.33-12.79-3.89c0.28-0.79,0.81-1.17,1.49-1.55c5.85-3.23,12.02-3.45,18.4-2.2
		c1.71,0.33,3.36,0.88,5.14,1.48c-0.06-0.96-0.7-1.3-1.22-1.68c-2.38-1.77-4.4-3.88-6.08-6.32c-0.16-0.23-0.32-0.47-0.45-0.72
		c-0.52-1.01-0.41-1.21,0.73-1.16c2.6,0.12,4.87,1.2,7.07,2.49c0.51-0.02,0.65,0.48,1,0.7c0.67,0.63,1.4,1.21,2.2,1.67
		c2.45,1.22,4.35,3.12,6.26,5.01c0.94,0.93,0.98,0.98,1.56-0.22c0.81-1.67,1.99-3.06,3.16-4.48c0.39-0.47,0.93-0.61,1.45-0.81
		c0.38-0.41,0.75-0.82,1.3-1.02c1.39-1.3,3.02-2.12,4.9-2.43c0.33-0.11,0.65-0.21,0.98-0.32c0.51-0.77,1.37-0.37,2.03-0.63
		c0.47-0.02,0.93-0.04,1.4-0.05c1.13,0.07,1.56,0.8,0.96,1.74c-0.66,1.05-1.65,1.75-2.72,2.35c-0.77,0.35-1.51,0.75-1.92,1.55
		c-0.07,0.65-0.62,1.12-0.74,1.85c1.06,0.11,2.07,0.03,3.06,0.04c1.55,0,3.06,0.28,4.58,0.58c0.36,0.07,0.72,0.15,0.96,0.47
		c0.39,0.16,0.77,0.35,1.21,0.3c0.28-0.05,0.57-0.1,0.85-0.01c3.64,1.11,7,2.69,9.36,5.85c0.52,0.7,0.9,1.46,1.09,2.3
		c0.23,1.08,0.02,1.42-1.05,1.65c-1.12,0.24-2.25,0.31-3.4,0.33c-2.15,0.04-4.32-0.24-6.46,0.24c-0.51,0.11-1.05,0.15-1.48,0.66
		c0.3,0.5,0.85,0.56,1.32,0.73c2.46,0.87,4.93,1.7,7.13,3.17c0.41,0.27,0.84,0.51,0.96,1.05c0.57,0.64,1.14,1.28,1.71,1.92
		c1.12,0.78,1.56,1.96,1.91,3.2c0.07,0.54,0.29,1.02,0.61,1.45c0.63,0.8,0.87,1.74,0.96,2.72c0.08,0.81-0.28,1.21-1.16,1.12
		c-1.27-0.13-2.49-0.42-3.69-0.82c-1.7-0.56-3.35-1.27-5.33-1.51c2.43,2.33,4.35,4.85,5.97,7.63c1.64,2.81,2.52,5.81,2.66,9.05
		C223.87,146.83,223.63,147.43,223.43,148.05z"/>
	<path class="st26" d="M148.21,138.72c1.69-0.09,3.35-0.53,5.07-0.48c4.35,0.11,8.1,1.47,10.86,4.98c0.22,0.28,0.39,0.39,0.67,0.14
		c0.4,0.45,0,0.83-0.11,1.23c-0.56,2.15-1.66,4.13-1.98,6.35c-0.05,0.07-0.11,0.15-0.18,0.15c-3.05-0.08-4.06,2.13-4.9,4.45
		c-0.23,0.62-0.48,1.19-0.88,1.72c-3.61,4.74-7.22,9.47-10.8,14.23c-2.7,3.59-5.33,7.21-8.05,10.78c-1.31,1.72-2.56,3.49-3.78,5.27
		c-0.72,1.04-1.09,2.25-1.23,3.52c2.12-2.92,4.07-5.93,6.19-8.83c1.81-2.46,3.55-4.98,5.37-7.43c4.42-5.91,8.68-11.94,13.2-17.78
		c0.57-0.73,1.24-0.99,2.12-0.94c2.85,0.19,5.39,1.19,7.67,2.88c0.36,0.27,0.7,0.57,1.06,0.83c1.24,0.9,1.41,0.88,2.57-0.18
		c0.19-0.18,0.36-0.49,0.71-0.23c0.08,1.22-0.37,1.99-1.36,1.98c-0.93-0.01-1.37,0.46-1.6,1.2c-0.84,2.68-2.05,5.23-2.75,7.96
		c-0.18,0.5-0.44,0.93-1.01,1.05c-1.42,0.51-2.41,1.64-3.52,2.55c-3.55,2.91-7.23,5.64-11.03,8.22c-4.26,2.9-8.5,5.84-12.84,8.62
		c-4.26,2.72-8.61,5.31-13,7.83c-1.41,0.81-2.77,1.69-4.2,2.45c-0.28-0.18-0.24-0.47-0.26-0.74c-0.19-0.22-0.38-0.49-0.31-0.76
		c0.39-1.53-0.03-3.1,0.31-4.63c0-0.65,0.01-1.31,0.01-1.96c0.3-0.63-0.21-1.35,0.23-1.96c-0.04-1.65,0.35-3.26,0.51-4.9
		c0.24-0.89,0-1.86,0.48-2.7c0.55-3.25,1.27-6.46,2.16-9.63c0.28-1,0.37-2.06,0.55-3.1c0.17-0.66,0.27-1.33,0.53-1.96
		c0.32-0.65,0.56-1.34,0.69-2.06c0.02-0.11,0.05-0.22,0.09-0.33c0.19-0.84,0.59-1.61,0.82-2.44c0.26-0.91,0.51-1.81,1.01-2.63
		c0.32-0.49,0.56-1.02,0.77-1.56c1.81-3.85,4.01-7.48,6.7-10.77c2.25-2.76,4.41-5.65,7.36-7.74
		C143.97,140.08,145.92,139,148.21,138.72z"/>
	<path class="st12" d="M223.43,148.05c0.61-7.97-3.72-13.59-9-18.9c1.6-0.08,3,0.42,4.39,0.89c1.77,0.6,3.51,1.27,5.4,1.46
		c0.9,0.09,1.02-0.29,0.88-0.94c-0.18-0.87-0.44-1.73-0.67-2.59c0.4,0.27,0.85,0.26,1.3,0.23c0.64-0.04,1.19,0.05,1.59,0.66
		c0.26,0.4,0.73,0.59,1.16,0.41c0.45-0.2,0.38-0.7,0.27-1.08c-0.41-1.34-0.23-2.74-0.37-4.1c-0.28-2.67-0.27-5.38-0.29-8.08
		c-0.01-1.24,0.29-2.47-0.01-3.72c-0.09-0.39-0.03-0.82,0.21-1.17c0.4-0.56,0.73-1.07-0.08-1.61c-0.26-0.17-0.2-0.62,0.08-0.87
		c0.32-0.29,0.25-0.66,0.27-1.02c0.51,1.47,0.48,3.02,0.69,4.53c0.56,4.01,1.11,8.03,1.45,12.06c0.32,3.84,0.99,7.63,1.31,11.47
		c0.14,1.77,0.45,3.53,0.69,5.29c-1.03-0.1-1.46,0.84-2.07,1.34C228.24,144.23,225.87,146.19,223.43,148.05z"/>
	<path class="st12" d="M220.2,121.4c-2.47-1.96-5.43-2.91-8.34-3.95c-0.64-0.23-1.32-0.37-1.92-0.88c1.17-1.07,2.58-1.24,4-1.34
		c2.6-0.19,5.22,0.2,7.81-0.23c1.34-0.22,1.5-0.42,1.04-1.72c-0.67-1.93-2.03-3.31-3.63-4.49c-2.19-1.62-4.74-2.47-7.27-3.35
		c0.48-0.7,0.93-1.38,1.96-0.71c0.41,0.27,0.79-0.32,1.26-0.25c0.91,0.13,1.89-0.2,2.64,0.69c0.28,0.33,0.82,0.3,1.25,0.01
		c0.35-0.23,0.76-0.28,1.17-0.24c0.26,0.03,0.48,0.1,0.51,0.41c0.03,0.28-0.07,0.48-0.36,0.54c-1.42,0.31-0.6,1.13-0.14,1.35
		c0.88,0.41,1.31,1.74,2.67,1.27c0.43-0.15,1.98,2.47,2.03,3.27c0.03,0.53,0.01,1.06,0.08,1.58c0.06,0.47-0.13,0.75-0.56,0.71
		c-0.46-0.04-0.73,0.17-0.86,0.51c-0.17,0.44,0.28,0.62,0.51,0.88c0.32,0.36,1.1,0.38,0.86,1.12c-0.26,0.8-1.04,0.73-1.55,0.56
		c-1.48-0.51-2.55,0.57-3.82,0.81c-0.13,0.02-0.33,0.17-0.35,0.28c-0.04,0.32,0.32,0.28,0.47,0.42c0.88,0.85,2.04,1.43,2.61,2.59
		c0.11,0.22,0.24,0.47,0.03,0.68c-0.27,0.27-0.52,0.06-0.75-0.12c-0.29-0.22-0.6-0.39-0.85-0.67
		C220.42,120.83,220.32,121.22,220.2,121.4z"/>
	<path class="st12" d="M124.92,168.89c-0.19,0.68-0.03,1.48-0.73,1.97c-0.6-1.13-0.49-2.25,0.2-3.29c0.51-0.76,0.24-1.59,0.26-2.38
		c0.02-0.92,0.08-1.73,1.18-1.98c0.43-0.1,0.55-0.39,0.49-0.83c-0.17-1.15,0.06-2.3,0.07-3.45c0.01-0.47,0.22-0.71,0.7-0.84
		c1.93-0.51,2.84-1.87,2.97-3.8c0.02-0.3,0.05-0.66,0.31-0.75c1.07-0.37,1.18-1.73,2.22-2.11c0.28-0.1,0.32-0.34,0.2-0.6
		c-0.3-0.63-0.01-0.91,0.59-0.99c0.12-0.02,0.23-0.02,0.35-0.02c-0.26-1.82,2.59-1.6,2.32-3.54c-0.07-0.5,0.26-1.39,1.36-1.01
		c0.59,0.21,0.93-0.36,0.98-0.96c0.13-1.8,1.62-2.42,2.82-3.29c0.11-0.08,0.42-0.03,0.43-0.09c0.28-1.2,1.22-0.95,2.05-0.97
		c0.23-0.01,0.53,0.09,0.67-0.16c0.19-0.34-0.16-0.5-0.34-0.7c-0.24-0.28-0.54-0.51-0.76-0.79c-1.1-1.42-1.04-2.28,0.19-3.53
		c0.63-0.64,1.25-1.28,1.82-1.97c0.29-0.36,0.55-0.47,0.92-0.21c0.62,0.42,0.98,0.01,1.32-0.41c0.63-0.77,1.22-1.41,2.43-1.31
		c0.54,0.04,1.39-0.23,1.79-1.05c0.3-0.63,0.9-1.03,1.73-0.73c0.58,0.21,1.13-0.14,1.42-0.5c0.74-0.96,1.43-0.67,2.19-0.12
		c-3.05,1.36-6.14,2.62-9.05,4.27c-1.28,0.72-2.42,1.6-3.44,2.66c-0.56,0.58-0.75,1.29-0.46,2.03c0.27,0.71,0.98,0.75,1.64,0.85
		c0.83,0.12,1.71,0,2.48,0.45c-2.07,0.95-4.3,1.57-6.13,3.05c-2.59,2.09-4.73,4.6-6.79,7.16c-2.76,3.42-5.06,7.16-6.96,11.13
		c-0.52,0.35-0.97,0.74-0.73,1.47c-0.46,0.85-0.8,1.75-0.99,2.7c-0.79,0.63-0.75,1.59-0.96,2.45l0,0
		C125.53,167.45,125,168.1,124.92,168.89z"/>
	<path class="st12" d="M195.89,101c-2.05,1.69-3.6,3.78-4.74,6.17c-0.25,0.52-0.5,0.95-0.99,0.32c-1.87-2.41-4.44-4.03-6.71-5.99
		c0.69-0.05,0.3-0.65,0.43-0.97c0.28-0.67,0.71-1.08,1.37-0.91c0.75,0.2,0.66,0.79,0.32,1.37c-0.17,0.29-0.27,0.67,0.06,0.88
		c0.35,0.22,0.61-0.06,0.77-0.37c0.36-0.7,0.96-0.92,1.64-0.68c0.62,0.21,0.6,0.76,0.42,1.33c-0.08,0.28,0.08,0.62,0.37,0.69
		c0.36,0.09,0.46-0.25,0.53-0.53c0.29-1.2,1.1-1.63,2.26-1.55c0.52,0.03,0.89-0.1,1.23-0.58c0.6-0.84,1.29-0.84,1.82,0.03
		C194.99,100.73,195.35,100.95,195.89,101z"/>
	<path class="st32" d="M139.31,123.09c-1.94-0.29-3.76-1.07-5.43-2.18c-0.71-0.47-1.05-0.59-1.44,0.41
		c-0.68,1.73-1.51,3.42-2.63,4.93c-1.65,2.24-4.09,2.73-6.43,1.28c-1.51-0.94-3.08-1.65-4.92-1.54c-0.3,0.02-0.73,0.11-0.82-0.31
		c-0.1-0.43,0.25-0.66,0.59-0.83c1.08-0.55,2.1-0.2,3.17,0.16c1.37,0.46,2.37,1.56,3.76,1.99c1.44,0.45,2.55-0.12,3.34-1.13
		c1.5-1.93,2.8-4.01,3.53-6.38c0.3-0.97,0.71-1.27,1.64-0.6c1.8,1.3,3.87,2.04,5.93,2.8c0.47,0.17,1.22,0.25,1.13,0.9
		C140.61,123.33,139.86,122.96,139.31,123.09z"/>
	<path class="st12" d="M154.05,124.52c3.17-0.58,6.05-2.13,9.19-2.83c1.23-0.27,2.48-0.57,3.72-0.04c0.61,0.26,1.26,0.61,1.33,1.31
		c0.06,0.62-0.67,0.74-1.1,1c-2.92,1.72-6.04,3-9.21,4.18c-0.13-0.22-0.31-0.36-0.57-0.42c-0.35-0.08-0.97,0.16-0.91-0.45
		c0.04-0.42,0.61-0.32,0.96-0.28c2.03,0.22,3.53-1.29,5.39-1.64c0.26-0.05,0.61-0.37,0.38-0.76c-0.25-0.43-0.82-0.46-1.08-0.24
		c-2.13,1.74-4.55,0.14-6.77,0.64C154.88,125.11,154.6,124.38,154.05,124.52z"/>
	<path class="st33" d="M173.61,91.43c0.31-2.03,0.63-4.11,0.94-6.19c0.05-0.34,0.45-0.73,0.13-1.01c-0.38-0.34-0.85-0.08-1.25,0.12
		c-1.1,0.54-2.18,1.1-3.29,1.63c-1.35,0.65-1.64,0.47-1.9-0.98c-0.31-1.77-0.87-3.47-1.59-5.11c-0.51-1.17-0.82-2.38-0.83-3.65
		c-0.01-0.54,0.15-1.08,0.72-1.09c0.58-0.01,0.76,0.55,0.73,1.07c-0.06,1.47,0.5,2.79,0.95,4.14c0.41,1.23,0.79,2.47,1.13,3.73
		c0.2,0.74,0.53,0.89,1.23,0.58c1.22-0.54,2.4-1.2,3.73-1.47c1.78-0.36,2.44,0.23,1.96,1.99c-0.7,2.56-1.07,5.16-1.38,7.78
		c-0.04,0.36,0,0.83-0.51,0.82c-0.5-0.01-0.44-0.49-0.5-0.84C173.81,92.46,173.72,91.98,173.61,91.43z"/>
	<path class="st12" d="M226.84,92.92c0.49,1.48,0.44,3.03,0.69,4.55c0.43,2.68,0.7,5.38,1.02,8.07c0.04,0.36,0,0.73,0,1.1
		c-0.31-0.01-0.52,0.2-0.76,0.35c-0.2,0.12-0.39,0.06-0.53-0.12c-0.14-0.18-0.17-0.38-0.05-0.56c0.15-0.24,0.37-0.44,0.5-0.68
		c0.16-0.29,0.22-0.66,0.04-0.94c-0.26-0.38-0.61-0.06-0.87,0.04c-1.49,0.54-1.92,0.27-1.98-1.35c-0.03-0.94,0.25-1.79,0.51-2.69
		c0.35-1.19,0.87-2.69-0.52-3.8c-0.35-0.28-0.42-3.25-0.07-3.41C225.44,93.18,226.15,93.09,226.84,92.92z"/>
	<path class="st12" d="M213.61,81.17c-0.34,1.6-0.62,3.2-0.32,4.86c0.14,0.79,0.09,1.63,0.06,2.44c-0.03,0.76-0.54,1.07-1.25,1.02
		c-0.66-0.05-0.91,0.19-0.97,0.89c-0.1,1.14-0.61,1.42-1.67,0.81c-1-0.58-1.57-0.32-2.03,0.62c-0.41,0.84-1.28,0.96-2.03,1.08
		c-1.06,0.17,0.02-1.01-0.63-1.19c0.07-0.65,0.66-0.64,1.08-0.8c1.48-0.58,3-1.04,4.41-1.8c1.02-0.55,1.11-0.8,0.56-1.83
		c-0.54-1-1.17-1.95-1.48-3.07c-0.27-0.97-0.06-1.73,0.89-2.11C211.31,81.64,212.28,80.74,213.61,81.17z"/>
	<path class="st32" d="M152.11,98.07c-0.04,0.85,0.14,1.73-0.55,1.83c-0.68,0.1-0.75-0.8-0.91-1.35c-0.2-0.7-0.33-1.42-0.5-2.13
		c-0.42-1.77-0.51-1.82-1.99-0.86c-1,0.65-2.09,1.11-3.23,1.42c-1.3,0.35-1.49,0.16-1.67-1.15c-0.36-2.61-1.62-4.83-3.15-6.92
		c-0.29-0.39-0.81-0.77-0.21-1.21c0.61-0.45,0.83,0.19,1.1,0.57c1.49,2.1,2.95,4.21,3.06,6.92c0.03,0.75,0.42,0.96,1.14,0.69
		c1.53-0.58,3.03-1.17,4.05-2.57c0.69-0.95,1.47-0.83,1.88,0.26C151.69,95.1,151.94,96.71,152.11,98.07z"/>
	<path class="st34" d="M213.61,81.17c-1.34,0.2-2.52,0.82-3.7,1.42c-0.53,0.26-0.48,0.75-0.34,1.28c0.3,1.2,0.97,2.22,1.56,3.27
		c0.75,1.34,0.68,1.5-0.64,2.21c-1.82,0.98-3.85,1.47-5.71,2.34c-0.16,0-0.32,0.01-0.48,0.01c-0.45,0.31-1,0.45-1.19-0.14
		c-0.15-0.47,0.39-0.76,0.83-0.87c1.82-0.46,3.41-1.45,5.12-2.17c0.85-0.36,0.85-0.82,0.41-1.51c-0.55-0.85-1.09-1.72-1.23-2.76
		c-0.1-0.73-0.24-1.45,0.23-2.12l0,0c0.79-0.9,1.76-1.48,2.94-1.72c0.25-0.17,0.49-0.33,0.74-0.5c1.84-1.06,3.86-1.4,5.94-1.48
		c0.34-0.01,0.67,0.09,0.79,0.45c0.16,0.45-0.06,0.81-0.41,1.05c-0.95,0.64-2.02,0.79-3.14,0.72
		C214.75,80.83,214.18,81,213.61,81.17z"/>
	<path class="st12" d="M204.74,100.66c0.3-0.82,1.1-1.11,1.7-1.6c1.28-1.05,1.31-1.88,0.06-2.49c-0.23-0.66-0.97-0.65-1.4-1.05
		c-0.72-0.67-0.64-1.16,0.31-1.43c0.96-0.28,2.02-0.21,2.9-0.81c0.28-0.19,0.56-0.05,0.62,0.33c0.19,1.42,0.91,2.8,0.31,4.29
		c-0.09,0.23,0.02,0.56,0.05,0.84c0.02,0.2,0.13,0.41,0.07,0.59c-0.05,0.17-0.24,0.41-0.39,0.43c-1.36,0.17-1.36,2.31-3.1,2.05
		C205.07,101.66,204.69,101.47,204.74,100.66z"/>
	<path class="st12" d="M208.47,82.14c-0.22,1.83,0.31,3.47,1.39,4.91c0.69,0.93,0.5,1.32-0.53,1.75c-1.86,0.77-3.67,1.69-5.62,2.25
		c-0.22,0.06-0.43,0.23-0.45,0.53c0.32,0.26,0.7,0.07,1.04,0.13c-0.1,0.68-0.61,1.28-1.12,1.28c-0.7,0-0.33-0.85-0.44-1.3
		c-0.49-2.02,0.76-3.24,2.66-2.7c-0.14,0.54-0.73,0.23-1,0.53c-0.15,0.18-0.41,0.36-0.17,0.61c0.15,0.15,0.4,0.35,0.56-0.05
		c0.25-0.61,1.07-0.04,1.44-0.8c0.26-0.54,0.84-0.8,0.57-1.61c-0.21-0.61,0.33-0.86,0.89-0.75c0.44,0.09,0.72,0.1,0.75-0.44
		c0.02-0.46-0.18-0.65-0.64-0.68c-1.17-0.07-1.6-0.41-0.72-1.56c0.46-0.61,0.13-1.42-0.3-2.05c-0.17-0.26-0.34-0.46-0.14-0.75
		c0.22-0.32,0.56-0.33,0.88-0.28c0.63,0.09,0,0.41,0.09,0.62C207.79,82.2,208.04,82.37,208.47,82.14z"/>
	<path class="st12" d="M215.32,80.66c0.84-0.24,1.69-0.47,2.53-0.72c0.44-0.13,0.91-0.38,0.83-0.89c-0.09-0.57-0.65-0.33-1.02-0.35
		c-1.53-0.06-2.88,0.74-4.35,0.98c-0.39,0.06-0.75,0.34-1.17,0.24c0.38-0.46,0.57-0.97,0.49-1.57c-0.07-0.51,0.14-0.84,0.61-1.06
		c1.11-0.5,2.27-0.01,3.42-0.17c0.65-0.09,0.3,0.84,0.62,1.39c0.6-1.59,1.87-1.28,3.01-1.25c0.59,0.02,0.7,0.48,0.67,0.97
		c-0.04,0.53,0.23,1.22-0.57,1.42c-0.93,0.24-1.86,0.31-2.04,1.64c-0.09,0.7-1.7,0.83-2.19,0.23
		C215.89,81.21,215.71,80.85,215.32,80.66z"/>
	<path class="st12" d="M202.09,97.56c-1.63,0.81-3.27,1.62-4.9,2.43c-0.08-0.18-0.19-0.52-0.25-0.51c-1.31,0.22-1.94-1.19-3.12-1.29
		c-0.37-0.03-0.83-0.28-0.74-0.81c0.08-0.53,0.53-0.54,0.95-0.53c0.41,0.01,0.87-0.09,1.21,0.07c0.85,0.4,1.59,0.2,2.43-0.07
		c1.14-0.36,2.36,0.08,3.56-0.14C201.59,96.64,202.08,97,202.09,97.56z"/>
	<path class="st12" d="M210.67,105.14c-3.02-0.52-6.05-1-9.22-0.51c0.16-1.05,0.71-1.76,1.36-2.42c0.16,0.12,0.38,0.38,0.46,0.35
		c1.6-0.78,2.95,0.99,4.53,0.43c0.36-0.13,0.81,0.01,1.22-0.04C210.44,102.77,211.09,103.62,210.67,105.14z"/>
	<path class="st12" d="M223.42,64.98c0.71,0.57,0.59,1.46,0.62,2.16c0.07,2.24,0.48,4.44,0.59,6.67c-1.15-0.23-2.38-0.33-2.61-1.85
		c-0.04-0.28-0.17-0.64-0.05-0.83c0.93-1.47,0.2-3,0.21-4.5c0-0.7-0.06-1.34,0.94-1.29C223.21,65.34,223.32,65.1,223.42,64.98z"/>
	<path class="st12" d="M214.84,62.53c2.25,0.17,4.54-0.36,6.75,0.43c0.89,0.32,1.51,0.89,1.82,1.79c-0.7-0.53-1.29-0.79-2.29-0.33
		c-1.56,0.73-3.26,0.33-4.87-0.17c-0.71-0.22-1.71,0.22-2.08-0.12C213.5,63.5,215.21,63.35,214.84,62.53z"/>
	<path class="st12" d="M224.89,76.49c0.49,1.51,0.42,3.09,0.64,4.64c0.29,2.03,0.7,4.07,0.59,6.15c-0.4,0.02-0.54,0.31-0.67,0.62
		c-0.14,0.32-0.12,0.84-0.62,0.75c-0.5-0.09-0.68-0.52-0.68-1.02c0-1.34-0.07-2.69,0.02-4.02c0.06-0.93-0.56-2.08,0.83-2.73
		c0.36-0.17,0.35-1.34,0.04-1.58C223.8,78.35,224.69,77.43,224.89,76.49z"/>
	<path class="st12" d="M181.25,99.83c-0.41-0.11-0.71-0.4-1-0.7c0.05-0.85,0.05-1.74,1.36-1.36c0.14,0.04,0.39-0.11,0.53-0.24
		c0.76-0.71,1.69-0.72,2.63-0.69c0.39,0.01,0.76,0.07,0.84,0.52c0.08,0.47-0.27,0.71-0.63,0.77c-1.22,0.22-2.15,1.38-3.6,0.99
		C180.85,98.98,181.26,99.57,181.25,99.83z"/>
	<path class="st12" d="M223.82,126.52c-0.64-1.07-1.27-2.14-1.91-3.2c0.47-0.94,1.9-0.99,2.06-2.22c0.02-0.17,0.24-0.25,0.39-0.16
		c0.12,0.07,0.24,0.23,0.25,0.37c0.04,0.44,0.06,0.88-0.12,1.32c-0.28,0.69-0.55,1.39,0.28,1.93c0.16,0.11,0.31,0.29,0.13,0.51
		c-0.33,0.38-0.56-0.12-0.98-0.1C224.22,125.52,224.76,126.13,223.82,126.52z"/>
	<path class="st12" d="M226.11,87.28c0.62,1.66,0.46,3.44,0.72,5.15c-0.73-0.23-1.16-0.99-2.12-0.91c-0.62,0.05-0.84-1.73-0.22-1.86
		C225.91,89.37,225.72,88.16,226.11,87.28z"/>
	<path class="st12" d="M211.4,80.42c-0.98,0.57-1.96,1.15-2.94,1.72c0.16-0.29,0.17-0.57,0.08-0.91c-0.19-0.65-0.11-1.41,0.5-1.69
		c0.65-0.3,1.44-0.19,1.87,0.6C211.01,80.33,211.19,80.4,211.4,80.42z"/>
	<path class="st13" d="M120.24,195.1c0,1.8,0,3.59,0,5.39c-0.97-0.1-1.19-0.63-0.67-1.39c0.5-0.74,0.57-1.53,0.36-2.31
		C119.75,196.12,119.88,195.62,120.24,195.1z"/>
	<path class="st12" d="M205.1,96.62c-0.68,0.21-1.36,0.42-2.03,0.63c-0.06-0.44,0.28-0.83,0.1-1.31c-0.1-0.27,0.07-0.73,0.46-0.7
		c0.37,0.03,1,0.24,0.79,0.7C203.96,96.98,204.81,96.47,205.1,96.62z"/>
	<path class="st12" d="M154.6,121.36c-0.07,0.84-0.72,1.43-0.94,2.21c-0.47,0.05-0.96,0.23-0.71-0.63
		C153.21,122.05,153.64,121.45,154.6,121.36z"/>
	<path class="st13" d="M105.07,177.23c-0.63-1.08-0.66-2.02-0.13-3.29C105.31,175.17,105.77,176.1,105.07,177.23z"/>
	<path class="st13" d="M106.23,193.23c-0.09-0.99-0.58-2.03,0.37-2.96C107.09,191.4,106.72,192.33,106.23,193.23z"/>
	<path class="st13" d="M121.48,183.58c0.02,0.93,0.01,1.86-0.48,2.7C121.02,185.36,120.18,184.28,121.48,183.58z"/>
	<path class="st13" d="M102.88,159.67c0.26,1.21,0.26,1.21-0.16,1.99C102.57,160.99,102.53,160.46,102.88,159.67z"/>
	<path class="st13" d="M105.71,181.29c-0.41-0.57-0.53-1-0.17-1.64C105.92,180.21,105.8,180.67,105.71,181.29z"/>
	<path class="st12" d="M224.65,74.54c0.33,0.27,0.21,0.64,0.22,0.98c-0.35-0.03-0.64-0.16-0.69-0.55
		C224.15,74.64,224.4,74.57,224.65,74.54z"/>
	<path class="st13" d="M120.49,191.18c-0.08,0.65,0.24,1.35-0.23,1.96C120.27,192.48,119.7,191.75,120.49,191.18z"/>
	<path class="st26" d="M201.82,154.92c-0.03,0.74,0.11,1.28,0.74,1.88c0.86,0.83,1.23,2.07,1.45,3.29c0.07,0.38,0,0.87-0.28,1.02
		c-1.33,0.72-0.6,1.69-0.4,2.6c0.08,0.11,0.06,0.2-0.04,0.28c-3.81,3.17-7.62,6.33-11.41,9.5c-1.07,0.9-2.19,1.74-3.19,2.74
		c-0.66,0.66-1.84,0.94-2.7,1.52c-2.16,1.45-4.23,3.02-6.41,4.43c-4.14,2.67-7.63,6.19-11.68,8.97c-1.47,1.01-3.07,1.82-4.96,1.73
		c-1.09-0.05-1.71-0.84-1.56-1.92c0.39-2.74,2.01-4.83,3.63-6.9c1.56-2,3.44-3.69,5.22-5.49c0.42-0.43,0.86-0.75,1.49-0.65
		c1.46,0.15,2.91,0.18,4.38,0.16c2.13-0.03,4.39-1.65,5.2-3.63c0.73-1.78,0.67-3.57,0.25-5.39c-0.14-0.78,0.33-1.28,0.79-1.82
		c0.96-1.14,2.17-2.1,2.65-3.6c0.31-0.15,0.61-0.04,0.9,0.05c0.15,0.06,0.31,0.1,0.47,0.14c1.22,0.3,1.25,0.28,1.23-0.93
		c-0.06-4-0.13-3.44,2.99-5.57c2.71-1.45,5.66-1.84,8.65-1.74C200.22,155.65,201.09,155.69,201.82,154.92z"/>
	<path class="st35" d="M203.28,164.01c0.01-0.09,0.03-0.19,0.04-0.28c1.37-0.26,2.18-1.38,3.18-2.17c3.81-2.98,7.53-6.06,11.29-9.11
		c0.1-0.11,0.16-0.09,0.2,0.05c0.87,2.7,1.79,5.38,2.59,8.09c1.14,3.84,2.25,7.7,2.1,11.78c-0.05,1.26-0.26,2.47-1.15,3.67
		c-0.91-1.82-1.83-3.43-2.88-4.97c-0.67-0.99-1.5-1.84-2.43-2.56c-0.87-0.67-1.3-0.42-1.36,0.69c-0.11,2.11,0.47,4.21,0.01,6.33
		c-0.2,0.93-0.39,1.84-1.02,2.57c-1.08,1.24-1.36,2.75-1.44,4.32c-0.08,1.63-0.29,3.23-0.78,4.79c-0.41,0.02-0.38-0.29-0.48-0.56
		c-2.65-7.24-5.09-14.55-7.53-21.87C203.53,164.52,203.39,164.27,203.28,164.01z"/>
	<path class="st36" d="M184.9,163.77c0.5,0.64-0.01,1.04-0.36,1.45c-0.77,0.88-1.55,1.74-2.35,2.58c-0.3,0.31-0.46,0.65-0.44,1.08
		c-2.61,2.42-5.44,4.58-7.98,7.09c-0.67,0.66-1.41,1.33-2.32,1.73c-1.94-0.43-3.32-1.75-4.57-3.13c-0.76-0.85-1.86-1.61-1.8-3
		c0.25-0.32,0.5-0.65,0.76-0.97c0.49-0.74,1.32-1.06,1.98-1.6c2.37-1.93,4.92-3.62,7.34-5.47c0.7-0.53,1.47-0.83,2.39-0.69
		c0.85,0.13,1.53-0.02,1.62-1.12c0.03-0.44,0.33-0.85,0.93-0.68c0.32,0.71,0.9,1.06,1.59,1.37
		C182.76,162.89,184,162.93,184.9,163.77z"/>
	<path class="st37" d="M171.45,177.69c1.78-1.65,3.53-3.32,5.35-4.93c1.26-1.11,2.61-2.12,3.79-3.34c0.32-0.34,0.66-0.61,1.16-0.55
		c0.86,2.16,0.68,4.44-0.38,6.31c-1.03,1.82-2.75,3.34-5.17,3.24c-1.51-0.06-3.09,0.41-4.51-0.49
		C171.61,177.85,171.53,177.77,171.45,177.69z"/>
	<path class="st12" d="M215.08,197.3c0.32,0.82,0.98,1.5,0.98,2.45c-0.4-0.38-0.63-0.89-1.05-1.27
		C214.7,198.19,214.7,197.68,215.08,197.3z"/>
	<path class="st38" d="M319.24,153.91c-0.27-0.01-0.53-0.02-0.8-0.03c0.28-1.82,0.05-3.64-0.26-5.41c-0.76-4.33-0.41-8.54,0.9-12.71
		c0.55-1.73,0.93-3.51,1.13-5.33c0.49-0.51,0.06-1.19,0.46-2.07c0.37,1.12,0.31,2,0.15,2.85c-0.11,0.57-0.03,0.99,0.23,1.49
		c0.68,1.3,1.33,2.62,1.88,3.97c0.66,1.63,0.18,2.83-1.35,3.71c-0.53,0.3-1.08,0.58-1.57,0.94c-0.31,0.23-0.65,0.58-0.43,1.03
		c0.2,0.4,0.65,0.33,0.99,0.25c1.47-0.35,2.92-0.72,4.16-1.66c0.35-0.27,0.85-0.84,1.23-0.25c0.39,0.61-0.29,0.89-0.73,1.17
		c-1.48,0.93-3.12,1.36-4.83,1.52c-0.67,0.06-1.36-0.05-1.63-0.79c-0.25-0.69,0.09-1.23,0.6-1.73c0.54-0.53,1.21-0.81,1.83-1.2
		c0.92-0.57,1.41-1.29,1-2.45c-0.44-1.25-0.84-2.51-1.77-3.68c-1.46,4.72-2.62,9.31-1.78,14.18
		C319.02,149.76,319.06,151.85,319.24,153.91z"/>
	<path class="st39" d="M340.03,150.26c-0.32,0.23-0.65,0.47-0.97,0.7c0.13-0.66-0.21-0.95-0.8-1.11c-1.1-0.31-2.15-0.72-3.08-1.41
		c-2.21-1.63-3.35-4.01-4.44-6.42c-1.02-2.25-1.96-4.53-2.92-6.8c-0.34-0.81-0.9-1.43-1.51-2.04c-1.44-1.43-2.9-2.84-4.07-4.52
		c-0.45-0.65-0.65-1.3-0.54-2.05c0.05-0.35,0.27-0.35,0.51-0.13c0.26,1.86,1.47,3.16,2.79,4.29c1.97,1.68,3.39,3.66,4.34,6.06
		c1.22,3.1,2.33,6.25,4.32,8.98c1.02,1.39,2.33,2.37,3.91,2.97C338.47,149.15,339.44,149.36,340.03,150.26z"/>
	<path class="st40" d="M323.41,148.83c0.07-3.06,2.93-4.96,6.05-4.1c0.96,0.26,1.83,0.7,2.55,1.38c0.25,0.23,0.55,0.58,0.25,0.96
		c-0.31,0.39-0.72,0.32-1.09,0.05c-0.66-0.47-1.28-0.99-2.08-1.25c-2.17-0.71-3.92,0.23-4.48,2.43c-0.05,0.2-0.06,0.42-0.16,0.59
		c-0.2,0.35,0.16,1.11-0.51,1.05C323.36,149.89,323.45,149.22,323.41,148.83z"/>
	<path class="st41" d="M310.39,128.45c-0.33,2.19-0.67,4.39-1,6.58c-0.35-2.51-0.34-5,0.11-7.49c0.18-1,0.28-2,0.42-3.01
		c0.43-0.34,0.05-0.94,0.48-1.45c0.53,1.48,0.13,2.8-0.12,4.12C310.2,127.64,310,128.07,310.39,128.45z"/>
	<path class="st12" d="M217.99,152.5c-0.06-0.02-0.13-0.04-0.2-0.05c-0.76-1.89-2-3.52-2.94-5.31c-0.18-0.35-0.62-0.75-0.38-1.09
		c0.32-0.45,0.86-0.05,1.22,0.08c2.15,0.74,4.15,1.81,6.02,3.1C220.47,150.32,219.23,151.41,217.99,152.5z"/>
	<path class="st42" d="M179.97,161.05c-0.26,0.19-0.66,0.41-0.58,0.72c0.41,1.65-0.94,1.52-1.66,1.39
		c-1.28-0.24-2.06,0.39-2.94,1.04c-2.89,2.13-5.8,4.24-8.71,6.35c-0.06,0.04-0.16,0.03-0.24,0.04c0-1.21,0.55-2.27,0.99-3.34
		c0.76-1.86,1.22-3.83,2.1-5.65c0.22-0.46,0.47-0.64,0.92-0.56c1.38,0.25,1.74-0.6,1.86-1.71c-0.45-0.5-0.29-1.08-0.17-1.62
		c0.24-1.02-0.06-1.8-0.83-2.5c-1.98-1.79-4.12-3.29-6.82-3.77c-0.43-0.08-0.9-0.08-1.22-0.47c-0.59-1.01,0.07-1.97,0.42-2.74
		c0.72-1.59,0.97-3.32,1.73-4.87c0.76-3.08,1.52-6.17,2.29-9.25c0.24-0.94,0.77-1.72,1.55-2.28c2.21-1.58,3.66-3.81,5.22-5.94
		c1.28-1.75,2.6-3.47,4.48-4.63c0.72-0.45,1.49-0.93,2.38-0.37c0.57,1.09-0.31,1.77-0.82,2.44c-1.32,1.74-2.6,3.52-3.92,5.27
		c1.34-1.69,2.73-3.33,4.52-4.56c0.73-0.52,1.44-1.07,2.2-1.54c0.39-0.24,0.89-0.61,1.34-0.17c0.42,0.41-0.02,0.84-0.16,1.23
		c-0.4,1.09-1.39,1.79-2.06,2.97c2.09-0.5,3.82-1.43,5.51-2.41c0.91-0.53,1.82-1.11,2.5-1.94c0.57-0.69,0.87-0.6,1.25,0.19
		c1.66,3.51,2.95,7.16,4.1,10.86c0.3,0.96,0.55,1.94,1,2.89c-0.19-2.07-0.39-4.15-0.59-6.22c-0.07-0.77-0.19-1.54-0.01-2.31
		c0.07-0.31,0.17-0.66,0.56-0.72c0.38-0.06,0.59,0.24,0.77,0.51c0.31,0.44,0.41,0.97,0.54,1.48c0.81,3.16,1.62,6.31,2.44,9.46
		c0.07,0.26,0.09,0.56,0.45,0.78c0.16-2.01-0.11-3.9-0.61-5.78c-0.44-1.69-0.97-3.37-0.9-5.16c0.02-0.4-0.04-0.92,0.42-1.05
		c0.55-0.16,0.74,0.36,0.97,0.74c0.5,0.81,0.72,1.73,0.98,2.63c0.84,2.9,1.86,5.73,3.2,8.45c0.94,1.9,0.98,3.81,0.18,5.79
		c-1.33,3.3-2.22,6.73-2.78,10.25c-0.19,1.22-0.91,1.24-1.98,1.11c-3.21-0.38-6.29,0.29-9.25,1.57c-1.14,0.43-2.09,1.27-3.3,1.56
		c-1.89,0.85-3.88,1.34-5.94,1.46C180.84,160.66,180.42,160.87,179.97,161.05z"/>
	<path class="st43" d="M180.52,124.03c-1.59,1.8-3.38,3.41-5,5.48c-0.1-0.72,0.22-1.02,0.46-1.34c1.33-1.8,2.67-3.6,4-5.4
		c0.41-0.56,0.82-1.13,0.75-1.88c0.95,0.28,0.52,0.94,0.33,1.44c-0.18,0.48-0.52,0.9-0.79,1.35
		C180.09,123.98,180.32,124,180.52,124.03z"/>
	<path class="st44" d="M162.66,150.97c3.74,0.25,6.59,2.17,9.05,4.82c0.47,0.51,0.32,1.18,0.2,1.74c-0.12,0.6-0.18,1.19-0.21,1.8
		c-1.55,1.93-1.7,2.02-3.67,0.44c-1.61-1.29-3.37-2.23-5.31-2.87c-1.16-0.39-2.37-0.5-3.59-0.53c-0.46-0.01-0.77,0.21-1.03,0.55
		c-2.97,4.02-5.94,8.03-8.92,12.05c-2.13,2.87-4.31,5.7-6.39,8.61c-2.83,3.96-5.79,7.81-8.4,11.93c-0.48,0.77-1.07,1.5-1.73,2.21
		c-0.12-1.65,0.33-3.18,1.25-4.48c3.04-4.27,6.11-8.51,9.26-12.7c4.54-6.03,9.19-11.98,13.73-18c0.48-0.64,0.48-1.63,0.88-2.35
		c0.79-1.4,1.55-2.85,3.32-3.33C161.69,150.7,162.15,150.95,162.66,150.97z"/>
	<path class="st13" d="M127.59,161.52c-1.03-1.13-0.08-1.26,0.73-1.47C128.12,160.56,127.97,161.1,127.59,161.52z"/>
	<path class="st13" d="M125.64,166.68c0.02-0.94-0.21-1.97,0.96-2.45C126.29,165.04,125.96,165.86,125.64,166.68z"/>
	<path class="st13" d="M124.92,168.89c-0.47-0.97,0.54-1.46,0.73-2.22C125.62,167.49,125.46,168.25,124.92,168.89z"/>
	<path class="st45" d="M179.97,161.05c-0.01-0.48,0.17-0.76,0.71-0.75c2.35,0.05,4.54-0.64,6.7-1.46c1.03,1.52,0.01,4.12-1.69,5.12
		c-0.27-0.07-0.53-0.13-0.8-0.2c-1.48-0.28-2.84-0.93-4.25-1.42C179.99,162.11,180.04,161.56,179.97,161.05z"/>
	<path class="st46" d="M185.7,163.96c0.51-0.73,0.98-1.5,1.54-2.19c0.78-0.97,0.13-1.96,0.14-2.94c0.83-0.41,1.68-0.81,2.5-1.24
		c0.26-0.14,0.48-0.34,0.71,0.01c-0.07,0.1-0.12,0.25-0.22,0.28c-2.71,0.96-2.76,3.18-2.42,5.43c0.18,1.18-0.17,1.29-1.1,1
		C186.47,164.21,186.03,164.25,185.7,163.96z"/>
	<path class="st47" d="M190.31,156.69c-0.31-3.26,0.6-6.46,0.52-9.7c-0.09-3.3-1.38-6.35-2.06-9.79c-1.03,1.63-1.86,3.09-2.45,4.67
		c-0.28,0.75,0,0.9,0.75,0.84c1.68-0.15,2.61,0.39,3.06,1.62c0.67,1.82-0.75,3.62-2.96,3.73c-1.45,0.07-3.88-1.45-4.47-2.77
		c-0.12-0.28-0.23-0.54,0.08-0.75c0.26-0.17,0.47-0.01,0.64,0.17c0.58,0.58,1.12,1.19,1.73,1.73c1.22,1.1,2.93,1.08,3.96,0.04
		c0.58-0.58,0.59-1.21,0.32-1.9c-0.27-0.7-0.77-1.02-1.52-0.95c-0.2,0.02-0.41,0.01-0.61,0.01c-1.95,0.02-2.47-0.85-1.55-2.66
		c0.61-1.2,1.27-2.36,1.92-3.53c0.5-0.9,0.91-1.78,0.52-2.88c-0.16-0.44-0.17-1.03,0.18-1.7c0.55,1.22,0.6,2.41,0.83,3.56
		c0.54,2.7,1.43,5.32,1.94,8.04c0.24,1.31,0.2,2.61,0.13,3.9C191.11,151.14,190.59,153.9,190.31,156.69z"/>
	<path class="st48" d="M176.1,150.29c2.17-1.98,4.86-2.62,6.66-1.72c1.82,0.92,2.65,2.71,2.34,5.54
		C182.73,151.23,179.6,150.52,176.1,150.29z"/>
	<path class="st49" d="M183.88,140.72c-0.18,0.55-0.61,0.89-1.17,0.86c-0.51-0.03-0.98-0.32-0.9-0.94c0.08-0.6,0.4-1.14,1.09-1.05
		C183.46,139.66,183.8,140.1,183.88,140.72z"/>
</g>
<g>
</g>
<g>
</g>
<g>
</g>
<g>
</g>
<g>
</g>
<g>
</g>
</svg>
