<?xml version="1.0" encoding="utf-8"?>
<!-- Generator: Adobe Illustrator 23.0.5, SVG Export Plug-In . SVG Version: 6.00 Build 0)  -->
<svg version="1.1" id="Capa_1" xmlns="http://www.w3.org/2000/svg" xmlns:xlink="http://www.w3.org/1999/xlink" x="0px" y="0px"
	 viewBox="0 0 1365.99 767.99" style="enable-background:new 0 0 1365.99 767.99;" xml:space="preserve">
<style type="text/css">
	.st0{fill:#FAE5DF;}
</style>
<g>
	<rect x="0.5" y="0.5" class="st0" width="1365" height="343"/>
	<path class="st0" d="M1365,1v342H1V1H1365 M1366,0H0v344h1366V0L1366,0z"/>
</g>
<g>
	<g>
		<path class="st0" d="M0.52,608.67c0-149.3,0-298.6,0-447.89c77.37,84.47,174.04,148.36,292.1,147.08
			c89.45-0.97,175.08-35.05,254.16-74.16c157.58-77.92,311.58-200.11,491.38-219.1c131.55-13.89,240.74,50.49,327.32,145.02
			c0,149.3,0,298.6,0,447.89c-86.58-94.54-195.78-158.91-327.32-145.02c-179.8,18.99-333.81,141.18-491.38,219.1
			c-79.08,39.1-164.7,73.18-254.16,74.16C174.56,757.04,77.89,693.15,0.52,608.67z"/>
		<path class="st0" d="M1364.96,159.52c0,148.98,0,297.95,0,446.93c-87.21-94.98-197.1-158.97-329.29-144.17
			c-179.19,20.06-332.49,141.6-489.82,219.27c-78.14,38.58-162.64,72.15-250.95,73.68C176.24,757.29,78.92,693.59,1.04,608.77
			c0-148.98,0-297.95,0-446.93c77.88,84.82,175.2,148.52,293.87,146.46c88.31-1.53,172.81-35.1,250.95-73.68
			c157.33-77.67,310.63-199.21,489.82-219.27C1167.87,0.55,1277.75,64.54,1364.96,159.52 M1366,159.72
			c-86.58-94.75-195.83-159.45-327.57-145.63C858.48,32.97,704.35,155.31,546.67,233.27c-79.13,39.12-164.83,73.21-254.35,74.11
			C174.09,308.56,77.37,244.38,0,159.72c0,149.62,0,299.24,0,448.86c77.37,84.67,174.09,148.85,292.32,147.66
			c89.52-0.9,175.22-34.99,254.35-74.11c157.68-77.95,311.81-200.3,491.76-219.18c131.74-13.82,240.99,50.88,327.57,145.63
			C1366,458.96,1366,309.34,1366,159.72L1366,159.72z"/>
	</g>
</g>
<g>
</g>
<g>
</g>
<g>
</g>
<g>
</g>
<g>
</g>
<g>
</g>
<g>
</g>
<g>
</g>
<g>
</g>
<g>
</g>
<g>
</g>
<g>
</g>
<g>
</g>
<g>
</g>
<g>
</g>
</svg>
