<?xml version="1.0" encoding="utf-8"?>
<!-- Generator: Adobe Illustrator 23.0.5, SVG Export Plug-In . SVG Version: 6.00 Build 0)  -->
<svg version="1.1" id="Capa_1" xmlns="http://www.w3.org/2000/svg" xmlns:xlink="http://www.w3.org/1999/xlink" x="0px" y="0px"
	 viewBox="0 0 680.31 453.54" style="enable-background:new 0 0 680.31 453.54;" xml:space="preserve">
<style type="text/css">
	.st0{fill:#0A636B;}
	.st1{fill:#FCB78D;}
	.st2{fill:#FCEBA5;}
	.st3{fill:#BFDBDE;}
	.st4{fill:#776180;}
	.st5{fill:#0D636B;}
	.st6{fill:#ED715D;}
	.st7{fill:#ED725D;}
	.st8{fill:#EC725E;}
	.st9{fill:#ED7A62;}
	.st10{fill:#E6E0E2;}
	.st11{fill:#F4F7F8;}
	.st12{fill:#EB715D;}
	.st13{fill:#C6CDD0;}
	.st14{fill:#E7E1E3;}
	.st15{fill:#EC725D;}
	.st16{fill:#11656D;}
	.st17{fill:#ED7A63;}
	.st18{fill:#0F656D;}
	.st19{fill:#12676F;}
	.st20{fill:#0B636B;}
	.st21{fill:#0A626A;}
	.st22{fill:#0C636B;}
	.st23{fill:#0E646C;}
	.st24{fill:#0D646C;}
	.st25{fill:#0C646C;}
	.st26{fill:#10666D;}
	.st27{fill:#CBD0D3;}
	.st28{fill:#0E656C;}
	.st29{fill:#0E656D;}
	.st30{fill:#10656D;}
	.st31{fill:#10666E;}
	.st32{fill:#11666E;}
	.st33{fill:#14676F;}
	.st34{fill:#196B73;}
	.st35{fill:#186A72;}
	.st36{fill:#156970;}
	.st37{fill:#1A6B73;}
	.st38{fill:#156870;}
	.st39{fill:#216E76;}
	.st40{fill:#2A737B;}
	.st41{fill:#9CB5B9;}
	.st42{fill:#257179;}
	.st43{fill:#186A71;}
	.st44{fill:#417F87;}
	.st45{fill:#196A72;}
	.st46{fill:#1B6B73;}
	.st47{fill:#387B82;}
	.st48{fill:#247078;}
	.st49{fill:#337880;}
	.st50{fill:#357880;}
	.st51{fill:#464B70;}
	.st52{fill:#3C456F;}
</style>
<g>
	<path class="st0" d="M196.42,112.39c15.65-9.15,29.49-20.1,37.75-36.55c3.24-6.45,6.22-13.03,9.64-19.38
		c7.3-13.54,16.4-25.7,29.35-34.66c11.09-7.67,23.33-11.33,37.07-11.4c18.57-0.09,36.55,3.42,54.58,6.92
		c23.4,4.54,46.94,8,70.89,7.1c12.44-0.47,24.8-2.03,37.16-3.46c16.45-1.9,32.9-4.06,49.52-2.15c5.05,0.58,10.06,1.49,14.81,3.37
		c12.11,4.81,15.97,14.06,14.58,25.77c-1.32,11.14-8.1,18.61-17.54,24.18c-6.89,4.06-14.43,6.69-21.84,9.61
		c-0.99,0.39-1.97,0.81-3.18,1.31c11.87,17.63,22.99,35.62,43.16,45.52c9.74,4.78,20.36,6.96,30.57,10.36
		c10.23,3.4,20.5,6.69,29.97,11.85c16.39,8.93,27.64,21.86,31.67,40.16c2.22,10.07,2.19,20.16-0.19,30.22
		c-2.05,0.44-3.12-1.17-4.43-2.13c-5.79-4.25-12.05-6.72-19.51-6.46c-6.3,0.22-11.44,2.39-16.16,6.3
		c-6.11,5.06-12.99,8.7-21.12,9.61c-5.89,0.78-10.52-1.03-13.52-6.24c-1.35-2.72-1.6-5.64-1.79-8.63
		c-0.4-6.47-1.06-12.94-5.42-18.28c-4.81-5.9-11.58-7.88-18.86-8.54c-2.31-0.21-4.05,1.26-5.46,2.97c-1.77,2.14-3.26,4.48-4.98,6.66
		c-3.85,4.91-8.9,7.69-15.26,7.72c-2.18,0.01-2.85,0.97-3.05,2.79c-0.68,6.31,1.23,11.45,6.82,15.06c2.35,1.52,4.95,2.61,7.29,4.14
		c1.96,1.25,3.89,2.56,5.91,3.72c1,0.58,2.09,1.17,1.89,2.61c-0.28,0.87-0.92,1.46-1.69,1.85c-9.65,4.95-15.2,13.46-19.71,22.58
		c-6.15,12.43-10.78,25.51-13.54,39.04c-4.36,21.41-7.46,43.01-9.28,64.8c-0.69,8.34-0.7,16.72-1.8,25.02
		c-0.34,2.57-1.18,4.81-4.39,5.01c-4.89,0.65-9.61-0.23-14.26-1.62c-1.35-0.4-2.64-0.93-3.25-2.34c-1.73-1.06-2.27-2.53-2.21-4.55
		c0.5-16,1.96-31.92,3.85-47.81c0.21-1.77-0.43-1.93-1.77-2.1c-5.7-0.76-11.2,0.34-16.63,1.79c-3.64,0.97-7.24,2.22-10.54,4.02
		c-15.02,8.17-30.54,7.91-46.46,3.02c-11.42-3.51-22.54-7.88-34.21-10.66c-16.08-3.83-31.88-3.23-47.63,1.63
		c-15.9,4.9-32.01,8.89-48.77,9.6c-17.13,0.72-33.03-2.27-45.44-15.09c-8.82-9.11-13.3-20.39-16.24-32.36
		c-2.38-9.65-3.32-19.59-6.72-29.03c-5.15-14.28-13-27.14-21.15-39.88c-6.71-10.49-13.6-20.88-17.96-32.61
		c-1.4-3.78-2.49-7.65-3.07-11.65c-0.21-2,1.52-2.64,2.72-3.6c10.66-8.49,22.48-14.97,35.38-19.59c2.17-1.18,4.62-1.68,6.88-2.69
		c4.25-1.89,8.1-4.23,10.75-8.12c1.51,0.17,2.05,1.41,2.83,2.4c5.77,7.35,9.94,15.63,14.35,23.76c4.88,8.99,9.88,17.98,17.07,25.36
		c3.11,3.19,4.15,6.5,4.98,10.5c1.53,7.38,4,14.46,8.23,20.91c6.37,9.71,15.48,13.44,26.89,12.27c2.44-0.25,3.98,0.35,5.11,2.34
		c6.56,11.6,17.19,18.5,29.1,23.81c11.38,5.08,23.37,8.28,35.72,10.13c13.27,1.99,26.09,0.4,38.2-5.42
		c4.12-1.98,8.24-3.3,12.85-3.97c7.41-1.08,14.28-4.12,20.73-7.91c15.81-9.3,24.8-23.19,28.2-40.71
		c2.32-11.98,1.61-23.93-0.43-35.89c-1.84-10.8-4.06-21.56-5.33-32.45c-1-8.51-1.16-17.02,0.57-25.52
		c2.33-11.4,9.53-19.09,19.11-25.21c11.1-7.09,23.08-12.4,35.35-17.15c2.16-0.84,4.34-1.43,5.74-3.67c0.87-1.39,2.99-1.58,4.6-2.19
		c9.41-3.57,18.86-7.15,26.55-13.81c7.83-6.79,10.84-15.41,9.07-25.5c-1.27-7.22-5.76-11.97-12.67-14.52
		c-5.92-2.19-12.07-3.35-18.41-3.56c-18.37-0.61-36.57,1.26-54.73,3.5c-15.62,1.92-31.29,2.85-47.01,2.14
		c-14.95-0.68-29.77-2.74-44.44-5.6c-13.6-2.65-27.24-5.03-40.88-7.45c-0.86-0.15-1.68-0.42-2.51-0.64
		c13.88,3.16,25.94,10.31,38.31,16.78c4.88,2.55,9.76,5.06,14.89,7.11c6.21,2.48,12.72,3.25,19.35,3.71
		c7.36,0.51,14.69,0.15,22.04,0.1c12.88-0.09,25.76,0.61,38.16,4.8c12.3,4.16,23.08,10.7,32.53,19.36
		c4.5,4.12,8.97,8.31,12.78,13.11c2.4,3.03,2.2,4.17-1.43,5.56c-9.77,3.74-19.36,7.82-28.58,12.73c-6.67,3.55-13.05,7.6-18.48,12.76
		c-5.15,4.89-8,11.17-9.38,18.12c-1.82,9.14-1.23,18.2-0.1,27.37c1.45,11.73,4.28,23.24,5.72,34.95c2.08,16.78,1.7,33.31-6.55,48.87
		c-6.34,11.96-15.89,20.41-28.22,26.1c-4.43,2.04-9.02,3.54-13.77,4.63c-1.12,0.26-2.52,0.98-3.15-0.43
		c-0.54-1.2,0.82-1.79,1.64-2.43c10.36-8.16,18.68-17.89,24.19-29.82c2.23-4.84,4.11-9.79,5.29-14.98c2.15-8.08,2.95-16.26,2-24.57
		c-1.58-14.51-6.99-27.6-15.07-39.77c-5.01-7.54-9.37-15.6-16.32-21.64c-13.74-11.94-27.4-23.99-44.59-31.3
		c-10.92-4.65-22.05-8.19-34.07-8.06c-16.09,0.18-30.58,5.41-43.4,14.68c-19.84,14.34-30.27,34.21-34.3,57.69
		c-1.66,9.68-1.41,19.37-0.88,29.09c0.05,0.97,0.28,2.06-0.75,2.55c-1.12,0.54-1.79-0.5-2.38-1.18c-5.13-5.89-9.48-12.3-13.4-19.02
		c-4.99-8.54-9.1-17.56-14.74-25.73c-1.93-2.8-3.73-5.72-6.35-8c-0.6-0.52-1.05-1.06-0.94-1.89c0.64-0.94,1.65-0.77,2.58-0.8
		c2.51-0.07,4.77-0.8,6.74-2.33c1.78-1.39,0.88-2.76-0.04-4.12c-2.39-3.55-5.57-6.34-8.97-8.92c-3.75-4.48-7.51-8.96-11.5-13.25
		C196.68,114.2,195.85,113.5,196.42,112.39z"/>
	<path class="st1" d="M196.42,112.39c4.18,5.26,9.32,9.75,12.97,15.44c0.7,0.96,0.32,2.04,0.39,3.07c0.27,3.9,2.92,6.14,5.93,8.16
		c1.07,0.72,2.78,0.83,2.88,2.6c-2.69,2.89-6.14,3-9.74,2.54c-0.83,0.58-1.76,0.5-2.7,0.44c-2.83-0.81-5.73-0.83-8.64-0.71
		c-2.09,0.09-4.02,0.7-5.78,1.79c-5.36,3.32-5.5,7.81-0.37,11.49c0.52,0.37,1.11,0.67,1.11,1.42c-1.85,0.84-3.65,1.83-5.57,2.48
		c-11.81,3.99-21.69,11.12-31.46,18.43c-0.59,0.44-1.05,1.03-1.57,1.56c-10.26,7.25-21.69,11.68-34.16,13.6
		c-5.75,0.88-11.55,1.8-17.36,1.56c-8.05-0.34-15.36,1.86-22.45,5.17c-12.74,5.94-24.4,13.6-35.64,21.87
		c-5.98,4.4-11.63,4.94-17.96,0.76c-13.27-8.78-20.85-21.16-22.96-36.65c-0.76-5.58,2.5-11.23,7.16-13.52
		c1.99-0.52,3.52,0.74,5.13,1.4c18.15,7.45,36.07,6.96,53.92-1.06c11.87-5.33,22.29-12.85,32.82-20.23
		c9.14-6.41,18.42-12.6,28.69-17.2c0.86-0.38,1.69-1.05,2.73-0.52c1.01,1.58-0.04,2.9-0.79,4.05c-2.6,4.03-3.13,8.67-4.36,13.12
		c-0.45,1.62,0.11,2.28,1.79,2.51c2.76,0.38,5.34,0.09,7.76-1.31c5.22-1.2,9.8-3.8,14.42-6.31c2.55-1.38,5.09-2.77,7.81-3.8
		c8.58-3.9,17.45-6.79,26.96-7.55c2.29-0.18,4.52-0.29,7.09,0.44c-2.28-1.31-4.21-2.55-6.11-3.84c-0.98-0.76-2-1.45-2.99-2.2
		c-2.81-2.01-5.49-4.18-8.23-6.27c-1.92-1.8-4.25-2.17-6.81-2.15c-4.59,0.04-9.21,0.28-13.77-0.55c-1.05-0.19-2.13-0.23-3.04-0.87
		c-2.62-2.63-5.47-5.15-5.38-9.43c0,2.98-1.03,5.6-2.14,8.2c-1.13,2.64-2.6,5.11-4.35,7.37c-1.81,2.34-3.26,4.97-5.52,6.97
		c-11.75,4.55-22.23,11.23-32.43,18.37c-8.07,5.65-16.04,11.45-24.62,16.37c-9.59,5.5-19.71,9.77-30.82,10.88
		c-12.03,1.2-23.69-0.79-34.72-5.84c-0.61-0.28-1.52-0.56-1.09-1.6c12.97-6.41,26.3-11.9,40.64-14.7c4.54-0.89,7.28-4.17,9.72-7.49
		c13.43-18.23,26.09-36.93,36.18-57.2c1.88-3.78,4.64-6.96,8.72-8.65c2.11-0.88,2.64-2.7,3.32-4.44c3.74-9.5,8.14-18.7,13.57-27.38
		c2.98-4.78,6.19-9.44,10.49-13.25c4.53,0.19,6.43-1.12,8.11-5.36c0.56-1.42,0.34-3.18,1.83-4.21c4.08,3.55,5.07,7.58,2.8,12.2
		c-2.61,5.33-5.35,10.59-8.03,15.88c-4.32,5.9-9.6,11.21-11.57,18.02c1.25-1.42,2.86-3.16,4.06-5.2c0.3-0.51,0.78-1.06,1.58-0.69
		c1.54,0.33,1.98-1.08,2.65-1.83c6.2-6.96,13.68-12.59,21.32-17.72c8.53-5.73,16.26-12.31,24.29-18.59c1.96-1.53,4.11-2.7,6.21-3.97
		c5.96,1.87,10.17-0.33,11.97-6.23c0.29-0.97,0.21-2.13,1.34-2.7c3.3,3.31,4.17,7.53,2.13,11.59c-4.42,8.82-11.61,15.4-18.81,21.95
		c-1.81,1.65-3.74,3.17-5.61,4.75c-2.52,1.64-4.64,3.74-6.93,5.66c-4.11,3.45-8.65,6.25-13.35,8.84c-0.99,0.54-1.84,1.26-2.74,2.01
		c3-0.51,5.58-2.44,8.74-1.88c3.83-0.38,7.35-1.96,11.05-2.84c5.68-1.36,11.35-2.82,16.94-4.5c8.06-2.44,16.22-4.62,23.92-8.11
		c1.06-0.48,2.25-0.67,3.39-1c5.31,2.97,9.76,2.32,14.48-1.99c1.23-1.12,1.93-2.83,3.78-3.26c1.71,5.22,0.21,9.67-3.29,13.72
		c-4.2,4.86-9.47,8.35-15.28,10.94c-11.76,5.26-23.64,10.26-35.48,15.34c-0.38,0.16-0.85,0.12-1.27,0.17
		c-4.2,1.52-8.59,1.99-13.01,2.29c-3.81,0.26-7.47,1.07-11.2,2.78c2.17,1.35,4.82,0.44,6.65,1.99c4.59,2.29,9.73,2.17,14.64,2.98
		c1.94,0.32,3.66,1.05,5.51,1.48c0.21,2.52-1.38,4.32-2.4,6.03c1.45-1.56,2-3.89,3-6C189.83,105.64,193.13,109.02,196.42,112.39z"/>
	<path class="st2" d="M583.3,227.73c7.8-1.64,14.69-4.92,20.8-10.08c7.92-6.7,17.08-7.72,26.93-4.57c5.16,1.65,9.26,4.81,13.35,8.08
		c7.24,7.57,12.57,16.44,16.56,25.89c2,4.74,2.97,10.03,5,14.84c1.9,4.52,3.25,9.13,3.88,13.92c1.38,10.44,3.23,20.8,4.59,31.24
		c1.33,10.18,2.37,20.35,1.77,30.6c-0.34,5.83-3.68,10.73-6.28,15.78c-0.97,1.88-3.45,1.37-5.37,1.46
		c-4.48,0.39-8.06-2.04-11.79-3.79c-4.59-2.16-8.63-5.25-12.93-7.89c-2.26-1.39-4.21-1.39-6.53,0.2
		c-16.06,11.03-33.45,19.42-52.18,25.2c-4.07,1.26-8.19,1.92-12.39,2.37c-1.93,0.21-3.64-0.35-5-1.77
		c-5.04-5.09-6.65-12.15-4.09-17.84c0.25-0.47,0.55-0.96,1.01-1.22c5.15-2.84,7.28-7.62,8.73-12.85
		c2.78-10.02,6.83-19.64,9.71-29.64c1.59-5.51,3.65-10.88,6.78-15.77c1.09-1.7,1.02-3.24,0.18-5.08c-4-8.68-8.7-17.05-12.15-25.98
		c-0.73-1.89-1.23-3.8-1.52-5.82c-1.2-8.41-4.97-15.26-12.84-19.52c-1.03-0.56-2.15-1.06-2.49-2.35c1.92-2.52,4.78-2.76,7.63-3.05
		c1.42,0.38,2.28,1.52,3.33,2.4c3.27,2.72,5.69,2.74,9.34,0.44C579.63,231.5,580.84,228.94,583.3,227.73z"/>
	<path class="st3" d="M557.27,233.2c10.32,4.49,15.1,12.56,16.36,23.28c0.52,4.38,2.79,8.44,4.84,12.37
		c3.13,6,5.51,12.35,9.02,18.18c0.72,1.2,1.14,2.79-0.05,4.43c-3.93,5.42-5.86,11.74-7.9,17.99c-3.59,10.95-7.24,21.88-10.75,32.86
		c-1.39,4.37-4.87,6.79-8.3,9.34c-1.84,1.34-3.88,0.99-5.92,0.72c-7.95-1.06-8.55-0.9-11.98,6.19c-3.33,6.89-6.96,13.59-11.12,20.02
		c-2.52,3.9-4.54,8.1-7.32,11.84c-2.62,3-4.29,6.56-5.93,10.1c-1.43,3.09-3.16,6.01-4.9,8.93c-1.05,1.77-2.76,2.24-4.75,2
		c-1.02,0.84-2.23,0.62-3.4,0.56c-3.67-0.19-7.27-0.82-10.83-1.67c-1.67-0.4-3.38-0.87-4.1-2.7c-0.57-0.21-1.14-0.43-1.71-0.64
		c-1.42-1.59-1.43-3.63-1.09-5.4c0.59-3.04-0.1-5.63-1.77-8.11c-0.34-1.28-0.41-2.51,0.66-3.53c2.51,0.14,2.92-1.5,3.23-3.44
		c1.06-6.5,0.73-13.09,1.29-19.63c1.26-14.54,2.93-29.03,4.91-43.5c1.42-10.38,3.21-20.73,5.71-30.83
		c3.83-15.46,8.75-30.73,17.57-44.39c4.16-6.44,9.21-12.01,16.47-15.29c0.47-0.21,1.02-0.39,1.08-1.04
		c2.36-1.27,4.53,0.38,6.81,0.42c3.75-0.43,7.5,0.63,11.26-0.03C555.58,232.08,556.59,232.36,557.27,233.2z"/>
	<path class="st3" d="M564.45,368.86c3.7,2.68,7.68,0.89,11.2,0.04c9.77-2.35,19.11-6.07,28.35-9.95
		c10.78-4.52,20.29-11.21,30.17-17.27c1.59-0.98,2.67-1.17,4.55-0.26c3.81,1.85,7.03,4.52,10.6,6.69c4.8,2.92,10.06,4.71,15.21,6.78
		c2.33,3.63,1.65,7.74,1.13,11.47c-1.92,13.72-6.5,26.69-13.52,38.71c-6.18,10.58-16.34,16.08-27.96,19
		c-6.43,1.62-13.02,3.25-19.79,2.64c-7.84-0.71-15.75-1.4-22.78-5.3c-2.02-1.12-4.26-0.53-6.17-1.54c0.38-0.67-0.16-0.91-0.59-1.22
		c-9.56-6.9-15.79-16.38-21.35-26.38c-2.22-4-4.08-8.17-5.8-12.4c-0.47-1.17-1.11-2.32-0.68-3.66c0.37-0.83,1.11-1.27,1.91-1.59
		c4.54-1.87,9.09-3.72,13.62-5.61C563.17,368.76,563.81,368.79,564.45,368.86z"/>
	<path class="st0" d="M547.46,376.38c6.45,16.64,14.8,32.02,30.16,43.15c-0.89,0.14-1.54,0.24-2.18,0.34
		c-15.1-0.96-28.75-5.52-40.31-15.39c-4.65-3.97-7.64-9.14-11-14.05c1.06-4.66,4.19-8.25,6.53-12.25c1.07-0.46,2.13-0.98,3.35-0.94
		c3.44,0.11,6.8-0.24,10.11-1.25C545.23,375.65,546.44,375.48,547.46,376.38z"/>
	<path class="st4" d="M508.58,412.64c5.8,3.91,4.87,14.19-1.71,17.19c-6.93,3.17-14.33,5.28-21.12,8.78
		c-5.25,2.71-10.47,5.54-16.5,6.27c-3.98,0.48-7.94,0.71-11.83-0.74c-1.78-0.66-3.23-1.69-4.4-3.12c-1.73-2.11-1.68-4.16,0.67-5.7
		c3.41-2.23,7.05-4.06,11.13-4.87c0.75,0.1,1.51,0.14,2.2,0.48c3.71,1.87,7.31,1.25,10.85-0.5c8.2-4.06,15.86-8.96,23.39-14.09
		C503.51,414.81,505.52,412.69,508.58,412.64z"/>
	<path class="st4" d="M486.36,393.76c2.2,1.57,3.18,3.61,2.24,6.21c-0.85,2.36,0.73,4.7-0.07,7.04c-1.15,2.33-3.13,3.7-5.55,4.56
		c-9.53,3.41-18.69,7.64-27.82,11.95c-6.16,2.92-12.8,3.62-19.55,1.91c-0.82-0.21-1.64-0.56-2.37-0.99
		c-2.01-1.18-3.83-2.74-3.9-5.12c-0.06-2.32,2.08-3.28,3.92-4.19c2.87-1.42,5.68-3.03,8.9-3.64c0.84,0.18,1.7,0.19,2.51,0.54
		c3.88,1.67,7.61,1.06,11.24-0.78c8.38-4.26,16.2-9.39,23.94-14.66C481.8,395.28,483.53,393.25,486.36,393.76z"/>
	<path class="st5" d="M188.47,132.69c2.92,1.75,5.84,3.5,8.76,5.25c-5.2-0.14-10.26,0.01-15.32,0.76
		c-7.54,1.11-14.46,4.02-21.46,6.74c-0.96-1.48,0.12-2.61,0.75-3.77c1.93-3.54,4.48-6.68,7.74-10.35
		c-11.71-0.23-22.31,1.6-32.62,5.33c-0.82,0.16-1.64,0.42-2.45-0.01c-9.13,3.24-17.1,8.5-25.04,13.8
		c-10.71,7.16-20.89,15.08-32.3,21.23c-12.27,6.63-25.21,10.42-39.39,9.5c-8.42-0.55-16.37-2.68-23.99-6.13
		c-0.88-0.4-1.78-0.76-2.67-1.13c-0.26-0.5-1.3-0.93-0.68-1.5c0.88-0.8,1.71,0.5,2.65,0.45c11.2,5.9,23.2,7.95,35.75,6.65
		c16.38-1.7,29.97-9.76,43.12-18.69c5.96-4.05,11.85-8.18,17.78-12.28c8.42-5.82,17.36-10.74,26.87-14.66
		c1.19-0.69,2.21-1.67,3.59-2.05c9.52-3.29,19.4-5.03,29.36-3.86c5.54,0.65,11.15,1.93,16.62,3.42
		C186.57,131.66,187.46,132.34,188.47,132.69z"/>
	<path class="st1" d="M486.36,393.76c-8.98,5.22-17.09,11.78-26.42,16.46c-2.01,1.01-3.97,2.16-6.06,2.98
		c-4.19,1.64-8.21,1.45-11.72-1.7c8.94-5.56,17.13-11.96,23.62-20.25c1.11-1.41,2.03-2.97,3.04-4.45c5.6,2.29,11.44,3.31,17.51,3.17
		C486.34,391.23,486.35,392.5,486.36,393.76z"/>
	<path class="st1" d="M508.58,412.64c-10.18,6.71-20.05,13.9-31.21,19.07c-4.44,2.06-8.69,2.27-12.55-1.25
		c6.17-4.11,12.21-8.39,17.56-13.53c2.95-2.83,5.57-5.91,7.85-9.28c4.26,2.16,8.96,2.52,13.58,3.18c1.58,0.22,3.16,0.42,4.75,0.63
		C508.57,411.85,508.57,412.25,508.58,412.64z"/>
	<path class="st6" d="M238.68,50.55c-3.05,5.1-7.44,8.18-13.61,8.29c-2.11,0.04-4.1-0.56-4.65-3.04c4.02-3.19,8.42-5.77,13.5-6.89
		C235.52,48.56,238.12,47.21,238.68,50.55z"/>
	<path class="st6" d="M201.67,19.34c-0.43,6.95-4.78,11.46-10.51,10.95c-1.41-0.12-2.53-0.47-2.79-2.03
		c2.37-4.22,5.35-7.82,10.1-9.64C199.68,18.15,200.95,17.61,201.67,19.34z"/>
	<path class="st6" d="M165.79,97.79c-3.26,0.75-6.19-0.95-9.67-0.82c3.69-3.94,14.12-6.21,27.24-6.25
		C177.85,93.91,171.8,95.8,165.79,97.79z"/>
	<path class="st7" d="M165.12,72.25c-3.65,1.24-7.31,2.48-11.8,4c1.72-2.46,3.25-3.93,5.21-4.9c6.43-3.16,11.86-7.71,17.46-12.01
		c1.04-0.8,2.05-1.55,3.4-1.72C174.63,62.49,169.87,67.37,165.12,72.25z"/>
	<path class="st6" d="M145.05,30.17c-0.12,3.83-1.4,7.19-4.41,9.74c-1.84,1.56-3.76,1.94-5.54-0.17c1.54-3.26,3.27-6.41,6.04-8.86
		C142.26,29.9,143.45,28.84,145.05,30.17z"/>
	<path class="st8" d="M133.89,70.39c-1.99,3.39-4.6,6.27-7.63,8.9c1.69-4.59,3.03-9.32,6.32-13.21c1.92-2.28,3.66-4.7,5.53-7.02
		c0.39-0.49,0.66-1.53,1.7-0.81C137.85,62.3,135.87,66.34,133.89,70.39z"/>
	<path class="st9" d="M186.54,102.27c-0.29,4.39-2.56,7.55-6.18,7.98c3.1-1.91,4.41-4.91,5.58-8.01
		C186.14,102.18,186.34,102.19,186.54,102.27z"/>
	<path class="st10" d="M206.79,144.05c0.76-0.88,1.39-0.02,2.06,0.15c7.52,8.33,12.64,18.14,17.88,27.88
		c4.85,9.01,10.14,17.73,17.01,25.43c0.69,0.78,1.42,1.53,2.58,2.78c-0.74-6.06-0.77-11.5-0.63-16.93
		c0.61-25.19,8.35-47.71,26.99-65.7c15.62-15.07,34.45-23.15,56.69-22.41c13.14,0.44,25.06,5.13,36.59,10.92
		c17.09,8.58,31.84,20.35,44.09,34.52c12.11,14,21.59,29.87,25.34,48.32c0.48,2.38,0.65,4.82,0.96,7.23
		c0.28,1.37,0.73,2.75-0.28,4.02c-1.29-0.2-1.38-1.3-1.48-2.17c-1.41-12.06-5.33-23.35-10.21-32.49c1.34,7.57,1.66,16.77-2.82,25.44
		c-1.78,3.44-2.05,6.57-1.18,10.33c2.22,9.62,0.71,18.19-8.69,23.9c-1.03,0.62-1.75,1.57-2.44,2.53
		c-11.2,15.45-27.03,22.97-45.72,25.63c-5.29,0.75-10.6,0.85-15.89,0.47c-5.16-0.36-10.29-1.16-15.79-2.48
		c12.04,10.3,25.85,15.32,40.93,17.61c6.48,0.99,12.97,0.65,19.46,0.66c5.68,0,9.68-3.45,13.64-6.7
		c12.54-10.29,21.12-23.18,25.85-38.52c0.4-1.3,0.6-2.74,2.03-3.47c0.61,0.07,1.01,0.28,0.71,0.98
		c-4.55,18.37-14.53,33.31-29.73,44.92c-0.67,0.51-1.35,1-2.67,1.99c1.58-0.1,2.46-0.04,3.29-0.22
		c26.89-5.75,45.18-25.7,48.64-52.55c1.51-11.73,0.33-23.25-1.71-34.77c-2.34-13.24-5.12-26.42-5.54-39.91
		c-0.17-5.32,0.36-10.58,1.52-15.78c2.11-9.47,7.61-16.69,15.53-22.29c12.11-8.55,25.55-14.56,39.42-19.74
		c5.06-1.89,5.13-1.92,1.58-5.97c-13.75-15.65-29.73-28.03-50.76-32.99c-11.48-2.71-23.15-2.94-34.85-2.66
		c-10.09,0.24-20.15,0.15-30.1-1.64c-6.79-1.22-12.8-4.41-18.82-7.52c-13.17-6.81-26.04-14.26-40.37-18.68
		c-1.42-0.44-2.82-0.92-4.18-1.55c8.54,0.42,16.89,1.98,25.25,3.53c16.03,2.97,32,6.37,48.23,8.15c17.15,1.88,34.34,2.13,51.57,0.49
		c22.39-2.13,44.68-5.78,67.3-4.77c5.2,0.23,10.32,0.99,15.33,2.46c14,4.09,20.16,15,16.47,28.8c-2.33,8.71-8.22,14.44-15.68,19.01
		c-7.19,4.4-15.61,6.4-22.84,10.44c-14.1,7.87-29.73,12.51-43.39,21.37c-13.77,8.92-19.83,20.99-19.92,36.58
		c-0.06,10.64,1.58,21.11,3.49,31.54c2.41,13.13,5.1,26.23,4.34,39.69c-1.65,29.4-17.93,52.09-49.36,59.53
		c-6.93,1.64-13.1,4.69-19.64,7.05c-12.77,4.59-25.82,4.73-39.01,2.04c-14.57-2.97-28.65-7.23-41.34-15.13
		c-7.61-4.74-13.94-10.72-18.42-18.46c-0.66-1.14-1.21-2.14-2.93-1.89c-18.69,2.69-28.01-8.02-33.41-21
		c-2.33-5.6-3.8-11.45-4.71-17.43c-0.16-1.07-0.35-2.04-1.19-2.86c-8.78-8.58-14.62-19.08-20.3-29.71
		c-4.06-7.59-8.12-15.2-13.5-22.02c-0.99-1.25-2.09-2.42-3.15-3.62C207.5,146.2,206.89,145.35,206.79,144.05z"/>
	<path class="st1" d="M557.27,233.2c-4.79,0.47-9.57,0.46-14.36-0.02c-0.76-0.79-0.45-1.79-0.58-2.71
		c-0.82-5.8-6.37-8.19-11.24-4.83c-0.79,0.55-1.49,1.23-2.54,1.25c-2.18-1.16-4.4-2.24-6.52-3.51c-7.48-4.46-10.05-11.01-7.84-19.34
		c0.29-1.1,0.67-1.4,1.7-1.24c8.32,1.25,13.8-2.87,18.09-9.2c0.12-0.18,0.24-0.35,0.37-0.53c5.76-8.25,7.2-8.75,16.95-5.98
		c11.07,3.15,16.84,11.13,17.39,24.31c0.15,3.51,0.43,6.95,1.62,10.28c-0.26,3.88-1.18,7.39-5.34,9.07
		C562.25,231.12,559.84,232.41,557.27,233.2z"/>
	<path class="st6" d="M206.79,144.05c0.91,0.6,1.61,1.38,2.1,2.34c0.73,2.88-0.5,4.8-3,6.27c-4.25,2.49-8.7,4.5-13.41,5.98
		c-3.13-0.84-5.37-2.42-5.95-5.85c-0.64-3.81,1.49-6.11,4.38-7.76C195.96,142.12,201.34,142,206.79,144.05z"/>
	<path class="st6" d="M564.96,230.75c2.73-2.49,3.82-5.91,5.34-9.07c2.95,4.87,7.5,6.43,13,6.05c-0.91,1.29-1.61,2.8-2.76,3.83
		C573.7,237.77,569.96,236.84,564.96,230.75z"/>
	<path class="st11" d="M519.32,224.56c-18.3,3.78-24.9,18.2-31.25,32.66c-3.88,8.84-6.29,18.17-8.19,27.61
		c-0.2,0.99-0.31,2.04-1.58,2.87c-0.73-2.51,0.4-4.52,0.86-6.55c2.99-13.24,6.99-26.14,14-37.94c4.17-7.02,9.19-13.36,16.85-17.13
		C512.93,224.63,515.97,223.47,519.32,224.56z"/>
	<path class="st6" d="M528.54,226.89c2.12-3.39,5.3-4.58,9.1-3.66c3.19,0.77,4.82,3.23,5.67,6.27c0.38,1.34-0.12,2.47-0.4,3.68
		c-2.1-0.44-4.21-0.88-6.31-1.32C533.87,230.24,530.87,229.09,528.54,226.89z"/>
	<path class="st12" d="M218.59,141.66c-3.05-1.51-6-3.07-8.12-5.91c-1.9-2.55-2.39-5.07-1.08-7.93c4.34,2.4,7.39,6.05,10.06,10.04
		C220.43,139.34,220.75,140.81,218.59,141.66z"/>
	<path class="st13" d="M435.74,200.15c0.95-1.19,0.24-2.63,0.6-3.9c1.4,7.66,0.46,15.23-1,22.77c-0.19,1.01-0.59,1.98-0.89,2.97
		c-0.22-0.27-0.44-0.53-0.66-0.8c-1.18-1.01-0.84-2.31-0.61-3.53c0.82-4.46,1.32-8.94,1.26-13.48
		C434.42,202.74,434.32,201.18,435.74,200.15z"/>
	<path class="st14" d="M136.03,135.88c6.31-2.99,13.12-4.12,19.96-4.96c4.81-0.59,9.67-1.09,15.03-0.52
		c-3.98,4.89-8.3,9.3-10.55,15.05c-6.34,3.07-12.33,6.79-18.93,9.34c-0.96,0.37-1.92,1.12-2.95,0.15c-0.99-0.59-1.21-1.63-0.89-2.49
		c1.75-4.7-0.43-8.83-1.74-13.11C135.6,138.21,134.7,136.99,136.03,135.88z"/>
	<path class="st14" d="M188.47,132.69c-4.34-0.8-8.94-0.97-13-2.26c-12.3-3.89-23.84-0.55-35.53,2.29
		c-0.31,0.08-0.64,0.08-0.97,0.11c-0.46-1.74,0.89-2.8,1.78-3.83c2.36-2.72,4.82-5.38,7.18-8.11c1.68-1.95,3.55-2.24,5.43-0.16
		c5.93,1.43,11.99,1.32,18.01,1.13c2.87-0.09,5.05,0.64,6.73,2.86c0.15,1.53-1.61,1.86-2.09,3.34c3.32,0.69,6.83,0.77,9.75,2.68
		C186.66,131.4,187.57,132.04,188.47,132.69z"/>
	<path class="st6" d="M136.03,135.88c0.76,2.39,1.38,4.83,2.33,7.15c1.28,3.15,1.76,6.2,0.29,9.42c-0.32,0.7-0.06,1.65-0.07,2.49
		c-1.38,2.85-4.23,2.34-6.46,2.22c-5.28-0.3-5.06-0.47-4.1-5.57c1.01-5.38,3.1-10.27,5.86-14.95
		C134.49,136.1,135.19,135.81,136.03,135.88z"/>
	<path class="st15" d="M153.36,120.74c-2.56-1.18-4.12-0.27-5.74,1.94c-2.63,3.57-5.74,6.8-8.65,10.17c-0.91,0.6-1.92,0.93-3,1.04
		c2.6-3.75,5.38-7.4,7.76-11.28c2-3.26,3.5-6.79,3.23-10.78c-0.05-0.75-0.49-1.99,0.6-2.19c1.19-0.21,1.36,1.12,1.72,1.94
		c0.2,0.46,0.13,1.04,0.22,1.56c0.4,2.51,0.62,5.1,3.63,6.17C153.93,119.57,154.02,120.15,153.36,120.74z"/>
	<path class="st16" d="M185.76,130.75c-3.99-0.66-7.99-1.31-12.37-2.04c1.51-1.68,3.01-2.93,4.72-3.99
		C180.66,126.73,183.21,128.74,185.76,130.75z"/>
	<path class="st17" d="M168.53,167.72c-3.47-2.85-4.73-7.49-2.97-10.57C165.77,161.09,166.57,164.55,168.53,167.72z"/>
	<path class="st1" d="M547.46,376.38c-5.51,1.34-10.99,2.99-16.79,1.8c5.11-7.96,9.13-16.49,13.47-24.85
		c0.87-1.67,1.95-2.41,3.77-2.31c4.19,0.22,8.39,0.42,12.58,0.63c-1.15,5.48-1.79,10.86,2.65,15.43c0.51,0.53,0.88,1.18,1.32,1.78
		C559.14,372.12,553.05,373.71,547.46,376.38z"/>
	<path class="st18" d="M547.19,344.37c5.7-13.11,11.77-26.02,16.49-39.47c4.73-13.49,8.31-27.23,9.24-41.6
		c0.63,2.83,0.62,5.61,0.29,8.45c-2.41,20.41-9.8,39.32-18.14,57.95c-1.86,4.16-3.83,8.28-5.8,12.4
		C548.84,342.99,548.56,344.05,547.19,344.37z"/>
	<path class="st19" d="M634.13,342.91c5.28,2.95,11.56,19.83,9.45,25.28c-0.83-4.47-1.58-8.96-3.2-13.24
		C638.79,350.71,636.54,346.8,634.13,342.91z"/>
	<path class="st0" d="M435.74,200.15c0.12,7.08-0.52,14.1-1.95,21.04c-4.45,16.65-13.18,30.65-26.44,42.06
		c-6.17,5.31-12.76,7.87-21.14,7.71c-19.49-0.36-37.41-4.84-52.92-16.86c-1.5-1.16-2.87-2.5-4.17-4c5.66,0.94,11.2,2.18,16.85,2.58
		c21.6,1.53,41-3.4,56.79-18.75c1-0.97,1.99-1.97,2.8-3.09c2.44-3.36,5.25-6.21,8.62-8.82c7.25-5.6,6.83-13.55,4.93-21.29
		c-0.81-3.3-0.77-5.82,0.86-8.86c4.73-8.8,5.14-18.22,3.09-27.82c-0.15-0.71-0.32-1.42-0.52-2.33
		C427.97,166.82,434.69,186.59,435.74,200.15z"/>
	<path class="st0" d="M288.98,244.13c11.31,4.7,22.12,5.29,33.13,4.12c1.73-0.18,3.11,0.22,4.38,1.45
		c18.45,17.86,41.14,23.53,66.32,22.02c0.2-0.01,0.41,0.04,1.2,0.13c-5.4,3.03-10.76,4.77-16.34,5.88
		c-15.89,3.16-31.18-0.04-46.28-4.53c-10.93-3.25-21.25-7.8-30.18-14.96C296.48,254.45,292.5,250.06,288.98,244.13z"/>
	<path class="st0" d="M295.93,103.69c-14.31,9.66-22.24,23.24-26.87,39.05c-1.03,3.52-3.02,6.76-4.33,10.22
		c-3.03,8.01-3.4,16.33-2.56,24.73c0.12,1.22,0.07,2.28-0.34,3.36c-3.79,9.93-4.21,19.99-1.28,30.19c0.11,0.39,0.05,0.82,0.09,1.5
		c-4.48-3.05-8.26-6.5-12.02-9.98c-1.55-1.44-1.16-3.41-1.3-5.08c-2.29-28.06,3.32-53.89,22.83-75.65
		c6.41-7.15,14.02-12.88,22.62-17.31C293.66,104.26,294.51,103.51,295.93,103.69z"/>
	<path class="st0" d="M271.61,139.5c7.66-26.54,28.84-42.87,52.84-42.93c8.91-0.02,17.3,2.44,24.16,8.49
		c0.85,0.75,1.82,1.45,2.34,2.82c-4.16,0.27-8.22-0.16-12.25,0.37c-4.3,0.57-8.73,1.01-12.5,2.98c-7.03,3.68-14.9,4-22.27,6.21
		C291.1,121.32,280.4,128.34,271.61,139.5z"/>
	<path class="st0" d="M314.72,116.52c-2.65,2.37-4.73,4.04-6.6,5.92c-3.41,3.43-4.36,7.5-2.52,11.98c0.56,1.35,0.22,2.06-0.66,3.02
		c-1.65,1.81-3.61,3.57-4.57,5.73c-2.18,4.9-5.93,7.33-10.89,9.21c-9.17,3.48-16.22,9.87-21.96,17.81
		c-0.87-0.83-0.59-1.72-0.54-2.47c0.34-4.75,0.81-9.49,1.11-14.24c0.64-10.14,6.66-17.11,14.15-23.24
		C291.44,122.71,302.1,118.49,314.72,116.52z"/>
	<path class="st0" d="M407.15,226.24c-14.35,23.07-51.15,31.39-80.49,21.36c10.59-2.12,20.34-5.45,29.69-9.9
		c4.87-2.31,9.55-4.95,14.07-7.84c1-0.64,1.91-1.32,3.25-1.13C384.91,230.33,396.04,230.12,407.15,226.24z"/>
	<path class="st0" d="M295.78,151.11c0.04,2.04-1.45,2.45-2.35,3.25c-4.99,4.39-8.63,9.41-8.7,16.32c-0.03,2.91,0.84,5.49,2.76,7.58
		c1.21,1.32,1.25,2.36,0.73,3.95c-1.12,3.44-1.69,7.01-1.03,10.64c0.18,1-0.11,1.89-0.45,2.78c-1.78,4.66-2.98,9.48-4.1,14.82
		c-6.14-5.25-11.9-10.31-13.49-18.44c-1.02-5.2-1.83-10.4-2.12-15.69c-0.12-2.26,0.52-4.05,1.85-5.85
		C275.69,161.3,284.47,154.83,295.78,151.11z"/>
	<path class="st0" d="M407.74,179.52c-2.83-2.26-4.35-4.35-5.07-7.55c-3.57-15.9-14.53-25.14-29.69-30.29
		c-4.51-1.53-9.2-2.31-13.96-2.61c-2.51-0.16-3.76-1.17-3.48-3.8c0.38-3.47,0.74-6.96,0.86-10.44c0.08-2.36,0.58-2.87,2.99-1.85
		c13.38,5.67,25.12,13.58,35.15,23.94c5.01,5.17,9.18,10.93,12.93,17.05C410.66,169.17,408.55,174.05,407.74,179.52z"/>
	<path class="st0" d="M356.21,114.26c12.86,1.73,23.52,7.8,34.35,13.88c14.44,8.11,17.71,21.31,18.98,35.89
		c-0.91-0.05-1.01-0.63-1.27-1.07c-10.91-18.43-26.9-31.21-46.43-40.05C356.58,120.53,356.56,120.59,356.21,114.26z"/>
	<path class="st0" d="M373.93,227.61c7.09-5.2,13.05-10.24,18.21-16.12c0.96-1.09,2.28-1.19,3.48-1.52
		c7.62-2.13,14.52-5.43,20.37-11.78c0.34,4.73-0.62,8.76-1.59,12.76c-0.45,1.85-1.23,3.61-1.71,5.45
		c-1.61,6.21-5.69,9.32-12.1,10.56C391.98,228.64,383.46,228.81,373.93,227.61z"/>
	<path class="st0" d="M381.02,201.31c1.83-6.37,2.23-12.47-0.6-18.45c-0.31-0.66-0.58-1.26,0.12-1.99c4.82-5,3.72-10.35,0.85-15.77
		c-0.15-0.28-0.25-0.57-0.44-1.03c1.81-0.25,3.13,0.81,4.51,1.42c4.35,1.89,8.26,4.53,12.28,7c3.65,2.24,4.51,5.08,4.1,9.01
		C400.67,192.42,392.66,200.31,381.02,201.31z"/>
	<path class="st0" d="M324.51,148.31c-3.62,0.09-5.67-2.44-8.07-4.37c-4.03-3.24-4.04-3.23-0.48-7.12c0.79-0.87,1.72-1.64,2.36-2.61
		c4.42-6.67,10.67-7.14,17.83-5.43c5.98,1.43,11.33,3.96,16.25,7.5c0.68,0.49,1.58,0.88,1.44,1.92c-0.17,1.3-1.32,0.87-2.06,0.95
		c-9.12,1.05-17.62,3.86-25.52,8.44C325.72,147.91,325.09,148.07,324.51,148.31z"/>
	<path class="st0" d="M363.47,140.88c15.28,2.57,28.04,8.9,35.44,23.04c1.02,1.95,1.61,4.13,2.26,6.24
		c0.33,1.09,0.77,2.22,0.42,3.72c-3.81-2.72-7.3-5.88-11.59-7.43c-7.81-2.83-13.94-7.55-18.86-14.01c-0.89-1.17-2.12-2.1-3.2-3.14
		c-3.07-1.46-4.94-4.23-7.3-6.46c-0.47-0.44-0.88-1.26-0.44-1.69C361.11,140.24,362.34,140.63,363.47,140.88z"/>
	<path class="st0" d="M281.98,226.89c-6.66-3.86-13.06-7.58-18.69-12.29c-2.43-2.03-2.35-5.79-2.85-8.89
		c-1.28-7.82-0.7-15.5,2.38-23.01c1.78,7.37,6.15,13.56,8.95,20.41c1.74,4.26,4.14,8.2,7.44,11.42c2.19,2.13,3.14,4.35,2.8,7.29
		C281.83,223.36,281.98,224.92,281.98,226.89z"/>
	<path class="st0" d="M284.33,241.91c-10.55,1.17-18.74-1.56-24.94-9.16c-6.65-8.14-9.51-17.72-11.28-28.32
		c4.68,3.72,8.87,7.03,13.01,10.38c0.47,0.38,0.81,0.98,1.04,1.55C266.64,226.95,273.69,235.42,284.33,241.91z"/>
	<path class="st0" d="M404.08,138.99c21.62,16.93,22.54,39.55,13.59,54.1c-0.98-5.09-1.27-10-2.88-14.63
		c-0.03-0.1-0.01-0.22-0.05-0.31c-3.7-7.59-4.09-15.85-5.19-23.99C408.87,149.12,406.88,144.4,404.08,138.99z"/>
	<path class="st0" d="M329.01,160.62c2.1,0.77,4.9,0.13,6.1,2.92c-5.78,3.33-10.66,8.02-17.55,9.58c-3.86,0.87-7.28,3.22-10.15,5.99
		c-1.49,1.44-2.47,1.21-3.67-0.12c-0.57-0.63-1.2-1.22-1.84-1.78c-2.17-1.91-2.3-3.87-0.32-6.02c0.78-0.85,1.37-1.88,2.05-2.82
		c1.69-4.74,5.16-7.3,10.19-7.98C318.9,159.69,323.97,159,329.01,160.62z"/>
	<path class="st0" d="M350.96,160.25c8.47-1.5,16.78-0.4,24.98,1.79c6.08,1.62,8.85,13.12,4.3,17.4c-0.6,0.57-1.09,1.07-1.78,0.15
		c-3.37-4.45-8.41-5.52-13.4-7.42C359.42,170.01,352.55,167.91,350.96,160.25z"/>
	<path class="st0" d="M354.23,135.98c-14.51-8.21-14.51-8.21-28.16-9.27c3.76-3.87,7.81-6.89,12.38-9.27
		c0.94-0.49,1.95-0.25,2.86-0.01c4.07,1.07,8.1,2.25,12.17,3.32c1.64,0.43,2.24,1.28,2.03,2.96
		C355.03,127.69,354.68,131.68,354.23,135.98z"/>
	<path class="st0" d="M335.93,116.35c-4.17,3.53-8.04,6.71-11.68,10.17c-0.51,0.49-1.27,0.86-1.98,1
		c-4.97,0.98-9.42,3.07-13.29,6.24c-1.84,1.51-2.34,0.48-2.73-1.02c-0.84-3.18-0.21-6.13,1.94-8.64c4.39-5.1,9.4-8.99,16.83-8.32
		C328.65,116.11,332.29,116.17,335.93,116.35z"/>
	<path class="st0" d="M322.59,191.88c3.66,1.37,7.18,2.67,10.68,4.02c0.87,0.33,0.5,0.99,0.28,1.59c-1.37,3.75-2.33,7.51,0,11.27
		c0.25,0.4,0.26,0.61-0.15,1c-1.41,1.35-5.73,1.94-7.46,0.9c-4.34-2.62-8.27-5.73-11.94-9.19c-1.27-1.2-1.57-2.07,0-3.25
		c2.31-1.73,4.5-3.61,6.77-5.4C321.34,192.37,321.89,191.8,322.59,191.88z"/>
	<path class="st0" d="M343.21,171.65c-3.98,6.25-9.46,10.83-15.62,14.58c-2.06,1.25-4.83-0.16-7.29-0.1
		c-1.62,0.04-4.02,0.9-4.73-0.59c-0.63-1.31,1.29-2.91,2.05-4.4c3.99-7.84,10.12-11.72,19.31-10.25
		C338.93,171.2,341.01,171.04,343.21,171.65z"/>
	<path class="st20" d="M403.7,177.96c2.92,1.7,3.83,3.67,2.67,6.88c-3.03,8.35-7.14,16.07-12.71,23.06
		c-0.93,1.16-1.95,1.86-3.37,2.18c-4.71,1.08-9.45,1.91-14.59,2.32c1.54-3.1,2.84-5.86,4.26-8.56c0.96-1.81,3.01-1.36,4.58-1.75
		c9.04-2.21,15.15-7.44,17.7-16.31C402.96,183.29,403.21,180.67,403.7,177.96z"/>
	<path class="st0" d="M358.77,182.1c3.64,1.41,6.57,2.75,9.86,2.85c1.03,0.03,1.49,0.65,1.94,1.41c2.48,4.26,3.32,8.86,3.14,13.71
		c-0.05,1.39-0.75,1.88-2.06,1.75c-4.72-0.45-9.45-0.86-14.16-1.38c-0.72-0.08-2.11,0.16-1.36-1.58
		C358.39,193.65,359.36,188.18,358.77,182.1z"/>
	<path class="st20" d="M326.6,148.66c8.28-4.63,16.34-7.34,25.1-8c1.36-0.1,2.06,0.04,1.79,1.63c-0.88,5.1-1.77,10.2-3.38,15.15
		c-0.31,0.96-0.57,1.88-1.91,0.75c-5.54-4.7-12.31-6.83-19.22-8.64C328.4,149.39,327.84,149.13,326.6,148.66z"/>
	<path class="st0" d="M367.32,149.92c3.05,3.4,6.11,6.79,9.16,10.19c-8.46-1.41-16.7-2.56-25.34-1.38
		c1.45-5.58,2.76-10.79,3.47-16.14c0.36-2.75,1.34-2.9,4.25-0.95C362.27,143.83,365.08,146.6,367.32,149.92z"/>
	<path class="st0" d="M346.31,212.11c3.28-3.1,5.91-6.03,7.87-9.47c0.61-1.06,1.31-1.2,2.39-0.99c4.78,0.97,9.64,1.26,14.51,1.41
		c2,0.06,2.3,0.58,1.78,2.46c-1.71,6.24-3.09,7.45-9.55,7.4C357.81,212.89,352.29,213.16,346.31,212.11z"/>
	<path class="st20" d="M394.41,208.88c6.57-8.14,11.12-16.46,14.05-26.03c3.24,3.66,5.31,7.54,7.24,11.54
		c0.72,1.49-0.24,2.17-0.97,3C409.54,203.3,402.83,206.65,394.41,208.88z"/>
	<path class="st20" d="M303.55,220.21c-6.72-1.55-12.51-4.23-17.99-7.68c-1.62-1.02-1.76-2.26-1.42-3.76c0.91-4.01,1.89-8,3.6-12.34
		c2.3,5.71,6.5,9.27,10.74,13.08C301.12,211.88,304.08,215.41,303.55,220.21z"/>
	<path class="st20" d="M282.93,218.48c8.23,6.67,17.1,10.75,26.82,13.1c0.71,0.17,1.5,0.69,1.54,1.44c0.04,0.69-0.83,0.85-1.42,1.1
		c-2.27,0.96-4.55,1.9-6.81,2.89c-1.4,0.61-2.58,0.45-3.92-0.33c-3.61-2.1-7.17-4.35-11.01-5.96c-4.28-1.8-5.52-4.82-5.2-8.95
		C282.99,220.92,282.93,220.07,282.93,218.48z"/>
	<path class="st20" d="M361.5,226.25c-9.02,8.78-19.18,14.62-32.29,13.41c-3.71-0.34-7.12-1.55-10.41-3.22
		c-1.25-0.63-2.06-1.46-2.34-3.27c7.87,0.77,15.62,1.47,23.42,0.39C347.61,232.49,354.56,229.39,361.5,226.25z"/>
	<path class="st21" d="M358.98,225.62c-13.05,8.04-26.57,8.01-41.3,6.26c5.23-2.63,8.89-6.01,14.82-5.32
		c5.51,0.64,11.25-0.31,16.58-2.2C352.51,223.14,355.27,224.45,358.98,225.62z"/>
	<path class="st20" d="M370.33,228.6c-11.89,7.6-24.43,13.15-37.92,16.44c-8.82,2.15-5.94,3.05-11.87-4.41
		c-0.46-0.58-0.81-1.23-1.56-2.37c2.47,0.76,4.39,1.5,6.38,1.93c12.8,2.79,23.56-1.63,33.41-9.18c0.34-0.26,0.73-0.5,0.98-0.83
		C362.58,226.42,366.12,226.5,370.33,228.6z"/>
	<path class="st20" d="M354.38,181.28c-0.81,5.71-2.66,11.07-5.98,15.89c-1.33,1.94-2.97,1.66-4.09-0.1
		c-1.26-1.98-2.4-4.03-4.23-5.57c-1.02-0.85-0.74-1.49-0.06-2.39c2.92-3.84,6.17-7.35,10.09-10.24c0.86-0.64,1.6-1.33,2.85-0.48
		C354.07,179.15,354.66,179.94,354.38,181.28z"/>
	<path class="st20" d="M390.52,211.5c-5.45,6.22-11.13,11.17-17.54,15.24c-2.21,1.4-4.78-0.35-7.16-0.72
		c-1.13-0.18-0.33-1.15,0.15-1.67c2.86-3.03,5.41-6.3,7.84-9.66c0.3-0.41,0.72-0.95,1.15-1.02
		C379.91,212.94,384.86,212.28,390.52,211.5z"/>
	<path class="st20" d="M301.64,165.14c-0.99,0.33-1.41,0.1-1.16-1c1.1-4.86,2.87-9.45,5.34-13.8c0.75-1.31,1.9-1.5,3.24-1.6
		c3.57-0.26,7.09,0.24,10.62,0.59c1.32,0.13,2.65,0.44,0.92,2c-5.06,5.11-10.04,10.31-16.77,13.43
		C303.11,165.09,302.32,164.8,301.64,165.14z"/>
	<path class="st0" d="M298.24,207.51c-4.83-3.31-7.76-7.05-9.31-11.86c-0.35-1.09-0.19-2.07,0.29-3.07c0.69-1.44,1.31-2.9,2-4.34
		c2.52-5.25,3.9-5.62,9.05-2.7c0.95,0.54,0.88,1.06,0.5,1.79C297.52,193.52,296.34,200.02,298.24,207.51z"/>
	<path class="st20" d="M302.53,187.1c1.76,3.43,3.31,6.48,5.54,9.08c1.98,2.31,1.46,4.39,0.01,6.62c-1.05,1.6-1.95,3.29-2.97,4.91
		c-0.55,0.87-0.27,2.71-1.85,2.36c-1.47-0.32-3.04-0.86-3.6-2.78c-1.24-4.29-1.31-8.56-0.28-12.85
		C299.97,191.99,300.85,189.62,302.53,187.1z"/>
	<path class="st22" d="M335.44,217.48c-7.15,3.25-14.37,4.47-21.91,4.18c-1.4-0.05-2.15-0.78-2.29-2.17
		c-0.11-1.05-0.25-2.12-0.56-3.12c-0.74-2.32-0.15-2.81,2.37-2.4c2.74,0.45,5.77,0.75,8.39,0.07
		C326.67,212.68,330.9,214.25,335.44,217.48z"/>
	<path class="st20" d="M263.96,217c5.99,3.84,11.58,7.43,17.19,11c0.85,0.54,1.54,1.11,1.64,2.19c0.35,3.7,1.76,7.12,3.06,10.66
		C279.73,239.1,267.77,227.33,263.96,217z"/>
	<path class="st20" d="M339.22,217.3c3.48-4.1,7.96-3.9,12.73-3.51c4.66,0.38,9.37,0.08,14.12,0.47c-3.84,3.78-8.41,5.97-13.25,7.7
		c-0.55,0.19-1.01,0.15-1.54-0.02C347.12,220.59,343.02,219.09,339.22,217.3z"/>
	<path class="st22" d="M383.27,118.48c-6.09-2.83-12.06-6.07-18.7-7.52c-6.75-1.48-13.18-3.21-17.89-8.77
		c-1.36-1.6-3.74-2.37-5.7-3.55C347.71,98.05,372.6,109.61,383.27,118.48z"/>
	<path class="st20" d="M289.12,242.5c0.32-0.11,0.61-0.17,0.87-0.3c7.99-3.9,15.43-2.31,22.73,1.97c2.07,1.21,4.5,1.84,7,2.84
		C311.26,249.28,294.66,246.79,289.12,242.5z"/>
	<path class="st20" d="M283.38,212.54c6.35,4.22,12.5,7.21,19.28,8.79c0.89,0.21,1.52,0.61,1.92,1.48c1.01,2.18,2.11,4.32,3.35,6.81
		c-9.11-2.34-17.19-6.02-24.08-12.03C282.32,216.25,283.72,214.61,283.38,212.54z"/>
	<path class="st20" d="M350.68,176.93c-4.65,3.36-8.34,7.35-11.66,11.67c-0.48,0.62-0.83,1.53-2,0.81c-2.19-1.35-4.8-1.71-7.5-2.69
		c5.57-4.18,10.78-8.28,14.57-13.78c0.63-0.92,1.13-0.6,1.78-0.04C347.39,174.23,348.96,175.51,350.68,176.93z"/>
	<path class="st20" d="M294.71,155.69c-0.92,4.67-0.81,9.03,0.69,13.27c0.33,0.92-0.37,1.35-0.83,1.9
		c-1.93,2.29-3.53,4.79-4.89,7.45C282.97,173.23,285.26,162.34,294.71,155.69z"/>
	<path class="st20" d="M323,114.33c5.48-3.26,11.5-4.63,17.72-5.07c3.32-0.23,6.68,0,10.03,0.07c1.85,0.04,2.95,1.28,2.85,2.82
		c-0.1,1.52-1.73,0.59-2.66,0.73c-1.48,0.23-3.01,0.18-4.5,0.38c-3.87,0.51-7.24,3.01-11.56,2.1
		C331.02,114.54,326.97,114.64,323,114.33z"/>
	<path class="st20" d="M302.64,238.47c3.45-1.47,6.16-2.77,8.98-3.77c2.56-0.91,4.05,1.1,5.29,2.67c2.23,2.83,4.12,5.92,6.46,9.37
		C316.06,244.76,309.66,241.71,302.64,238.47z"/>
	<path class="st20" d="M325.91,212.2c-5.19,1.13-9.86,1.02-14.55,0.31c-0.67-0.1-1.25-0.36-1.24-1.18c0.03-2.96-0.1-5.94,0.17-8.88
		c0.09-1.01,1-2.29,2.45-0.73C316.46,205.72,320.87,208.93,325.91,212.2z"/>
	<path class="st23" d="M354.49,109.81c16.14,2.94,30.2,9.46,42,20.45c-6.84-4.24-13.8-8.31-21.2-11.64
		c-5.62-2.52-11.42-4.49-17.53-5.37C355.67,112.95,354.71,112.14,354.49,109.81z"/>
	<path class="st22" d="M344.56,159.95c-11.25,4.48-14.46-4.96-20.28-9.41C332.17,150.94,338.07,155.32,344.56,159.95z"/>
	<path class="st22" d="M321.24,151.83c0.87-0.43,1.59-0.7,2.48,0.23c2.18,2.28,4.49,4.43,6.79,6.59c1.43,1.34,0.41,1.32-0.69,1.31
		c-5.58,0.38-11.22-0.43-16.74,0.98c-0.59,0.15-1.34,0.32-1.66-0.47c-0.28-0.71,0.21-1.23,0.68-1.65
		C314.94,156.23,317.72,153.56,321.24,151.83z"/>
	<path class="st20" d="M333.41,203.53c0.08-2.34,0.07-5.48,2.01-6.32c2.29-0.99,5.23,0.66,7.56,1.79c1.69,0.83,1.71,2.86,0.17,4.26
		c-1.57,1.43-3.27,2.74-5.03,3.95c-2.72,1.87-3.86,1.39-4.55-1.79C333.43,204.81,333.46,204.16,333.41,203.53z"/>
	<path class="st24" d="M299.24,238.18c-3.71,1.51-7.04,2.25-10.4,2.96c-0.92,0.2-1.46-0.02-1.8-0.82
		c-1.35-3.19-2.61-6.41-3.06-10.47C289.19,232.7,294,235.32,299.24,238.18z"/>
	<path class="st24" d="M304.13,150.09c-2.36,5.1-4.33,10.2-5.03,15.68c-0.17,1.38-1.17,2.29-2.21,2.34
		c-1.03,0.05-0.87-1.39-1.1-2.25c-0.85-3.25-0.41-6.49,0.13-9.71C296.69,151.71,300.96,151.63,304.13,150.09z"/>
	<path class="st24" d="M349.88,222.91c-6.97,1.93-13.54,2.92-20.85,2.5c2.86-2.47,5.35-4.56,7.75-6.74c0.88-0.8,1.63-0.26,2.36,0.01
		C342.53,219.98,345.89,221.34,349.88,222.91z"/>
	<path class="st22" d="M323.22,172.22c-3.82,4.09-6.71,7.89-8.82,12.18c-0.59,1.2-1.13,1.28-2.16,0.59
		c-1.76-1.17-3.56-2.27-5.51-3.51C311.21,176.87,316.42,174.12,323.22,172.22z"/>
	<path class="st22" d="M348.98,198.55c3.67-5.44,6.03-11.36,6.74-17.91c1.42,0.09,1.79,0.87,1.87,2.02
		c0.36,5.33-0.27,10.51-2.49,15.43C354.11,200.28,353.28,200.33,348.98,198.55z"/>
	<path class="st25" d="M298.79,148.53c1.72-4.2,4.32-7.4,7.16-10.45c0.41-0.45,1.08-1.13,1.55-0.31c0.81,1.38,3.21,2.01,2.6,3.95
		C308.62,146.46,304.9,148.66,298.79,148.53z"/>
	<path class="st26" d="M416.03,191.67c-2.46-3.93-4.44-7.04-6.68-9.99c-1.16-1.53,0.4-3.22,0.4-4.89c0-1.67,0.51-3.33,0.93-5.82
		C413.78,177.68,415.23,184.07,416.03,191.67z"/>
	<path class="st22" d="M342.79,211.37c1.11-2.57,2.17-5.15,2.59-8c0.42-2.88,4.65-4.13,7.26-2.44c0.6,0.39,0.61,0.85,0.32,1.33
		c-2.15,3.59-4.81,6.76-8.17,9.33C344.25,212,343.54,211.76,342.79,211.37z"/>
	<path class="st27" d="M321.24,151.83c-3.17,2.91-7.01,5.11-9.98,8.88c6.44-1.09,12.46-2.06,18.56-0.75
		c-0.27,0.22-0.54,0.44-0.81,0.67c-4.1,0.05-8.21,0.06-12.31,0.18c-5.75,0.17-9.81,3.22-13.07,7.56c-0.18-0.21-0.35-0.42-0.53-0.63
		c-0.24-0.24-0.38-0.57-0.22-0.83c0.45-0.74,1.22-1.55-0.59-1.23c-0.22-0.18-0.44-0.35-0.66-0.53c7.49-3.06,12.25-9.71,18.95-13.82
		C320.8,151.49,321.02,151.66,321.24,151.83z"/>
	<path class="st26" d="M411.67,222.11c3.35-6.85,4.91-14.09,5.85-21.93C421.1,209.43,418.91,217.55,411.67,222.11z"/>
	<path class="st18" d="M359.15,174.55c2.06-0.21,4.03-1.69,6-0.42c3.28,2.12,6.08,4.75,8.24,7.98c0.29,0.44,0.6,1.1-0.1,1.3
		c-1.21,0.35-2.57,0.79-3.58-0.47C366.86,179.39,363.06,177.01,359.15,174.55z"/>
	<path class="st24" d="M323.96,191.02c3.24-3.2,9.32-3.32,12.34-0.6c1.03,0.93,0.34,1.62-0.16,2.12c-0.82,0.81-0.61,3-2.87,2.06
		C330.25,193.35,327.15,192.24,323.96,191.02z"/>
	<path class="st18" d="M321.55,128.89c-3.25,3.58-6.19,6.75-9.04,10c-1.44,1.64-2.04,0.04-2.7-0.65c-0.82-0.86-2.54-1.7-0.59-3.2
		C312.79,132.3,316.56,130.03,321.55,128.89z"/>
	<path class="st24" d="M312.05,222.67c4.28,1.89,8.22,2.72,12.6,3.76c-0.96,0.59-1.46,0.96-2.01,1.24
		C313.98,232.19,315.84,233.9,312.05,222.67z"/>
	<path class="st18" d="M378.43,193.91c0.26-2.56-0.38-5.24-1.48-7.78c-0.65-1.48-0.94-2.56,0.96-3.21c2.45-0.84,1.69,1.41,1.96,2.19
		c1.67,4.84,1.4,9.76,0.1,14.65c-0.27,1.02-0.5,2.38-1.96,1.87c-1.34-0.47-0.33-1.73-0.14-2.45
		C378.31,197.51,378.45,195.86,378.43,193.91z"/>
	<path class="st18" d="M312.77,187.39c-1.03,3.1-1.98,5.95-3.02,9.08c-2.72-2.99-4.54-6.25-6.24-10.01
		C306.76,186.79,309.67,187.08,312.77,187.39z"/>
	<path class="st18" d="M320.63,191.1c-3.12,2.58-6,4.97-9.04,7.49c-1.16-1.77,0-3.33,0.44-4.87c1.85-6.49,1.87-6.48,7.86-3.17
		C320.08,190.64,320.24,190.8,320.63,191.1z"/>
	<path class="st23" d="M267.05,151.21c-2.12,8.23-0.46,16.94-3.26,25.05C262.3,167.57,263.47,159.22,267.05,151.21z"/>
	<path class="st28" d="M341.59,116.21c4.22-1.97,7.99-2.26,11.83-2.01c1.14,0.07,2.62,3.84,1.98,5.09c-0.8,1.58-1.84,0.21-2.71,0.01
		c-1.78-0.41-3.52-1.01-5.28-1.51C345.7,117.31,343.98,116.86,341.59,116.21z"/>
	<path class="st23" d="M371.4,185.33c2.78-1.47,3.84-0.46,4.6,2.12c1.41,4.8,1.46,9.46-0.6,14.18
		C375,195.94,374.58,190.28,371.4,185.33z"/>
	<path class="st26" d="M327.96,170.06c2.1-2.21,4.59-3.62,7.1-5.03c1.1-0.61,1.72-0.38,2.5,0.39c1.45,1.42,2.97,2.77,5.16,4.79
		C337.32,169.67,332.66,169.5,327.96,170.06z"/>
	<path class="st18" d="M354.61,222.75c5.02-2.05,9.63-4.61,13.96-8.24C366.22,222.09,360.44,225.43,354.61,222.75z"/>
	<path class="st29" d="M329.46,212.8c3.25-1.76,6.06-3.12,9.05-0.9c0.63,0.47,2.63-0.08,1.78,1.4c-0.76,1.32-1.43,3.71-3.84,2.84
		C334.17,215.32,332.05,214.06,329.46,212.8z"/>
	<path class="st19" d="M357.54,175.49c4.32,2.05,7.96,4.34,10.89,7.98C361.42,183.15,358.33,180.94,357.54,175.49z"/>
	<path class="st26" d="M333.25,219.84c-4.81,5.7-7.67,6.31-16.21,3.34C322.86,222.25,328.19,221.8,333.25,219.84z"/>
	<path class="st29" d="M296.05,171.3c1.84,1.65,2.22,3.26,0.48,5.19c-0.91,1.01-1.53,2.28-2.21,3.48c-0.54,0.96-1.04,1.56-2.21,0.7
		c-0.88-0.65-1.85-1.04-1.02-2.44C292.54,175.77,293.89,173.26,296.05,171.3z"/>
	<path class="st29" d="M345.7,170.67c1.08-1.77,1.3-4.41,3.12-4.7c2.44-0.39,3.21,2.37,4.39,4.06c0.51,0.74,1.27,1.46,0.93,2.84
		C351.37,172.15,348.64,171.44,345.7,170.67z"/>
	<path class="st18" d="M306.2,222.57c3.24-0.89,5,0.35,5.64,3.55c0.29,1.49,0.99,2.91,1.53,4.44
		C309.96,230.38,307.06,227.03,306.2,222.57z"/>
	<path class="st30" d="M340.28,163c1.74,0.5,3.48,1,5.21,1.51c0.61,0.18,1.42,0.4,1.19,1.14c-0.44,1.39-1.02,2.79-2.16,3.77
		c-0.65,0.56-1.13-0.28-1.55-0.65c-1.28-1.11-2.5-2.28-3.73-3.45c-0.44-0.42-1.19-0.78-0.94-1.48
		C338.61,163,339.57,163.35,340.28,163z"/>
	<path class="st31" d="M298.66,175.28c1.19,1.94,1.14,3.89,1.63,5.67c0.28,1.02,1.62,2.68,0.41,3.06c-1.81,0.57-3.76-0.64-5.35-1.69
		c-1.42-0.94,0.12-1.83,0.53-2.61C296.64,178.24,297.64,176.87,298.66,175.28z"/>
	<path class="st32" d="M367.75,174.35c4.01,0.3,7.05,2.26,9.45,5.25c0.62,0.78,1.19,1.6-0.09,2.34c-0.97,0.56-1.78,1.03-2.66-0.29
		C372.63,178.92,370.26,176.62,367.75,174.35z"/>
	<path class="st33" d="M282.17,215.92c-3.91-3.61-6.49-7.33-8.67-12.11c3.07,2.75,5.66,5.05,8.22,7.38
		C283.13,212.47,281.89,213.92,282.17,215.92z"/>
	<path class="st34" d="M308.09,147.39c3.86-6.78,2.81-6.24,8.76-0.87c-0.2,0.51-0.67,0.4-1.06,0.43
		C313.27,147.1,310.76,147.24,308.09,147.39z"/>
	<path class="st35" d="M378.41,204.34c-1.11,2.44-2.44,5.42-4.51,7.99c-0.25,0.31-1.06,0.49-1.45,0.33
		c-0.87-0.35-0.4-1.03-0.11-1.57c1.36-2.49,2.73-4.97,4.1-7.46c0.35-0.63,0.93-0.83,1.63-0.74
		C378.64,202.96,378.74,203.31,378.41,204.34z"/>
	<path class="st36" d="M309.89,219.83c-2.02-0.87-3.24-2.06-4.46-3.21c-1.1-1.04-0.6-2.38-0.41-3.58c0.15-0.98,0.94-0.47,1.52-0.38
		c1.35,0.2,2.43,0.56,2.54,2.24C309.19,216.44,309.58,217.97,309.89,219.83z"/>
	<path class="st32" d="M336.75,209.55c2.42-1.73,4.69-3.35,7.18-5.12c0.19,2.76-0.52,5.21-2.23,6.58
		C340.49,211.97,338.37,210.76,336.75,209.55z"/>
	<path class="st37" d="M288.22,191.51c-0.41-3.68,0.39-6.4,1.13-9.11c0.22-0.81,0.56-1.78,1.76-0.92c0.72,0.52,1.89,0.77,1.15,2.14
		C290.98,185.99,289.79,188.43,288.22,191.51z"/>
	<path class="st38" d="M362.58,172.47c-6.94,1.42-6.94,1.42-7.71-4.08C357.61,169.23,359.87,170.65,362.58,172.47z"/>
	<path class="st39" d="M372.61,214.43c-0.21,0.36-0.34,0.64-0.53,0.9c-2.38,3.29-4.98,6.39-7.89,9.24c-0.51,0.5-1.16,1.29-1.86,0.46
		c-0.58-0.69,0.4-1.06,0.8-1.4c2.99-2.52,5.38-5.5,7.33-8.82c0.36-0.62,0.81-1,1.52-0.93C372.21,213.89,372.4,214.23,372.61,214.43z
		"/>
	<path class="st40" d="M265.29,176.98c0.59,4.2,1.26,8.39,1.68,12.61C265.56,185.5,262.55,181.62,265.29,176.98z"/>
	<path class="st41" d="M367.32,149.92c-2.82-2.76-5.64-5.51-8.46-8.27c1.18-2.3,2.91-1.45,4.61-0.76c-0.95,0-1.9,0-3.58,0
		c2.96,3.1,5.5,5.76,8.05,8.41C367.74,149.51,367.53,149.71,367.32,149.92z"/>
	<path class="st32" d="M342.51,196.99c-1.5,0.33-2.78-0.35-4.05-0.78c-0.78-0.27-2.32,0.04-2.18-1.24c0.12-1.07,0.78-2.33,1.86-2.8
		c1.07-0.47,1.59,0.78,2.2,1.4C341.28,194.53,342.25,195.53,342.51,196.99z"/>
	<path class="st37" d="M308.8,204.41c0,2.38,0.02,4.03-0.01,5.67c-0.01,0.56,0.28,1.35-0.63,1.53c-0.75,0.15-1.49,0.01-2.14-0.46
		c-0.7-0.51-0.36-1.1-0.13-1.69C306.5,207.9,307.11,206.34,308.8,204.41z"/>
	<path class="st42" d="M302.3,165.67c1.03-0.5,2.06-1.01,3.73-1.83c-1.24,1.66-2.08,2.77-2.92,3.89c-0.89,0.99-1.78,1.99-2.83,3.16
		C299.15,168.25,300.45,166.85,302.3,165.67z"/>
	<path class="st43" d="M310.25,185.9c-1.49-0.14-2.98-0.27-4.46-0.44c-0.6-0.07-1.49-0.03-1.46-0.84c0.02-0.53,0.59-1.05,0.92-1.57
		c0.49-0.78,1.03-0.43,1.58-0.06c1.21,0.82,2.42,1.63,3.63,2.44C310.39,185.59,310.32,185.74,310.25,185.9z"/>
	<path class="st39" d="M354.4,174.37c-2.66,2.24-2.95,2.16-7.02-2.05C349.95,172.72,352.23,173.21,354.4,174.37z"/>
	<path class="st44" d="M409.27,141.68c-3.11-3.04-6.91-5.42-9.21-9.25C403.53,135.13,406.76,138.06,409.27,141.68z"/>
	<path class="st45" d="M317.61,187.58c2.57,0,4.81,0,7.18,0C322.43,190.71,322.16,190.7,317.61,187.58z"/>
	<path class="st46" d="M301.08,178.58c4.11,2.61,4.11,2.61,1.45,5.44C301.8,182.21,301.01,180.57,301.08,178.58z"/>
	<path class="st47" d="M347.56,159.32c-2.33-0.25-3.67-1.1-6.71-4.08C343.71,156.03,344.7,156.61,347.56,159.32z"/>
	<path class="st48" d="M342.59,162.3c2.4-1.62,4.05-1.19,5.29,1.47C345.84,163.9,344.3,163.1,342.59,162.3z"/>
	<path class="st48" d="M308.57,220.66c-1.74,0.26-3.82,0.66-3.58-2.62C306.36,219.04,307.46,219.85,308.57,220.66z"/>
	<path class="st49" d="M298.82,173.05c-1.32-1.72-2.59-2.88,0-4.41C298.82,170.07,298.82,171.23,298.82,173.05z"/>
	<path class="st50" d="M301.28,210.98c2.29,0.12,2.73,1.1,2.19,2.77C302.08,213.43,301.89,212.25,301.28,210.98z"/>
	<path class="st6" d="M555.35,193.11c4.3-0.02,8.17,3.36,8.31,7.25c0.15,4.25-3.79,8.09-8.29,8.08c-4.05-0.01-7.94-3.88-7.88-7.81
		C547.57,196.29,550.88,193.12,555.35,193.11z"/>
	<path class="st51" d="M533.16,215.58c0.56,4-1.51,6.62-5.99,7.53C530.32,221.48,532.71,219.3,533.16,215.58z"/>
	<path class="st52" d="M539.02,207.03c4.28-2.59,5.55-6.08,5.1-11.08C546.05,201.35,543.88,205.95,539.02,207.03z"/>
</g>
<g>
</g>
<g>
</g>
<g>
</g>
<g>
</g>
<g>
</g>
<g>
</g>
<g>
</g>
<g>
</g>
<g>
</g>
<g>
</g>
<g>
</g>
<g>
</g>
<g>
</g>
<g>
</g>
<g>
</g>
</svg>
