<?xml version="1.0" encoding="utf-8"?>
<!-- Generator: Adobe Illustrator 23.0.5, SVG Export Plug-In . SVG Version: 6.00 Build 0)  -->
<svg version="1.1" id="Capa_1" xmlns="http://www.w3.org/2000/svg" xmlns:xlink="http://www.w3.org/1999/xlink" x="0px" y="0px"
	 viewBox="0 0 1365.99 767.99" style="enable-background:new 0 0 1365.99 767.99;" xml:space="preserve">
<style type="text/css">
	.st0{fill:#E6EEFE;}
	.st1{fill:#E1EAFD;}
	.st2{fill:#81B4FD;}
	.st3{fill:#DCE5FE;}
	.st4{fill:#050065;}
	.st5{fill:#4346F1;}
	.st6{fill:#80B4FD;}
	.st7{fill:#B5D0FB;}
	.st8{fill:#4043EC;}
	.st9{fill:#3F42EB;}
	.st10{fill:#DDE7FE;}
	.st11{fill:#B6D0FB;}
	.st12{fill:#82B4F9;}
	.st13{fill:#050364;}
	.st14{fill:#D7E4FD;}
	.st15{fill:#04015F;}
	.st16{fill:#F7746E;}
	.st17{fill:#3F42E6;}
	.st18{fill:#06025F;}
	.st19{fill:#F79D9E;}
	.st20{fill:#D1D7E8;}
	.st21{fill:#1A195E;}
	.st22{fill:#D1DAE8;}
	.st23{fill:#579AF2;}
	.st24{fill:#0B0548;}
	.st25{fill:#FE7161;}
	.st26{fill:#FEFEFE;}
	.st27{fill:#FDFEFE;}
	.st28{fill:#FCFDFD;}
	.st29{fill:#FDB4B1;}
	.st30{fill:#B6D0FC;}
	.st31{fill:#82B5FA;}
	.st32{fill:#7097F5;}
	.st33{fill:#B7D1FC;}
	.st34{fill:#7397F2;}
	.st35{fill:#7597EA;}
	.st36{fill:#8EB5F0;}
	.st37{fill:#7396F4;}
	.st38{fill:#4D5DCE;}
	.st39{fill:#4B5DEA;}
	.st40{fill:#5B97EE;}
	.st41{fill:#060167;}
	.st42{fill:#090371;}
	.st43{fill:#DFE7F9;}
	.st44{fill:#EE9CA0;}
	.st45{fill:#3E40E7;}
	.st46{fill:#4D50FE;}
	.st47{fill:#FE8076;}
	.st48{fill:#0F0380;}
	.st49{fill:#FDB3B2;}
	.st50{fill:#060469;}
	.st51{fill:#FB9E9D;}
	.st52{fill:#F4A4A2;}
	.st53{fill:#FE8A83;}
	.st54{fill:#090274;}
	.st55{fill:#85B3F8;}
	.st56{fill:#0E0277;}
	.st57{fill:#DADEF6;}
	.st58{fill:#CBCFF2;}
	.st59{fill:#D5D8F5;}
	.st60{fill:#CED0F3;}
	.st61{fill:#F1F2FD;}
	.st62{fill:#E1DFF7;}
	.st63{fill:#DADDF7;}
	.st64{fill:#EEF5FC;}
	.st65{fill:#E5E7F7;}
	.st66{fill:#F4F6FC;}
	.st67{fill:#5762DD;}
	.st68{fill:#EEF5FB;}
	.st69{fill:#FCA09F;}
	.st70{fill:#170794;}
	.st71{fill:#7197F5;}
	.st72{fill:#120389;}
	.st73{fill:#110388;}
	.st74{fill:#F59CA0;}
	.st75{fill:#E9F4FB;}
	.st76{fill:#F0F5FB;}
	.st77{fill:#ECF4F8;}
	.st78{fill:#F2F7FB;}
	.st79{fill:#D7E9FC;}
	.st80{fill:#CC94B5;}
	.st81{fill:#4042EB;}
	.st82{fill:#E17094;}
	.st83{fill:#6B6AB7;}
	.st84{fill:#D9CFF2;}
	.st85{fill:#E2EAFC;}
	.st86{fill:#DEE8FE;}
	.st87{fill:#FDB0AD;}
	.st88{fill:#FDA19F;}
	.st89{fill:#E2EBFB;}
	.st90{fill:#FBD2CA;}
	.st91{fill:#FAD7CE;}
	.st92{fill:#FBDFD7;}
	.st93{fill:#FAD4CF;}
	.st94{fill:#FAE4DB;}
	.st95{fill:#FBE5DC;}
	.st96{fill:#FBE2D6;}
	.st97{fill:#FCE0DC;}
	.st98{fill:#FCDEDA;}
	.st99{fill:#FBDED3;}
	.st100{fill:#F5D2D6;}
	.st101{fill:#FDD8D1;}
	.st102{fill:#E2DEEC;}
	.st103{fill:#FD7A6D;}
	.st104{fill:#0F076A;}
	.st105{fill:#88A0DC;}
	.st106{fill:#454AE8;}
	.st107{fill:#FCFDFE;}
	.st108{fill:#ED8D95;}
	.st109{fill:#9EB2DF;}
	.st110{fill:#83A0DF;}
	.st111{fill:#A2B8E5;}
	.st112{fill:#DAE7FC;}
	.st113{fill:#D8E6FA;}
	.st114{fill:#CBDCF7;}
	.st115{fill:#D8E7FB;}
	.st116{fill:#D6E5FA;}
	.st117{fill:#D5E6F8;}
	.st118{fill:#D8E5FC;}
	.st119{fill:#DAE7FB;}
	.st120{fill:#D7E3F9;}
	.st121{fill:#E0EBFE;}
	.st122{fill:#DCE7FD;}
	.st123{fill:#D7E9FA;}
	.st124{fill:#DBE7F7;}
	.st125{fill:#DDE9FC;}
	.st126{fill:#E8F2F7;}
	.st127{fill:#E6F3F9;}
	.st128{fill:#DCE8FC;}
	.st129{fill:#B0D0FC;}
	.st130{fill:#D5E6FB;}
	.st131{fill:#ADC4E6;}
	.st132{fill:#FDB0AC;}
	.st133{fill:#0E037E;}
	.st134{fill:#F49197;}
	.st135{fill:#F5736F;}
	.st136{fill:#0B0377;}
	.st137{fill:#4349F4;}
	.st138{fill:#484BF9;}
	.st139{fill:#86B1F8;}
	.st140{fill:#0F0580;}
	.st141{fill:#727BD1;}
	.st142{fill:#6C6FD7;}
	.st143{fill:#272A8D;}
	.st144{fill:#494FA7;}
	.st145{fill:#5056AD;}
	.st146{fill:#7C83E5;}
	.st147{fill:#7F83D5;}
	.st148{fill:#FB7167;}
	.st149{fill:#DFE9FC;}
	.st150{fill:#AACFFB;}
	.st151{fill:#FCAEAB;}
	.st152{fill:#F6A6A9;}
	.st153{fill:#7397F4;}
	.st154{fill:#B2D0FB;}
	.st155{fill:#414EE5;}
	.st156{fill:#F2A2A9;}
	.st157{fill:#A2CAFB;}
	.st158{fill:#C7E6FB;}
	.st159{fill:#B2D8F8;}
	.st160{fill:#BEBCDE;}
	.st161{fill:#BBB9DE;}
	.st162{fill:#82B4F8;}
	.st163{fill:#0B0461;}
	.st164{fill:#FB4C42;}
	.st165{fill:#F3F7FA;}
	.st166{fill:#09056B;}
	.st167{fill:#F6FAFD;}
	.st168{fill:#CCCFF5;}
	.st169{fill:#CDD0F9;}
	.st170{fill:#FBA493;}
	.st171{fill:#E38591;}
	.st172{fill:#DAE7F9;}
	.st173{fill:#D8E9F8;}
	.st174{fill:#DAEAFD;}
	.st175{fill:#DBEAFC;}
	.st176{fill:#D9EBFC;}
	.st177{fill:#DEEBFD;}
	.st178{fill:#E4EBFD;}
	.st179{fill:#D5E5FA;}
	.st180{fill:#DCEAFD;}
	.st181{fill:#DEEEFD;}
	.st182{fill:#DDECFB;}
	.st183{fill:#B2C2DF;}
	.st184{fill:#BAC5DF;}
	.st185{fill:#AABFDB;}
	.st186{fill:#97A6D3;}
	.st187{fill:#CECFF7;}
	.st188{fill:#767AD1;}
	.st189{fill:#7982D7;}
	.st190{fill:#252D87;}
	.st191{fill:#1E2089;}
	.st192{fill:#1E2176;}
	.st193{fill:#131776;}
	.st194{fill:#FB4F47;}
	.st195{fill:#6672C4;}
</style>
<g>
	<path class="st0" d="M994,41.97c13.74-6.52,28.96-5.42,43.23-6.07c48.35-2.23,96.75-1.38,144.16,10.6
		c39.28,9.92,75.76,25.5,104.52,55.06c16.9,17.37,25.98,38.44,29.02,63.02c3.42,27.63-0.7,54.48-5.52,81.09
		c-3.93,21.72-18.85,39.05-30.34,57.51c-11.85,19.04-17.24,39.01-11.38,61.26c2.63,9.98,8,18.28,15.23,25.32
		c16.7,16.25,33.92,31.98,50.42,48.43c19.07,19.01,25.03,41.32,15.28,60.14c-6.93,13.37-19.65,21.79-31.36,30.83
		c-10.74,8.29-21.76,16.07-30.81,26.56c-13.36,15.48-12,31.5-4.63,48.58c6.13,14.2,16.43,26.22,20.23,41.77
		c2.9,11.86-0.25,20.79-7.82,29.45c-11.83,13.52-27.36,19.56-44.33,22.98c-5.45-7.67-2.45-16.4-3.11-24.66
		c0.08-1.75,0.13-3.51,0.22-5.25c0.07-2.18,0.16-4.45,1-6.44c3.17-7.52,3.84-13.2-7.28-12.62c-2.95,0.15-6.21-1.65-6.22-5
		c-0.02-3.83,3.91-3.47,6.55-4.33c1.94-0.63,4.46,0.18,5.69-2.21c0.1-0.19-0.21-0.69-0.45-0.92c-0.25-0.24-0.65-0.31-1.05-0.43
		c-4.91-1.44-10.15-1.4-14.73-3.88c-2.49-4.16,1.33-4.7,3.57-5.74c3.84-1.78,7.99-2.84,11.62-4.85c-7.08-2.77-14.83,0.93-21.69-2.61
		c-0.9-0.67-1.25-1.58-1.15-2.62c0.16-0.26,0.26-0.71,0.54-0.88c0.83-0.52,0.97-1.67,0.51-1.62c-9.53,0.93-19.25-1.06-28.63,1.42
		c-5.49,1.45-9.48,1.62-15.16-1.9c-6.51-4.04-15.74-2.31-23.76-3.41c-10.26-1.41-20.56-2.44-30.51-5.44
		c-5.93-1.79-11.69-0.76-17.53,0.38c-19.93,3.89-39.83,7.99-59.21,9.72c4.93,1.85,8.48,6.6,11.9,11.49
		c-7.64,7.66-11.05,15.7-5.41,26.56c2.57,4.94,2.93,11.52-2.97,15.91c-5.35,2.05-10.96,1.5-16.47,1.49
		c-35.86-0.03-71.71,0.25-107.57-0.16c-4.82-0.06-9.52-0.16-13.54,3.47c-2.93,2.64-6.74,2.66-10.52,1.82
		c-8.99-2.02-18.26-2.87-26.92-6.28c-5.7-3.68-7.14-7.76-0.11-11.25c5.34-2.65,6.67-7.34,8.25-12.29
		c6.02-18.83,10.03-38.33,18.43-56.39c5.32-2.69,10.05,0.31,14.77,1.85c21.33,6.96,42.89,13.03,64.85,17.66
		c2.52,0.53,5.04,1.06,7.59,1.39c15.44,2.04,15.83,1.65,12.64-12.4c2.2-5.32,7.09-4.52,11.37-4.86c15.13-1.23,30.1-3.57,44.95-6.61
		c8.41-1.72,8.76-3.46,2.55-9.61c-4.73-4.69-10.41-8.3-15.15-12.98c-3.1-3.06-6.56-2.57-10.29-1.25
		c-32.36,11.52-64.95,12.73-98.05,2.96c-8.89-2.62-19.6-0.59-24.48-11.51c1.08-17.09,3.16-20.32,18.69-23.86
		c23.11-5.27,44.85-14.33,66.81-22.86c4.06-1.03,8.15-1.1,11.93,0.77c22.29,11.01,46.23,15.55,70.71,16.71
		c24.79,1.18,47.56-4.05,65.29-23.76c19.92-22.15,18.41-50.21-4.67-69.04c-3.7-3.02-6.65-7.01-11.2-8.96
		c-4.58-2.61-10.53-1.31-14.69-5.11c-1.29-1.87-1.97-4.01-2.09-6.21c-0.4-7.58-4.87-10.19-11.78-9.88
		c-11.34,0.5-22.68-1.1-34.08,0.96c-6.75,1.22-13.94,1.16-20.81-0.79c-7.01-7.79-17.68-12.7-19.45-24.64
		c31.6-14.73,62.49-30.93,93.99-45.87c17.94-2.27,36.27,0.24,53.97-5.49c23.83-7.71,47.05-15.99,62.95-37.16
		c10.39-13.83,11.79-33.03,2.87-47.99c-20.14-33.78-61.58-49.9-102.53-39.44c-23.45,5.99-44.29,16.81-60.53,35.35
		c-2.2,2.51-4.43,4.98-6.37,7.7c-24.16,33.89-12.11,69,27.73,80.97c3.29,0.99,7.79,0.46,8.53,5.53c-6.88,4.81-15.27,5.11-22.94,7.57
		c-16.21,5.2-32.58,9.91-48.77,15.19c-11.35,3.7-15.38,2.1-20.45-8.7c-5.97-12.73-12.09-25.4-17.74-38.28
		c-3.27-7.46-7.13-8.92-14.58-5.18c-15.86,7.97-31.24,16.9-47.44,24.23c-15.04-0.69-27.8-9.07-42.01-12.59
		c-3.41-0.85-5.18-4.27-5.86-7.56c-2.71-12.99-8.89-24.06-17.83-33.74c-1.26-1.36-1.73-3.22-1.41-5.15
		c4.64-3.4,7.64,0.26,10.59,2.77c8.76,7.46,18.51,13.64,27.21,21.12c6.62,5.7,10.57,4.53,14.54-2.86
		c8.95-16.63,18.62-32.86,27.6-49.49c7.1-13.14,9.63-13.72,24.18-10.55c15.92,3.47,32.06,6.01,47.76,10.4
		c7.36,2.06,10.92-0.42,13.45-7.17c5.83-15.57,10.06-31.76,17.88-46.57c0.8-0.8,1.74-1.38,2.8-1.79c6.6-1.17,13.3-1.39,19.94-1.15
		c27.95,1.02,50.94-11.09,72.47-27.03c7.92-5.87,13.15-14.11,17.41-22.8c7.05-14.36-3.6-35.66-20.32-41.22
		c-2.09-0.69-4.44-0.48-6.35-1.84c-2.55-5.76-3.74-12.88-12.51-12.43c-27.47-0.2-54.9,0.01-82.34-0.11
		c-4.78-0.02-9.67,0.58-14.25-1.44c-3.51-2.6-1.45-4.34,1.11-5.54c3.79-1.78,7.96-1.56,12.02-1.49c20.2,0.31,40.42-0.92,55.13,0.36
		c-32.18-7.21-69.7-13.29-105.42,7.89c-6.44-2.74-2.54-6.42-0.41-9.22c4.88-6.43,10.89-11.85,17.63-17.59
		C1005.91,44.65,998.33,46.91,994,41.97z"/>
	<path class="st1" d="M994,41.97c7.42,1,18.05-0.83,21.04,5.38c3.43,7.12-9.21,7.16-12.21,13.29c-2.66,5.43-10.15,7.64-11.02,14.72
		c1.32,3.92-1.49,6.25-3.57,8.71c-21.74,25.82-12.26,62.14,17.52,79.47c13.74,8,27.95,15.39,44.49,16.14
		c2.71,0.12,6.26,0.3,6.19,4.66l-0.69,0.54c-8.05,9.42-10.85,21.59-16.78,32.14c-6.77,12.05-7.48,12.95-20.82,10.12
		c-19.17-4.05-38.28-8.38-57.43-12.51c-8.95-1.93-14.42-0.09-18.8,8.51c-6.53,12.82-14.52,24.9-21.56,37.48
		c-4.35,7.77-10.21,9.53-18.6,7.12c-15.25-4.39-30.28-9.63-45.91-12.63c-4.92-0.77-9.96-0.81-14.78-2.27
		c-5.99-3.57-10.81-8.9-17.41-11.56c-7.14-4.99-1.95-9.63,0.56-14.18c8.58-15.56,12.61-31.99,10.5-51.34
		c-4.91,4.03-3.2,8.11-3.33,11.71c-0.11,3.03-0.37,6.52-4.3,6.49c-3.79-0.02-4.44-3.51-4.5-6.5c-0.07-3.67,0.1-7.36,0.02-10.22
		c-0.95,17.12-0.33,35.69-17.56,47.78c-5.52,0.61-8.98-1.8-10.48-7.1c1.87-10.96,8.55-20.45,9.48-31.76
		c1.98-23.97-4.63-44.67-22.41-61.35c-2.36-3.63-6.56-6.26-6.22-11.37c16.6-8.46,35.14-10.64,52.61-16.3
		c36.49-11.82,71.24-28.13,107.2-41.26C954.23,48.94,973.6,43.14,994,41.97z"/>
	<path class="st2" d="M122.02,320.27c1.45-44,9.06-87.08,20.24-129.52c13.38-50.74,31.63-99.82,52.69-147.85
		c5.03-11.47,7.43-12.19,16.38-3.56c13.58,13.08,26.54,26.79,39.84,40.16c3.37,3.38,7.04,6.46,10.57,9.68
		c9.55,5.53,15.23,14.83,21.52,23.25c23.19,31.03,45.7,62.57,63.92,96.88c2.5,4.71,6.49,9.27,4.35,15.41
		c-1.45,1.89-3.44,3.01-5.56,3.95c-4.4,1.74-8.92,2.98-13.67,3.2c-8.8,0.31-17.65,0.69-26.39,0c-10.23-0.81-16.93,2.92-20.6,12.37
		c-3.42,2.97-6.93,1.55-10.07-0.24c-6.62-3.77-14.14-5.64-20.48-9.95c-1.5-1.98-1.74-4.24-1.43-6.61
		c1.35-7.34,5.63-11.1,13.09-12.82c9.52-2.19,11.46-6.77,8.39-16.49c-3.01-9.54-7.77-18.22-13.39-26.46
		c-0.76-4.51,3.43-6.16,5.36-9.11c2.61-3.99,1.9-7.69-0.5-11.35c-2.53-3.86-6.19-5.79-10.43-3.73c-6.95,3.39-13.22,2.52-20.12-0.42
		c-6.36-2.71-12.93-0.76-16.79,4.85c-3.76,5.47-8.38,7.36-14.56,8.43c-8.09,1.41-10.78,6.99-13.09,15.26
		c-3.93,14.07,0.17,19.54,13.56,23.16c6.45,1.74,13.53,5.92,17.75,12.5c-0.62,8.15-4.76,14.67-9.6,20.88
		c-12.55,3.65-25.72,5.03-37.82,10.47c-7.75,3.49-14.95,7.57-20.24,14.42c-5.73,7.26-5.41,16.23-6.99,24.66
		c-5.7,11.57-12.94,22.25-19.55,33.29C126.96,317.41,125.72,320.43,122.02,320.27z"/>
	<path class="st3" d="M350.95,223.78c-15.44-34.28-37.15-64.69-59.01-94.97c-9.72-13.46-20.11-26.44-30.2-39.63
		c12.63-11.32,28.79-14.19,44.39-18.08c20.62-5.13,41.53-8.2,65.46-4.61c-7.51-5.86-14.61-4.58-23.29-8.95
		c12.01,0.41,20.77,1.28,29.31,4.33c15.88,7.08,33.42,7.63,49.83,12.65c2.46,0.75,5.08,0.98,7.56,1.73
		c9.1,2.77,10.32,5.31,5.32,13.42c-8.74,14.17-18.8,27.45-28.35,41.07c-4.67,6.66-9,13.56-13.78,20.14
		c-4.8,6.61-3.07,9.56,4.69,10.96c29.83,5.36,59.61,10.99,89.34,16.92c3.56,0.71,7.48,0.42,10.32,3.38
		c-0.74,5.66-5.93,4.94-9.44,6.66c-42.33,11.2-84.49,23.01-126.72,34.58C361.36,224.75,356.2,228.34,350.95,223.78z"/>
	<path class="st4" d="M112.72,696.57c-5.33,0.58-6.42-2.61-7.48-7.12c-7.96-33.68-13.98-67.72-19.24-101.91
		c-1.62-10.54-3.14-21.09-4.71-31.64c-7.02-12.13-5.82-25.9-6.68-38.93c-2.02-30.3-2.2-60.69,4.87-90.58
		c1.43-6.06,2.26-12.49,7.25-17.08c15.91-0.09,31.09,3.28,45.57,9.86c7.31,9.22,8.61,19.96,8.11,31.28
		c-0.31,6.98-0.12,13.98-0.04,20.97c0.09,7.36-2.19,15.72,8.45,18.53c1.9,0.5,2.09,3.68,2.47,5.89c0.39,2.57,0.19,5.15,0.11,7.73
		c-3.41,33.36-8.3,66.59-8.91,100.19c-0.1,5.37-2.47,9.96-4.93,14.51c-0.03,22.71-1.8,45.45,1.62,68.1c0.43,2.87,1.84,6.76-2.4,8.66
		C128.91,698.14,121.11,702.01,112.72,696.57z"/>
	<path class="st5" d="M876.45,667.27c9.76,2.34,20.25,1.12,29.45,6.41c1.65,0.95,5.89,0.85,6.25,0.04
		c4.7-10.5,13.83-5.73,20.89-5.79c40.31-0.34,80.63-0.05,120.94,0.02c2,1.43,2.42,3.59,2.73,5.81c0.15,1.06,0.2,2.13,0.21,3.19
		c-0.32,6.56,0.94,13.38-3,19.38c-3.36,5.11,4.4,8.37,2.14,13.26c-0.1,0.23-0.53,0.4-0.82,0.42c-0.35,0.03-0.72-0.13-1.08-0.21
		c-73.16-0.09-146.33-0.17-219.49-0.28c-4.05-0.01-8.11-0.27-12.16-0.42c-22.92-1.33-45.85-0.52-68.77-0.52
		c-37.19,0-74.37-0.92-111.56-0.05c-6.02,0.14-11.91,0.21-9.48-8.63c1.43-5.2-1.78-6.4-5.64-7.47c-6.49-1.8-13.28-1.03-19.8-2.41
		c-3.33-0.71-7.15-2.08-6.67-6.05c0.41-3.31,4.31-3.55,7.25-3.86c4.42-0.47,8.87-0.26,13.31-0.27c81.05-0.19,162.1,0.37,243.11-0.31
		c8.36-0.81,6.56-7.86,7.91-12.98C873.72,666.02,875.14,666.32,876.45,667.27z"/>
	<path class="st6" d="M1249.77,671.79c0.04,8.9,0.08,17.81,0.13,26.71c-0.55,0.47-1.06,1.3-1.65,1.36
		c-7.85,0.77-12.65,2.59-3.84,9.87c2.77,2.29,3.56,5.42,2.95,8.92c-11.62,4.96-23.8,0.35-33.6,2.14c9.86,1.29,22.04-2.37,33.72,2.19
		c0.1,3.31-0.03,6.65,0.35,9.93c0.8,6.74-2.5,9.46-8.78,9.64c-33.48,0.93-66.95,1.87-100.43,2.8c-1.52-1.71-2.69-3.73-2.5-5.98
		c0.75-9.3-4.33-14.28-12.3-17.34c-1.71-0.66-3.32-1.61-4.83-2.67c-2.42-1.69-5.69-3.64-4.41-6.81c1.32-3.26,4.94-2.19,7.87-1.63
		c11.45,2.18,11.41,2.16,11.1-9.02c-0.3-10.87-2.07-20.65-14.72-24.11c-2.73-0.75-5.72-2.67-5.21-6.26
		c0.48-3.41,3.64-3.76,6.06-2.93c11.54,3.94,12.07-3.43,12.11-11.45c0.18-1.07,0.48-2.1,0.87-3.11c1.12-2.47,2.64-4.62,5.03-6.02
		c3.83-1.45,7.07-3.85,10.19-6.47c0.98-0.54,1.99-0.94,3.05-1.28c3.42-0.93,6.79-1.98,10.32-2.43c28.8-0.92,57.46-4.9,86.34-3.55
		c1.94,0.07,5.45-1.35,5.12,1.51c-0.33,2.8-2.3,6.11-6.11,6.95c-3.4,0.75-7.24-1.17-10.82,1.98c4.34,4.54,9.74,2.48,14.5,2.81
		c4.65,0.32,7.59,0.93,3.69,6.21c-2.94,3.98-3.43,8.81-4,13.55c-15.02,4.9-30.58,2.84-45.92,3.59c12.09-0.61,24.22,0.48,36.29-1.19
		C1243.57,669.26,1247.03,669.3,1249.77,671.79z"/>
	<path class="st7" d="M88.31,409.17c-11.01,27.36-11.16,56.17-11.14,84.96c0.01,20.67,2.13,41.23,4.1,61.78
		C47.5,509.73,28.8,457.3,17,401.92c-4.99-23.43-7.72-47.17-10.7-70.89c-1.15-9.16,1.67-11.57,10.21-7.88
		c29.13,12.63,57.39,26.96,84.47,43.59c3.16,4.59-0.14,8.57-1.58,12.44C95.69,389.17,94.03,399.93,88.31,409.17z"/>
	<path class="st8" d="M88.31,409.17c1.22-15.04,7.92-28.44,12.66-42.42c7.01-15.49,14.02-30.98,21.04-46.48
		c8.54-12.33,14.34-26.39,24.11-37.94c6.21,0.9,4.87,6.45,5.99,10.21c6.62,22.29,12.49,44.78,27.23,63.67
		c7.47,9.57,16.65,16.65,27.37,21.93c5.74,2.83,11.72,4.54,18.18,2.47c3.29-1.06,6.53-1.66,8.99,1.71c1.1,2.19,1.12,4.39,0.05,6.6
		c-10.6,6.88-16.09,18.1-23.41,27.75c-3.79,5-6.9,10.64-13.47,12.69c-22.8,1.6-44.99-1.16-66.44-9.22
		C116.72,415.69,101.63,415.84,88.31,409.17z"/>
	<path class="st9" d="M869.44,681.04c-3.86,3.34-8.52,1.85-12.81,1.85c-80.73,0.09-161.46,0.07-242.19,0.06c-4.02,0-8.04,0-12.06,0
		c12.21,6.15,26.48,3.15,38.8,10.71c-1.47,1.66-2.9,3.25-4.31,4.85c-1.7,1.92-3.97,3.77-2.56,6.72c1.43,3,4.5,2.34,6.9,2.1
		c12.18-1.2,25.07,3.64,36.48-4.39c2.23-1.57,5.21-1.45,7.44-0.01c10.47,6.74,22.13,4.33,33.37,4.41
		c30.73,0.23,61.47,0.03,92.21,0.14c3.95,0.01,8.19-1.28,11.79,1.6c-45.97,0.19-91.93,0.51-137.9,0.53
		c-100.11,0.05-200.22-0.07-300.33-0.08c-8.15,0-16.31,0.31-24.46,0.48c-2.4,1.77-5.04,1.31-7.27,0.08
		c-16.54-9.06-34.49-13.75-52.84-17.29c-4.17-4.82-5.47-10.7-6.19-16.81c0.43-3.86,1.2-7.58,4.67-10.03
		c4.51-2.2,9.37-1.8,14.15-1.81c25.12-0.05,50.25,0.12,75.37-0.1c8.79-0.08,16.07,2.43,23.82,6.94
		c16.89,9.82,35.21,16.94,53.4,24.14c28.4-1.89,56.42-6.85,84.6-10.52c4.62-0.6,7.97-3.71,11.86-5.79
		c9.72-2.92,19.69-1.55,29.54-1.59c22.38-0.1,44.75-0.34,67.13,0.09c45.91,0.01,91.82-0.55,137.72,0.01
		c20.14-0.43,40.28-0.18,60.42-0.1C860.89,677.25,865.86,676.89,869.44,681.04z"/>
	<path class="st10" d="M459.72,79.63c0.55,5.59,5.62,5.49,9.09,6.47c37.38,10.51,73.43,25.39,111.41,33.94
		c0.97,3.38-1.26,5.58-3.07,7.82c-10.41,12.86-16.99,27.43-19.68,43.75c-3.48,20.02-3.36,19.7-22.69,12.58
		c-32.6-11.99-65.36-23.54-98.3-34.56c-14.87-4.98-15.67-7.63-7.97-21.34c7.6-13.53,15.89-26.67,23.36-40.28
		C453.68,84.69,454.6,80.06,459.72,79.63z"/>
	<path class="st7" d="M1139.02,649.15c-1.56,1.65-3.11,3.29-4.67,4.94c-0.25-0.19-0.48-0.43-0.75-0.6c1.22,0.84-0.48-0.25,0.73,0.61
		c-0.03,18.81-0.03,18.81-18.91,17.28c0.03,2.96,2.61,3.38,4.47,4.16c5.01,2.11,12,2.45,13.77,8.05c3.1,9.83,3.54,20.29,2.7,30.65
		c-0.37,4.62-3.7,1.95-5.86,2.16c-5.24,0.5-8.94-5.27-16.94-3.12c14.2,7.5,30.95,11.91,25.06,32.08
		c-25.7-6.44-49.79-17.65-75.04-25.41c-5.12-1.58-5.08-7.89-9.42-10.16c1.85-3.86-2.13-4.83-3.55-7.03
		c-1.15-1.79-3.89-4.38-1.86-5.55c9.22-5.28,4.45-13.77,5.55-20.88c0.81-0.98,2.71,0.15,3.13-1.61c-1.08,0.03-2.09-0.24-3.06-0.66
		c-0.13-2.04-0.25-4.07-0.38-6.11c0.28-7.32,0.48-14.26-4.16-21.02c-4.21-6.14,2.1-17.16,10.29-19.97c0.61-0.04,1.22-0.07,1.83-0.12
		c21.99,2.79,43.68,7.27,65.44,11.39c3.94,0.75,8.04,1.42,11.45,3.93C1140.56,644.44,1140.76,646.77,1139.02,649.15z"/>
	<path class="st11" d="M137.55,618.27c2.65-38.64,5.1-77.29,11.28-115.59c5.35-2.59,6.5,2.02,7.87,5.06
		c13.36,29.58,30.79,56.5,52.19,80.9c3.45,3.93,6.76,7.86,11.61,10.11c5.27,5.56,10.5,11.14,10.72,19.47
		c-5.39,3.62-9.04-0.22-12.62-3.22c-24.95-20.91-47.77-43.89-67.68-69.7c-0.66-0.85-1.32-1.77-2.14-2.07
		c26.78,33.56,56.91,64.03,92.16,89.22c7.55,9.39,16.61,18,16.55,31.41c-3.7,3.91-8.41,2.39-12.52,1.69
		c-25.18-4.29-49.1-12.52-71.98-23.82c-2.71-1.34-4.78-3.37-6.66-5.67C157.52,628.87,149.19,620.9,137.55,618.27z"/>
	<path class="st12" d="M459.72,79.63c-10.1,17.56-20.04,35.21-30.39,52.62c-4.25,7.15-4.49,10.78,4.95,13.91
		c39.52,13.14,78.74,27.17,118.21,40.93c2.67-4.98-1.34-11.12,2.65-15.85c5.77,6.58,4.02,13.84,1.93,21.12
		c-3.75,4.67-8.65,2.86-13.09,1.91c-7.43-1.59-15.21-1.64-22.23-4.97c-5.09-3.58-8.38-12.21-16.99-6.11
		c-1.02,0.22-1.97,0.06-2.86-0.47c-35.49-6.47-70.97-12.96-106.46-19.39c-5.95-1.08-7.25-3.07-3.34-8.58
		c14.94-21.07,29.5-42.42,44.11-63.73c7.03-10.25,6.89-10.1-5.55-13.13c-18.24-4.44-36.4-9.22-54.58-13.87
		c-0.27-0.07-0.49-0.33-0.74-0.5c0.76-0.56,1.51-1.11,2.27-1.67c23.15,3.85,46.34,7.46,69.4,11.77
		C451.38,74.46,457.86,72.73,459.72,79.63z"/>
	<path class="st13" d="M555.54,193.06c-0.13-7.27-0.27-14.54-0.4-21.81c1.82-20.27,11.67-36.61,25.07-51.21
		c27.27-23.83,58.56-37.42,95.2-37.43c1.16,5.7,1.21,11.07-4.42,14.76c-25.63,3.69-49.9,11.16-69.86,28.35
		c-22.57,19.43-36.51,50.61-18.72,83.42c1.9,3.5,4.62,6.87,2.91,11.35c-11.27,9-17.21,8.23-23.34-3.78
		C558.25,209.36,552.68,202.29,555.54,193.06z"/>
	<path class="st14" d="M166.34,636.08c23.6,10.12,47.05,20.65,72.52,25.48c6.08,1.15,12.07,2.76,18.32,1.39
		c2.16-0.84,2.9,0.45,3.34,2.2c-1.69,5.96-6.96,4.33-11.03,5.1c-9.78,1.86-11.64,5.28-8.02,14.71c1.4,3.64,4.63,6.97,2.26,11.38
		c-24.34-3.52-47.53-9.02-65.27-28.48C169.87,658.45,165.11,648.69,166.34,636.08z"/>
	<path class="st15" d="M300.33,691.2c21.6,0.67,40.41,10.16,59.49,18.81c0.46,3.04,5.61,3.81,4.32,7.06
		c-1.33,3.37-5.23,3.42-8.58,3.5c-22.95,0.59-45.86-0.18-68.76-1.79c-6.31-0.44-7.69-4.74-9.49-9.2c-3.26-4.7-1.26-8.87,1.31-12.98
		C285.87,694.85,293.53,694.75,300.33,691.2z"/>
	<path class="st16" d="M671.16,95.8c3.77-3.64,1.6-9.2,4.25-13.2c0.97-2.3,1.93-4.61,2.9-6.91c1.23-1.66,2.63-1.65,4.15-0.41
		c1.44,2.42,2.87,4.84,4.31,7.27c1.22,0.89,1.95,2.11,2.39,3.53c0.58,1.87,1.2,3.73,2.09,5.5c1.15,2.36,2.24,4.74,3.17,7.2
		c1.84,5.22,3.86,10.38,5.13,15.76c1.3,5.51,1.05,10.52-5.95,11.91c-4.45,0.88-5.75,4.04-6.33,7.94
		c-1.98,13.13-4.5,26.28,2.87,38.72c0.76,1.29,0.71,2.83,0.59,4.33c-0.87,4.01-4.43,5.34-7.31,7.35
		c-11.46,0.75-15.48-3.21-12.68-13.51c3.35-12.34,1.49-24.81,1.88-37.22c0.12-3.65-1.27-6.51-5.25-7.27
		c-6.01-1.13-6.47-5.02-5.07-9.9c1.31-4.23,3.07-8.33,4-12.69C666.98,100.85,668.43,97.95,671.16,95.8z"/>
	<path class="st17" d="M279.81,696.17c-0.83,4.47-1.66,8.95-2.49,13.42c-13.07,0.32-26.7,2.09-33.6-13.24
		c-1.74-3.65-3.45-7.31-5.22-10.95c-5.5-11.23-1.71-17.21,11.06-17.8c3.49-0.16,7.45,1.61,10.36-1.89
		c7.98,3.25,9.12,13.11,16.48,16.97C278.65,686.89,282.72,690.65,279.81,696.17z"/>
	<path class="st18" d="M137.03,713.5c5.88,4.57,10.61,10.21,14.36,16.55c3.73,6.32,2.64,10.69-5.74,10.76
		c-9.94,0.08-19.88-0.1-29.81,0.09c-9.34,0.18-11.85-3.66-8.44-12.35c2.18-5.57,4.61-10.74,9.42-14.5
		C123.48,711.23,130.2,710.12,137.03,713.5z"/>
	<path class="st19" d="M137.03,713.5c-6.76-0.77-13.4,3.05-20.21,0.55c-1.37-5.82-2.74-11.65-4.1-17.47
		c8.02-0.51,16.04-1.02,24.06-1.53C134.38,701.22,133.96,707.38,137.03,713.5z"/>
	<path class="st20" d="M682.47,75.28c-1.38,0.14-2.76,0.28-4.15,0.41c-14.5-5.89-27.89,0.93-41.66,3.56
		c-5.16,0.99-9.77,4.7-15.99,3.56c22.27-16.62,92.96-16.19,112.8,1.18c-14.96-3.66-27.93-8.65-41.77-9.71
		C688.42,74.02,685.28,72.24,682.47,75.28z"/>
	<path class="st21" d="M775.43,113.44c1.63,3.54,6.87,4.13,7.15,8.77c-3.68,5.47-7.12,1.47-10.04-0.64
		c-8.88-6.4-17.71-12.86-27.4-18.02c-9.79-6.05-20.85-8.56-31.77-11.48c-3.43-0.92-7.44-0.56-9.49-4.44
		c-0.29-1.18-0.03-2.23,0.8-3.12C731.27,86.81,753.85,98.9,775.43,113.44z"/>
	<path class="st22" d="M626.39,69.97c34.38-14.16,68.78-13.46,103.2-0.12C695.18,59.66,660.78,58.65,626.39,69.97z"/>
	<path class="st23" d="M1247.47,722.99c-16.45,0-32.89,0-49.34,0c-0.04-1.45-0.08-2.89-0.13-4.34c16.45,0,32.9,0,49.35,0
		C1247.39,720.1,1247.43,721.55,1247.47,722.99z"/>
	<path class="st24" d="M704.68,84.5c-0.01,0.69,0,1.39,0.03,2.08c-5.86,4.17-11.7,3.95-17.52-0.09c-0.14-1.32-0.27-2.63-0.41-3.95
		C692.74,83.2,698.71,83.85,704.68,84.5z"/>
	<path class="st25" d="M876.45,667.27c-1.27,0.45-2.54,0.91-3.8,1.36c-3.27,2.13-6.99,2.24-10.69,2.25
		c-34.74,0.09-69.49,0.28-104.2-0.77c-3.93-0.61-6.65-3-8.65-6.27c-12.13-19.86-23.78-40-35.42-60.14c-0.75-1.29-0.88-2.8-0.86-4.28
		c1.32-2.21,4.56-4.87-1.28-5.49c-1.01-0.29-1.93-0.7-2.83-1.21c-1.82-1.26-3.1-2.95-4.15-4.85c-1.33-2.47-2.11-5.12-2.61-7.87
		c-2.26-11.33-7.04-21.86-10.3-32.87c-1.98-6.7-7.29-8.68-13.27-10.29c-23.29-6.27-46.34-13.25-68.44-23.1
		c-18.09-8.06-35.09-17.86-49.11-31.99c-21.58-21.74-24.21-49.05-7.68-75.03c12.99-20.4,30.41-36.4,50.66-49.22
		c9.54-6.04,17.51-15.11,29.62-16.67c9.74,8.35,20.06,15.69,32.35,20.01c3.69,1.3,5.51,4.69,5.51,8.78
		c-3.19,11.8-11.21,20.67-18.52,29.89c-5.06,6.39-10.61,12.42-14.18,19.82c-4.64,9.63-1.57,16.4,9.09,17.38
		c13.94,1.29,27.91,1.79,41.76-2.74c23.21-7.6,46.66-14.53,71.2-16.62c5.76-0.02,9.98,2.11,11.73,8.07
		c1.23,4.19,4.24,6.67,8.27,8.33c20.61,8.5,44.03,3.84,60.19-12.27c2.22-2.21,4.64-3.58,7.71-3.91
		c16.95,0.22,33.05,5.15,48.54,11.05c18.41,7.01,37.24,9.25,56.55,9.83c14.24,0.43,20.31-8.9,14.03-21.88
		c-4.87-10.06-12.28-18.51-18.6-27.64c-4.21-6.09-8.87-11.94-10.29-19.51c-0.22-4.16,1.69-7.27,5.45-8.61
		c11.46-4.06,22.07-9.47,31.23-17.58c1.06-0.94,2.78-0.74,4.24-0.73c11.09,2.35,19.18,10.13,28.48,15.72
		c7.4,6.6,17.78,10,21.84,20.21c4.98,7.85,14.29,12.13,17.63,21.35c-3.5,4.51-8.62,3.57-13.27,3.67
		c-11.07,0.24-22.15-0.07-33.22,0.13c-14.75,0.27-16.58,2.3-15.44,16.46c0.24,2.96,0.25,5.9-0.42,8.8
		c-1.7,6.05-6.76,9.58-10.72,13.89c-10.78,11.74-11.59,23.85-2.1,36.89c6.18,8.5,14.73,14.52,22.51,21.35
		c2.7,2.37,6.66,3.68,6.41,8.3c-19.82,9.59-40.13,18.29-61.78,22.26c-13.74,2.52-22.16,8.12-23.44,22.45
		c-7.55,4.39-13.24-5.18-20.53-2.72c-10.01,0.92-17.91-6.06-27.35-7.51c0.27,15.54,12.4,33.44,26.2,39.07
		c4,1.63,8.54,2.61,10.67,7.11c-6.22,21.66-12.49,43.3-18.6,65c-1.15,4.09-2.81,6.2-7.64,5.82
		C872.38,660.26,873.19,663.52,876.45,667.27z"/>
	<path class="st26" d="M1109.82,331.09c-6.9-2.27-14.28-3.63-20.63-6.94c-38.73-20.22-38.6-58.14-13.29-86.74
		c25.11-28.37,57.07-43.41,95.04-41.52c33.25,1.66,60.75,16.31,76.58,46.68c11.91,22.85,4.07,45.21-17.01,61.47
		c-31.5,24.28-68.2,32.11-107.42,29.56C1118.09,335.75,1113.54,335.61,1109.82,331.09z"/>
	<path class="st27" d="M1001.41,509.29c-6.45-5.26-12.87-10.54-19.34-15.76c-21.97-17.73-29.11-40.44,0.67-62.8
		c5.65,0.97,5.13,5.65,5.25,9.47c0.22,7.37,1.19,14.62,2.3,21.89c0.58,3.82,1.34,7.22,5.08,9.14c14.33-1.09,25.03,10.3,38.81,11.21
		c4.6,0.3,6.58,4.23,8.94,7.48c6.09,5.64,14.22,3.84,21.1,4.48c20.51,1.9,41.14,2.7,61.63,5.12c6.11,0.72,10.54-1.63,11.18-7.81
		c1.41-13.55,3.61-27.04,3.62-40.71c0-2.82-2.44-3.4-3.97-4.86c-7.48-7.9-7.23-16.61-2.75-25.77c7.99,7.44,17.84,12.58,23.95,22.39
		c19.92,32.01-3.22,67.55-34.65,79.62c-20.53,7.88-41.8,7.28-62.79,3.25c-17.21-3.3-34.97-5.57-50.31-15.56
		C1007.96,508.68,1004.35,509.5,1001.41,509.29z"/>
	<path class="st28" d="M1056.45,184.34c-4.11-3.84-9.34-1.01-13.8-2.29c-24.04-6.91-46.8-15.74-61.19-38.35
		c-12.4-19.48-10.37-45.71,5.46-62.37c1.77-1.86,3.27-3.97,4.89-5.97c21.46-15.21,45.05-19.22,71.03-16.02
		c16.74,2.07,33.14,4.34,48.84,11.51c-23.44,0-46.88-0.06-70.32,0.06c-3.93,0.02-8.19-1.31-11.73,1.7
		c-3.15,4.78-9.22,2.58-13.13,5.53c-2.91,1.07-3.39,3.38-3.5,6.15c-0.9,22.65,1.5,45.4-1.84,67.99c-0.21,1.41,1.05,2.68,1.9,3.87
		c3.44,4.14,8.19,4.81,13.09,4.83c32.22,0.17,64.44,0.29,96.66-0.06c11.37-0.12,13.57-2.56,14.6-13.31
		c-0.03-14.78-0.12-29.54,0.05-44.3c0.06-5.07-0.65-10.47,3.61-14.56c3.86-2.59,7.11-2.23,10.99,0.73
		c24.51,18.69,27.32,37.33,7.76,58.68c-20.5,22.37-46.85,35.43-78.08,36.24C1073.32,184.61,1064.88,184.37,1056.45,184.34z"/>
	<path class="st29" d="M980.71,344.57c-8.27-0.56-9.89,8.99-16.8,10.95c-5.91,1.67-10.84,6.18-17.16,7.06
		c-3.9,0.55-5.83,2.68-6.07,6.52c-11.66-9.21-22.57-19.37-35.48-26.96c-5.73-3.37-11.27-7.05-17.26-9.96
		c-8.87-4.32-17.54-4.89-25.97,1.09c-2.16-6.92-5.65-13.27-8.49-19.91c1.58-21.33-5.01-38.97-22.83-51.86
		c-3.17-2.3-6.67-6.22-3.34-10.27c3.64-4.42,8.7-2.48,13.2-0.41c5.18,0.73,10.64-0.4,15.52,2.31c7.38,2.09,12.69,6.62,15.94,13.56
		c10.02,11.32,18.98,23.2,21.2,38.79c0.53,3.68,2.83,5.45,6.39,6.54c12.91,3.95,25.72,8.21,38.56,12.35
		c0.97-0.67,2.02-0.86,3.16-0.59c10.37,4.6,21.02,8.56,31.27,13.42C975.92,338.81,980.82,339,980.71,344.57z"/>
	<path class="st30" d="M896.61,550.61c1.24-4.55,4.02-3,6.62-1.57c4.1,2.26,8.28,4.28,12.97,4.97
		c32.83,17.82,81.95,20.42,121.25,5.57c6.1-2.31,9.15-1.26,13.25,2.89c5.94,6,12.53,11.37,18.94,16.88c5.61,4.82,4.61,7.66-2.4,9.07
		c-16.89,3.41-33.85,6.36-51.05,7.77c-3.89,0.32-8.26-1.34-11.36,2.54c-0.28,0.24-0.53,0.6-0.85,0.7
		c-32.68,10.5-85.39-8.58-103.51-37.53C898.33,558.48,895.85,555.06,896.61,550.61z"/>
	<path class="st31" d="M871.96,266.69c-5.31-4.52-10.63-9.04-15.94-13.56c15.51,0.62,29.59,7.08,44.12,11.4
		c9.51,2.82,14.57,1.62,19.17-7.72c6.82-13.86,15.46-26.82,23.04-40.32c2.84-5.06,5.52-7.42,12.17-5.87
		c22.2,5.18,44.75,8.89,66.88,14.32c8.19,2.01,11.1-0.87,14-7.35c3.91-8.75,8.5-17.21,12.91-25.73c1.63-3.14,2.48-7.3,7.44-6.97
		c-6.11,17.06-12.53,34.02-18.18,51.22c-2.1,6.4-5.03,7.62-11.27,6.1c-18.3-4.44-36.8-8.05-55.1-12.5c-7.61-1.85-12.14-0.37-16,7.04
		c-9.57,18.38-20.19,36.21-30.14,54.41c-4.24,7.75-7.6,11.27-16.19,3.52C897.46,284.37,884.35,275.93,871.96,266.69z"/>
	<path class="st32" d="M1141.07,88.75c-0.15,20.06-0.3,40.12-0.46,60.17c-3.95,7.7-11.29,7.59-18.31,7.61
		c-33.31,0.1-66.62,0.34-99.93-0.14c-4.48-0.06-8.87-0.19-13.11,1.49c-3.45-9.41,0.6-18.8,0.08-28.29
		c-0.85-15.42-0.14-30.93-0.25-46.4c-0.03-4.89,0.24-9.1,6.87-8.23c23.36,1.28,46.82,0.62,70.13,0.72
		c15.04,0.06,31.03,2.6,46.11-2.47C1143.08,73.87,1140.23,82.36,1141.07,88.75z"/>
	<path class="st33" d="M1158.9,640.6c-3.03,1.75-6.25,2.67-9.79,2.16c-29.55-3.87-58.28-12.44-88.01-15.25
		c-0.31-0.22-0.64-0.41-0.99-0.56c-8.28-0.24-8.93-11.45-17.29-12.91c17.16-2.98,34.9-4.12,51.33-9.37
		c23.81-7.61,45.75,2.43,68.53,3.76c4.72,0.28,9.53,0.69,14.3,1.12c2.82,0.26,6.91-1.82,7.04,4.08c0.06,3.02,2.91,2.38,5.16,1.67
		c12.9-4.09,25.58-4.81,42.9-2.52c-1.63,4-6.93,2.24-8.86,5.67c-15.45,8.1-31.81,13.27-49.15,15.25c-3.39-0.32-6.84-6.31-10.13,0.14
		c-0.29,0.92-0.66,1.81-1.06,2.69C1162.14,638.46,1160.37,639.37,1158.9,640.6z"/>
	<path class="st12" d="M941.13,325.46c-1-0.36-2-0.72-3-1.08c17.34-11.24,36.26-19.52,54.46-29.13c4.86-2.57,5.52,0.99,6.92,3.99
		c7.16,15.4,14.7,30.63,21.43,46.21c3.42,7.91,7.7,8.99,15.58,6.32c19.91-6.73,40.19-12.39,60.22-18.77
		c4.35-1.39,8.68-1.59,13.08-1.9c4.42,0.83,8.83,1.67,13.25,2.5c-22.1,13.32-45.61,23.9-68.83,34.99
		c-7.8,3.73-14.84,9.83-24.21,9.86c-7.45-5.97-14.9-11.94-22.35-17.91c-8.97-11-10.23-25.19-15.55-37.71
		c-5.23-12.28-4.97-12.36-17.67-7.36c-7.23,2.85-14.32,6.04-21.5,9C949.15,326.04,945.24,327.22,941.13,325.46z"/>
	<path class="st34" d="M896.61,550.61c6.51,11.29,14.97,20.8,24.88,29.31c17.46,14.99,38.9,16.19,60.11,18.18
		c7.69,0.73,15.48,0.44,23.23,0.62c1.99,5.1,10.21,9.51,7.72,13.51c-3.33,5.37-11.67,2.26-17.5,1.48
		c-30.91-4.17-60.4-14.01-89.88-23.76c-24.34-3.88-33.7-22.24-41.09-42.51c-1.01-2.76-2.95-5.87-0.33-8.19
		c2.3-2.05,4.69,0.84,6.98,1.68C879.37,544.11,887.98,547.38,896.61,550.61z"/>
	<path class="st35" d="M993.62,474.1c-5.74-1.76-5.48-6.71-6.46-11.34c-2.25-10.59-0.63-21.68-4.43-32.03
		c-0.17-4.39,0-8.83-0.57-13.17c-1.86-14.08,0.28-16.7,14.85-16.97c16.88-0.32,33.76-0.53,50.64-0.79
		c17.17,2.04,34.22-1.61,51.5-0.71c18.06,0.94,18.28-0.44,19.83,18.55c1.65,2.4,2.67,5.01,2.75,7.95
		c0.75,12.08,0.79,24.18,0.06,36.24c-0.76,12.55-5.57,16.89-18.02,17.16c-6.95,0.15-13.92,0.53-20.84-0.67
		c-5.36-1.93-10.96-1.55-16.47-1.41C1042.12,477.54,1017.86,476.21,993.62,474.1z"/>
	<path class="st36" d="M1118.66,424.78c0.1-2.38,0.21-4.75,0.31-7.13c5.09,0.3,10.39-0.52,14.94,2.72c2.46,7.9-4.68,17.87,5.2,24.18
		c-0.82,2.63-1.98,5.16-2.16,7.98c-1.91,6.47-1.78,13.13-1.92,19.76c-0.12,5.23-0.37,10.39-4.53,14.34
		c-11.12,6.43-23.06,3.46-34.74,2.83c-3.27-0.18-6.47-1.57-9.85-1.41c-9.54,0.08-19.09-0.12-28.64,0.11
		c-3.58,0.09-7.48-0.74-10.14,2.77c-1.62,3.83-5.22-3.69-6.69,1.16c-2.12-1.97-1.22-7.59-4.43-6.84c-15,3.5-24.43-14.44-39.5-9.79
		c-0.75,0.23-1.92-0.87-2.9-1.36c27.47-0.1,54.95-0.21,82.43-0.31c2.57-0.01,5.18-0.15,7.04,2.15c-6.01,4.33-12.88,2.08-19.3,2.1
		c-11.88,0.05-23.88,1.33-34.47-0.98c2.59,1.13,6.65,1.14,10.72,1.14c24.35-0.02,48.71-0.11,73.06,0.06
		c7.92,0.05,11.45-2.78,11.18-10.91c-0.32-9.58,0.03-19.18-0.12-28.78C1124.09,433.3,1123.44,428.2,1118.66,424.78z"/>
	<path class="st37" d="M1172.08,631.74c13.38-1.24,25.65-6.56,38.27-10.54c4.27-1.35,8.34-2.95,12.87-2.75c0,0,0.04,0.01,0.04,0.01
		c7.41,2.4,15.03,0.4,22.51,1.16c2.4,0.24,6.12-1.62,6.4,3.14c-7.32,2.92-14.64,5.85-21.96,8.77c-4.25,3.64-9.64,3.06-14.56,3.43
		c-14.53,1.07-29.01,2.97-43.58,3.42c-3.57,0.11-7.38,0.74-10.53-1.87c-0.14-0.67-0.33-1.34-0.55-1.99
		C1163.99,630.77,1167.74,630.09,1172.08,631.74z"/>
	<path class="st38" d="M1132.2,73.22c-5.06,1.49-5.58,6.02-5.84,10.25c-5.31-0.7-1.29-8.23-7-7.59c-4.35,0.49-1.11,6.56-4.88,7.35
		c-5.18-0.82,1.28-7.11-3.69-7.38c-4.91-0.27-1.71,5.93-5.12,7.34c-5.31-0.27,1.22-7.57-4.56-7.77c-5.19-0.18-3.71,4.62-5.47,6.99
		c-3.11-1.26-0.18-6.6-4.25-6.59c-4.77,0.02-1.2,3.97-2.2,5.9c-1.41,2.71-3.35,2.96-5.15,0.91c-4.7-5.33-4.6-5.42-7.69,0.43
		c-3.9-0.91-0.46-7.32-5.08-7.23c-5.2,0.1,0.98,6.53-3.96,7.32c-3.71-0.82-0.39-6.82-4.87-7.33c-5.72-0.65-1.95,6.81-5.97,7.33
		c-4.72-0.95,1.62-7.33-3.84-7.32c-4.55,0.01-1.16,6.33-4.82,7.34c-5.34-0.61,1.14-6.94-3.64-7.32c-5.03-0.4-2.08,5.74-5.35,7.2
		c-4.62-0.16-0.6-8.21-6.08-7.17c-4.14,0.78,1.13,5.86-3.22,7.28c-3.96-0.58-0.51-8.5-6.79-7.71c-5.7,0.71,0.17,6.33-3.95,7.71
		c-4.3-1.37-1.56-5.55-2.8-8.18c3.93-4.38,9.18-1.12,13.65-2.36C1063.81,72.82,1098.01,73.02,1132.2,73.22z"/>
	<path class="st39" d="M1161.54,636.5c23.07,0.89,45.66-4.87,68.66-4.98c5.79,0.92,11.59,1.85,17.38,2.77
		c-10.02,4.65-20.94,2.23-31.38,3.53c-18.92,2.36-38.18,1.99-57.3,2.77C1159.78,639.23,1160.66,637.87,1161.54,636.5z"/>
	<path class="st40" d="M1249.77,671.79c-16.15,0-32.3,0-48.44,0c16.32-0.82,32.36-4.34,48.65-4.49
		C1249.91,668.79,1249.84,670.29,1249.77,671.79z"/>
	<path class="st33" d="M1252.16,622.75c-5.45-4.12-11.81-1.1-17.65-2.21c-3.75-0.71-7.98,1.2-11.26-2.09
		c8.45,0.01,16.91-0.13,25.35,0.13C1250.6,618.64,1256.08,617.09,1252.16,622.75z"/>
	<path class="st41" d="M840.5,250.82c-1.46,0.12-2.93,0.17-4.38,0.38c-3.04,0.45-7.46-1.46-8.44,2.86
		c-0.74,3.28,3.19,4.53,5.53,6.09c19.37,12.86,24.65,31.57,22.37,53.47c1.13,11.61,0.02,22.95-4.08,33.95
		c-0.57,1.11-1.35,2.03-2.31,2.81c-3.89,2.2-7.12,2.28-8.77-2.73c-1.81-12.53-0.38-25.16-0.92-37.73
		c-0.51-11.86-3.64-15.16-15.47-15.43c-12.6-0.29-25.21-0.39-37.8,0.03c-19.31,0.64-26.98,10.67-23.79,29.98
		c2,12.07,5.57,23.75,8.19,35.64c-6.46-0.17-7.1,8.98-13.75,8.59c-4.81-6.46-5.45-14.1-6.29-21.69c-0.75-9.47-4.67-18.59-3.21-28.31
		c2.27-5.08,3.36-10.34,3.52-15.98c0.48-17,5.42-31.8,21.33-40.89c3.57-2.04,5.93-5.43,8.08-8.89c5.37-6.17,13.86-7.35,19.91-12.46
		c3.18-1.75,6.54-2.89,10.17-3.24c5.06-0.73,9.69,1.17,14.43,2.36C830.82,242.28,837.31,244.25,840.5,250.82z"/>
	<path class="st42" d="M748.04,102.19c9.67,5.03,18.44,11.43,26.96,18.16c2.45,1.93,4.44,3.69,7.59,1.86
		c21.05,15.18,30.77,49.87,21.39,77.54c-2.1,6.2-5.33,12.03-8.03,18.03c-3.46,2.81-6.43,0.63-9.48-0.9c-2.84-2.16-5.08-4.7-5.3-8.5
		c3.17-12.41,8.56-24.5,6.15-37.79c-6.16-34.04-29.64-52.03-59.52-64.13c-11.7-4.73-24.49-5.15-36.27-9.5
		c-2.22-1.36-2.73-3.58-2.98-5.93c1.01-5.35,4.83-3.07,7.77-2.75C714.28,90.2,731.5,94.94,748.04,102.19z"/>
	<path class="st43" d="M800.68,243.16c-5.15,4.84-11.94,6.69-18.01,9.85c-6.38,2.22-12.49,2.18-18.11-2.11
		c-0.3-7.36,6.75-8.75,10.56-12.69c4.28-4.43,8.32-9.21,13.61-12.57c5.17-3.17,10.84,1.65,16.06-0.98c0.86-1.98,1.18-4.57,2.65-5.86
		c13.75-12.04,11.78-28.16,11.63-43.79c-0.03-2.69-2.42-6.61,1.89-7.05c3.72-0.37,3.85,3.73,3.89,6.68
		c0.09,5.73,0.03,11.46,1.47,17.4c4.6-6.68-3.37-17.85,9.31-21.57c4.63,9.14,3.4,19.1,1.62,28.55c-2.24,11.91-5.34,23.88-13.28,33.6
		c-2.58,3.16-1.89,4.96,0.85,6.99c-5.13-0.03-10.26-0.05-15.39-0.08c6.72-9.21,15.08-17.51,16.24-29.95
		C818.61,221.79,811.99,234.27,800.68,243.16z"/>
	<path class="st44" d="M804.79,224.67c-0.34,4.19-2.89,4.61-6.12,3.4c-3.16-1.19-6.35-1.35-9.63-0.87
		c-6.66,1.28-13.07-0.36-19.52-1.67c-9.04-2.85-19.88,1.2-27.46-7.17c3.51-5.89,9.1-5.36,14.64-4.58
		c8.37,1.18,16.93,1.97,24.83,4.87c4.92,1.81,4.09-2.38,5.92-3.74c2.95,0.6,5.01,3.82,8.49,2.86
		C797.59,221.74,801.68,222.58,804.79,224.67z"/>
	<path class="st45" d="M255.58,233.22c10.39,1.19,18.47,7.98,27.9,11.47c5.03,3.75,3.59,9.31,3.6,14.21
		c0.01,9.37,1.48,18.23,6.44,26.31c-12.79,13.64-17.96,31.28-25.15,47.87c-1.88,4.33-3.38,8.91-6.46,12.65
		c-5.5,4.46-7.64,11.83-13.7,15.82c-2.18,0.84-4.39,0.83-6.61,0.2c-23.51-15.59-38.17-36.86-40.28-65.41
		c-1.1-14.83-6.38-27.22-17.03-37.38c-8.46-8.07-13.33-8.69-23.85-3.41c-3.17,1.59-3.17,1.59-7.54,0.35
		c15.05-19.14,36.93-22,58.87-24.74c4.24,13.58,18.45,16.72,34.68,7.78C249.62,237.21,251.7,233.79,255.58,233.22z"/>
	<path class="st46" d="M152.9,255.91c23.76-10.8,34.05-6.3,46.49,19.05c4.81,9.8,3.29,20.22,5.32,30.2
		c4.79,23.53,20.08,40.44,37.26,55.92c-2.07,7.66-4.82,15.02-9.73,21.39c-30.7,3.07-57.01-15.62-69.2-47.98
		c-6.47-17.16-11.71-34.64-16.91-52.17C146.03,272.92,145.93,263.51,152.9,255.91z"/>
	<path class="st47" d="M333.66,229.5c4.23-0.96,8.47-1.92,12.7-2.87c16.35-0.81,31.4-8.24,47.7-9.34c5.34,0.31,9.86,2.95,10.72,7.98
		c3.36,19.87,13.56,38.12,13.73,58.68c0.07,8.17-0.85,15.81-11.38,16.91c-7.72,0.76-15.09-2.03-22.72-2.26
		c-16.32-3.93-33.39-4.42-49.21-10.73c-2.13-1.7-3.42-3.95-4.26-6.51c-2.16-14.37-5.47-28.68-1.36-43.3
		C330.47,234.9,330.63,231.58,333.66,229.5z"/>
	<path class="st48" d="M221.4,210.95c-10.74-4.21-18.81-13.89-31.66-14.23c-4.82-0.13-7.96-6.69-4.32-10.06
		c5.35-4.95,3.12-9.7,3.45-15.09c0.63-10.33,8.57-13.8,17.68-14.76c3.4-0.36,6.25,1.14,8.63-3.89c4.84-10.25,14.91-12.63,25.06-6.98
		c3.62,2.02,6.13,4.49,10.5,0.76c6.14-5.24,12.86-5.95,17.88,1.87c4.86,7.56,4.85,14.58-3.53,19.97c-0.92,0.59-1.77,1.28-2.66,1.92
		c-6.4,7.91-16.19,7.34-24.74,9.77c-4.72,1.34-9.67,1.47-7.26,8.87c2.64,8.1-6.18,4.71-8.85,8c3.35,4.49,10.76,5.65,10.68,12.86
		C229.29,217.45,225.3,213.78,221.4,210.95z"/>
	<path class="st49" d="M231.14,209c-1.69-4.09-4.8-6.12-9.08-7.24c-3.13-0.82-7.03-2.84-5.8-6.75c1.34-4.25,5.45-2.4,8.65-1.87
		c1.34,0.22,2.73,0.19,4.44,0.29c-6.24-13.12-6.19-12.89,7.44-15.93c8.63-1.93,17.08-4.67,25.62-7.05
		c10.14,9,14.13,21.28,16.8,33.81c1.66,7.76-3.45,13.17-11.02,13.48c-6.99,0.28-10.87,2.92-12.95,9.15
		c-3.61-4.93-8.12-8.19-14.46-8.93C235.66,217.36,231.9,214.63,231.14,209z"/>
	<path class="st50" d="M333.66,229.5c-4.25,17.43-2.72,34.88-0.23,52.34c1.9,7.77-4.1,7.57-8.6,7.93
		c-8.44,0.68-16.95,0.31-25.41,1.02c-2.87-0.19-5.22-1.15-6.05-4.25c-7.78-3.93-8.55-11.42-9.12-18.74
		c-0.59-7.68-0.55-15.4-0.78-23.1c1.3-11.64,8.44-16.27,19.49-16.34C313.22,228.29,323.48,227.87,333.66,229.5z"/>
	<path class="st51" d="M231.14,209c3.41,4.89,8.22,6.38,14.03,6.91c6.08,0.55,11.51,2.94,10.09,10.97c0.11,2.11,0.21,4.23,0.32,6.34
		c-7.43,11.68-31.1,17.1-43.18,10.24c-7.14-4.06,0.88-8.28-0.63-12.28c3.21-6.74,6.42-13.48,9.63-20.23
		C224.48,209.49,229.06,215.52,231.14,209z"/>
	<path class="st52" d="M393.14,220.03c-6.74,1.4-13.54,2.53-20.19,4.25c-8.77,2.27-17.44,4.69-26.58,2.34
		c1.53-0.95,3.06-1.9,4.59-2.85c34.89-9.38,69.75-18.88,104.69-28.05c12.47-3.27,24.52-8.3,37.55-9.32
		c5.02,9.56-1.87,11.83-8.65,13.29C454.02,206.27,424.42,216.97,393.14,220.03z"/>
	<path class="st53" d="M393.14,220.03c25.75-6.63,51.5-13.27,77.25-19.89c4.61-1.18,9.2-2.89,13.88-3.25
		c6.94-0.54,9.04-4.35,8.91-10.48c2.91-1.23,5.82-2.45,8.72-3.68c0.85-0.17,1.7-0.33,2.56-0.5c1.4-0.8,2.31-0.43,2.76,1.11
		c-14.33,41.12-14.12,82.63-3.19,124.4c0.75,2.85,1.97,5.65,0.32,8.58c-3.69,2.64-7.74,1.73-11.7,1.05
		c-24.97-4.26-49.95-8.51-74.9-12.91c-4.33-0.76-9.93-0.28-11.54-6.4c6.41,0.18,9.35-2.67,9.24-9.33
		c-0.19-11.77-1.45-22.98-6.73-33.98c-3.2-6.67-2.85-14.97-4.74-22.38C402.55,226.66,402.41,219.13,393.14,220.03z"/>
	<path class="st54" d="M130.61,420.14c23.02,1.58,45.5,8.48,68.83,6.99c4.58,1.29,5.76,5.37,7.31,9.06
		c9.01,21.39,16.93,43.21,25.76,64.67c2.31,5.62,4.31,11.85-5.13,13.27c-15.2-0.87-28.86-7.46-44.93-12.68
		c11.68,13.11,21.09,25.92,37.68,29.86c1.8,0.43,3.44,1.27,4.4,3.03c-0.06,0.37,0.01,0.88-0.21,1.07
		c-6.91,5.99-12.92,11.7-11.12,22.74c1.41,8.61,0.58,17.17,6.55,24.88c3.29,4.25,6.02,10.37,1.15,16.09
		c-4.34,0.88-5.98-2.63-7.58-5.27c-19.93-32.9-40.61-65.33-59.69-98.74c-1.1-1.92-1.44-4.2-2.39-6c0.64,2.9,2.24,6.26-2.6,7.5
		c-1.15-2.34,1-8.73-4.88-5.48c-7.12,3.93-6.5-0.51-6.53-4.82c-0.08-8.89-0.12-17.79,0-26.68
		C137.4,446.05,138.52,432.35,130.61,420.14z"/>
	<path class="st55" d="M148.65,496.6c1-2.52,1.99-5.05,3.35-8.49c22.71,37.27,45,73.84,67.29,110.42c0.79,0.44,1.07,0.9,0.83,1.39
		c-0.24,0.49-0.49,0.74-0.75,0.74c-11.1-3.11-15.11-13.82-21.62-21.39c-18.11-21.07-32.24-44.88-43.24-70.48
		c-1.14-2.66-1.97-5.76-5.68-6.1C148.77,500.66,148.71,498.63,148.65,496.6z"/>
	<path class="st56" d="M753.91,667.01c35.2,0.05,70.39,0.08,105.59,0.15c4.42,0.01,8.92-0.54,13.14,1.47
		c5.27,5.78,1.95,9.33-3.2,12.41c-24.49-0.13-48.98-0.26-73.47-0.4c-9.64-5.88-19.89-8.87-31.38-8.24
		C760.73,672.62,754.42,674.67,753.91,667.01z"/>
	<path class="st57" d="M968.68,676.12c2.57,0.21,5.64,0.45,5.25,3.84c-0.39,3.41-3.69,2.73-6.13,2.77
		c-2.32,0.04-4.85-0.68-4.82-3.22C963.04,676.12,966.11,676.19,968.68,676.12z"/>
	<path class="st58" d="M1013.82,683.53c-2.59-0.33-5.72-0.52-5.12-3.99c0.54-3.13,3.7-3,6.22-2.84c2.46,0.15,5.71,0.25,5.07,3.85
		C1019.44,683.68,1016.16,683.15,1013.82,683.53z"/>
	<path class="st59" d="M984.27,683.56c-2.47-0.15-5.47,0.2-5.8-3.23c-0.27-2.76,2.04-3.53,4.33-3.48c2.8,0.05,6.3-0.23,6.35,3.83
		C989.19,683.57,986.35,683.3,984.27,683.56z"/>
	<path class="st60" d="M1035.11,678.2c-0.45,3.78-3.29,3.88-5.64,4.34c-2.77,0.55-5.51-0.24-5.67-3.39
		c-0.13-2.73,2.55-3.1,4.81-3.14C1031.08,675.96,1033.7,675.66,1035.11,678.2z"/>
	<path class="st61" d="M922.08,670.34c1.88,1.87,6.6-0.24,6.55,4.24c-0.03,2.26-2.5,2.62-4.23,2.37c-2.62-0.37-6.56,0.61-6.52-3.87
		C917.9,671.02,920.02,670.37,922.08,670.34z"/>
	<path class="st62" d="M1043.89,680.6c-2.31,0.01-4.96-0.52-4.69-3.14c0.31-2.97,3.28-3.38,5.91-3.37c2.2,0.01,4.98,0.15,4.64,2.99
		C1049.41,679.94,1046.59,680.61,1043.89,680.6z"/>
	<path class="st63" d="M998.75,676.93c2.72-0.02,5.6,0.42,5.77,3.62c0.16,3-2.75,2.91-4.87,2.9c-2.43-0.01-5.79,0.64-5.8-3.1
		C993.84,677.78,996.44,677.14,998.75,676.93z"/>
	<path class="st64" d="M1054.36,674.06c1.27-0.62,2.49-1.57,3.82-1.8c2.29-0.38,5.74-1.52,6.01,1.96c0.28,3.58-2.95,4.4-6.04,3.85
		c-1.35-0.24-2.57-1.14-3.85-1.75C1054.32,675.57,1054.34,674.81,1054.36,674.06z"/>
	<path class="st65" d="M937.59,673.26c2.44,0.38,5.81-0.28,6.17,3.12c0.33,3.07-2.73,2.87-4.77,2.88c-2.47,0.01-5.78,0.38-6.17-2.99
		C932.44,673.09,935.57,673.67,937.59,673.26z"/>
	<path class="st66" d="M958.42,678.96c-1.39,3.07-4.16,2.22-6.52,2.06c-2.22-0.15-4.94-1.24-3.75-3.8c1.16-2.5,4.45-1.83,6.94-1.6
		C956.92,675.79,958.58,676.53,958.42,678.96z"/>
	<path class="st67" d="M1061.11,627.51c10.34-4.23,20.12,0.29,30,2.12c17.92,3.31,35.39,9.43,53.98,8.51
		c3.19-0.16,4.86,1.18,4.03,4.62c-0.01,0-1.01-0.02-1.01-0.02c-2.92,2.36-5.95,3.03-9.21,0.66c-22.99-4.09-46-8.06-68.95-12.4
		C1066.98,630.45,1063.25,630.67,1061.11,627.51z"/>
	<path class="st68" d="M1138.91,643.41c3.02-0.92,6.05-1.62,9.21-0.66c-1.01,5.01-4.47,6.54-9.09,6.41
		C1138.98,647.24,1138.94,645.32,1138.91,643.41z"/>
	<path class="st2" d="M226.58,512.18c4.94-0.07,7.18-0.85,4.6-6.96c-10.92-25.89-21.22-52.04-31.74-78.09
		c7.5-10.46,15.12-20.83,22.44-31.41c2.91-4.21,6.05-7.38,11.59-6.79c1.08-0.6,2.23-0.82,3.46-0.68c5.94,0.49,8.94,3.89,10.61,9.52
		c10.03,33.91,21.5,67.34,34.95,100.06c2.17,5.27,1.62,10.14-3.48,13.74c-14.77,6.27-30.29,5.95-45.82,5.06
		C230.43,516.47,227.05,516.22,226.58,512.18z"/>
	<path class="st69" d="M235.48,389.37c-0.63-0.34-1.3-0.48-2.01-0.43c-0.41-2.15-0.82-4.3-1.23-6.46c0.27-8.48,4.36-15.23,9.73-21.4
		c2.15-0.52,4.29-1.03,6.44-1.55c15.68-0.44,29.7,5.42,43.71,11.39c15.12,3.19,27.92,13.45,43.8,14.35c2.86,0.16,4.8,1.61,5.37,4.57
		c-5.1,13.31-13.45,15.98-24.23,7.74c-3.1-2.37-6.62-3.13-10.44-3.13c-8.53,0-17.06-0.19-25.59,0.21
		c-8.37-0.15-16.77,0.57-25.1-0.87C249.21,391.87,242.35,390.61,235.48,389.37z"/>
	<path class="st2" d="M255.14,391.24c8.81,0.09,17.62,0.19,26.43,0.28c8.35,2.18,16.85,0.75,25.28,0.95
		c8.01,0.19,13.18,3.11,15.04,11.48c2.73,12.3,6.77,24.21,12.76,35.36c1.87,3.48,3.35,8.24,8.61,7c5.08-1.2,6.31-5.78,6.73-10.4
		c0.43-4.79,0.18-9.61,0.22-14.41c0.17-17.51,2.61-19.25,18.51-13.18c-4.51-7-10.3-11.51-24.9-19.35
		c-4.19-3.89-9.44-3.58-14.61-3.87c-3.82-0.21-8-1.39-9.28-5.04c-1.38-3.91,3.03-5.38,5.56-7.22c6.07-4.39,10.62-10.27,15.78-15.55
		c4.85-2.96,10.73-2.05,15.87-4.42c7.5-3.45,9.94-8.1,6.14-15.78c-2.93-5.92-7.05-11.33-8.15-18.08
		c0.31-10.46-6.18-16.55-14.04-21.76c-2.36-3.1-7.24-4.95-5.15-10.27c16.22,2.96,32.44,5.92,48.65,8.88
		c4.62,2.5,6.38,7.02,8.09,11.55c21.72,57.45,36.56,116.51,41.37,177.88c0.52,6.66,1.93,13.19,2.33,19.85
		c0.29,4.96,3,6.38,7.53,4.99c1.06-0.33,2.21-0.48,3.17-1c31.29-16.92,63.84-5.47,95.93-4.28c1.46,0.05,2.93,0.52,4.3,1.08
		c2.32,0.95,5.43,1.32,5.79,4.39c0.36,3.15-2.56,4.25-4.78,5.39c-7.26,3.74-15.15,5.95-22.7,8.97
		c-59.59,21.59-41.56,19.14-101.36,6.07c-6.66-1.46-13.24-3.21-20.14-2.61c6.72,3.37,15.67,1.57,20.65,8.93
		c-2.98,6.02-9.19,6.57-14.05,5.7c-6.89-1.23-3.69,4.06-5.24,6.04c15.17,2.51,30.38,4.29,45.18,8.26c4.2,1.13,8.52,2.13,12,5.05
		c3.83,6.95,2.42,14.41,1.85,21.72c-0.38,4.91-2.97,7.54-8.62,5.34c7.8,4.28,14.14,27.44,9.74,34.39
		c-2.64,4.18-6.15,3.06-10.36,1.55c10.84,4.93,14.65,13.49,11.39,24.54c-1.39,4.71-1.47,4.74-8.99,3.99
		c10.42,5.05,13.85,28.27,6.63,44.76c-20.55-9.45-42.81-15.37-61.08-29.53c-1.97-1.53-4.12-1.35-6.28-1.34
		c-33.18,0.17-66.36,0.38-99.54,0.58c-5.11-0.6-6.04-4.99-7.49-8.62c-14.97-37.4-30.09-74.74-44.93-112.2
		c-1.46-3.69-3.72-7.41-1.47-11.63c10.4-4.65,21.76-2.57,32.6-4.53c11.24-2.03,22.61-3.4,34.91-6.09
		c-6.55-8.66-14.55-14.07-23.42-18.43c-9.12-9.86-11.06-23.12-15.7-34.92c-9.29-23.65-16.98-47.94-23.89-72.43
		C246.32,393.24,246.57,388.48,255.14,391.24z"/>
	<path class="st70" d="M753.91,667.01c5.63,5.32,12.56,2.5,18.73,2.37c10.06-0.21,17.64,3.18,23.33,11.27
		c-45.99-0.02-91.97-0.04-137.96-0.06c0.72-9.81,9.76-4.99,14.53-8.26c-11.96-4.09-20.33-11.87-29.08-20.94
		c-9.5-9.84-17.04-22-29.5-29.34c-8.46-4.98-14.82-13.58-20.92-20.88c-9.16-10.95-20.81-18.84-30.04-29.35
		c-2.11-1.66-4.68-1.63-7.16-1.93c-3.59-0.42-7.64-0.61-8.93-4.67c-1.49-4.71,4.34-3.58,5.68-6.19c0.09-0.17-0.26-0.64-0.5-0.89
		c-0.24-0.26-0.58-0.41-0.95-0.6c-5.24-2.93-13.4-0.33-15.8-8.43c8.84-4.7,19.27-5.18,27.84-10.58c25.02-1,50.11-4.04,74.91,1.97
		c2.31,0.56,3.11-1.02,4.61-1.36c23.28-5.32,40.95-0.17,51.26,19.57c3.94,7.55,7.67,15.18,10.74,23.13
		c0.56,1.69,1.13,3.37,1.69,5.06c-6.57,5.42,2.12,3,2.5,4.86c0.78,0.37,1.57,0.74,2.35,1.11c2.27,1.24,3.93,2.83,3.26,5.75
		C727.63,621.42,740.77,644.21,753.91,667.01z"/>
	<path class="st71" d="M553.65,555.72c2.14,0.61,6.23-1.03,5.76,2.81c-0.9,7.36-8.29,1.48-11.68,5.24
		c3.77,6.73,12.72-1.03,16.46,5.53c-0.6,7-1.19,13.99-2.17,20.95c-2.45,6.84,0.39,14.41-2.9,21.12c-0.72,1.25-2.39,2.58-1.84,3.88
		c6.14,14.61,2.71,29.95,3.62,44.94c0.2,3.35,0.47,6.67,1.72,9.79c1.75,4.34,0.74,7.94-2.6,11.03c0.04,3.76-1.11,5.9-5.52,6.44
		c-22.46,2.76-44.86,5.96-67.31,8.85c-7.59,0.98-15.07,3.37-22.87,2.14c0.01-2.96,0.2-5.92,0.02-8.87
		c-0.97-15.31,7.33-34.51-16.77-40.65c0.94-0.21,1.9-0.68,2.81-0.59c4.64,0.45,8.65,7.85,13.37,2.75
		c4.39-4.74-0.58-19.52-6.52-22.96c-3.09-1.79-7.06-2.29-9.05-5.72c0.79-2.02,2.23-1.57,3.6-1.23c3.75,0.92,7.5,5.82,11.05,2.48
		c3.3-3.1,1.39-8.35,0.96-12.72c-1.06-10.85-3.28-20.9-17.12-23.16c3.27-2.98,4.83-1.28,6.43-0.81c6.97,2.06,10.04,0.1,9.15-7.67
		c-0.62-5.47-0.1-11.07-0.1-16.62c1.49-3.54,4.55-4.98,7.97-4.89C498.01,558.47,525.71,551.94,553.65,555.72z"/>
	<path class="st72" d="M560.02,681.01c-3.04-19.33-2.11-38.84-2.71-58.28c-0.06-2.12-2.76-4.14-4.2-6.23
		c-0.94-1.36-3.66-2.28-2.32-4.2c1.4-2.01,4.04-1.01,6.2-0.75c4.86-7.01-0.17-15.28,2.88-22.52c0.99-6.68-3.42-14.53,4.31-19.74
		c9,10.92,20.57,19.41,30.46,29.4c8.36,8.45,13.88,22.29,28.05,24.83c0.86,0.15,1.84,1.42,2.17,2.37
		c4.8,13.89,20.67,18.06,26.87,31.25c3.45,7.35,12.89,9.35,20.49,12.24c2.5,0.95,7.02-0.17,6.15,4.19
		c-0.71,3.52-4.81,2.51-7.67,2.69c-4.63,0.3-9.91-1.36-12.7,4.32C625.35,680.73,592.69,680.87,560.02,681.01z"/>
	<path class="st73" d="M244.13,536.15c17.13,44.26,34.22,88.53,53.29,132c0.35,2.96-0.28,5.61-2.39,7.81
		c-5.54,5.84-12.02,8.9-20.23,6.85c-9.75-1.54-9.89-11.45-14.89-17.11c-0.91-0.91-1.82-1.83-2.73-2.75
		c-4.83-10.26-10.66-19.93-17.5-28.98c-4.72-4.22-9.53-8.4-9.32-15.57c-2.68-6.52-6.71-12.21-10.98-17.75
		c0.14-0.72,0.11-1.42-0.08-2.13c3.28-5.48,1.23-11.88-2.09-14.72c-8.17-6.98-5.26-15.74-6.81-23.99
		c-2.4-12.79,0.86-21.43,13.61-25.62C231.2,529.84,237.75,532.18,244.13,536.15z"/>
	<path class="st74" d="M274.8,682.81c6.74-2.28,13.49-4.56,20.23-6.85c1.76,5.08,3.53,10.17,5.3,15.25
		c-5.07,8.96-12.48,8.26-20.52,4.96C278.14,691.71,276.47,687.26,274.8,682.81z"/>
	<path class="st5" d="M569.41,692.9c-4.63,5.44-9.59,6.94-14.07,8.86c-3.84,1.65-8.21-0.39-9.05-3.78c-1.07-4.27,3.7-6.42,7.03-6.69
		C558.09,690.91,563,692.17,569.41,692.9z"/>
	<path class="st75" d="M1087.76,671.68c-1.91-0.16-3.96-0.41-4.1-2.76c-0.22-3.86,2.82-3.69,5.36-3.71
		c1.75-0.02,4.21-0.17,4.19,2.33C1093.18,670.83,1090.42,671.38,1087.76,671.68z"/>
	<path class="st76" d="M1103.3,660.74c2.04,0.08,3.98,0.71,3.33,3.12c-0.63,2.35-2.75,3.4-5.22,3.17c-1.99-0.19-3.89-1.23-3.46-3.35
		C1098.48,661.09,1101.01,660.81,1103.3,660.74z"/>
	<path class="st77" d="M1121.72,656.96c-0.17,2.8-2.19,3.47-4.38,3.68c-1.73,0.17-3.94,0.34-4.45-1.81
		c-0.62-2.64,1.48-3.83,3.63-4.35C1118.77,653.93,1120.76,654.51,1121.72,656.96z"/>
	<path class="st78" d="M1134.32,654.1c-2.63,0.6-5.35,3.76-7.87,0.46c-1.33-1.74,0.35-3.47,2.08-4.24c3.71-1.66,5.49,0.02,5.81,3.77
		C1134.35,654.09,1134.32,654.1,1134.32,654.1z"/>
	<path class="st79" d="M230.35,618.4c3.11,5.19,6.22,10.38,9.32,15.57c-12.95-5.88-22.76-16.22-32.78-25.53
		c-20.25-18.8-40.74-37.63-56.84-60.45c-2.15-3.05-5.05-5.5-2.94-10.8c17.7,23.31,37.48,43.96,58.37,63.49
		C212.87,607.59,219.74,615.78,230.35,618.4z"/>
	<path class="st10" d="M704.7,581.85c-4.69-7.48-9.57-14.85-14.05-22.46c-11.18-18.97-28.69-24.46-49.6-15.5
		c-4.45,1.91-6.14-3.93-11.33-3.69c-22.5,1.03-45.08,0.41-67.63,0.4c-12.26,4.62-24.42,4.55-36.46-0.74c-3.91-4.82,1.1-5.4,3.5-6.64
		c5.39-2.8,11.58-3.82,16.83-6.98c1.21-0.95-1.34-1.64-0.23-0.67c0.41,0.35,0.21,0.76-0.64,0.88c-7.41,1.03-15.46,5.34-20.95-3.91
		c9.08-3.76,18.16-7.53,27.24-11.29c-25.09-4.54-50.04-9.21-75.17-8.14c-10.95,0.46-21.78,6.53-32.41,10.69
		c-8.21,3.21-10.36,1.53-10.95-7.63c-4.68-72.66-20.31-142.9-48.25-210.27c7.21,0.73,14.42,1.45,21.63,2.18
		c22.92,6.56,46.68,8.67,69.98,13.21c9.34,1.82,18.8,3.01,28.21,4.49c9.22,2.02,12.03-4.27,14.4-11.13
		c5.12-12.64,4.44-26.39,7.65-39.39c7.39-11.58,7.86-22.97-0.97-34.11c-1.15-14.17-4.85-27.9-7.1-41.89
		c0.33-1.18,1.02-2.07,2.07-2.7c11.69,2.17,23.38,4.35,35.08,6.52c2.11,5.89,3.87,11.94,6.4,17.65c7.05,15.9,7.17,15.84,23.3,9.03
		c6.51-6.99,15.7-7.8,24.13-10.2c3.83-1.09,7.8,0.1,9.12,4.29c1.62,5.15-2.28,7.35-6.28,8.77c-6.99,2.47-14.33,3.72-21.46,5.64
		c-3.35,1.23-7.24,0.72-10.46,3.15c0.55,5.57,9.78,7.57,6.26,14.79c-4.48,4.64-10.31,5.02-13.49,5.04
		c8.86-0.18,20.52-2.41,32.07,0.81c33.92,19.62,69.83,25.45,108.11,16.18c7.88-1.91,15.45-5.28,23.74-5.36
		c6.08,2.01,3.52,5.76,1.17,8.48c-8.9,10.29-15.43,21.64-18.01,35.16c-0.84,4.41-4.53,6.59-8.52,8.02
		c-23.35,8.37-46.91,16.19-69.48,26.61c-2.83,1.31-5.86,0.33-8.67,1.25c-28.02,15.39-54.21,33.25-73.43,59.32
		c-23.72,32.17-18.65,63.8,13.49,87.82c26.24,19.61,56.09,32.73,87.66,38.84c24.84,4.81,37.18,16.95,40.76,40.61
		C702.6,573.28,705.4,577.19,704.7,581.85z"/>
	<path class="st80" d="M520.47,186.54c-0.24,0.77-0.48,1.54-0.72,2.32c-0.85,0.64-1.74,0.7-2.66,0.19
		c-2.76-3.33-6.17-5.66-10.43-6.67c-0.73-0.01-1.46-0.06-2.19-0.16C512.64,173.15,516.74,179.16,520.47,186.54z"/>
	<path class="st81" d="M589.33,225.83c7.82-1.92,15.63-3.83,23.45-5.77c2.66-0.66,5.32-1.97,4.61-5.06c-0.79-3.47-3.9-4.26-7.04-3.3
		c-8.4,2.57-16.75,5.35-25.1,8.04c-26.76-39.4-11.2-78.37,19.87-101.03c19.55-14.25,41.69-22.03,66.05-22.91
		c-0.93,2.67-1.85,5.35-2.78,8.02c-3.91,3.18-8.24,6.2-4.17,12.13c0.06,4.82-2.02,11.26,7.38,7.59c4.6-1.79,4.59,2.7,4.3,5.41
		c-1.59,15.2,2.89,30.63-3.48,45.85c-2.63,6.28,3.45,9.43,10.21,7.89c2.75-2.49,5.13-2.39,7.04,1
		c-4.75,14.92-14.84,21.12-30.31,18.58c-1.09-0.18-2.87-0.55-3.21-0.01c-7.87,12.93-30.08,6.98-33.64,26.12
		c-1.56,8.37-10.84,7.55-17.03,10.22C597.35,237.84,592.98,232.29,589.33,225.83z"/>
	<path class="st5" d="M691.52,96.95c44.44-0.43,95.05,32.51,98.7,73.07c1.28,14.23-1.3,27.12-8.21,39.37
		c-9.03,1.14-13.68-6.67-20.52-10c-2.76-2.18-5.44-3.6-8.45-0.22c-2.31,2.6-5.46,3.39-8.87,3.35c-2.79-0.08-5.35-0.88-7.68-2.41
		c-10.38-5.75-21.7-9.22-32.66-13.58c-5.23-2.08-11.9-2.45-14.25-9.19c-13.47-15.07-5.29-32.36-4.95-48.83
		c0.08-4.02,1.96-6.31,6.36-5.2c9.46,2.39,7.81-2.76,5.9-8.44C694.91,108.95,691.7,103.4,691.52,96.95z"/>
	<path class="st82" d="M689.58,177.34c15.54,8.09,33.11,11.38,48.24,20.44c-3.29,0.71-0.38,4.96-3.36,5.86
		c-15.46-5.13-33-5.46-44.59-19.42c-2.02-2.36-4.76-1.31-7.24-1.53C683.65,179.22,688.23,180.37,689.58,177.34z"/>
	<path class="st83" d="M748.04,102.19c-17.4-4.93-34.6-10.65-52.71-12.73c-2.75-0.32-4.95-0.9-6.79,1.57
		c-1.52-1.19-1.57-2.82-1.35-4.54c5.84,0.03,11.68,0.06,17.52,0.09c10.99,3.29,22.04,6.43,32.95,9.97
		C741.38,97.75,745.27,99.04,748.04,102.19z"/>
	<path class="st84" d="M664.21,115.94c-4.12-0.63-7.24-2.6-6.44-7.17c1.09-6.26,6.5-4.5,10.62-4.96
		C668.91,108.52,667.53,112.56,664.21,115.94z"/>
	<path class="st85" d="M863,333.95c1.82-9.75,7.42-10.47,15.8-7.54c24.58,8.61,45.68,22.04,61.88,42.69
		c4.88,12.26,13.89,21.83,21.07,32.6c3.08,4.62,6.33,9.16,8.99,14.02c3.24,5.91,7.1,13.32,0.94,18.32
		c-5.33,4.33-11.67,7.05-20.35,7.47c-36.09,1.75-66.95-18.94-101.76-21.36c-13.04-0.94-13.19-11.24-14.86-20.44
		c5.14-11.95,7.74-24.57,9.47-37.37c0.66-4.85,1.7-9.42,4.9-13.27l0.85-0.55C852.15,341.73,857.64,337.89,863,333.95z"/>
	<path class="st86" d="M753.17,346.97c1.79,7.39,3.58,14.77,5.36,22.16c6.83,10.06,9.35,22.42,17.18,31.96
		c-0.87,15.49-2.22,17.12-15.65,18.9c-24.74,2.89-48.55,9.64-72.03,17.61c-14.13,4.79-28.61,3.67-42.83,2.16
		c-11.77-1.25-15.02-9.14-9.91-20.12c6.01-12.92,16.77-22.46,24.55-34.14c3.48-5.23,7.4-10.17,9.62-16.14
		c0.54-5.43,3.61-9.38,7.38-13.03c13.35-12.91,28.92-22.47,45.73-30.07c6.1-2.76,12.18-3.19,16.5,3.5
		C741.51,337.34,747.85,341.73,753.17,346.97z"/>
	<path class="st87" d="M738.01,331.51c-2.98-4.94-7.54-6.16-12.34-3.84c-21.36,10.31-41.92,21.8-56.21,41.69
		c-0.28-5.76-4.84-6.48-9.02-7.88c-10.9-3.64-20.53-9.16-26.98-19.12c23.92-12.44,49.41-20.95,74.86-29.48
		c5.76-1.93,9.2-4.05,10.1-10.97c1.51-11.59,7.86-21.25,15.49-30.07c1.82-2.1,6.51-3.03,4.31-7.56
		c7.45-7.25,14.39-15.43,26.34-14.48c6.03,1.08,12.06,2.15,18.1,3.23c0.38,6.35-4.66,9.2-8.85,11.35
		c-15.22,7.83-18.99,21.17-19.22,36.62c-0.09,6.15,0.7,12.61-5.02,17.14C747,323.7,741.99,327.15,738.01,331.51z"/>
	<path class="st88" d="M760.06,419.98c11.91-1.53,12.63-10.88,13.89-19.86c2.26-1.8,4.9-1.61,7.43-1.12
		c16.51,3.19,32.99,4.03,49.48-0.11c1.82-0.46,3.67-0.08,5.24,1.12c4.79,6.51,2.41,17.81,13.46,20.13
		c-2.04,0.64-4.84,0.64-6.02,2.02c-15.92,18.66-47.83,24.76-68.75,12.89c-3-1.7-5.75-3.96-5.41-7.69
		C770.08,419.78,764.74,420.43,760.06,419.98z"/>
	<path class="st89" d="M941.13,325.46c13.34-5.2,26.82-10.09,39.97-15.76c5.52-2.38,8.54-2.54,10.63,3.91
		c5.07,15.72,10.6,31.29,15.95,46.93c-8.98-5.32-17.97-10.64-26.96-15.97c-10.63-7.04-22.92-10.41-34.44-15.5
		C944.24,328.17,942.2,327.59,941.13,325.46z"/>
	<path class="st90" d="M842.45,649.82c0.23,2.68-1.33,3.85-3.23,3.8c-2.95-0.08-6.12-0.82-7.22-3.97c-0.97-2.77,1.07-4.15,3.59-3.98
		C838.58,645.86,841.31,646.93,842.45,649.82z"/>
	<path class="st91" d="M815.34,639.22c-0.97,2.35-2.75,3.53-5.19,2.8c-2.41-0.72-5.45-1.5-5.24-4.69c0.17-2.63,2.57-3.49,4.95-2.72
		C812.22,635.37,814.92,636.03,815.34,639.22z"/>
	<path class="st92" d="M870.48,659.74c-0.86,3.06-2.96,3.49-5.22,3.23c-2.94-0.34-6.21-1.08-5.67-4.9c0.38-2.64,3.16-2.37,5.31-2.08
		C867.47,656.35,869.72,657.21,870.48,659.74z"/>
	<path class="st93" d="M749.08,608.82c-0.62,2.09-2.21,2.87-4.18,2.37c-2.51-0.64-5.37-1.69-5.53-4.58
		c-0.15-2.68,2.21-3.65,4.64-2.8C746.35,604.64,748.99,605.49,749.08,608.82z"/>
	<path class="st94" d="M856.25,655.51c-1.92,3.86-4.59,3.18-7.01,2.31c-2.09-0.75-4.55-2.24-3.2-4.79c1.11-2.11,3.88-1.6,6.1-1.22
		C854.58,652.24,855.95,653.59,856.25,655.51z"/>
	<path class="st95" d="M822.18,640.5c2.6,0.54,5.86,0.86,6.21,4.52c0.22,2.37-2.08,2.7-3.89,2.6c-2.65-0.15-5.27-1.11-5.92-3.89
		C818.09,641.67,819.87,640.61,822.18,640.5z"/>
	<path class="st96" d="M795.86,628.61c2.48,0.77,5.58,1.36,5.72,4.33c0.13,2.68-2.53,3.4-4.82,2.9c-2.49-0.54-5.29-1.47-5.03-4.74
		C791.9,629,793.87,628.43,795.86,628.61z"/>
	<path class="st97" d="M788.75,627.03c-1.49,3.11-3.67,2.97-5.73,2.36c-2.41-0.72-5.13-1.83-4.04-5.06c0.61-1.8,2.83-1.84,4.66-1.46
		C786.24,623.43,788.04,624.83,788.75,627.03z"/>
	<path class="st98" d="M758.89,617.27c-2.73-0.49-5.45-1.11-6.36-3.89c-0.77-2.33,1.25-3.43,3.12-3.34c2.6,0.12,5.25,1.1,6.21,3.79
		C762.73,616.27,760.62,616.82,758.89,617.27z"/>
	<path class="st99" d="M775.06,619.67c0.05,2.14-0.8,3.16-2.46,3.39c-3.23,0.45-5.95-0.58-7.19-3.64c-0.52-1.29,0.52-2.78,2.31-3.05
		C771.05,615.87,773.14,617.83,775.06,619.67z"/>
	<path class="st100" d="M714.49,598.62c-1.09-1.92-2.18-3.84-3.26-5.76c1.38-0.29,2.82-1.02,4.12-0.81
		c2.71,0.42,6.69,0.72,6.27,4.24C721.15,600.29,717.03,598.12,714.49,598.62z"/>
	<path class="st101" d="M732.39,604.87c-2.62-0.39-5.46-1.02-6.24-3.76c-0.64-2.24,1.51-3.11,3.49-2.96c2.66,0.2,5.2,1.02,5.65,4.14
		C735.58,604.21,733.83,604.51,732.39,604.87z"/>
	<path class="st102" d="M708.88,591.76c-3.95,1.82-8.7,1.03-9.17-2.72c-0.6-4.76,4.23-1.7,6.68-2.14
		C707.22,588.52,708.05,590.14,708.88,591.76z"/>
	<path class="st103" d="M1134.14,293.58c-5.63-9.06-10.77-18.33-17.33-26.92c-7.74-10.14-13.15-22.56-5.6-35.08
		c8.64-14.32,22.97-17.22,40.28-15.69c-4.47,4.84-8.09,8.75-12.93,13.99c5.91-0.75,10.29-1.31,14.64-1.87
		c1.89,4.85-2.79,7.82-2.19,13.04c6.59-4.04,13.63-12.85,19.96,2.7c0.88-5.85,1.33-8.9,1.81-12.07c20.07,9.58,20.76,15.94,7,34.65
		c-6.19,8.41-15.77,14.43-17.07,26.03C1154.14,302.57,1143.85,303,1134.14,293.58z"/>
	<path class="st104" d="M1134.14,293.58c9.77,5.33,19.26,4.06,28.58-1.21c5.66,9.8-0.7,16.66-6.71,22.45
		c-4.9,4.72-12.54,4.46-17.34-0.04C1132.88,309.35,1128.53,302.15,1134.14,293.58z"/>
	<path class="st105" d="M1134.3,449.27c-0.03-3.23,1.99-4.39,4.81-4.72c4.7,0.81,5.54,3.66,5.04,8.07
		c-1.46,12.81-2.49,25.67-3.73,38.5c-0.81,8.35-4.79,12.31-13.82,11.49c-26.38-2.38-52.81-4.27-79.22-6.33
		c-3.05-0.24-5.97-0.58-6.93-4.2c0.33-1.76,0.66-3.53,0.99-5.3c1.33,1.55,2.65,3.1,3.98,4.65c12.29-4.89,24.6-0.44,36.81,0.32
		c13.15,0.83,26.33,1.8,39.46,3.28c4.02,0.45,8.52,0.34,9.84-4.85C1134.95,476.73,1136.99,463.15,1134.3,449.27z"/>
	<path class="st106" d="M1009.26,157.89c1.1-3.21-1.32-10.4,6.86-5.35c2.48,1.53,6.5,0.72,9.82,0.72
		c32.23,0.03,64.47-0.12,96.7,0.09c6.52,0.04,12.47-0.97,17.98-4.42c-0.29,12.36-2.8,15.12-14.59,15.14
		c-34.65,0.06-69.29-0.04-103.94-0.01C1016.73,164.06,1011.64,163.9,1009.26,157.89z"/>
	<path class="st107" d="M1145.65,138.58c-2.45-8.68-3.09-17.22-0.51-26.06c1.2-4.13-0.19-9.4,5.95-10.2
		c5.89-0.77,10.96,1.09,14.24,6.41c6.94,11.29-2.59,34.6-15.5,37.44C1141.51,147.99,1146.19,141.51,1145.65,138.58z"/>
	<path class="st108" d="M863,333.95c-1.67,7.27-8.46,9.94-13.07,14.56c1.89-11.64,3.78-23.28,5.67-34.9
		C860.81,319.39,864.18,325.84,863,333.95z"/>
	<path class="st109" d="M1069.74,137.67c-1.54-0.04-3.09-0.09-4.63-0.13c-2.69-3.02-2.83-6.85-3.37-10.55
		c-0.04-0.54-0.05-0.9-0.06-1.07c-0.21-3.68,1.6-9.52-4.44-8.89c-6.85,0.71-1.9,6.06-2.01,9.39c-2.01,8.41,5.9,8.03,9.88,11.13
		c-0.04,0.9-0.08,1.81-0.13,2.71c-4.6,2.6-10.15,3.77-13.2,8.71c-1.47,0.65-2.94,1.3-4.41,1.95c-3.55-7.69-7.16-8.41-10.84-0.09
		c-1.62-0.01-3.24-0.01-4.86-0.02c-2.13-6.1-7.61-8.13-12.8-10.51c-0.04-0.97-0.07-1.93-0.11-2.9c2.35-2.42,6.28-1.95,8.66-4.49
		c-1.04-4.91-6.45-3.11-8.56-6.02c-0.05-0.92-0.1-1.84-0.14-2.76c2.03-2.11,5.32-2.09,7.72-3.89c-2.24-2.94-5.93-2.24-7.81-4.67
		c-0.03-1.53-0.06-3.06-0.09-4.58c1.74-2.75,5.93-1.75,7.82-4.89c-4.4-0.68-5.46,3.1-7.82,4.9c-3.07-4.44-4.49-10.55,2.18-10.69
		c15.54-0.32,31.33-2.93,46.73,1.68c3.07,3.95,6.63,7.05,12.04,6.92c2.48,0.59,4.95,0.54,7.44-0.03c3.3-0.51,6.55-0.6,9.62,1
		c1.84,1.42,3.07,3.11,2.52,5.59c-2.04,2.87-6.22,1.59-8.48,4.29c2.05,3,6.28,1.63,8.39,4.31c0.37,1,0.34,1.97-0.13,2.93
		c-5.27,2.4-11.15,4.02-13.26,10.43c-1.61,0.06-3.23,0.13-4.84,0.19C1077.04,129.5,1073.38,129.97,1069.74,137.67z"/>
	<path class="st110" d="M1085.23,111.11c-1.65,2.33-3.13,2-4.5-0.28c-2.34-6.02-7.77-8.24-13.09-10.59c-0.05-0.9-0.09-1.8-0.14-2.7
		c4.54-2.93,10.26-4.04,13.55-8.87c0.7,0.01,1.41,0.03,2.11,0.05c5.97,8.73,9.74,4.17,13.21-2.19c1.41,0.71,2.82,1.42,4.24,2.14
		c5.45,7.31,9.73,6.31,13.02-1.82c0.98,0.73,1.97,1.46,2.95,2.2c2.25,2.66,4.06,5.68,6.66,8.06c1.18,4.72-6.06,6.87-3.63,11.98
		c0.14,1.03,0.13,2.04,0,3.06c-0.7,2.15-2.05,3.59-4.37,3.95c-1.08-0.21-1.88-0.82-2.45-1.74c-0.68-1.42-1.01-2.93-1.18-4.48
		c-0.49-2.75-0.38-6.55-4.3-6.18c-4.6,0.43-3.24,4.71-3.56,7.73c0.06,1.65,0.07,3.29,0.08,4.94c0.15,2.96,0.06,5.91,0.05,8.86
		c-0.07,4.39,0.29,8.88-3.03,12.48c-0.82-0.03-1.63-0.06-2.45-0.09c-2.57-3.53-2.96-7.07-0.09-10.64c0.03-0.97,0.07-1.95,0.1-2.92
		c-2.28-2.82-2.1-5.62,0.06-8.41c-0.69-1.54-1.38-3.09-2.06-4.63c-2.94-1.77-2.01-7.88-7.07-6.9
		C1086.04,104.74,1086.06,108.42,1085.23,111.11z"/>
	<path class="st111" d="M1114.28,115.39c1.44-1.43,2.87-2.86,4.31-4.28c1.31-2.26,4.69-1.99,5.8-4.7c-3.11,0.25-3.81,3.28-5.84,4.67
		c-5.02-6.6-1.55-10.32,4.46-13.19c2.07-2.19,4.31-2.06,6.65-0.47c4.5,10.24,1.66,20.99,2.16,31.5c-6.06,0.26-10.75,2.61-13,8.62
		c-1.57,0.02-3.15,0.03-4.72,0.05c-3.68-8.09-7.33-7.73-10.93,0.05c-0.77,0.02-1.53,0.04-2.3,0.06c0.1-4.56,0.2-9.13,0.3-13.69
		C1105.7,121.39,1111.27,120.34,1114.28,115.39z"/>
	<path class="st112" d="M1113.64,86.84c-0.3,4.16,3.4,9.83-4.66,10.93c-7.53,1.02-8.65-3.25-8.36-9.11
		C1104.55,85.06,1109.26,87.12,1113.64,86.84z"/>
	<path class="st113" d="M1067.65,100.24c7.98-0.93,15.37-1.14,13.09,10.59c-6.49,0.14-14.51,2.59-13.3-8.84
		C1067.56,101.41,1067.63,100.83,1067.65,100.24z"/>
	<path class="st114" d="M1096.39,86.52c-0.28,4.61,3.1,10.81-5.81,11.36c-7.34,0.45-7.54-4.02-7.41-9.17
		C1087.06,84.83,1091.99,87.25,1096.39,86.52z"/>
	<path class="st115" d="M1081.07,88.66c1.15,11.61-7.04,8.96-13.55,8.87C1067.75,85.3,1068.57,84.76,1081.07,88.66z"/>
	<path class="st116" d="M1098.32,126.96c0.03,3.55,0.06,7.1,0.09,10.64c-4.28-0.06-8.56-0.11-12.84-0.17
		C1083.2,125.89,1090.28,125.84,1098.32,126.96z"/>
	<path class="st117" d="M1018.85,126.89c1.85-0.07,3.69-0.15,5.54-0.2c3.94-0.12,7.48,0.04,7.47,5.54
		c-0.01,5.61-3.74,5.45-7.57,5.38c-1.85-0.04-3.69-0.13-5.54-0.2C1018.78,133.9,1018.81,130.39,1018.85,126.89z"/>
	<path class="st118" d="M1051.77,148.97c-1.03-11.14,6.7-8.99,13.2-8.72C1065.06,152.48,1064.08,153.12,1051.77,148.97z"/>
	<path class="st119" d="M1018.86,140.3c7.88-0.9,15.36-1.3,12.8,10.51C1023.98,151.45,1015.95,152.54,1018.86,140.3z"/>
	<path class="st120" d="M1118.82,137.53c0.11-12.24,1.04-12.85,13-8.62C1133.42,140.75,1125.05,137.52,1118.82,137.53z"/>
	<path class="st121" d="M1129.65,97.41c-2.22,0.15-4.43,0.31-6.65,0.47c-6.92,0.51-6.78-4.08-6.42-8.85
		C1123.57,87.73,1132.29,83.72,1129.65,97.41z"/>
	<path class="st122" d="M1036.52,150.83c0.6-4.05-3.01-10.26,4.92-10.64c8.77-0.42,5.53,6.26,5.93,10.73
		C1043.74,150.89,1040.13,150.86,1036.52,150.83z"/>
	<path class="st123" d="M1103.16,137.63c0.4-4.5-2.68-11.21,5.99-10.78c7.83,0.39,4.23,6.7,4.95,10.73
		C1110.45,137.6,1106.81,137.62,1103.16,137.63z"/>
	<path class="st124" d="M1069.74,137.67c0.46-4.51-2.69-11.3,6.05-10.85c7.87,0.41,4.3,6.72,4.95,10.81
		C1077.07,137.64,1073.4,137.66,1069.74,137.67z"/>
	<path class="st125" d="M1018.61,115.57c1.44-0.08,2.9-0.35,4.32-0.21c3.59,0.34,8.92-1.59,8.51,4.98
		c-0.36,5.66-5.19,3.54-8.41,3.95c-1.41,0.18-2.88-0.09-4.32-0.15C1018.67,121.27,1018.64,118.42,1018.61,115.57z"/>
	<path class="st126" d="M1182.29,621.57c-1.23,2.71-3.5,3.66-6.25,3.37c-1.96-0.2-3.71-1.16-2.62-3.53c1.25-2.7,3.77-3.17,6.5-2.82
		C1181.68,618.82,1182.34,619.91,1182.29,621.57z"/>
	<path class="st127" d="M1172.08,631.74c-3.39,2.14-7.22,2.54-11.09,2.77c0.11-3.56,1.4-6.31,5.24-7.02
		C1169.58,626.87,1171.88,627.93,1172.08,631.74z"/>
	<path class="st128" d="M1073.63,406.81c10.37,0,20.74,0.12,31.1-0.05c5.16-0.08,7.36,2.05,7.31,7.23
		c-0.13,16.29-0.18,32.59-0.02,48.88c0.07,7.21-4.04,8.56-10.04,8.43c-33.65-0.69-67.3-1.36-100.96-1.81
		c-5.67-0.08-8.26-2.8-8.67-7.87c-1.21-15.1-1.92-30.24-3.39-45.31c-0.8-8.19,4.72-7.05,9.27-7.07c25.13-0.13,50.26-0.06,75.39-0.06
		C1073.63,408.39,1073.63,407.6,1073.63,406.81z"/>
	<path class="st129" d="M1118.66,424.78c6.63-0.89,9.31,1.69,9.08,8.65c-0.45,13.32-0.23,26.67-0.17,40.01
		c0.02,5.65-1.67,9.98-8.21,8.83c-22.45-3.94-45.05-0.99-67.56-1.76c-9.55-0.33-19.1-0.01-28.35-4.58c19.88,0,39.76,0,59.64,0
		c7.05,0.02,14.13-0.42,21.13,0.16c11.02,0.92,14.51-4.71,14.39-14.6C1118.47,449.26,1118.63,437.02,1118.66,424.78z"/>
	<path class="st130" d="M1134.3,449.27c5.37,0.87,4.62,5.07,4.35,8.62c-0.53,6.96-1.73,13.87-2.15,20.83
		c-1.18,19.98-3.13,21.46-23.1,19.29c-22.63-2.46-45.33-4.4-67.99-6.57c-0.91-5.63,2.2-6.78,6.99-6.68
		c10.88,0.23,21.76,0.21,32.64,0.29c11.08,5.61,23.35,5.6,35.22,7.47c5.82,0.91,7.28-3.9,9.47-7.66
		C1134.78,473.44,1130.21,460.8,1134.3,449.27z"/>
	<path class="st131" d="M1129.75,484.85c1.46,10.56-3.41,12.18-12.84,10.51c-9.86-1.75-19.68-3.45-29.41-5.85
		c-3.32-0.82-3.14-2.15-2.44-4.47c10.94,1.34,21.86,2.66,32.94,2.14C1122.07,486.98,1126.13,487.15,1129.75,484.85z"/>
	<path class="st132" d="M769.55,362.55c-6.71-14.53-9.53-30.01-11.06-45.78c-1.22-12.62,3.74-20.93,16.22-23.55
		c18.43-3.87,37.36-1.56,56.05-2.01c6.94-0.17,11.7,5.04,11.56,13.44c-0.26,14.74,0.15,29.49,0.27,44.24
		c-1.21,14.33-8.54,21.78-22.65,20.79c-11.39-0.8-22.58-1.13-33.99-0.16C780.12,370.02,772.4,370.89,769.55,362.55z"/>
	<path class="st133" d="M769.55,362.55c2.64,3.18,6.91,3.92,10.08,3.71c15.7-1.02,31.29-0.66,47.01,0.14
		c9.97,0.51,12.78-9.61,15.94-17.51c2.09,2.92,4.34-0.44,6.5,0.16c-1.42,14.55-4.73,28.74-7.94,42.97
		c-0.79,3.52-3.04,5.54-5.04,7.98c-20.7,8.15-41.43,6.11-62.15,0.11c-10.73-7.55-13.11-19.25-15.41-30.99
		c3.35-3.15,0.81-7.55,2.41-11.3C765.11,356.97,766.12,362.1,769.55,362.55z"/>
	<path class="st1" d="M800.68,243.16c6.04-11.62,17.16-20.23,19.8-33.94c0.57-2.95,2.88-5.07,6.75-3.56
		c4.26,1.67,3.01,4.85,1.82,7.28c-4.89,10.05-7.53,21.86-19.63,26.6C806.51,240.75,803.6,241.96,800.68,243.16z"/>
	<path class="st134" d="M738.01,331.51c-1.34-8.96,7.81-8.83,11.57-13.37c1.2,9.61,2.4,19.22,3.59,28.84
		C744.72,345.15,739.89,339.77,738.01,331.51z"/>
	<path class="st135" d="M735.44,202.99c-1.49-2.78-3.74-5.91,2.38-5.22c1.76,2.45,4.58,1.73,6.96,2.34
		c2.73,1.44,6.17,2.28,7.31-1.06c2.89-8.51,6.9-2.74,10.65-1.34c6.42,3.9,12.85,7.79,19.27,11.69c1.81,1.84,3.63,3.68,5.44,5.52
		c1.08,6.26-0.5,7.56-7.36,6.38c-12.24-2.11-24.37-7.97-37.26-3.26C736.32,215,740.69,206.63,735.44,202.99z"/>
	<path class="st136" d="M764.57,249.79c-10.1,2.44-16.48,11.64-26.35,14.48c-41.99,14.94-83.57,15.39-124.5-3.76
		c-3.46-1.62-8.07-2.11-9.31-6.9c5.15-4.88,10.98-1.1,16.48-1.21c3.97-0.08,7.88-0.67,11.83-0.83c15.13,2.87,29.65,8.48,45.56,7.94
		c31.59-1.08,60.52-8.57,84.03-31.1c2.45-2.35,5.14-4.19,8.61-4.62c6.02,1.2,12.62-0.7,18.1,3.41
		C781.74,235.66,773.64,243.25,764.57,249.79z"/>
	<path class="st137" d="M770.94,223.79c-31.14,36.14-95.33,49.93-136.77,29.39c-2.64-2.15-1.4-4.82-1.05-7.37
		c-7.17-3.34-14.8,0.99-22-1.43c-3.06-1.17-6.54-1.9-6.68-6.2c12.04-3.93,17.85-13.86,22.88-24.3c4.33-8.99,16.71,0.09,18.95-7.06
		c3.8-12.15,11.42-6.73,18.46-6.97c7.85-0.27,16.82,0.5,18.27-11.12c0.42-3.34,3.76-4.21,6.87-4.52
		c14.38,8.24,30.71,11.72,45.58,18.77c10.24,1.19,5.37,9.8,7.38,15.04C752.2,219.95,761.57,221.87,770.94,223.79z"/>
	<path class="st138" d="M293.39,286.53c1.18,0.96,2.37,1.91,3.55,2.87c9.85,15.16,18.55,30.89,23.69,48.37
		c-1.66,4.75-5.67,7.64-8.97,11.04c-5.54,5.71-8.58,11.84-5.3,19.93c3.07,7.59-0.78,8.3-6.84,6.45c-11.7-6.2-22.98-13.1-33.41-21.27
		c-2.98-2.33-7.44-3.95-6.57-9.18c7.54-16.56,15.15-33.1,22.6-49.7C284.37,290.02,287.14,286.07,293.39,286.53z"/>
	<path class="st139" d="M259.53,344.74c11.99,11.65,26.69,19.48,40.43,28.68c-3.09,2-6.13,2.17-9.09-0.25
		c-13.53-6.49-28.57-8.28-42.46-13.63C251.98,354.5,254.36,348.57,259.53,344.74z"/>
	<path class="st140" d="M319.58,337.69c-7.02-16.35-17.24-31.2-22.64-48.3c8.27-4.7,17.3-1.79,25.97-2.6
		c4.12-0.38,9.3,1.55,10.53-4.96c0.84,1.72,1.68,3.44,2.52,5.16c1.86,2.81,3.71,5.63,5.56,8.44c-0.18,2.06-1.62,3.13-3.12,4.29
		c-2.4,1.86-7.49,1.8-6.27,6.37c0.93,3.49,5.2,3.66,8.16,5.05c5.51,2.58,12.77,1.31,16.64,7.51c2.58,4.9,5.23,9.77,7.73,14.71
		c6.63,13.12,3.06,20.8-11.42,24.1c-3.57,0.81-7.36,0.64-11.04,0.92C329.98,359.06,322.81,352.49,319.58,337.69z"/>
	<path class="st141" d="M290.78,242.27c-0.48-2.07-0.41-3.89,2.16-4.5c7.78,3.02,16.01-0.12,20.65,0.97
		c-4.7-0.49-12.85,1.39-20.7-0.88c9.62-4.61,19.78-1.71,29.68-1.78c3.59-0.02,4.36,3.35,1.64,6.36
		C313.04,246.72,301.9,247.34,290.78,242.27z"/>
	<path class="st142" d="M321.99,246.66c1.59,3.05,1.64,6.44-2.29,6.58c-10.09,0.36-20.22,0.02-30.32-0.45
		c-1.84-0.09-2.45-2.37-1.04-4.25c1.26-0.62,2.26-0.33,3,0.85c7.55,1.49,15.1,0.31,23.92,1c-9.07-1.99-17.42,3.17-24.72-3.22
		C300.97,242.72,311.46,243.47,321.99,246.66z"/>
	<path class="st143" d="M290.77,248.92c-0.81-0.13-1.62-0.26-2.43-0.39c0.81-2.09,1.63-4.17,2.44-6.26
		c11.14,0.06,22.28,0.11,33.42,0.17c-0.74,1.4-1.48,2.81-2.21,4.21c-10.37,1.67-21.17-2.2-31.32,2.38L290.77,248.92z"/>
	<path class="st144" d="M326.47,278c-9.74,3.93-19.82,1.8-29.74,1.37c-2.7-0.12-5.8-2.32-2.29-5.96c1.05-0.72,2.19-0.89,3.4-0.51
		c8.35,1.43,16.83-0.27,25.19,1.08C324.89,274.71,326.03,276.06,326.47,278z"/>
	<path class="st145" d="M321.99,264.98c-8.79,3.24-17.89,1.69-26.77,1.1c-5.13-0.34-6.82-3.8-2.06-7.88
		c0.89,0.73,1.89,1.27,2.99,1.62c8.58,1.42,17.5-1.65,25.93,1.94C322.89,262.85,322.86,263.93,321.99,264.98z"/>
	<path class="st146" d="M321.99,264.98c-0.12-0.97-0.24-1.95-0.36-2.92c-9.41-2.48-19.17,0.72-28.58-1.76
		c0.05-0.7,0.09-1.4,0.11-2.1c8.81-0.11,17.64-0.54,26.43-0.19C324.79,258.21,328.97,259.99,321.99,264.98z"/>
	<path class="st147" d="M326.47,278c-0.77-0.77-1.54-1.54-2.31-2.32c-8.65-3.14-17.83,0.67-26.51-2.06
		c-1.07-0.07-2.13-0.14-3.2-0.21c9.89-4.41,20.27-1.73,30.41-1.71C328,271.71,329.95,274.83,326.47,278z"/>
	<path class="st148" d="M506.66,182.39c7.24-4.04,9.7,0.49,11.42,6.36c-6.47,0.82-9.21,5.08-10.39,10.98
		c-2.1,10.43-3.8,20.92-4.61,31.55c0.29,11.47,0.14,22.93,0.14,34.36c1.13,11.63,1.77,23.34,5.26,34.65
		c1.5,4.86,3.65,8.06,9.38,5.88c1.1-0.11,1.98,0.29,2.69,1.11c-5.37,13.13-6.93,13.94-16.13,8.49
		c-8.05-15.07-9.22-31.93-10.71-48.25c-2.23-24.34-0.09-48.69,6.21-72.53C501.21,190.11,504.02,186.37,506.66,182.39z"/>
	<path class="st149" d="M244.13,536.15c-6.71-0.65-13.41-1.31-20.12-1.96c-22.29-3.04-34.99-17.9-44.85-36.76
		c15.6,6.06,31.1,11.75,47.42,14.74c17.93,3.68,35.51,1.34,52.98-2.99c2.85-1.73,5.56-3.8,9.06-4.1
		c12.79,1.77,18.61,12.89,29.65,20.96C292.51,532.99,268.51,535.82,244.13,536.15z"/>
	<path class="st150" d="M288.62,505.09c-2.54,2.44-5.42,4.1-9.06,4.1c1.88-2.94,2.5-5.71,0.95-9.29
		c-14.14-32.7-25.62-66.37-35.35-100.59c-1.73-6.08-5.47-7.62-9.69-9.95c6.57,0.52,13.36-1.38,19.66,1.88
		c-6.09-0.23-6.14,2.58-4.6,7.57c8.65,28.04,17.06,56.17,28.06,83.39C281.7,489.89,281.92,498.96,288.62,505.09z"/>
	<path class="st151" d="M344.31,386.88c11.6,3.02,19.4,11.86,28.47,18.72c1.78,1.34,5.03,3.06,2.57,6.16
		c-1.9,2.39-4.59,1.49-7.16,0.58c-15.2-5.38-15.19-5.35-15.47,11.94c-0.09,5.55,0.16,11.17-0.62,16.63
		c-0.81,5.64-4.85,9.37-10.33,10.34c-5.31,0.95-6.47-4.13-8.23-7.57c-6.27-12.2-12.42-24.63-13.64-38.46
		c-0.73-8.24-4.88-10.61-12.06-11.32c-8.75-0.86-17.79,1.43-26.27-2.38c8.84-0.04,17.69,0.01,26.53-0.16
		c4.25-0.08,8.18,0.91,11.32,3.62c7.98,6.91,14.68,5.08,20.32-5.81C340.89,387.66,341.67,385.41,344.31,386.88z"/>
	<path class="st152" d="M344.31,386.88c-1.52,0.76-3.05,1.53-4.57,2.29c-17.64-1.23-32.49-10.97-48.88-16
		c3.03,0.08,6.06,0.17,9.09,0.25c1.83-0.18,6.12,1.46,5.15-0.23c-10.51-18.39,5.31-25.51,14.48-35.49
		c6.38,8.16,9.77,19.59,22.61,20.7c-4.16,9.5-12.01,15.3-21.54,20.74C328.11,384.63,337.62,381.8,344.31,386.88z"/>
	<path class="st153" d="M524.4,538.32c12.46,2.62,25.16,1.13,37.7,2.27c-7.07,7.45-16.73,7.72-25.9,9.34
		c-6.48,6.26-14.92,5.32-22.85,6.12c-30.85,3.12-61.57,3.38-91.88-4.57c-7.11-1.87-14.65,0.54-21.68-2.17
		c11.7-8.06-7.6-1.93-2.06-7.78c8.1-1,17.35-2.15,26.61-3.3c4.74-4.08,9.97-2.06,14.72-0.57c23.97,7.48,47.78,8.47,71.7-0.23
		C515.15,535.83,520.1,534.49,524.4,538.32z"/>
	<path class="st154" d="M524.4,538.32c-9.72,0.04-18.56,3.88-27.69,6.43c-21.12,5.9-41.33,0.23-61.63-4.57
		c-3.53-0.83-7.15-1.31-10.73-1.96c-8-5.72-18.44-4.47-28.28-9.89c7.55-4.86,14.5-3.86,21.4-2.27c13.27,3.05,26.65,5.8,39.7,9.63
		c16,4.7,30.52,0.19,45.12-5.33c7.24-2.74,14.57-5.24,21.86-7.86c7.71,5.37,16.67,0.52,26.19,3.5
		C543.09,534.34,531.91,532.82,524.4,538.32z"/>
	<path class="st155" d="M399.79,549.31c21.17-3.38,41.24,4.8,61.88,5.91c24.91,1.34,49.88-0.77,74.53-5.29
		c5.82,1.93,11.63,3.86,17.45,5.79c-27.64,2.37-55.27,4.93-83.05,5.04c-2.81,0.01-5.62,1.26-8.43,1.93
		c-20.57-4.78-41.25-9-62.22-11.62c-0.23-0.03-0.55-0.49-0.56-0.75C399.37,549.98,399.64,549.64,399.79,549.31z"/>
	<path class="st156" d="M356.93,318.66c-7.43-2.14-14.93-4.08-22.26-6.53c-3.37-1.13-7.79-2.39-7.93-6.7
		c-0.14-4.43,4.49-5.34,7.66-7c2.27-1.19,4.74-2.01,7.11-2.99C351.85,299.73,358.76,306.3,356.93,318.66z"/>
	<path class="st157" d="M303.59,546.26c14.88,23.57,27.26,48.64,41.78,72.51C328.45,596.36,313.59,572.76,303.59,546.26z"/>
	<path class="st158" d="M442.22,595.43c-15.31,0.52-28.05-6.69-40.95-13.46C415.92,583.3,429.22,588.88,442.22,595.43z"/>
	<path class="st159" d="M451.52,634.02c-14.56,0.78-27.75-3.58-40.02-11.36C424.84,626.44,438.18,630.23,451.52,634.02z"/>
	<path class="st160" d="M677.46,582.03c-1.89-0.94-5.17-0.58-5.5-3.77c-0.25-2.42,1.94-2.71,3.72-2.32c2.3,0.51,5.31,0.65,5.18,4.07
		C680.81,581.61,679.32,582.24,677.46,582.03z"/>
	<path class="st161" d="M695.11,584.63c0.09,2.19-1.52,2.65-2.81,2.59c-2.85-0.12-5.82-0.75-6.67-4c-0.44-1.66,1.35-2.66,2.71-2.54
		C691.15,580.95,693.9,581.73,695.11,584.63z"/>
	<path class="st70" d="M559.88,589.03c-1.02,7.5,3.37,15.69-2.88,22.52C560.03,604.3,555.96,596.15,559.88,589.03z"/>
	<path class="st162" d="M628.86,311.07c-19.08,3.88-38.1,8.07-57.26,11.5c-9.53,1.71-13.45,4.77-9.33,15.19
		c4.32,10.95,6.82,22.62,10.12,33.97c1.23,4.24,2.52,8.38-4.6,7.81c-32.4-2.59-64.76-5.78-97.3-6.2c-1.63-0.02-3.76,0.47-4.83-2.91
		c10.59-1.1,20.93-2.39,31.3-3.2c14-1.09,28.03-2.29,42.06-2.51c8.85-0.14,11.14-4.17,9.72-11.83c-1.81-9.8-3.63-19.6-5.76-29.33
		c-1.72-7.86-1.07-12.57,9.17-12.26C577.66,312.1,603.08,307.2,628.86,311.07z"/>
	<path class="st163" d="M500.28,268c-0.05-12.84-0.09-25.68-0.14-38.52c0.51-1.23,1.24-1.38,2.18-0.45
		c5.09,2.45,11.07-0.5,15.89,3.43c-4.62-4.76-12.15,0.96-16.23-5.45c10.6-5.29,16.86-4.35,25.09,3.77
		c11.17,12.9,11.4,21.03,0.96,34.78c-1.25,2.16-3.01,3.74-5.31,4.74C515.01,271.83,507.12,275.01,500.28,268z"/>
	<path class="st164" d="M502.57,228.99c-0.81,0.16-1.62,0.33-2.43,0.49c2.17-12.49,2.21-25.33,6.94-37.4
		c2.49-6.36,5.67-7.69,10.99-3.32c0.55,0.15,1.11,0.18,1.68,0.11c4.6,13.6,8.07,27.39,7.33,41.92c-8.02-3.31-16.05-6.31-24.62-1.71
		C502.46,229.07,502.57,228.99,502.57,228.99z"/>
	<path class="st165" d="M633.89,246.79c0.09,2.13,0.18,4.27,0.28,6.4c-9.85,4.56-19.82,0.75-29.75,0.43
		c-14.14-1.33-28.63,1.8-42.6-2.87c8.63-1.87,17.45-1.9,25.23-6.36c9.09-2.46,18.16-0.15,27.25,0.14
		C620.81,245.4,627.77,242.49,633.89,246.79z"/>
	<path class="st166" d="M613.96,246.05c-9.02,0.25-18.2,3.17-26.91-1.66c-4.11-4.47-8.22-8.95-12.96-14.1
		c5-3.04,10.25-3.35,15.24-4.44c5.05,4.11,10.09,8.23,15.13,12.35c2.23,1.38,4.47,2.77,6.7,4.15
		C612.38,243.35,614.22,243.9,613.96,246.05z"/>
	<path class="st167" d="M553.07,265.67c17.32,3.6,34.48,7.32,50.81,13.96c2.41,0.98,6.99,0.52,5.35,4.91
		c-1.2,3.21-5.32,2.88-7.92,1.99c-9.75-3.33-19.42-6.96-28.93-10.93C565.73,272.84,558.35,271.46,553.07,265.67z"/>
	<path class="st148" d="M524.39,267.7c1.22-0.72,2.45-1.43,3.66-2.14c-0.72,14.23-1.27,28.49-7.49,41.72
		c-0.32-0.25-0.65-0.51-0.98-0.76C515.84,292.92,521.02,280.42,524.39,267.7z"/>
	<path class="st168" d="M591.12,188.75c-3.92-0.64-7.66-2.17-7.63-6.45c0.04-4.93,4.02-6.62,8.44-6.45
		c3.91,0.15,7.71,1.83,7.61,6.18C599.43,186.84,595.44,188.39,591.12,188.75z"/>
	<path class="st169" d="M769.68,168.21c5.17,0.04,9.43,0.49,9.64,5.22c0.22,5.01-3.67,6.73-8.27,6.79
		c-4.22,0.06-7.77-1.65-7.85-5.99C763.11,169.73,766.84,168.29,769.68,168.21z"/>
	<path class="st82" d="M762.74,197.71c-3.3,0.41-7.35-4.14-9.8,2.52c-1.32,3.58-5.42,2.76-8.15-0.11c2.22-0.63,5.31,1.17,6.55-2.16
		C754.96,188.25,758.85,193.78,762.74,197.71z"/>
	<path class="st170" d="M1161.7,250.28c-8.63,3.2-8.63,3.2-25.75-1.15C1145.17,244.59,1152.2,247.86,1161.7,250.28z"/>
	<path class="st171" d="M1054.2,126.5c-3.65-3.11-6.4-6.74-2.63-11.25c2.71-3.24,7.08-2.98,10.23-1.19
		c5.76,3.28,3.47,8.01,0.98,12.38C1059.94,129.07,1057.08,129.05,1054.2,126.5z"/>
	<path class="st113" d="M1054.2,126.5c2.86-0.02,5.72-0.04,8.58-0.05c3.85,3.05,1.78,7.35,2.33,11.1c0,0,0,0.01,0,0.01
		C1050.49,137.58,1050.44,137.53,1054.2,126.5z"/>
	<path class="st172" d="M1085.23,111.11c-2.6-3.29-2.67-6.68,0.34-9.59c2.27-2.19,5.55-2.1,8.13-0.95
		c4.88,2.17,2.48,6.75,2.73,10.43C1092.69,111.04,1088.96,111.07,1085.23,111.11z"/>
	<path class="st173" d="M1047.5,131.44c0.19,3.6-0.74,5.96-4.6,6.08c-3.55,0.12-6.56-0.26-6.58-4.91c-0.02-3.28,0.82-5.67,4.65-5.84
		C1044.56,126.61,1047.58,127.13,1047.5,131.44z"/>
	<path class="st174" d="M1040.39,101.95c3.27,0.07,6.82-0.23,6.86,4.61c0.03,4.12-2.88,4.43-5.92,4.39
		c-3.22-0.04-6.87,0.43-6.86-4.52C1034.47,102.38,1037.29,101.97,1040.39,101.95z"/>
	<path class="st175" d="M1074.65,115.33c3.21-0.02,6.03,0.47,5.97,4.65c-0.07,4.32-3.16,4.3-6.21,4.34
		c-3.55,0.04-7.01-0.19-6.5-5.13C1068.34,114.97,1071.75,115.5,1074.65,115.33z"/>
	<path class="st176" d="M1018.52,110.99c0.19-2.2-0.2-4.66,0.68-6.53c1.83-3.93,5.72-2.4,8.84-2.29c2.72,0.1,3.69,2.16,3.52,4.65
		c-0.36,5.14-4.41,3.9-7.5,4.14C1022.22,111.1,1020.36,110.98,1018.52,110.99C1018.51,110.98,1018.52,110.99,1018.52,110.99z"/>
	<path class="st176" d="M1098.49,115.63c-0.02,2.8-0.04,5.61-0.06,8.41c-1.44,0.1-2.91,0.42-4.32,0.25
		c-3.25-0.39-8.1,1.64-8.47-3.95c-0.44-6.53,4.93-4.66,8.54-5C1095.59,115.21,1097.05,115.52,1098.49,115.63z"/>
	<path class="st177" d="M1041.93,115.37c2.72,0.06,5.18,0.46,5.43,3.95c0.28,4-2.09,5.06-5.48,4.97c-2.69-0.07-5.22-0.39-5.45-3.92
		C1036.17,116.38,1038.54,115.33,1041.93,115.37z"/>
	<path class="st178" d="M1062.96,106.69c-0.13,4.23-3.1,4.32-6.19,4.27c-3.07-0.04-4.8-1.37-4.69-4.65c0.15-4.21,3.05-4.37,6.17-4.3
		C1061.32,102.07,1063.05,103.46,1062.96,106.69z"/>
	<path class="st179" d="M1101.01,110.8c0.25-4.73-2.36-10.84,6.45-10.88c8.81-0.04,6.27,6.09,6.56,10.82
		C1109.7,114.56,1105.36,114.48,1101.01,110.8z"/>
	<path class="st180" d="M1114.28,115.39c1.22,11.4-6.66,8.93-13.12,8.61c-0.03-2.77-0.06-5.54-0.08-8.3
		c4.31-3.48,8.73-3.09,13.2-0.33L1114.28,115.39z"/>
	<path class="st111" d="M1114.27,115.37c-4.4,0.11-8.8,0.22-13.2,0.33c-0.02-1.63-0.04-3.26-0.06-4.89
		c4.34-0.02,8.68-0.04,13.01-0.06C1114.1,112.29,1114.19,113.83,1114.27,115.37z"/>
	<path class="st181" d="M1118.54,111.07c0.06-1.81-0.07-3.65,0.23-5.41c0.68-3.99,3.85-3.65,6.75-3.54c2.54,0.1,3.93,1.44,4.07,4.05
		c0.22,4.05-2.36,4.76-5.58,4.79c-1.81,0.02-3.62,0.1-5.42,0.15C1118.59,111.11,1118.54,111.07,1118.54,111.07z"/>
	<path class="st182" d="M1123.88,124.24c-2.86,0-4.98-0.87-5.04-4.23c-0.07-4.07,2.61-4.62,5.79-4.59c2.88,0.02,4.94,0.93,5.02,4.27
		C1129.74,123.79,1127.06,124.32,1123.88,124.24z"/>
	<path class="st183" d="M1103.46,464.86c-28.28,0-56.56-0.05-84.85,0.04c-5.79,0.02-12.84,2.75-17.02,0.31
		c-4.27-2.49,0.57-10.22-1.28-15.39c-3.27-9.15-0.42-19.22-4.49-28.21c-0.84-1.86-0.65-3.99,1.57-4.46
		c3.37-0.72,3.45,2.13,3.27,4.23c-0.82,9.67,2.67,19.08,2.13,28.55c-0.61,10.77,4.04,13.04,13.74,12.87
		c29.01-0.49,58.04-0.18,87.06-0.18C1103.54,463.37,1103.5,464.12,1103.46,464.86z"/>
	<path class="st184" d="M1014.79,429.31c20.04,6.31,38.86,13.44,58.76,16.38c6.1,0.9,12.2,1.85,18.33,2.33
		c1.93,0.15,3.89-0.45,3.67,2.15c-0.07,0.86-2.31,2.41-3.19,2.19c-25.38-6.32-52.04-7.84-75.85-20.04
		C1016,432.06,1015.81,431.14,1014.79,429.31z"/>
	<path class="st185" d="M1106.29,414.71c-19.42,0-38.83,0-56.67,0C1057.22,410.9,1095.11,409.58,1106.29,414.71z"/>
	<ellipse class="st186" cx="1076.34" cy="419.19" rx="41.08" ry="0.75"/>
	<path class="st187" d="M697.63,253.14c-4.04-0.59-7.76-2.15-7.89-6.33c-0.16-4.98,3.73-6.56,8.21-6.58
		c4.12-0.02,7.66,1.81,7.8,5.94C705.92,251.11,701.5,252.26,697.63,253.14z"/>
	<path class="st81" d="M613.96,246.05c-0.94-1.24-1.87-2.48-2.81-3.71c7.19-0.62,14.51,1.15,21.6-1.61c2.22-0.86,5.7-1.7,6.31,1.73
		c0.54,3.01-2.53,3.94-5.18,4.34C627.31,244.84,620.6,246.33,613.96,246.05z"/>
	<path class="st188" d="M319.77,313.37c3.74,6.35,7.53,12.68,11.21,19.07c10.12,17.55,13.73,19.16,32.24,14.17
		c-10.35,8.51-23.44,6.56-30.5-4.96c-5.2-8.49-9.79-17.36-14.65-26.06C318.23,314.54,318.82,313.82,319.77,313.37z"/>
	<path class="st189" d="M319.77,313.37c-0.57,0.74-1.14,1.48-1.7,2.22c-2.45-4.65-6.21-8.68-5.56-15.07
		C314.93,304.8,317.35,309.08,319.77,313.37z"/>
	<path class="st190" d="M292.89,237.86c9.08,0,18.16,0,27.24,0c-9.1,1.06-18.31,4.71-27.2-0.09
		C292.94,237.77,292.89,237.86,292.89,237.86z"/>
	<path class="st191" d="M290.67,249.04c9.06,0,18.12,0,27.18,0c-9.06,0.99-18.2,4.4-27.08-0.11
		C290.77,248.92,290.67,249.04,290.67,249.04z"/>
	<path class="st192" d="M297.65,273.62c8.82,0.9,17.98-2.58,26.51,2.06C315.36,274.52,306.21,277.91,297.65,273.62z"/>
	<path class="st193" d="M293.05,260.3c9.51,0.84,19.28-2.53,28.58,1.76C312.11,261.35,302.35,264.46,293.05,260.3z"/>
	<path class="st194" d="M524.39,267.7c2,13.39-3.96,25.79-4.8,38.83c-8.78,7.74-9.07,7.51-13.11-3.31
		c-4.26-11.4-3.9-23.52-6.19-35.21C508.35,270.68,516.38,269.89,524.39,267.7z"/>
	<path class="st195" d="M502.46,229.07c6.59-1.04,12.98-0.85,20.57,3.85c-8.34-0.05-14.68-0.3-20.45-3.93
		C502.57,228.99,502.46,229.07,502.46,229.07z"/>
</g>
</svg>
