<?xml version="1.0" encoding="utf-8"?>
<!-- Generator: Adobe Illustrator 23.0.5, SVG Export Plug-In . SVG Version: 6.00 Build 0)  -->
<svg version="1.1" id="Capa_1" xmlns="http://www.w3.org/2000/svg" xmlns:xlink="http://www.w3.org/1999/xlink" x="0px" y="0px"
	 viewBox="0 0 1229 680" style="enable-background:new 0 0 1229 680;" xml:space="preserve">
<style type="text/css">
	.st0{fill:#F4F3DF;}
	.st1{fill:#E0F1F3;}
	.st2{fill:#DEF0F0;}
	.st3{fill:#DEF0F1;}
	.st4{fill:#DEF0F2;}
	.st5{fill:#F5AC8A;}
	.st6{fill:#F3E7D0;}
	.st7{fill:#F6AB88;}
	.st8{fill:#F6AE8F;}
	.st9{fill:#F6AC8A;}
	.st10{fill:#A63E24;}
	.st11{fill:#4E6A32;}
	.st12{fill:#68943F;}
	.st13{fill:#68933F;}
	.st14{fill:#679240;}
	.st15{fill:#212021;}
	.st16{fill:#313131;}
	.st17{fill:#EAB391;}
	.st18{fill:#CBD592;}
	.st19{fill:#8E3925;}
	.st20{fill:#893825;}
	.st21{fill:#7FA758;}
	.st22{fill:#7C7D53;}
	.st23{fill:#4C662F;}
	.st24{fill:#87904E;}
	.st25{fill:#85665C;}
	.st26{fill:#7DA359;}
	.st27{fill:#BCCB96;}
	.st28{fill:#DD8662;}
	.st29{fill:#EAD4C0;}
	.st30{fill:#4F6C36;}
	.st31{fill:#9B5E3A;}
	.st32{fill:#324123;}
	.st33{fill:#618C3C;}
	.st34{fill:#3F6A30;}
	.st35{fill:#7C9F58;}
	.st36{fill:#80A65D;}
	.st37{fill:#4A6832;}
	.st38{fill:#A2C18C;}
	.st39{fill:#893726;}
	.st40{fill:#B8583C;}
	.st41{fill:#8D3723;}
	.st42{fill:#B9583E;}
	.st43{fill:#B3593E;}
	.st44{fill:#ED7085;}
	.st45{fill:#953F23;}
	.st46{fill:#EF7D8C;}
	.st47{fill:#A54E31;}
	.st48{fill:#AB533A;}
	.st49{fill:#E7D2B1;}
	.st50{fill:#FDCB67;}
	.st51{fill:#F9DBDA;}
	.st52{fill:#FBDBD7;}
	.st53{fill:#F4F4E0;}
	.st54{fill:#FBDDDC;}
	.st55{fill:#FBDDD8;}
	.st56{fill:#F9DFD7;}
	.st57{fill:#F9DFE5;}
	.st58{fill:#263C1F;}
	.st59{fill:#607D43;}
	.st60{fill:#273F1E;}
	.st61{fill:#849568;}
	.st62{fill:#9BB185;}
	.st63{fill:#2A451F;}
	.st64{fill:#2C421F;}
	.st65{fill:#81996A;}
	.st66{fill:#81A85A;}
	.st67{fill:#D3E4AE;}
	.st68{fill:#A8C384;}
	.st69{fill:#3F692F;}
	.st70{fill:#416C2C;}
	.st71{fill:#AAD08C;}
	.st72{fill:#A7C989;}
	.st73{fill:#A3CB8B;}
	.st74{fill:#AACF80;}
	.st75{fill:#A7CD7D;}
	.st76{fill:#345F28;}
	.st77{fill:#416A2B;}
	.st78{fill:#4E6634;}
	.st79{fill:#3C6832;}
	.st80{fill:#A2C887;}
	.st81{fill:#97BF88;}
	.st82{fill:#F0F3F2;}
	.st83{fill:#D5D9D8;}
	.st84{fill:#F6AC8C;}
	.st85{fill:#335C27;}
	.st86{fill:#D5E5B1;}
	.st87{fill:#87904F;}
	.st88{fill:#4D6B32;}
	.st89{fill:#A3BB7C;}
	.st90{fill:#263F1D;}
	.st91{fill:#A7C384;}
	.st92{fill:#81A858;}
	.st93{fill:#658F3E;}
	.st94{fill:#426B31;}
	.st95{fill:#A2C883;}
	.st96{fill:#B9D691;}
	.st97{fill:#9CC37E;}
	.st98{fill:#3C642E;}
	.st99{fill:#3B6932;}
	.st100{fill:#A4CC8A;}
	.st101{fill:#9AC286;}
	.st102{fill:#F6AC88;}
	.st103{fill:#F6AD89;}
	.st104{fill:#EEAC85;}
	.st105{fill:#20351C;}
	.st106{fill:#436A2D;}
	.st107{fill:#0B0C0C;}
	.st108{fill:#FEFEFE;}
	.st109{fill:#FDF9E8;}
	.st110{fill:#FCF9E8;}
	.st111{fill:#939180;}
	.st112{fill:#2F2F28;}
	.st113{fill:#8B8A7B;}
	.st114{fill:#82806E;}
	.st115{fill:#9F9C8B;}
	.st116{fill:#2E2A1D;}
	.st117{fill:#4C4A39;}
	.st118{fill:#615F4D;}
	.st119{fill:#4E4B39;}
	.st120{fill:#858373;}
	.st121{fill:#F6F5EE;}
	.st122{fill:#F5F3E3;}
</style>
<g>
	<path class="st0" d="M854.78,476.52c4.69,4.43,10.18,5.43,16.63,5.42c119.04-0.19,238.08-0.14,357.12-0.14
		c0,65.17-0.02,130.34,0.07,195.51c0,2.48-0.36,3.13-3.03,3.13c-407.43-0.08-814.86-0.08-1222.29,0c-2.67,0-3.03-0.66-3.03-3.13
		c0.08-65.17,0.07-130.34,0.07-195.51c1.31-1.05,2.87-0.74,4.34-0.74c21.42-0.02,42.83-0.23,64.25,0.11
		c7.13,0.11,14.2-0.4,21.3-0.55c7.98-0.17,15.96,0.13,23.95,0.03c2.13-0.03,4.25-0.14,6.32-0.69c3.39,0.19,6.68-0.3,9.91-1.37
		c1.31-0.43,2.65-0.76,3.98-0.03c2.03,1.78,4.51,2.09,7.04,2.07c25.17-0.18,50.34,0.12,75.51-0.12c12.74-0.12,9.83-2.28,10.14-10.88
		c0.01-0.25,0-0.5-0.01-0.75c-0.27-7.16-0.27-7.16,6.6-9.77c1.68-0.34,2.27,0.73,2.41,2.07c0.12,1.18-0.9,1.62-1.78,2.12
		c-1.34,0.77-3.35,0.23-4.09,2.13c-0.36,7.76-0.08,15.52-0.14,23.27c-0.02,2.6-0.37,5.02-2.44,6.82
		c-8.05,7.05-12.6,16.43-16.81,25.9c-6.47,14.55-11.24,29.66-13.51,45.51c-1.25,8.72-1.09,17.45-1.1,26.2
		c0,3.5,0.14,7.01-0.03,10.51c-0.33,6.85,0.65,13.23,5.77,18.34c0.95,1.9,0.1,3.27-1.17,4.69c-2.05,2.31-1.86,2.91,1.03,4.22
		c4.28,1.94,8.9,2.47,13.47,3.17c16.38,2.52,32.89,2.78,49.39,2.22c9.48-0.32,18.92-1.63,28.32-3.08c1.61-0.25,3.18-0.74,4.68-1.36
		c1.88-0.77,4.86-0.87,4.77-3.42c-0.08-2.43-3.01-2.65-4.92-3.37c-3.77-1.42-7.79-1.76-11.74-2.41c-2.8-0.46-5.13-1.47-4.87-4.98
		c1.71-4.14,2.01-8.47,1.87-12.89c-0.36-11.37,0.59-22.77-0.6-34.14c-1.16-11.14-4.08-21.87-7.44-32.49
		c-2.09-7.5-5.48-14.47-8.71-21.5c-3.68-8.02-8.3-15.4-14.86-21.43c-1.81-1.66-2.15-3.84-2.15-6.17c0-7.75,0.04-15.51-0.03-23.25
		c0.02-1.44-1.39-1.77-2.09-2.65c-0.16-0.33-0.13-0.63,0.12-0.91c3.4-0.6,4.2,0.48,3.99,4.12c-0.25,4.24,0.79,8.58,0.57,12.92
		c-0.05,1.02,0.51,1.53,1.53,1.77c1.7,0.4,3.38,0.76,5.16,0.76c107.32-0.03,214.64-0.03,321.96-0.01c3.33,0,6.52-0.94,10-0.43
		c3.6,0.53,4.67-3.63,6.84-5.72c0.95-0.92,1.32-2.43,2.85-2.79c0.89,2.04-0.59,3.32-1.61,4.64c-6.98,8.96-14.29,17.64-21.49,26.43
		c-3.95,4.83-8.06,9.53-11.83,14.51c-0.6,0.8-1.18,1.81-2.14,2.04c-4.26,1-7.08,4-10.05,6.85c-2.29,2.19-5.2,2.22-8.11,1.89
		c-1.51-0.17-2.96-0.49-4.04,1.07c-2,2.88-4.27,4.25-7.24,1.1c-0.44-0.47-1.17-0.34-1.8-0.33c-33.47,0.01-66.93,0.06-100.4-0.05
		c-4.08-0.01-6.98,1.13-9.7,4.37c-13.95,16.58-27.81,33.24-41.73,49.85c-11.75,14.02-23.61,27.95-35.23,42.07
		c-0.9,1.1-2.73,2.19-2.03,3.69c0.7,1.49,2.71,0.82,4.15,0.82c101.39,0.03,202.78,0.16,304.17-0.15
		c12.38-0.04,24.82-1.06,37.17-0.43c20.93,1.06,41.84,0.56,62.75,0.46c10.63-0.05,21.27-0.78,31.92-0.6
		c100.87,1.7,201.75,0.26,302.63,0.69c2.64,0.01,6.38,1.31,7.61-1.11c0.86-1.69-2.64-3.8-4.2-5.69
		c-24.75-29.93-49.85-59.57-74.72-89.4c-2.72-3.26-5.7-4.62-10.01-4.6c-25.82,0.14-51.63,0.17-77.44,0.04
		c-1.36-0.12-2.75-0.12-4.04-0.69c-0.69-0.3-1.1-0.49-1.82,0.36c-2.13,2.53-4.47,2.14-6.31-0.84c-0.83-1.34-1.19-2.75-0.38-4.8
		c-2.54,1.75-4.31,0.7-5.79-0.98c-1.46-1.66-3.05-2.4-5.3-1.86c-3.19,0.76-5.89-0.36-8.24-2.55c-2.76-2.58-5.63-4.98-9.57-5.58
		c-1.18-0.18-1.96-1.03-2.71-1.9c-9.26-10.69-17.68-22.07-27.02-32.69C854.63,478.67,853.8,477.73,854.78,476.52z"/>
	<path class="st1" d="M221.69,38.05c30.07,0,60.14,0,90.21,0c5.04,0,5.05,0.01,5.05,4.96c0,41.6,0,83.2,0,124.79
		c0,5.92-0.47,6.38-6.43,6.38c-26.56,0-53.12,0-79.69,0c-33.01,0-66.03,0-99.04,0c-5.12,0-5.13-0.01-5.13-5.27
		c0-42.1,0.04-84.2-0.08-126.3c-0.01-3.53,0.8-4.67,4.51-4.65C161.3,38.11,191.49,38.05,221.69,38.05z"/>
	<path class="st2" d="M417.63,38.05c29.96,0,59.91,0,89.87,0c5,0,5.01,0.01,5.01,5.01c0,41.86,0,83.72,0,125.59
		c0,5.09-0.45,5.52-5.64,5.52c-10.28,0.01-20.55,0-30.83,0c-49.57,0-99.14,0-148.71,0c-5.08,0-5.09-0.01-5.09-4.93
		c0-42.11,0-84.23,0-126.34c0-4.84,0.01-4.86,4.79-4.86C357.22,38.05,387.43,38.05,417.63,38.05z"/>
	<path class="st3" d="M394.44,328.37c0.01,0.96,0.02,1.92,0.03,2.88c-0.6,0.44-1.06,0.08-1.52-0.26c-2.06-1.96-4.5-2.33-7.22-1.94
		c-2.19,0.32-4.35,1.02-6.61,0.66c-2.67-0.7-5.44,0.03-8.11-0.58c-2.42-0.92-4.85-1.8-7.45-2.11c-0.37-0.04-0.88-0.01-1.06-0.24
		c-2.96-3.69-5.11-0.42-7.49,0.84c-1.65,0.86-3.26,1.76-4.78,2.86c-1.17,0.85-2.39,1.9-4.03,0.96c-0.3-2.12,1.39-3.11,2.6-4.25
		c9.48-8.95,20.81-13.54,33.81-14.07c1.09-0.04,2.24,0.29,3.67-0.67c-4.05-6.05-9.13-10.43-16.5-11.6
		c-2.69-0.42-5.12,0.66-7.48,1.93c-6.18,3.33-11.81,7.48-17.51,11.54c-1.31,0.93-2.48,2.13-4.22,2.26c-0.49-0.14-0.85-0.51-1.25-0.8
		c-4.08-2.97-4.21-2.95-8.06,1.59c2.24-0.3,2.18-2.99,4.06-3.17c2.02-0.18,3.15,1.2,4.43,2.37c-3.8,4.98-9.11,7.78-14.75,10.02
		c-1.25,0.5-2.55-0.06-3.12-1.36c-0.79-1.79-0.43-3.39,1.3-4.52c1.18,0.01,0.57,1.97,1.92,1.8c0.4,0.31,0.42-0.6,0.18-0.16
		c-0.05,0.1-0.12,0.04-0.22,0.03c-1.32-0.08-0.92-1.57-1.72-2.07c0.02-2.43,1.72-3.77,3.34-5.15c7.15-6.07,15.63-9.82,24-13.77
		c1.08-0.51,2.83-0.58,2.94-1.98c0.13-1.63-1.66-2.01-2.82-2.61c-8.15-4.25-17.01-5.85-26.03-6.45c-3.61-0.24-7.2-0.74-10.83-0.91
		c-9.99-0.46-17.8,4.16-25.08,10.22c-2.14,1.78-2.21,4.04-1.59,6.5c1.62,6.39,4.99,11.98,8,17.74c0.8,1.53,2.55,2.96,0.94,4.99
		c-7.78,1.02-15.56,0.87-23.32-0.17c-1.23-1.4,0.08-2.31,0.73-3.22c3.96-5.5,5.45-11.65,5.5-18.37c0.08-11.23-0.55-22.4-1.56-33.71
		c-4.68,11.57-9.83,22.51-21.05,29.06c-1.48,0.92-2.94,1.9-4.75,2c-2.38-0.04-4.65,0.93-7.06,0.73c-4.98-0.43-6.8-4.05-3.89-8.11
		c2.51-3.51,5.96-6.04,9.52-8.38c6.69-4.41,13.08-9.22,19.31-14.25c7.14-5.77,7.53-8.06,2.55-15.63c-2.19-3.34-4.23-6.8-7.03-9.94
		c-0.09,6.99-3.23,12.64-7.1,18c-4.5,5.85-9.96,10.48-16.84,13.32c-0.62,0.42-1.25,0.86-1.95,1.08c-1.47,0.46-3.12,1.82-4.43,0.2
		c-1.21-1.49-0.04-3.12,0.76-4.47c4.39-7.36,9.27-14.42,13.78-21.7c2.11-2.83,3.45-6.08,4.98-9.23c1.08-2.23,0.84-4.38-0.71-6.33
		c-8.95-11.3-18.63-21.9-30.27-30.51c-5.55-4.11-5.67-3.95-11.85,0.96c-5.61,4.97-11.11,10.04-15.22,16.41
		c-3.79,4.94-2.48,9.45,0.92,13.99c4.94,6.59,10.1,13.01,15.04,19.59c1.54,2.06,3.84,4.22,2.64,6.99c-1.21,2.8-4.38,2.49-6.92,2.73
		c-10.66,0.99-17.17-5.19-22.54-13.26c-0.31-0.68-0.53-1.39-0.69-2.12c-0.93-4.05-0.96-4.06-4.47-1.5
		c-6.21,4.53-6.57,8.2-1.13,13.65c1.83,1.84,3.75,3.63,6.04,4.94c8.19,5.32,16.28,10.81,24.29,16.4c2.05,1.43,4.98,2.97,3.76,6.16
		c-1.23,3.24-4.3,2.78-7.12,2.45c-4.72-0.54-9.43-0.79-14.1-1.96c-11.15-2.79-19.72-8.92-25.9-18.54c-0.57-0.88-0.81-2.48-2.16-2.25
		c-1.25,0.21-1.18,1.77-1.55,2.78c-0.78,2.13-1.2,4.35-1.49,6.59c-1.02,7.76,2.19,13.37,9.44,16.5c8.43,3.64,17.32,5.82,26.19,8.06
		c3.28,0.83,6.61,1.47,9.81,2.58c1.65,0.57,3.62,1.12,3.48,3.34c-0.13,2.17-2.15,2.7-3.82,3.04c-4.72,0.96-9.46,0.88-14.13-0.43
		c-6.67-1.86-12.99-4.56-19.09-7.83c-0.94-0.51-1.94-1.69-3.04-0.93c-1.16,0.8-0.76,2.31-0.63,3.51c0.51,4.49,1.37,8.9,3.23,13.08
		c0.57,1.29,1.71,2.59,0.77,4.2c-10.5-0.01-21-0.02-31.5-0.03c-3.88,0-7.78-0.15-11.65,0.05c-2.71,0.14-3.65-0.93-3.33-3.48
		c0.06-0.49,0.01-1,0.01-1.5c0-45.98,0-91.97,0-137.95c0-5.26,0-5.27,5.12-5.27c23.18,0,46.36,0,69.54,0c36.78,0,73.55,0,110.33,0
		c4.98,0,5.3,0.35,5.3,4.92c-0.01,21.58-0.01,43.15-0.01,64.73c0,11.15,0.15,22.31-0.09,33.45c-0.08,3.68,1.06,5.06,4.63,4.45
		c2.68-2.31,5.95-1.23,8.98-1.51c0.85-0.08,1.76,0.08,2.61,0.25c8.98,1.83,14.43-4.18,20.27-9.19c2.75-2.36,5.26-5.02,7.72-7.68
		c3.69-3.99,7.93-7.24,12.47-10.18c5.1-3.31,8.37-8.56,12.91-12.5c4.41-3.83,7.94-8.62,13.03-11.75c3.1-1.91,5.43-4.89,7.76-7.56
		c6.45-7.39,14.27-13.26,21.53-19.68c3.9-3.45,8.39-6.57,12.21-10.13c4.04-3.76,8.29-7.5,12.21-12.72
		c-4.63,0.34-8.32-1.26-12.23-1.58c-2.93-0.24-5.36,1.02-7.42,3.03c-2.42,2.36-5.05,4.48-7.43,6.9c-1.09,1.12-2.42,2.57-4.2,1.96
		c-1.99-0.67-1.97-2.68-2.13-4.43c-0.05-0.5-0.07-1-0.05-1.5c0.09-2.76-1.38-3.82-3.97-3.75c-0.88,0.02-1.75-0.01-2.63-0.01
		c-18.92,0-37.83,0.03-56.75-0.02c-5.01-0.01-9.95,1.17-14.99,0.77c-2.02-0.16-4.07-0.23-5.75-1.43c-1.46-1.04-2.95-2.33-0.65-4.08
		c0.75,0,1.5-0.01,2.26-0.01c3.96-1.05,8.06,0.32,12.02-0.72c27.89-0.01,55.78-0.33,83.66,0.16c8.96,0.16,17.95,0.36,26.92,0.57
		c3.2-1.04,6.57,0.31,9.76-0.72c10.9-0.01,21.8-0.07,32.7,0.01c2.72,0.02,5.45,0.48,8.17,0.77c1.14,0.12,1.83,0.78,1.95,1.93
		c0.08,0.74,0.07,1.5,0.07,2.25c-0.01,46.98-0.02,93.96-0.02,140.93c-0.74,1.55-2.15,1.48-3.55,1.48
		c-31.57,0.02-63.14,0.02-94.71,0.01c-6.67,0-8.89-3.97-5.58-9.87c0.8-1.44,2-2.19,3.59-2.39c1.5-0.19,3-0.15,4.51-0.15
		c27.32,0,54.64,0,81.95,0c1.88,0,3.77-0.06,5.63,0.22c2.62,0.4,3.7-0.89,3.92-3.29c0.12-1.25,0.1-2.5,0.1-3.76
		c0-38.6,0-77.19,0-115.79c0-1.13-0.01-2.25-0.08-3.38c-0.11-2.1-1.15-3.27-3.29-3.27c-11.27-0.01-22.55-0.44-33.82,0.26
		c-2.76,0.17-5.48,0.48-8.23-0.01c-2.15-0.38-3.31,0.5-3.61,2.69c-0.24,1.74-0.52,3.47-0.23,5.23c0.32,1.99,0.39,3.99,0.39,5.99
		c0,8.1-0.76,9.05-8.71,9.81c-2.39,0.23-3.16,1.29-3.35,3.54c-0.63,7.51-1.71,8.44-9.25,8.51c-3.51,0.03-7.02,0.08-10.53-0.01
		c-3.01-0.08-4.34,1.14-4.28,4.21c0.08,4.13,0.12,8.27-0.03,12.4c-0.2,5.5-1.74,7.03-7.26,7.44c-4.44,0.33-4.44,0.33-4.76,4.78
		c-0.39,5.51-1.8,7.09-7.44,7.19c-3.38,0.06-4.57,1.26-4.66,4.63c-0.15,5.78-1.68,7.27-7.56,7.42c-3.23,0.08-4.35,1.25-4.46,4.44
		c-0.22,6.12-1.89,7.53-8.16,7.67c-3.76,0.08-7.52-0.04-11.28,0.05c-1.54,0.04-3.6-0.52-4.17,1.56c-0.6,2.15-0.85,4.41,1.18,6.24
		c3.16,2.87,3.08,3.55-0.52,5.59c-1.55,0.88-2.86,2-4.03,3.43c2.88-2.24,6.04-3.54,9.73-3.14c1.11,0.12,1.66-0.43,1.33-1.59
		c-0.77-2.73,1.16-2.86,2.96-3.01c2.03-0.18,4,0.29,5.89,0.97c2.24,0.81,4.25,0.77,6.46-0.42c4.04-2.16,9.3-1.7,11.23,0.66
		c2,2.43,1.93,8.46-0.26,11.76c-0.98,1.48-1.93,2.92-2.27,4.69c-0.32,1.62-1.15,3.03-2.04,4.94c1.62-1.02,2.49-3.19,4.48-1.99
		c1.75,1.05,1.91,2.81,1.77,4.63c-0.06,0.75-0.27,1.53-0.11,2.25C400.41,323.34,398.55,326.43,394.44,328.37z"/>
	<path class="st4" d="M394.44,328.37c0.31-0.8,0.41-2.09,0.97-2.34c6.21-2.76,1.2-8.26,2.98-12.1c0.23-0.5-0.56-1.72-1.57-1.82
		c-1.11-0.11-1.38,0.81-1.68,1.67c-0.25,0.7-0.5,1.48-1,1.98c-0.81,0.81-1.84,0.72-2.71,0c-0.95-0.79-0.51-1.6,0.19-2.22
		c2.03-1.78,2.78-4.08,2.82-6.68c0.01-0.8,0.28-1.42,0.97-1.9c3.7-2.56,3.06-6.37,2.5-9.9c-0.58-3.66-6.96-5.33-10.59-2.43
		c-2.52,2.01-4.57,1.77-7.17,0.82c-4.01-1.48-4.04-1.39-8.36-0.88c-0.25,0.94,0.67,1.24,1.02,1.85c0.43,0.74,1.22,1.47,0.66,2.36
		c-0.64,1.03-1.74,0.81-2.72,0.55c-3.84-1.03-7.1-0.52-9.47,3.09c-0.93,1.42-2.62,1.3-3.62,0.3c-1.68-1.68,0.64-2.08,1.37-2.59
		c2.05-1.46,3.37-4.04,6.32-4.18c0.6-0.03,1.13-0.62,1.09-1.34c-0.04-0.74-0.69-0.89-1.26-1.18c-1.06-0.53-2.83-0.32-2.95-1.88
		c-0.19-2.48-0.2-5.02,0.09-7.48c0.18-1.49,1.79-1.05,2.83-1.06c5.01-0.04,10.03,0.02,15.04-0.03c4.69-0.05,5.88-1.3,5.97-6.06
		c0.02-1,0.09-2.01-0.01-3.01c-0.25-2.34,0.81-3.23,3.05-2.97c0.37,0.04,0.75,0.01,1.13,0c7.28-0.04,8.01-0.6,7.79-7.92
		c-0.1-3.35,0.91-4.29,4.22-4.19c7.3,0.21,8.03-0.52,7.82-7.82c-0.1-3.31,0.84-4.32,4.19-4.22c7.32,0.22,7.77-0.56,7.97-7.79
		c0.15-5.19-2.28-11.82,1.09-15.19c3.21-3.21,9.79-0.64,14.87-1c0.62-0.04,1.25,0,1.88-0.01c4.97-0.08,6.11-1.22,6.18-6.23
		c0.02-1.13,0.06-2.26,0-3.38c-0.1-1.77,0.7-2.54,2.45-2.41c11.28,0.85,9.58-2.9,9.53-10.72c-0.02-3.57-0.76-7.08-0.07-10.73
		c0.41-2.15,1.12-2.65,3.08-2.64c14.35,0.05,28.69,0.02,43.04,0.02c4.84,0,5.14,0.28,5.14,5.07c0.01,40.48,0.01,80.95,0,121.43
		c0,5.31-0.69,5.88-5.71,5.19c-0.99-0.14-2-0.07-3-0.07c-28.82,0-57.64,0-86.47,0c-4.07,0-7.37,4.47-5.99,8.32
		c0.41,1.15,1.7,1.85,2.94,2.11c0.96,0.2,2,0.1,3,0.1c29.2,0,58.4,0.1,87.59-0.13c3.5-0.03,7.18,0.97,10.63-0.61
		c0.21,2.66-1.71,2.23-3.29,2.24c-8,0.01-16,0.01-24,0.01C454.94,328.36,424.69,328.37,394.44,328.37z"/>
	<path class="st5" d="M755.49,306.66c2.81,3.27,6.49,5.2,10.42,6.73c3.16,1.67,4.44,4.62,5.26,7.84c2.08,8.26,3.88,16.58,4.74,25.07
		c0.54,5.3-0.1,10.51-1.49,15.63c-0.75,2.76-2.3,5.09-4.8,6.49c-9.73,5.44-19.52,10.69-30.4,13.65
		c-16.42,4.46-31.76,1.57-46.42-6.28c-3.63-1.95-7.05-4.34-10.65-6.34c-9.16-5.1-11.18-13.16-10.3-22.7
		c0.77-8.29,3.31-16.18,5.46-24.15c0.56-2.06,1.38-4.06,3.37-5.24c7.94-4.01,16.06-7.74,22.97-13.51c1.8-1.41,3.36-3.07,4.86-4.79
		c3.58-5.32,3.35-10.33-0.72-15.2c-0.87-1.04-1.67-2.14-2.43-3.27c-1.16-1.86-2.28-3.75-3.3-5.69c-0.82-1.55-1.58-3.14-2.04-4.84
		c-0.61-2.28-1.55-4.02-4.09-4.84c-2.44-0.79-3.4-3.03-2.99-5.46c0.56-3.34,0.01-6.45-1.02-9.59c-0.52-1.58-0.79-3.29,0.79-4.47
		c1.6-1.19,2.75,0.42,4.37,1.02c0.58-2.05,0.81-4.08,1.04-6.14c0.42-3.78,1.67-4.63,5.45-4.25c3.87,0.39,7.75,0.03,11.62-0.03
		c0.97-0.01,2.24-0.18,2.2-1.5c-0.03-0.98-1.15-1.19-1.99-1.41c-0.48-0.13-0.99-0.15-1.48-0.24c-1.29-0.25-3.29,0.19-3.45-1.47
		c-0.14-1.4,1.77-1.89,2.95-2.55c3.07-1.72,6.52-2.56,9.69-4.06c5.71-2.7,10.16-6.77,13.86-11.79c0.96-1.3,1.93-2.85,3.81-2.66
		c2.11,0.21,2.2,2.21,2.6,3.7c1.99,7.47,7.45,12.97,11.07,19.52c1.87,3.39,4.29,6.48,5.38,10.27c0.24,0.71,0.18,1.48,0.57,2.46
		c1.45-0.41,2.91-2.24,4.54-0.74c1.74,1.6,1.32,3.68,0.71,5.59c-0.82,2.56-0.93,5.06-0.48,7.73c0.61,3.62-0.55,5.64-3.95,6.54
		c-2.12,0.56-3.07,1.68-3.74,3.61c-2.19,6.32-5.47,12.01-10.4,16.63c-2.38,1.72-3,4.12-2.7,6.89c0.02,0.51,0.01,1.03,0,1.54
		c-0.11,1.78,0.76,3.15,1.87,4.41C748.76,302.03,752.31,304.13,755.49,306.66z"/>
	<path class="st6" d="M681.71,317.83c-1.03,0.82-2.18,1.33-2.64,2.88c-3,10.16-6.36,20.24-6.35,31.02
		c0.01,7.16,2.89,12.51,9.21,16.35c8.74,5.31,17.4,10.49,27.47,13.16c10.5,2.78,20.71,2.3,31-0.58
		c10.41-2.92,19.78-8.13,29.12-13.34c2.14-1.19,3.37-3.44,4.08-6.01c2.48-8.98,1.26-17.88-0.47-26.71
		c-1.04-5.34-2.19-10.69-3.87-15.92c-0.7-2.18-2.32-3.47-3.34-5.28c4.85,3.83,11.15,2.28,16.48,4.4c0.94,0.38,1.9,0.51,2.44,1.47
		c-1.68,1.67-3.49,0.71-5.28,0.28c-0.84-0.2-1.79-0.67-2.51-0.02c-0.95,0.87-0.15,1.88,0.18,2.76c1.24,3.28,2.52,6.54,3.72,9.84
		c3.05,8.35,4.01,16.98,4.24,25.81c0.29,10.78-0.8,21.51-0.9,32.28c-0.03,3.41,1.48,6.6,0.89,10c-0.41,0.6-1,1.09-0.91,1.95
		c1.06,10.5-0.21,21.14,1.97,31.59c0.84,4.03,0.3,8.21,0.95,12.28c0.25,1.56-0.37,3.09-1.9,3.75c-2.8,1.21-3.26,3.42-3.18,6.1
		c0.05,1.7,0.29,3.53-1.07,4.97c-2.54-0.93-1.8-3.3-2.09-5.1c-1.06-6.64-1-6.63-7.47-7.87c-21.26-4.07-42.74-5.53-64.32-4.68
		c-8.73,0.35-17.54,0.66-26.1,2.8c-7.12,0.96-14.03,2.8-20.81,5.16c-2.24-0.88-2.01-2.88-2.13-4.71c-0.38-5.35,0.5-10.64,0.9-15.95
		c0.15-2.01,0.13-3.95-0.52-5.87c-0.74-3.42,1.71-6.16,1.94-9.44c0.88-12.84,2.19-25.65,3.57-38.45c1.44-13.3,2.95-26.58,4.83-39.82
		c0.63-4.46,1.07-8.96,2.05-13.35c0.45-2.01-0.65-3.31-1.32-4.86C673.43,316.1,677.42,314.9,681.71,317.83z"/>
	<path class="st7" d="M249.99,464.56c0.03,8.26,0.11,16.51,0.04,24.77c-0.02,2.27,0.48,4.03,2.24,5.63
		c8.75,7.92,13.77,18.26,18.09,28.93c1.81,4.48,4.52,8.64,5.19,13.56c0.76,13.27-0.55,26.39-3.49,39.3
		c-2.57,11.27-6.67,22.17-13.47,31.54c-7.08,9.76-15.58,18.32-27.48,22.39c-1.34,0.46-2.09,1.19-2.26,2.57
		c-2.83,1.26-5.47-0.09-7.95-0.94c-4.32-1.48-8.88-2.07-13.07-4.24c-2.8-1.45-4.8-3.36-6.66-5.66c-5.06-4.42-6.21-10.2-6.07-16.6
		c0.18-8.51-0.06-17.02,0.07-25.53c0.21-13.81,3.07-27.17,7.36-40.22c2.96-9,6.28-17.87,10.71-26.28
		c3.6-6.83,7.26-13.59,13.29-18.65c1.92-1.61,2.47-3.46,2.44-5.9c-0.1-8.26,0.01-16.52,0.03-24.77c3.4-1.1,6.78,1.14,10.17,0.04
		c2.42-0.97,1.98-3.3,2.27-5.14c1.52-9.53,3.58-18.94,6.15-28.24c0.37-1.33,0.32-3.09,2.32-3.34c0.41,4.87-2.15,9.15-2.76,13.84
		c-0.76,5.79-2.43,11.42-3.26,17.22c-0.42,2.95,0.4,3.8,3.11,3.42c0.01,0.19,0.03,0.39,0.03,0.58c-0.31,0.76-1.14,0.84-1.92,1.48
		C246.86,464.7,248.48,463.98,249.99,464.56z"/>
	<path class="st8" d="M784.64,400.6c-3.36-14.62,0.07-29.32-0.46-43.99c-0.45-12.44-3.58-24.03-8.57-35.27
		c-0.44-0.99-1.61-2.1-0.85-3.05c0.8-1,2.39-0.62,3.56-0.38c2.16,0.45,4.12,1.86,6.5,1.34c8.62,2.72,15.9,7.48,21.74,14.4
		c10.58,12.52,13.36,27.76,15.13,43.36c1.58,13.98,1.41,28.13,4.21,42.01c2.77,13.73,8.18,26.32,15.44,38.22
		c4.09,6.71,8.61,13.09,13.43,19.28c2.2,4.54,6.08,7.79,9.12,11.67c6.22,7.94,12.81,15.6,19.21,23.4c0.64,0.78,1.13,1.71,2.28,1.74
		c4.27,0.13,6.99,2.99,9.79,5.61c2.36,2.21,4.84,3.34,8.12,2.26c1.82-0.6,3.47-0.57,4.86,1.46c1.4,2.04,3.34,4.15,5.95,1.07
		c0.3-0.36,0.9-0.53,1.27,0.05c0.3,0.47,0.24,1-0.2,1.34c-1.6,1.23-1.08,2.62-0.34,4c0.88,1.63,2.25,3.09,4.08,2.71
		c2.02-0.42,0.73-2.48,0.77-4.12c2.14,0.91,3.51,2.7,5.68,2.42c3.28,3.31,4.65,7.26,4.07,11.91c-0.15,1.25-0.15,2.63-1.11,3.49
		c-2.74,2.44-3.51,5.44-3.53,9.02c-0.02,3.4-3.8,6.47-7.61,6.16c-2.47-0.2-4.33,0.38-6.16,1.85c-1.41,1.13-3.05,1.68-4.9,1.07
		c-0.72-0.27-1.39-0.71-1.78-1.33c-1.82-2.92-4.17-4.32-7.83-4.71c-3.24-0.34-6.05-2.92-8.72-4.89c-4.1-3.03-7.85-6.52-12.15-9.34
		c-3.35-2.19-6.2-4.96-8.28-8.56c-1.82-3.13-5.38-3.28-8.56-3.88c-1.48-0.28-3.48,0.33-3.67-2.15c1.27-1.96,3.13-0.78,5.05-0.89
		c-6.73-6.49-13.22-12.94-19.91-19.18c-7.93-7.4-15.45-15.22-22.68-23.32c-1.76-1.97-2.84-4.4-4.43-6.48
		c-5.72-8.88-9.71-18.59-13.15-28.5c-5.2-14.98-10.02-30.1-15.04-45.15C784.48,403.74,783.56,402.24,784.64,400.6z"/>
	<path class="st9" d="M669.69,318.65c2.29,0.53,2.74,1.8,2.4,4.16c-2.36,16.26-5.05,32.49-6.6,48.84c-1.2,12.65-3.27,25.25-3.33,38
		c-0.03,5.17-1.9,9.96-3.06,14.89c-0.99,6.58-2.72,12.98-4.81,19.28c-3.27,9.86-6.57,19.72-11.63,28.87
		c-0.73,1.32-1.32,2.7-2.22,3.92c-8.35,13.73-20.25,24.25-31.85,35.03c-6.22,5.78-11.84,12.17-18.35,17.75
		c1.4-0.24,2.74-0.63,3.71,0.74c-0.92,2.71-3.47,3.12-5.67,3.6c-5.87,1.28-8.37,3.55-9.43,9.21c-0.16,0.87-0.3,1.76-1.04,2.34
		c-5.08,4.02-9.23,9.09-14.9,12.5c-4.07,2.45-7.79,5.55-10.78,9.37c-2.66-1.05-4.8-0.87-6.9,1.57c-1.86,2.16-4.7,1.71-6.93,0.41
		c-2.35-1.36-4.69-2.07-7.41-2.18c-3.51-0.14-4.87-1.54-5.01-5.22c-0.1-2.72-1.16-4.7-3.04-6.55c-3.58-3.51-4.68-7.65-3.14-12.57
		c1.28-4.09,4.1-6.07,8.03-6.92c0.12,0.02,0.24,0.02,0.36,0.06c1.3,0.37,1.17,3.58,3.51,1.83c1.79-1.33,1.92-3,0.73-4.84
		c-0.3-0.95-0.27-1.85,0.5-2.6c0.25,0.01,0.56-0.09,0.73,0.03c4.07,2.85,4.21,2.93,6.72-1.23c0.84-1.4,1.69-1.32,2.73-0.98
		c4.76,1.52,8.54,0.21,11.64-3.64c1.75-2.18,3.88-3.91,6.83-4.21c2.26-0.23,2.81-2.37,3.93-3.72c9.25-11.08,18.42-22.23,27.48-33.46
		c2.56-3.17,5.6-6.07,7.02-10.06c4.08-3.74,6.62-8.66,9.55-13.19c5.77-8.9,10.47-18.4,13.78-28.55c3.71-11.38,4.94-23.13,5.9-34.97
		c1.15-14.29,1.55-28.65,5.89-42.57c5.33-17.09,15.84-28.75,33.56-33.95c-1.35-0.16-2.33-0.28-3.3-0.4
		C666.46,316.86,668.05,317.53,669.69,318.65z"/>
	<path class="st10" d="M758.99,244.17c-2.64-6.52-6.79-12.16-10.62-17.97c-2.78-4.22-5.26-8.51-6.47-13.42
		c-0.51-2.06-1.53-2.49-2.63-0.78c-6.18,9.58-15.55,14.53-25.85,18.22c-0.7,0.25-1.35,0.66-1.99,1.04c-0.18,0.1-0.26,0.36-0.53,0.76
		c2.3,0.18,4.54-0.08,6.62,0.79c1,0.42,1.8,0.95,1.67,2.16c-0.12,1.11-0.84,2.14-1.84,2.08c-4.88-0.28-9.77,1.31-14.66-0.19
		c-2.35-0.72-3.44,0.72-3.65,2.93c-0.28,2.98-0.53,5.96-0.78,8.89c-0.67,0.26-0.99-0.11-1.38-0.42c-1.1-0.87-1.83-2.98-3.54-2.09
		c-1.94,1.01-0.79,2.88-0.29,4.35c0.97,2.87,1.52,5.65,0.81,8.76c-0.7,3.08,0.43,5.6,4.15,5.5c1.4-0.04,1.59,0.45,1.94,1.54
		c0.9,2.86,1.98,5.65,2.99,8.47c0.71,2.41-1.2,2.35-2.58,2.64c-6.23,1.31-12.52,2.36-18.72,3.86c-9.71,2.35-19.39,4.77-28.58,8.84
		c-7.39,3.27-14.18,7.36-20.03,14.11c8.95-10.55,21.02-13.66,32.75-17.32c2.14-0.67,4.4-2.04,6.87-0.92
		c0.65,1.92-1.09,2.21-2.07,2.99c-2.89,2.3-6.38,3.71-9.81,6.46c4.54-1.11,8.56-1.27,12.34-2.61c0.82-0.29,1.69-0.51,2.55-0.58
		c1.95-0.15,4.43-0.84,5.22,1.57c0.67,2.05-1.57,2.89-3.08,3.64c-1.84,0.92-2.9,2.75-4.71,3.67c-4.61,0.84-9.34,0.14-13.95,1.12
		c-1.3,0.28-2.75,0-3.61,1.33c0.95,1.75,2.74,1.58,4.26,1.76c3.59,0.43,7.16,1.09,10.8,0.91c1.25-0.06,2.52,0.02,3.71,0.41
		c1.33,0.44,3.37,0.41,3.06,2.51c-0.26,1.82-2.05,1.96-3.56,2.07c-1.87,0.14-3.76,0.2-5.61,0.04c-6.8-0.58-12.09,2.57-16.72,6.97
		c-1.73,1.65-3.52,3.15-5.48,4.46c-2.68,1.78-5.35,3.51-7.82,5.67c-3.88,3.4-8.32,2.54-12.49-0.02
		c-10.16-12.51-5.8-36.31,9.71-41.61c7.07-2.42,14.01-5.2,20.95-8.16c-8.19-2.25-15.49,1.49-23.96,4.17
		c4.85-5.53,10.55-7.66,16.1-9.97c4.61-1.92,9.3-3.69,14.03-5.3c4.9-1.67,7.39-5.29,8.75-9.97c2.18-7.52,2.34-15.31,2.92-23.04
		c0.51-6.87,1.24-13.69,2.82-20.41c4.69-19.98,16.39-30.87,36.64-33.91c2.59-0.39,5.22-0.69,7.83-0.76
		c2.08-0.05,2.71-0.59,1.76-2.61c-0.63-1.35-1.05-2.82-1.42-4.27c-2.34-9.2-2.12-20.06,10.98-24.73c4.2-1.97,8.67-0.65,13-1.04
		c7.09,0.53,12.36,5.91,12.89,13.22c0.14,1.87,0.14,3.76-0.22,5.62c-0.49,1.56-0.81,3.18-1.54,4.66c-2.42,4-5.14,7.77-8.78,10.98
		c1.9,0.96,3.51,1.78,5.13,2.6c2.41,3.13,6.13,4.9,8.27,8.39c3.95,6.44,8.04,12.76,9.76,20.28c2.52,11.02,4.2,22.15,4.76,33.45
		c0.23,4.69,1.25,9.25,0.99,14.08c-0.54,10.11-3.58,18.89-10.33,26.53c-5.15,5.82-12.1,8.66-18.58,12.34
		c-0.81,0.46-1.69,0.35-2.56,0.24c-1.46-1.22-2.19-2.78-2.21-4.67c2.85-1.58,5.95-2.43,9.01-3.47c5.17-1.76,10.07-4.44,13.23-9.29
		c1.45-2.23,1.58-4.67,0.75-7.18c0.62-3.38,2.75-6.11,3.96-9.26c3.16-8.16,2.84-16.46,1.26-24.73
		c-2.49-13.07-8.52-23.87-16.54-36.68c1.98,3.75,4.68,6.91,6.38,10.64c1.72,3.74,3.77,7.33,5.12,11.25
		c1.39,4.03,2.53,8.12,3.43,12.28c0.89,4.15,1.52,8.37,1.46,12.63c-0.02,1.6,0.03,3.33-1.81,4.18c-3.22-0.97-2.71-3.94-2.96-6.19
		c-0.51-4.61-1.77-9-3.14-13.84c-0.55,2.75,0.01,5.11-0.47,7.38C762.58,244.54,761.54,246.04,758.99,244.17z"/>
	<path class="st4" d="M335.01,180.96c-1.29,2.31,0.21,3.17,2.02,3.78c4.03,1.36,8.2,0.84,12.27,0.48c1.84-0.16,3.69-0.5,5.56-0.5
		c20.03-0.01,40.07-0.01,60.1,0c5.71,0,5.75,0.04,5.8,5.54c0.01,0.75-0.09,1.53,0.06,2.25c0.43,2.02,1.05,3.51,3.31,1.31
		c2.84-2.76,5.85-5.34,8.73-8.05c3.74-3.53,7.94-4.36,12.68-2.3c2.18,0.95,4.45,0.28,6.66,0.52c0.99,0.11,2.23,0.16,2.5,1.2
		c0.24,0.93-1.16,1.18-1.58,1.85c-2.56,4.02-7.48,5.8-9.62,10.17c-0.61,1.24-1.59,1.97-2.81,2.31c-1.84,0.51-3.04,1.44-3.6,3.38
		c-0.25,0.87-1.12,2.03-1.89,2.19c-5.05,1.05-7.68,5.33-11.02,8.44c-3.04,2.83-6.57,4.99-9.46,8.13
		c-3.99,4.35-8.26,8.51-12.51,12.66c-3.33,3.26-7.59,5.42-10.7,9.13c-3.24,3.86-7.7,6.7-10.81,10.64c-3.21,4.07-7.25,6.78-11.47,9.4
		c-2.18,1.35-3.74,3.3-5.54,5.02c-5.49,5.27-10.86,10.63-16.74,15.53c-4.82,4.03-9.96,3.82-15.32,3.44
		c-3.43-0.24-6.78-0.17-10.16,0.3c0.96-1.61,0.73-3.39,0.73-5.13c0-32.18,0-64.37,0-96.55c0-5.12,0.01-5.12,5.27-5.13
		C330,180.94,332.5,180.95,335.01,180.96z"/>
	<path class="st11" d="M98.86,479.56c-6.56-0.48-12.13-3.27-17.15-7.35c-1.12-0.91-1.18-2.14-1.1-3.42
		c0.7-11.36,4.41-21.8,10.09-31.54c1.93-3.31,5.02-5.04,9.1-4.88c7.76,0.31,15.53,0.51,23.3,0.57c2.2,0.02,5.11,1.03,6.15-2.11
		c1.15-3.45,0.63-6.76-2.2-9.3c-1.78-1.6-3.89-2.71-6.39-2.82c-4.48-1.23-8.84-1.16-13.07,1.29c1.95-11.16,8.36-15.05,18.69-11
		c7.9,3.09,15.56,6.77,23.34,10.17c0.91,0.4,1.87,0.82,2.84,0.91c2.75,0.25,4.33-2.16,3.07-4.6c-0.52-1-1.15-1.93-1.73-2.89
		c-6.12-10.86-16.16-14.62-27.86-15.45c-0.91-0.06-3.59,0.85-1.58-1.88c3.97-2.83,7.91-5.65,12.5-7.53
		c6.23-2.55,11.57-1.85,16.61,2.8c5,4.61,9.34,9.77,13.64,14.99c1.12,1.35,2.08,2.86,3.36,4.04c1.24,1.14,2.06,3.92,4.32,2.48
		c2.13-1.36,1.48-3.79,0.62-5.82c-3.27-7.76-9.56-12.67-16.33-17.11c-0.93-0.61-1.91-1.15-3.07-1.85c1.43-1.81,3.4-2.32,5.24-2.85
		c13.58-3.9,26.16-0.98,37.56,6.64c7.9,5.28,10.08,14.35,12.52,22.9c0.61,2.13-1.6,3.25-3.28,4.07c-4.29,2.09-8.84,3.5-13.51,4.48
		c-0.36,0.25-0.7,0.23-1.02-0.07c-0.03-0.26-0.07-0.59,0.09-0.71c6.28-4.42,8.45-11.02,9.45-18.25
		c-1.03,6.56-5.22,10.94-10.28,14.53c-2.76,1.96-3.83,1.38-4.77-1.84c-0.7-2.4-1.29-4.81-1.47-7.33c-0.43-5.8-2.86-10.83-6.45-15.31
		c-1.71-2.13-3.85-3.89-4.86-5.53c3.73,4.43,5.3,10.67,7.02,16.79c1.26,4.48,1.18,9.15,1.09,13.79c-0.06,2.84-1.37,3.88-4.15,4.1
		c-3.87,0.31-6.67-0.79-8.83-4.2c-1.64-2.58-2.71-5.66-5.44-7.47c-2.72-1.81-4.35-4.74-6.88-6.74c-0.89-0.7-1.38-2.22-2.96-1.61
		c0.16,3.1,2.44,5.17,3.69,7.72c1.45,2.95,2.72,5.91,2.7,9.27c-0.01,2.89-1.42,4.38-4.35,4.48c-4,0.13-7.52-1.69-11.21-2.78
		c-2.52-0.75-4.93-1.82-7.65-1.47c-4.07-0.67-7.46-3.22-11.57-3.94c-4.49-0.78-8.95-0.53-12.08-0.65c4.66-0.3,10.6,0.08,16.41,1.7
		c0.64,2.1,2.9,1.62,4.27,2.61c1.41,1.01,2.87,2,4.42,2.84c1.89,1.03,3.88,2.27,3.98,4.63c0.11,2.6-2.5,2.82-4.16,3.72
		c-5.14,2.8-10.42,5.35-15.06,8.97c-5.06-0.06-10.13,0.21-15.17-0.21c-2.74-0.23-5.52,0.17-7.81-0.54
		c6.57,1.06,13.69,0.33,20.76,1.49c-6.35,4.8-13.32,8.25-19.51,12.37c2.49-1.25,4.8-3.44,7.76-4.49c1.63,0.15,1.35,1.06,0.86,2.1
		c-3.17,6.85-7.51,12.93-11.87,18.42c0.59-0.45,1.86-2.11,2.74,0.13c0.8,2.02,2.19,2.14,3.87,2.11c0.38-0.01,0.75,0,1.13,0
		c6.14,0.03,6.14,0.03,10.45-5.33c-2.04,0.92-2.83-0.3-2.88-2.19c-0.09-3.6-0.44-6.98-3.74-9.34c-1.11-0.79-0.61-2.16,0.04-3.08
		c0.95-1.35,1.5-2.87,2.19-4.34c6.47-4.44,13.26-8.33,20.42-11.54c0.9-0.4,1.89-0.69,2.89-0.21c1.55,3.54-0.82,6.2-2.23,8.95
		c-1.35,2.64-3.22,5-4.49,7.7c-1.75,3.86-3.86,7.56-5.91,11.25c-0.78,1.39,0.14,1.55,0.45,2.25c-2.08,3.78-4.13,7.57-6.25,11.33
		c-1.08,1.93-2.68,3.11-5.02,2.99C108.38,480.14,103.62,480.12,98.86,479.56z"/>
	<path class="st12" d="M393.72,330.59c0.25,0.22,0.5,0.44,0.74,0.66c0.28,0.97,0.55,1.94,0.83,2.91c0.92,2.52-0.56,5.22,0.57,7.73
		c0.31,1.34,0.15,1.96-1.45,1.26c-10.63-4.68-24.44,0.93-28.26,11.44c-2.07,5.7-0.92,7.51,4.98,7c8.72-0.76,17.42-1.85,26.12-2.83
		c8.75-0.98,11.43,0.65,14.92,8.88c3.8,8.95,7.74,17.84,11.56,26.78c2.52,5.9,2.22,6.98-3.17,10.88
		c-7.81,5.66-16.74,8.96-25.86,11.72c-5.14,1.56-10.36,2.91-15.77,3.28c-1.82,0.13-3.49-0.03-4.87-1.38
		c-4.37-4.28-8.75-8.56-11.92-13.87c-1.13-3.73-3.96-6.49-5.6-9.98c-3.56-7.59-8.02-14.72-12.06-22.07
		c-0.78-1.42-1.82-2.7-2.95-3.88c-0.83-0.86-1.83-1.37-3.04-0.94c-1.42,0.5-1.69,1.68-1.72,3.02c-0.03,1.33,0.77,2.72-0.22,4
		c-2.64,0.57-3.53,2.01-3.14,4.82c0.58,4.15,1.1,8.37-0.34,12.53c-0.75,2.17,0.27,4.13,1.23,6.04c0.71,1.43,1.98,2.6,2.03,4.34
		c0.85,0.35-2,2.86,1.11,1.88c2.03,0.25,3.12,1.93,4.55,3.06c1.57,1.25,3.09,2.5,5.16,2.78c0.87,0.11,1.45,0.8,2.22,1.1
		c2.13,1.71,3.57,4,5.25,6.09c0.02,1.01,0.87,1.44,1.43,2.1c0.58,0.67,0.47,1.37-0.24,1.93c-0.66,0.52-8.03,1-8.73,0.56
		c-0.44-0.28-0.26-0.94-0.7-1.24c-0.15,0.72,0.36,1.15,0.74,1.63c0.64,0.81,1.34,1.76,0.4,2.62c-0.74,0.68-1.65,0.04-2.37-0.47
		c-0.71-0.5-1.33-1.33-2.2-1.36c-2.99-0.1-3.52-1.86-2.91-4.7c-1.02,0.67-1.46,2.06-2.47,1.45c-1.91-1.15-3.4-0.52-5.17,0.43
		c-1.97,1.05-2.2-1.48-3.38-2.17c-0.93-1.35-1.42-2.86-1.55-4.49c-0.4-1.79,0.11-3.83-1.54-5.26c-0.65-0.64-0.68-1.45-0.61-2.29
		c0.09-0.35,0.86-0.38,0.46-0.97c-0.17,0.14-0.36,0.25-0.57,0.33c-2.48-8.18-3.42-16.63-4.37-25.08c-0.39-3.48-1.01-6.93-1.53-10.39
		c-0.63-0.62-0.4-1.36-0.33-2.09c1.4-0.85,1.94,0.45,2.75,1.09c0.2,0.31,0.34,0.64,0.44,0.99c-0.21,2.26-0.26,4.48,1.45,6.31
		c0.73,3.07,1.83,6.04,2.7,9.07c1.23,2.36-0.41,5.55,2.2,7.5c1.67,2.77,2.37,5.92,3.56,8.72c-1.74-5.67-4.91-11.11-5.12-17.4
		c0.48-3.98,0.48-7.94-0.06-11.93c-0.64-4.72,0.53-9.2,2.58-13.38c1.54-3.15,4.89-4.09,8.38-2.71c3.63,1.43,6.14,4.16,8.2,7.38
		c3.58,5.59,5.99,11.78,8.95,17.69c2.81,5.6,7.06,9.88,11.01,14.49c0.49,0.26,0.93,0.59,1.32,0.99c2.9,3.91,6.29,7.37,9.82,10.7
		c1.63,1.53,3.3,2.02,5.7,1.69c5.25-0.72,9.64-4.2,15.44-4.16c-0.55-1.6-1.96-3.16-0.04-4.36c-3.04-3.91-7.1-6.87-9.94-10.97
		c-1.92-2.76-4.03-5.4-6-8.13c-0.88-1.22-1.75-2.87,1.06-2.97c3.69,1.08,6.95,3.11,10.43,4.63c7.08,2.9,14.05,6.05,21.11,9.01
		c-6.86-2.9-13.61-6.05-20.55-8.79c-4.76-2.48-9.73-4.48-14.67-6.54c-2.08-0.87-4.07-1.92-6.06-2.96c-1.11-0.58-2.59-1.23-2.41-2.57
		c0.21-1.56,1.9-1.11,3.06-1.3c8.53-1.41,17.13-2.37,25.63-3.99c-9.64,1.69-19.35,2.96-29.03,4.41
		c-6.98-3.88-13.49-8.49-19.79-13.36c-3.39-2.62-3.21-3.94,0.23-6.66c3.66-2.89,7.91-4.74,12-6.88c1.55-0.81,3.2-1.45,4.15-3.07
		c5.56-2.32,11.35-3.51,17.38-3.44c1.12,0.46,2.11,1.15,3.42,1.25c3.75,0.31,4.26-0.21,3.52-3.94
		C391.43,332.97,391.1,331.09,393.72,330.59z"/>
	<path class="st13" d="M321.49,369.73c-1.16,0.13-1.47-0.94-2.14-1.51c-1.47-1.45-1.55-3.61-2.72-5.24
		c-2.18-3.06-4.84-3.54-7.48-0.8c-3.37,3.5-5.29,7.85-5.67,12.69c-0.3,3.82-0.18,7.69,0.64,11.48c1.39,8.97,6.49,16.17,11.39,23.42
		c4.28,6.33,9.48,11.92,15.32,17.7c-3.39-0.13-5.58-1.86-7.89-3.01c-17.19-8.58-33.56-18.44-48.14-31.08
		c-3.14-2.72-5.84-5.82-8.31-9.13c-0.4-0.71-1.35-0.35-1.82-0.93c-1.33-1.35-1.88-3.18-2.92-4.71c-6.7-11.28-8.16-23.02-3.1-35.34
		c0.62-1.5,1.11-3.06,2.68-3.89c0.92-0.42,1.76-0.96,2.46-1.69c2.6-2.7,5.72-3.85,9.49-3.58c5.26,0.37,10.13-1.27,14.92-3.2
		c0.78-0.27,1.57-0.3,2.38-0.18c2.93,0.84,6.42,0.22,8.58,3.16c0.62,3.48-2.23,3.71-4.35,4.52c-10.45,3.98-18.48,10.98-24.34,20.31
		c-3.02,4.8-4.97,10.16-2.65,16.08c0.69,1.75-0.06,3.75,0.47,4.96c0.19,1.1,0.78,0.45,0.33,0.68c-0.07,0.04-0.11-0.08-0.18-0.32
		c-1.57-5.78,1.03-10.79,2.93-15.93c3.41-9.21,9.1-16.03,19.02-18.62c2.3-0.6,4.26-2.09,6.47-3c4.08-1.69,5.41-1.21,7.39,2.79
		c0.74,1.5,0.91,3.11,1.14,4.72c-0.1,1.92-0.53,3.69-2.17,4.94c-6.24,10.29-10.71,20.99-7.75,33.42c0.01,0.02,0.07,0.03,0.11,0.05
		c-0.05-0.24-0.06-0.49-0.03-0.76c0.61-2.03-1.16-4.83,1.98-6c1.08,1.17,0.71,2.56,0.65,3.92c-0.06,1.18-0.03,2.36-0.11,3.27
		c0.1-7.59,2.53-14.98,4.6-22.43c1.07-3.85,2.27-7.66,3.24-11.54c1.29-5.15,7.16-6.87,11.34-3.38
		C320.39,354.16,323.07,365.66,321.49,369.73z"/>
	<path class="st14" d="M173.14,328.38c-2.81-6.05-5.11-12.24-4.99-19.06c0.08-4.27,0.34-4.38,3.98-2.38
		c9.26,5.07,18.71,9.64,29.65,9.48c0.25,0,0.5,0.01,0.75-0.01c2.59-0.21,6.21-0.03,6.58-2.89c0.31-2.45-3.39-2.31-5.39-2.83
		c-10.76-2.83-21.67-5.12-32.04-9.3c-10.31-4.15-13.48-9.94-11.38-20.9c0.02-0.12,0.05-0.25,0.08-0.37c0.82-2.97,0.85-7.61,3.2-8.28
		c2.5-0.71,3.28,3.98,4.94,6.19c8.13,10.87,19.26,15.94,32.44,17.22c2.11,0.21,4.22,0.41,6.34,0.61c2,0.18,4.1,0.59,5.23-1.75
		c1.24-2.56-1.11-3.39-2.46-4.33c-7.67-5.37-15.47-10.57-23.21-15.85c-0.82-0.56-1.56-1.22-2.34-1.84
		c-2.22-2.83-1.76-6.13-1.36-9.29c0.27-2.15,1.7-2.31,3.39-0.38c2.54,2.89,5.01,5.84,7.55,8.72c1.97,2.24,4.45,3.46,6.66,5.19
		c1.23,0.87,2.52,1.66,3.29,3.03c2.73,3.98,6.96,6.35,10.34,9.64c1.51,1.47,3.24,2.73,4.61,4.35c2.57,3.04,1.78,5.54-2.12,6.59
		c-4.4,1.18-8.88,1.09-13.35,0.49c-5.43-0.72-10.86-1.47-16.36-1.1c-3.54-0.6-6.25-2.91-9.33-4.47c7.85,5.23,17.02,7.01,25.81,9.8
		c1.05,0.33,2.28,0.22,2.93,1.37c4.22,1.47,8.63,1.98,13.03,2.45c2.58,0.27,4.66,0.74,5.04,3.86c0.51,4.2-0.23,5.79-3.71,7.06
		c-6.64,2.42-13.58,3.6-20.58,3.8c-6.1,0.17-12.2,0.9-18.34,0.2c-2.38-0.27-4.58-0.67-5.57-1.36c7.43,3.23,16.22,5.16,25.5,4.21
		c4.35-0.45,8.69-1.01,13.01-1.75c0.99-0.17,2-0.2,2.99-0.05c2.45,0.37,2.86,1.71,1.68,3.71c-1.37,2.32-3.69,3.71-5.56,5.54
		c-3.86,3.78-8.06,7.11-12.24,8.71c4.09-2.43,9.63-4.22,14.41-7.54c2.48-1.72,4.91-3.42,6.73-5.9c0.87-1.18,1.89-2.4,3.65-2.28
		c0.46,0.52,0.53,1.04,0.02,1.57c-2.5,4.73-4.71,9.62-7.93,13.95c-2.38,3.2-5.23,5.04-9.39,5.21c-4.87,0.2-9.7,0.5-14.57-0.1
		c-6.07-0.75-10.75-3.71-14.26-8.62C178.04,335.28,175.59,331.83,173.14,328.38z"/>
	<path class="st15" d="M637.82,135.2c-20.98-11.19-33.65-28.61-37.22-51.98c-6.92-45.28,28.67-84.33,74.41-81.86
		c19.5,1.05,35.94,9.02,48.87,23.86c-0.98,1.8-0.6,4.6-3.62,4.9c-2.93-1.57-4.78-4.35-7.24-6.46C702.1,14.27,689.61,9.09,675.16,8.1
		c-15.56-1.07-29.6,2.86-42.05,11.99c-15.43,11.31-24.39,26.53-26.39,45.75c-2.08,20.01,4.6,36.94,17.87,51.53
		c3.97,4.36,8.79,7.82,13.91,10.8c1.94,1.13,4.03,2.06,5.22,4.14C642.91,135.62,640.37,135.42,637.82,135.2z"/>
	<path class="st16" d="M720.72,29.83c2.2-0.75,0.23-4.36,3.16-4.61c11.34,12.14,17.11,26.72,17.95,43.1
		c2.67,52.21-48.58,89.09-97.33,70.16c-2.3-0.89-4.71-1.68-6.68-3.28c1.98-0.78,4.32-0.9,5.55-3.05c1.13-1.03,2.25-0.29,3.37,0.03
		c24.13,8.75,46.38,5.41,66.04-11.19c14.41-12.15,21.63-27.94,22.2-46.99c0.47-15.36-4.24-28.77-12.97-41.07
		C721.41,31.97,720.5,31.13,720.72,29.83z"/>
	<path class="st17" d="M1081.88,75.63c1.32,0.91,0.78,2.28,0.78,3.45c0.03,60.53,0.01,121.07,0.11,181.6
		c0.01,3.45-0.99,4.51-4.48,4.5c-60.28-0.09-120.57-0.09-180.85,0.01c-3.57,0.01-4.4-1.14-4.4-4.53
		c0.09-60.16,0.06-120.32,0.06-180.47c0-5.18,0.01-5.2,5.11-5.2c59.91,0,119.81-0.01,179.72,0.02
		C1079.26,75.01,1080.71,74.55,1081.88,75.63c-0.93,0.83-1.71,1.84-2.68,2.63c-1.18,0.96-2.56,1.35-3.75,0.24
		c-1.87-1.73-4.11-1.62-6.36-1.62c-54.02,0-108.04-0.01-162.05,0c-1.63,0-3.26,0.1-4.88,0.2c-5.56,0.33-5.58,0.32-5.58,6.09
		c-0.01,57.65,0,115.3,0,172.96c0,1.13,0.02,2.25,0.08,3.38c0.1,1.81,1.01,2.71,2.81,2.84c1.38,0.1,2.75,0.11,4.13,0.11
		c56.4,0,112.8,0,169.2,0c1.25,0,2.51,0.03,3.76-0.09c1.23-0.12,2.23-0.55,2.39-1.92c0.41-3.6,1.75-7.01,1.74-10.72
		c-0.06-54.27-0.04-108.54-0.04-162.8c0-1.63,0.06-3.29-0.47-4.85C1079.3,79.5,1079.86,77.39,1081.88,75.63z"/>
	<path class="st18" d="M226.64,328.29c0-0.48,0-0.95,0.01-1.43c-0.58-1.52-0.21-2.94,0.47-4.32c2.45,0.73,1.2-2.28,2.62-2.6
		c0.95-0.04,1.23,0.65,1.51,1.36c0.42,2.11,1.6,3.8,2.99,5.37c0.97,1.09,2.06,2.14,1.77,3.83c-0.18,2.45,0.87,4.65,1.38,6.97
		c2.92,13.36,4.28,26.89,4.75,40.56c0.57,16.49,1.75,32.96,1.48,49.48c-0.05,2.94-0.24,5.84-0.71,8.24
		c-0.09,0.99,0.78,0.3,0.33,0.52c-0.15,0.07-0.22-0.03-0.19-0.32c0.87-8.79,4.11-16.97,6.55-25.34c2.91-9.99,7.26-19.44,11.37-28.98
		c0.44-1.03,0.82-2.11,1.81-2.79c0.98,1.35,1.98,2.7,2.2,4.43c-2.45,6.8-5.64,13.3-8.1,20.09c-5.91,16.33-11.02,32.89-13.95,50.04
		c-0.42,2.45-1.2,4.83-1.31,7.36c-0.06,1.28-0.01,3.24-1.46,3.59c-1.68,0.4-1.72-1.76-2.57-2.73c-3.22-3.19-5.1-7.35-7.89-10.86
		c-0.69-0.86-1.6-1.83,0.02-2.73c3.43,2.2,4.52,6.34,7.3,9.18c1.24-1.77,0.97-3.49,0.7-5.24c-0.19-1.23-0.37-2.47-0.37-3.71
		c-0.07-15.86,0.19-31.72-0.23-47.57c-0.55-20.81-1.18-41.65-5.9-62.08c-0.7-3.02-1.63-5.99-2.51-8.96
		C228.41,328.7,227.59,328.34,226.64,328.29z"/>
	<path class="st19" d="M625.7,328.41c1.25-0.03,2.55-0.27,3.66,0.49c3.28,2.25,6.28,0.35,8.56-1.36c3.56-2.67,7.35-5.05,10.73-7.91
		c1.76-1.5,3.5-3.06,5.22-4.61c3.92-3.53,8.34-4.78,13.38-4.72c2.63,0.03,5.26-0.01,7.89-0.05c0.79-0.01,1.6-0.34,1.68-1.18
		c0.1-1.08-0.96-0.83-1.6-1.1c-2.29-0.95-4.69-0.51-7.04-0.69c-4.45-0.35-8.95-0.4-13.23-2.02c-0.97-0.37-1.63-0.57-1.03-1.73
		c2.92-1.84,6.28-1.63,9.46-1.77c12.63-0.55,25.24,0.93,37.88,0.69c1.24-0.02,2.91-0.06,3.13,1.91c-6.84,5.7-14.71,9.65-22.68,13.45
		c-4.1-1.17-8.06-0.19-12.01,0.82c-1.51-0.06-3.04-0.32-4.41,0.6c-8.17,0.97-16.17,2.42-23.36,6.84c-2.17,1.33-2.79,3.86-5.12,5.16
		C632.04,333.88,628.54,333.23,625.7,328.41z"/>
	<path class="st20" d="M745.58,299.18c8.99-4.61,18.32-8.92,24.1-17.66c2.61-3.94,4.45-8.46,5.46-13.31
		c0.75-3.6,0.81-7.19,1.17-10.77c0.26-2.62,0.91-5.39-0.92-7.96c-0.62-0.86-0.4-2.41-0.36-3.64c0.24-7.41-0.52-14.67-2.9-21.73
		c-0.31-0.91-0.14-1.98-0.13-2.98c0.06-5.99-1.37-11.59-4.53-16.68c-2.84-4.57-4.76-9.66-8.42-13.8c-1.32-1.49-2.68-2.68-4.23-3.84
		c-0.84-0.63-2.94-0.99-1.55-2.94c10.25,5.22,15.08,14.47,18.08,24.87c2.54,8.81,3.59,17.88,4.68,27
		c1.66,13.88,2.41,27.76,2.21,41.68c-0.19,12.84-7.42,21.33-18.4,27.05c-1.44,0.75-2.9,1.46-4.35,2.19
		C751.03,305.69,748.3,302.44,745.58,299.18z"/>
	<path class="st13" d="M329,418.61c1.94,1.21,3.83,2.35,5.55-0.39c0.3-0.48,1.23-0.42,1.67,0.14c2.98,3.78,2.17-0.35,2.84-1.35
		c0.62-0.11,1.13,0.32,1.1,0.72c-0.37,5.01,4.62,4.89,6.94,7.79c0.29-1.93-0.84-2.65-1.59-3.57c-0.52-0.64-0.81-1.37-0.04-1.94
		c0.46-0.34,1.15-0.61,1.69-0.55c1.44,0.16,0.41,0.93,0.31,1.54c-0.3,1.88,0.9,1.24,1.82,1.01c1.09-0.27,2.18-0.5,3.25-0.85
		c1-0.32,1.89,0.81,2.94,0.14c1.01-1.45-2.96-1.73-0.89-3.45c7.91,6.58,7.95,6.61,14.94,8.06c-2.5,1.51-4.91,1.99-7.28,2.47
		c-8.04,1.64-16.17,1.77-24.24,0.63C332.35,428.2,330.74,423.19,329,418.61z"/>
	<path class="st21" d="M347.05,411.1c-3.06,0.76-4.42-1.89-6.41-3.24c-1.2-0.82-2.25-1.84-3.37-2.77c-0.57-0.44-1.86-0.15-1.5-1.51
		c-0.08-1.18-0.75-2.05-1.41-2.98c-2.22-3.18-3.2-6.48-1.81-10.46c1.24-3.58,0.26-7.34-0.33-11c-0.55-3.42,0.87-4.84,4.23-4.1
		c1.24,1.41,1.33,3.01,1.04,4.48c0.63-1-0.26-2.29-0.15-3.53c0.1-1.18-0.74-2.88,1.39-3.22c0.44,7.01-1,14.1,1.49,21.02
		c1.3,3.63,3.19,6.97,4.52,10.56C344.23,407.04,347.37,408.47,347.05,411.1z"/>
	<path class="st22" d="M229.7,448.02c1.17,3.91,4.35,6.6,6.16,10.13c0.49,0.96,1.74,1.46,1.8,2.74c0.48,1.43,1.96,2.61,1.12,4.39
		c-3.38,1.14-6.54-0.18-9.77-0.84c0.8-1.92,2.65-1.48,4.11-1.68c2.97-0.41,2.91-1.56,1.08-3.39c-1.8-0.9-2.43-2.77-3.52-4.25
		c-7.26-9.86-15.71-18.35-26.96-23.67c-1.36-0.64-2.67-1.36-4.26-1.11c-3.14-1.15-6.16-2.53-8.9-4.45c0.03-1.44-3.22-1.01-1.83-3.23
		c1.59-0.52,3.16-1.24,4.85-0.4c0.31,0.08,0.63,0.15,0.94,0.23c-1.57,0.99-1.03,1.35,0.4,1.79c5.35,1.65,10.56,3.66,15.34,6.64
		C217.68,435.55,224.44,440.94,229.7,448.02z"/>
	<path class="st23" d="M338.73,372.77c-1.49,2.33-0.12,5.04-1.13,7.89c-0.43-2.12-0.79-3.88-1.15-5.62c-0.22-2.76-2.5-6.06,1.5-7.84
		c3.91-1.74,4.98,2,6.4,4.13c2.94,4.43,5.44,9.16,8.1,13.77c3.35,5.81,5.73,12.15,9.58,17.7c0.43,0.61,1.21,1.46,0.11,2.26
		c-7.29-9.54-12.73-20.23-18.96-30.43c-0.58-0.95-1.2-1.9-1.96-2.71C339.87,370.46,339.11,371.17,338.73,372.77z"/>
	<path class="st24" d="M238.77,465.28c0.16-1.6-1.84-2.65-1.12-4.39c1.46,0.39,1.36,1.92,2.51,3.5c0.82-4.28,1.56-8.04,2.27-11.8
		c4.47-23.73,11.54-46.62,21.81-68.5c0.15-0.32,0.48-0.56,0.72-0.83c0.7,0.03,1.36,0.13,1.53,0.99c-2.34,1.45-2.54,4.13-3.5,6.32
		c-5.3,12.06-9.71,24.45-13.08,37.19c-3.32,8.71-4.82,17.86-6.59,26.95c-0.57,2.91-1.2,5.83-1.49,8.77
		C241.6,465.8,240.35,465.65,238.77,465.28z"/>
	<path class="st25" d="M756.92,170.29c0.25-1.44-0.6-3.05,0.69-4.32c4.2-7.64,2.33-14.19-5.15-18.17
		c-4.59-2.44-9.28-3.43-13.78-1.44c2.4,0.33,5.52-1.68,7.98,1.37c-4.62,0.03-9.24,0.07-13.87,0.1c6.41-6.72,17.69-6.46,25.29,0.57
		C764.34,154.19,763.88,162.84,756.92,170.29z"/>
	<path class="st13" d="M347.05,411.1c-1.44-2.02-3.5-3.83-2.31-6.75c1.54,2.47,3.08,4.93,4.62,7.4
		C348.22,412.84,347.89,411.07,347.05,411.1z"/>
	<path class="st4" d="M349.29,180.22c-3.93,1.54-8.02,0.33-12.02,0.72C341.19,179.38,345.29,180.58,349.29,180.22z"/>
	<path class="st4" d="M469.63,180.22c-3.15,1.59-6.52,0.31-9.76,0.72C463.01,179.33,466.38,180.6,469.63,180.22z"/>
	<path class="st13" d="M325.9,408.87c3.64,0.84,1.29,3.43,1.54,5.26C326.45,412.51,326.03,410.74,325.9,408.87z"/>
	<path class="st26" d="M395.86,341.9c-0.54-0.42-1.87-0.75-1.46-1.32c1.49-2.05,0.28-4.34,0.89-6.42
		C396.27,336.68,395.88,339.3,395.86,341.9z"/>
	<path class="st13" d="M325.18,405.95c0.19-0.88-0.24-2.17,1.33-2.18c0.6,0,0.84,0.5,0.9,1.01c0.19,1.62-0.88,1.82-2.11,1.81
		C325.11,406.4,325.07,406.19,325.18,405.95z"/>
	<path class="st27" d="M532.82,530.15c0,0.87,0,1.74,0,2.61c-1.26,1.43-2.74,2.56-4.55,3.22c-0.22,0.13-0.42,0.28-0.65,0.37
		c-6.44,2.44-8.7,6.83-6.96,13.62c0.49,1.9,1.42,3.06,2.65,4.26c2.17,2.11,4.09,4.18,3.54,7.7c-0.47,3.02,1.41,4.32,4.33,4.12
		c2.67-0.18,4.93,0.37,7.27,2.02c2.03,1.43,4.8,2.5,6.72-1.17c1.26-2.41,4.54-2.23,7.17-0.12c0.93,0.95,0.87,1.99,0.26,3.07
		c-6.29,2.07-12.61,4.04-18.78,6.46c-3.66,1.43-7.09,3.22-9.91,5.96c-3.5,3.4-3.34,7.01,0.4,10.36c5.6,5.01,12.7,7.03,19.59,9.15
		c15.34,4.72,31.14,7.36,46.99,9.87c18.09,2.86,36.31,3.9,54.52,5.36c18.11,1.46,36.24,1.69,54.37,2.27
		c12.15,0.39,24.3,0.91,36.41,0.44c18.25-0.7,36.51-0.5,54.76-1.91c18.59-1.43,37.23-2.16,55.71-4.72
		c16.12-2.23,32.22-4.49,48.07-8.43c8.57-2.13,16.9-4.5,24.7-8.63c0.55-0.29,1.12-0.58,1.64-0.92c2.8-1.84,6.38-3.3,6.27-7.31
		c-0.12-4.33-3.26-6.93-6.76-8.83c-4.82-2.63-10.06-4.35-15.12-6.45c-0.92-3.22-1.48-6.42,0.41-9.52c1.32-0.12,2.6,0.2,3.89-0.78
		c2.26-1.71,4.14-3.63,7.89-2.49c3.26,0.99,6.38-2.77,6.21-6.44c-0.14-3.04,0.49-5.47,2.94-7.55c2.17-1.85,2.27-7.9,0.77-10.7
		c-0.84-1.57-2.6-2.78-2.18-4.91c27.7-0.05,55.39-0.09,83.09-0.16c1.33,0,2.24,0.34,3.21,1.42c10.72,12.03,20.77,24.64,31.15,36.96
		c8.93,10.6,17.92,21.15,26.84,31.76c7.71,9.17,15.39,18.37,22.99,27.63c1.14,1.39,3.16,2.23,3.17,4.77
		c-2.34,0.12-4.73,0.36-7.13,0.36c-98.26,0.02-196.52,0.09-294.78-0.1c-10-0.02-20.03-0.84-30.02-0.4
		c-21.04,0.93-42.08,0.52-63.11,0.39c-11.38-0.07-22.77-0.6-34.16-0.46c-106.89,1.31-213.78,0.2-320.67,0.58
		c-0.63,0-1.26,0.05-1.88,0c-1.45-0.12-3.44,0.65-4.13-0.94c-0.72-1.65,1.33-2.44,2.23-3.54c10.56-12.81,21.09-25.64,31.75-38.36
		c11.31-13.5,22.78-26.87,34.14-40.33c4.67-5.53,9.23-11.15,13.87-16.71c1.36-1.63,2.68-3.07,5.23-3.07
		c34.84,0.09,69.69,0.07,104.53,0.08C532.07,530.02,532.44,530.1,532.82,530.15z"/>
	<path class="st28" d="M229,632.86c-0.61-0.38-1.22-0.76-2.11-1.3c3.52-2.24,7.49-3.03,10.93-5.07c5.67-3.37,10.51-7.59,14.84-12.44
		c10.96-12.27,16.45-27.11,19.54-42.93c1.89-9.68,2.59-19.51,2.65-29.38c0.01-1.43-0.58-3.03,0.7-4.28
		c5.7,16.49,9.07,33.36,8.42,50.92c-0.25,6.73-0.12,13.48-0.06,20.22c0.03,3.34-0.69,6.42-2.34,9.31
		c-1.97,6.37-7.57,8.99-12.86,11.17c-11.58,4.78-23.77,6.6-36.33,5.04C231.19,633.96,229.86,634.02,229,632.86z"/>
	<path class="st29" d="M229,632.86c12.4,1.48,24.54,0.49,36.41-3.56c6.54-2.23,12.01-5.85,16.17-11.4c-0.1,3.16,2.12,3.52,4.49,3.79
		c5.08,0.59,10.1,1.34,14.84,3.51c1.73,0.79,3.49,1.59,3.45,3.45c-0.04,1.9-2.04,2.65-3.65,3.35c-6.28,2.73-13.07,3.01-19.71,3.93
		c-13.16,1.82-26.42,1.82-39.66,1.49c-11.83-0.29-23.61-1.53-35.24-3.8c-2.18-0.43-4.28-1.37-6.34-2.25
		c-2.88-1.22-3.08-3.08-0.52-4.94c1.45-1.05,3.21-1.76,1.92-4.04c2.74,1.48,4.9,3.76,7.93,4.98
		C215.56,629.96,222.11,631.97,229,632.86z"/>
	<path class="st30" d="M158.15,459.18c3.38-3.5,7.09-6.68,10.14-10.5c2.17-2.72,3.71-5.62,3.59-9.22c-0.13-3.68-2.37-5.12-5.8-3.7
		c-2.95,1.22-4.67,3.74-6.33,6.23c-5.44,8.13-9.93,16.8-14.33,25.51c-2.54,5.02-5.26,9.74-11.23,11.3
		c-2.83,0.68-5.65,1.49-8.51,1.98c-1.45,0.25-3.13,1.03-4.46-0.47c1.72-0.8,3.2-1.91,4.3-3.45c7.43-10.46,15.38-20.6,19.82-32.86
		c1.07-1.15,1.41-2.69,2.17-4.01c0.41-0.71,1.23-1.55,0.24-2.28c-0.83-0.62-1.65,0.11-2.36,0.57c-3.96,2.64-7.32,5.94-10.06,9.79
		c-2.08,2.92-4.19,5.83-6.09,8.88c-1.6,2.12-3.31,4.18-3.95,6.86c-0.29,0.48-0.58,0.95-0.88,1.43c-1.29-1.3-1.37,2.08-2.48,0.71
		c-1.05-1.3,0.64-1.85,1.1-2.75c1.98-3.8,3.93-7.62,5.89-11.43c3.85-5.08,7.3-10.47,11.67-15.14c2.88-3.07,6.17-5.49,10.19-6.82
		c4.21-1.4,6.11,0.13,6.19,4.61c0.05,2.63-1.5,4.74-1.91,7.18c0.18,0.4,0.42,0.71,0.94,0.58c2.63-2.73,4.48-6.05,7-8.83
		c2.73-3.01,5.77-5.18,10.21-3.91c2.34,0.67,3.34,1.8,2.75,4.35c-0.93,4.03-2.12,7.98-3.38,11.9c-0.61,1.9-1.23,3.8-1.75,5.72
		c-3.46,1.63-5.34,4.76-7.63,7.6C162.17,460.27,159.95,463.1,158.15,459.18z"/>
	<path class="st31" d="M249.99,464.56c-1.31,0.81-2.85,0.63-4.27,0.95c-1.08,0.24-2.32,0.77-2.43-1.04
		c-0.1-1.68,1.14-1.56,2.28-1.54c0.49,0.01,0.98-0.06,1.46-0.1C248.14,463.2,249.37,463.37,249.99,464.56z"/>
	<path class="st32" d="M128.86,457c3.97-8.13,9.49-14.96,16.87-20.27c1.22-0.88,2.17-0.97,3.28,0.08c1.09,1.03,0.73,1.83-0.07,2.87
		c-1.11,1.45-2,3.07-3,4.6c-0.03,0.04-0.24,0-0.35-0.06c-0.11-0.05-0.18-0.17-0.27-0.25c-0.02-1.6,1.28-2.99,0.68-5.16
		c-7.12,4.79-11.09,12.06-16.31,18.19C129.42,457.3,129.14,457.3,128.86,457z"/>
	<path class="st11" d="M128.86,457c0.28,0,0.56,0,0.84,0c-1.47,2.26-2.95,4.52-4.42,6.79C124.76,460.62,126.84,458.83,128.86,457z"
		/>
	<path class="st0" d="M98.86,479.56c4.76,0.26,9.51,0.35,14.27-0.02C108.38,480.81,103.62,480.78,98.86,479.56z"/>
	<path class="st14" d="M186.04,256.18c2.82,3.81,5.89,7.34,9.89,10.01c4.92,3.28,10.19,3.8,15.75,2.24
		c3.52-0.99,3.98-1.91,1.79-4.92c-4.48-6.15-9.21-12.11-13.82-18.17c-1.36-1.79-2.7-3.59-3.93-5.47c-3.92-5.92-3.89-7.94,0.08-13.88
		c5.51-5.05,10.3-10.77,15.17-16.41c7.22-5.87,5.56-6.5,14.07-0.17c11.18,8.32,20.55,18.59,29.21,29.51
		c2.18,2.75,2.52,5.33,0.72,8.23c-1.7,2.75-2.46,6.04-4.78,8.43c-4.85,5.53-9.02,11.56-12.81,17.83c-1.1,1.81-2.77,3.24-3.47,5.27
		c-0.47,1.37-1.52,2.85-0.15,4.17c1.19,1.15,2.57,0.47,3.82-0.16c0.56-0.28,1.13-0.52,1.78-0.54c2.57,0.91,4.88,0.52,6.94-1.33
		c1.52-1.36,3.42-2.13,5.34-2.6c4.45-1.09,7.25-3.56,7.92-8.25c0.17-1.21,0.85-2.34,1.05-3.57c-1.07-0.35-1.99,2.68-3.16,0.14
		c2.05-3.28,4.12-6.55,5.46-10.2c1.13-3.07,2.02-6.19,0.69-9.59c6.08,5.24,10.31,11.7,13.08,19.08c0.92,2.45-1.14,4.25-2.7,5.8
		c-6.78,6.72-14.66,12.06-22.51,17.43c-3.21,2.19-6.39,4.39-9.08,7.22c-1.52,1.59-2.86,3.45-1.95,5.69
		c0.89,2.21,3.17,2.21,5.18,2.16c1.98-0.05,3.95-0.35,5.92-0.53c0.12,0.75-0.32,1.24-0.92,1.43c-3.92,1.23-7.6,3.15-11.57,4.24
		c-2.32,0.64-3.81-0.63-5.14-2.22c-1.43-1.72-1.69-3.65-0.5-5.55c1.6-2.55,3.7-4.66,5.97-6.65c3.92-3.43,8.14-6.52,11.67-10.38
		c4.22-3.68,8.18-7.62,12.26-12.12c-4.92,5.03-9.1,10.14-14.8,13.63c-3.55,0.68-6.04,3.43-9.29,4.74c-1.98,0.8-3.98,1.39-5.98,2.06
		c-5.23,1.75-9.22-3.84-7.91-8.58c1.57-5.69,5.03-10.3,8.66-14.77c3.26-4,6.14-8.16,7.43-13.24c0.65-2.43,2.24-4.44,3-6.61
		c-1.41,2.75-2.72,5.75-4.22,8.66c-0.62,1.2-1.12,2.95-3.19,2.37c0.18-4.06-1.58-5.85-5.79-6.57c-2.44-0.42-4.08-1.32-6.29,0.69
		c-2.47,2.23-2.81-0.96-3.88-2.14c-0.31-0.95-0.38-1.92-0.36-2.91c-0.88-8.55-1.94-17.08-2.99-25.6c-0.4-3.28-1.26-6.53-1.18-8.63
		c1.48,11.46,3.22,24.11,4.39,36.82c0.56,1.81,1.15,3.61,0.38,5.51c-0.84,1.41-1.67,0.69-2.32-0.13
		c-4.67-5.85-9.45-11.61-13.94-17.6c-0.48-0.64-0.82-1.27-0.12-1.98c2.53-0.23,3.15,2.08,4.51,3.41c0.96,0.94,1.79,2.55,3.29,2.09
		c1.69-0.51,1.55-2.38,1.69-3.85c0.23-2.53-0.27-4.96-1-7.39c-1.66-5.52-2.88-11.09-1.39-16.91c-0.64,2.22-1.76,4.24-3.29,6.01
		c-1.62,1.88-3.92,2.62-6.1,3.56c-2.42,1.04-2.51,2.54-1.46,4.82c1.23,2.69,3.97,4.6,4.06,7.86c-0.83,1.04-1.45,0.37-2.14-0.23
		c-1.24-1.08-1.74-2.73-2.85-3.7c6,8.27,12.61,16.26,19.06,24.39c0.55,0.69,1.17,1.3,1.11,2.28c-0.29,6.22,0.32,12.49-0.9,18.66
		c-0.64,3.26-1.73,3.84-5,3.23c-4.2-0.79-7.37-3.57-10.95-5.55c-1.64-0.91-3.2-1.96-5.05-2.39c-5.88-4.15-11.42-8.6-13.34-16.03
		C184.95,257.53,184.35,256.34,186.04,256.18z"/>
	<path class="st13" d="M323.63,320.73c-1.2,1.44-2.03,3.12-0.64,4.7c1.53,1.75,3.05,0.04,4.32-0.68c4.35-2.45,8.52-5.19,12.41-8.35
		c0.03-0.37,0.2-0.47,0.52-0.27c6.54-4.35,13.14-8.62,19.6-13.08c8.26-5.71,15.11-3.08,21.42,2.3c1.97,1.68,3.61,3.78,5.31,5.77
		c0.6,0.7,1.74,1.47,1.14,2.53c-0.56,0.99-1.82,0.59-2.76,0.56c-14.18-0.52-26.06,4.76-36.25,14.32c-0.9,0.85-1.97,1.55-2.4,2.81
		c-0.35,2.42-2.24,3.78-3.7,5.44c-0.97,1.1-2.37,2.15-1.37,3.85c0.95,1.61,2.54,1.26,4.02,0.9c7.04-1.72,13.62-4.73,20.35-7.32
		c2.2-0.85,4.29-2.01,6.69-2.31c1.99-0.04,3.97-0.29,5.95-0.43c3.92-0.29,7.09,2.39,7.3,5.97c-7.32,0.86-14.6,1.89-21.43,4.88
		c-4.26-0.55-8.03,1.55-12.06,2.27c-5.16,0.93-10.15,2.82-15.48,2.76c-4.93-0.05-6.46-2.52-4.44-7.1
		c2.24-5.06,6.47-8.54,10.05-12.52c3.01-3.34,6.48-6.26,8.9-10.11c1.96-2.18,4.86-2.83,7.72-4.68
		c-10.08,5.24-18.9,11.37-27.87,17.27c-4.49,1.47-7.73,4.8-11.33,7.61c-0.64,0.65-1.3,1.28-2.23,1.5c-3.25-0.48-5.63-2.55-8-4.56
		c-1.99-1.69-0.97-3.64-0.15-5.48c3.24-7.27,7.77-13.72,13.02-19.64c3.97-4.48,7.93-8.99,12.14-12.14
		c-6.18,2.53-12.29,6.48-17.23,12.08c-2.48,2.81-5,5.61-7.12,8.71c-1.36,1.98-2.96,3.72-4.73,5.31c-1.8,1.61-3.27,1.36-3.81-1.02
		c-1.84-8.14-4.43-16.26-1.69-23.97c-0.54,1.89-1.43,4.47-2.29,7.06c-0.87,2.61-1.23,5.36-1.38,8.11c-0.22,4.05,0.24,7.99,1.9,11.74
		c0.55,1.24,1.08,2.56,0.57,3.99c-0.2,0.33-0.49,0.53-0.88,0.57c-0.85-0.26-1.11-0.92-1.18-1.71c-3.07-6.27-6.87-12.18-9.27-18.8
		c-2.7-7.45-2.4-8.08,3.64-12.88c8.75-6.94,18.39-9.32,29.49-7.85c8.92,1.18,17.93,1.54,26.41,4.98c2.67,1.08,5.25,2.3,7.58,4.04
		c1.93,1.45,1.79,2.34-0.47,3.24c-6.51,2.59-12.84,5.61-18.8,9.27c-4.42,2.72-9.14,5.24-11.49,10.32L323.63,320.73z"/>
	<path class="st33" d="M272.67,328.38c-4.77,3.76-10.02,6.62-16.05,7.62c-7.91,1.32-14.78-1.21-20.83-6.28
		c-1.69-2.76-5.49-4.15-5.26-8.14c1.49-1.27,3.13-0.68,4.64-0.2c8.54,2.68,17.3,2.41,26.04,1.9c3.77-0.22,7.22-1.88,10.57-3.59
		c-4.07,1.67-8.3,2.68-12.64,3.31c-5.06,0.74-9.97,0.47-14.71-1.64c-1.71-0.76-3.51-1.32-5.32-1.82c-5.74-1.56-6.21-2.97-2.73-8.04
		c2.16-1.9,5-2.04,7.55-2.92c6.66-2.28,13.63-3.76,19.62-7.65c-1.55-0.59-2.53,0.64-3.72,1.13c-1.37,0.56-2.72,1.32-4-0.15
		c11.96-7.35,17.25-19.39,22.22-31.77c1.3,11.47,1.92,22.85,2.22,34.25C280.51,313.34,278.64,321.47,272.67,328.38z"/>
	<path class="st34" d="M255.84,301.92c2.04,0.65,3.43-0.91,5.13-1.44c1.24-0.38,2.82-2.83,4.09,0.06
		c-5.25,4.18-11.79,5.26-17.88,7.35c-5.89,2.02-12.01,3.36-17.66,6.1c-0.57,0.27-1.14,0.42-1.67-0.08
		c-2.15-5.11-2.87-10.5-3.23-15.97c0.31-0.8,0.89-1.28,1.7-1.52c6.62-0.75,11.87-4.66,17.49-7.69c2.55-1.38,4.81-3.29,7.71-3.99
		c0.36,1.75-1.21,2.14-2.13,2.92c-4.81,4.09-9.88,7.88-14.04,12.7c-1.47,1.71-2.76,3.38-1.23,5.63c1.56,2.29,3.49,3.24,6.35,1.95
		c3.61-1.63,7.37-2.91,11.07-4.34C253.37,304.05,254.16,301.86,255.84,301.92z"/>
	<path class="st35" d="M186.04,256.18c-0.46,2.97,0.38,5.62,2.34,7.78c3.04,3.35,5.85,6.95,9.68,9.49c1.11,0.88,2.76,1.12,3.29,2.7
		c-0.05,0.57-0.48,0.81-0.93,1.03c-6.9-3.43-10.83-9.9-15.99-15.87c-1.23,3.91-0.26,7.35,0.1,10.78c-3.74-1.9-6.64-4.73-8.82-8.25
		c-2.46-3.96-1.75-7.21,1.93-10.09c0.1-0.08,0.19-0.16,0.29-0.23c2.08-1.33,4.44-4.02,6.19-3.67
		C186.41,250.33,184.9,254.11,186.04,256.18z"/>
	<path class="st36" d="M257.44,266.55c2.36,1.03,2.36-2.54,4.8-2.16c-1.99,4.22-0.99,9.49-5.54,12.63
		c-1.12,0.78-2.06,1.54-3.53,1.79c-2.54,0.44-4.88,1.45-6.94,3.24c-1.98,1.72-4.35,2.81-6.75,0.42c-0.72-1.63,1.62-1.72,1.52-3.04
		C247.63,276.62,252.79,271.92,257.44,266.55z"/>
	<path class="st26" d="M371.86,332.86c2.52-1.29,5.03-2.57,7.55-3.86c3.64-0.1,7.13-1.88,10.9-0.78c1.47,0.43,2.81,0.79,3.41,2.36
		c-1.83,1.4-1.58,3.11-0.77,4.93c1.23,2.78,0.02,4.43-3.18,4.09c-1.51-0.16-3.58,1.06-4.4-1.4c1.34-0.99,2.89-0.06,4.02-0.48
		c-1.14-0.24-2.66,0.5-4.02-0.43c-1.92-4.03-4.15-5.18-8.34-4.58C375.34,332.97,373.59,332.83,371.86,332.86z"/>
	<path class="st37" d="M240.99,279.43c0.25,0.27,1.62-0.1,0.51,0.94c-0.71,0.67-1.36,1.4-2.04,2.1c-0.72,0.49-1.45,0.97-2.16,1.48
		c-1.58,1.15-3.19,0.7-4.55-0.21c-1.44-0.97-0.84-2.47-0.3-3.73c2.44-5.7,6.27-10.55,9.79-15.58c2-2.86,4.2-5.57,6.3-8.35
		c0.43-0.56,0.75-1.46,1.64-0.51c-4.32,6.79-8.64,13.57-12.96,20.36c-0.2,0.31-0.36,0.65-0.55,0.97c-0.76,1.26-2.22,2.84-1.33,3.98
		c1.04,1.34,2.62-0.31,3.95-0.72C239.88,280,240.42,279.69,240.99,279.43z"/>
	<path class="st4" d="M381.77,325.09c-3.57-0.75-7.04-0.25-10.23-1.48c-1.06-0.41-2.2-0.88-1.67-2.41c0.4-1.14,1.09-2.12,2.46-1.77
		c5.19,1.32,10.46,0.34,15.68,0.66c1.2,0.07,2.9-0.28,3,1.4c0.1,1.73-1.61,1.36-2.78,1.64C385.97,323.7,383.74,324.48,381.77,325.09
		z"/>
	<path class="st4" d="M370.35,328.34c-4.71-0.07-9.42-0.13-14.13-0.19c-0.89-0.01-1.31-0.6-1.67-1.28c1.81-1.3,3.63-2.6,5.71-4.09
		c0.67,2.78,2.74,3.42,5.34,3.71C367.23,326.67,369.17,326.73,370.35,328.34z"/>
	<path class="st38" d="M210.97,209.59c-4.21,6.25-8.33,12.59-15.17,16.41C199.68,219.44,205.37,214.56,210.97,209.59z"/>
	<path class="st4" d="M340.24,316.14c-0.11,0.21-0.29,0.3-0.52,0.27c-1-0.07-1.85-0.31-2.71-1c-1.15-0.93-2.41-0.88-2.72,0.95
		c-0.2,1.19-1.06,1.62-1.95,2.05c-0.75,0.36-1.6,0.99-2.27-0.11c-0.44-0.71-0.31-1.46,0.24-2.07c1.51-1.64,3.73-2.37,5.19-4.13
		c0.49-0.59,1.32-0.04,1.84,0.64C338.26,313.92,339.27,315.01,340.24,316.14z"/>
	<path class="st4" d="M378.36,297.37c1.32,0.43,2.75,0.83,4.11,1.37c1.01,0.4,2.54,0.94,2.26,2.08c-0.31,1.27-1.93,1.29-3.17,1.19
		c-2.1-0.17-3.5-1.72-5.16-2.75c-0.44-0.28-0.68-0.98-0.26-1.25C376.71,297.63,377.5,297.59,378.36,297.37z"/>
	<path class="st4" d="M358.53,290.8c1.82-0.11,2.85,0.21,2.78,1.96c-0.07,1.88-1.39,1.78-2.63,1.73c-1.53-0.07-3.66-0.5-3.61-1.91
		C355.13,290.72,357.49,291.17,358.53,290.8z"/>
	<path class="st4" d="M347.92,307.33c-1.11,1.23-1.57,1.81-2.1,2.31c-1.07,1.01-2.13,2.2-3.82,1.73c-0.31-0.09-0.76-0.93-0.64-1.16
		c0.76-1.46,1.9-2.58,3.6-2.87C345.67,307.23,346.42,307.33,347.92,307.33z"/>
	<path class="st4" d="M323.62,320.73c0.48,0.3,0.95,0.61,1.43,0.91c0.44-0.8,0.77-2.27,1.96-1.03c0.75,0.78-0.39,1.54-1.05,1.98
		c-1.28,0.85-2.07,0.41-2.24-1.12c-0.03-0.24-0.06-0.49-0.09-0.73C323.63,320.73,323.62,320.73,323.62,320.73z"/>
	<path class="st39" d="M673.47,300.53c0.76-2.8,3.32-3.48,5.48-4.64c0.76-0.41,1.73-0.96,1.5-1.91c-0.23-0.99-1.32-0.93-2.2-0.97
		c-2.54-0.11-4.85,0.91-7.26,1.43c-3.99,0.86-8.02,1.55-12.16,1.92c3.97-4.46,9.64-6.28,13.9-10.1c0.76-1.35,2.17-1.5,3.46-1.9
		c8.07-2.54,16.47-3.59,24.68-5.49c1.92-0.44,3.7-0.42,5.09,1.26c3.38,3.58,6.57,7.14,5.9,12.72c-0.33,2.73-0.78,5.17-2.99,6.98
		c-5.18,1.6-10.5,1.93-15.88,1.88c-5.11-0.05-10.22,0.03-15.33-0.07C676.19,301.61,674.65,301.76,673.47,300.53z"/>
	<path class="st40" d="M769.72,254.65c1.97-5.08,0.37-10.14-0.47-15.07c-2.24-13.09-7.96-24.8-15.33-35.75
		c-0.54-0.81-1.2-1.56-1.19-3.25c4.14,3.53,6.38,7.95,8.69,12.11c3.93,7.08,7.97,14.22,10.04,22.14c2.48,9.48,3.41,19.09,0.56,28.72
		c-1.2,4.07-3.27,7.73-5.29,11.42c0.45,1.61-0.74,2.59-1.56,3.58c-5.26,6.33-12.32,10.28-19.33,14.27
		c-0.73,0.42-1.61,0.73-2.48,0.19c-0.08-2.95-0.35-5.98,2.99-7.59c4.81-1.99,8.69-5.29,12.46-8.75c5.05-4.64,7.98-10.43,9.37-17.09
		C768.52,257.9,768.46,256.06,769.72,254.65z"/>
	<path class="st41" d="M769.72,254.65c-0.51,10.57-5.09,19.07-13.4,25.46c-2.97,2.29-5.47,5.77-9.97,5.31
		c5.19-5.27,8.87-11.44,10.95-18.54c0.46-1.55,0.72-2.48,2.97-2.02c2.63,0.55,4.51-1.85,4.02-4.93c-0.51-3.16-0.67-6.15,0.54-9.2
		c0.57-1.45,1.27-3.44-0.43-4.44c-1.91-1.13-2.69,0.99-3.75,2.08c-0.25,0.26-0.56,0.46-1.64,1.35c0-2.27,0-3.9,0-5.54
		c2.29,0.71,3.28-0.17,3.24-2.53c-0.05-2.49,0-4.99,0.05-7.48c0.01-0.79,0.35-1.6,1.18-1.67c1.08-0.09,0.83,0.93,1.03,1.6
		c1.76,5.82,3.04,11.75,3.71,17.8C768.33,253.09,768.52,254.11,769.72,254.65z"/>
	<path class="st42" d="M705.96,280.13c-1.29-0.52-2.59-0.82-3.99-0.5c-9.73,2.28-19.61,3.9-29.24,6.64
		c-15.05,3.67-30.05,7.43-40.98,19.81c0.8-3.39,3.31-5.46,5.65-7.49c9.97-8.66,22.19-12.62,34.61-15.95
		c9.49-2.54,19.08-4.7,28.81-6.15c1.15-0.17,1.89-0.5,2.1-1.68C703.93,276.59,704.95,278.36,705.96,280.13z"/>
	<path class="st43" d="M673.47,300.53c8.14,0,16.28-0.05,24.42,0.01c3.69,0.03,7.24-1.81,10.99-0.71c-1.2,1.8-2.7,3.32-4.49,4.54
		c-0.68-1-1.74-0.87-2.71-0.83c-11.72,0.54-23.4-0.79-35.12-0.84c-4.25-0.02-8.43,0.45-12.63,0.83c0.49-2.13,2.39-2.01,3.87-2.19
		C662.99,300.72,668.22,300.29,673.47,300.53z"/>
	<path class="st20" d="M743.35,293.01c8.89-4.59,17.51-9.53,23.37-18.04c2.91,2.27,1.13,5.21-0.03,6.85
		c-3.91,5.54-9.25,9.5-16.19,10.43c-2.58,0.35-4.21,3.3-7.14,2.25C743.36,294.01,743.36,293.51,743.35,293.01z"/>
	<path class="st44" d="M728.22,275.71c-0.25-0.05-1.34-0.24-2.42-0.51c-2.58-0.66-5.01-2.39-5.05-4.73
		c-0.02-1.22,3.48-1.59,5.59-1.54c3.23,0.07,6.46-0.2,9.66,0.72c2.19,0.64,1.9,1.32,0.67,2.72
		C734.63,274.7,732.15,275.82,728.22,275.71z"/>
	<path class="st45" d="M744.04,237.25c-1.5,0-3.01,0.04-4.51-0.01c-1.24-0.05-2.24-0.7-2.54-1.88c-0.34-1.36,0.7-1.97,1.77-2.5
		c3.36-1.66,11-0.43,13.5,2.2c0.52,0.54,1.18,1.09,0.81,1.92c-0.35,0.8-1.15,0.85-1.94,0.77c-2.36-0.23-4.73-0.47-7.09-0.71
		C744.05,237.12,744.04,237.19,744.04,237.25z"/>
	<path class="st46" d="M707.76,253.9c2.51-0.67,4.74,0.92,7.06,2.05c1.03,0.51,1.69,1.53,1.4,2.82c-0.31,1.36-1.47,1.15-2.43,1.15
		c-3.23,0.02-6.54,0.41-9.38-1.72c-0.95-0.71-2.52-1.05-2.18-2.68c0.38-1.83,1.98-1.57,3.34-1.62
		C706.19,253.88,706.81,253.9,707.76,253.9z"/>
	<path class="st47" d="M740.28,243.21c5.4,0.27,10.35,2.35,14.68-1.77C752.68,248.17,746.88,248.98,740.28,243.21z"/>
	<path class="st48" d="M718.03,243.47c-2.48,2.47-5.3,3.53-8.52,3.68c-3.75,0.18-4.82-2.4-5.87-5.89
		C708.19,245.65,713.22,243.48,718.03,243.47z"/>
	<path class="st7" d="M680.25,444.96c17.03-3.41,34.29-3.45,51.52-2.94c14.84,0.44,29.5,2.87,44.12,5.33
		c2.41,0.4,3.95,1.18,3.77,4.31c-0.18,3.01,0.2,6.17,1.35,9.1c1.96,2.59,2.04,5.78,2.7,8.77c0.94,4.26,2.21,8.37,4.55,12.09
		c0.59,1.12,1.2,2.24,0.25,3.47c-8.99,2.21-17.26,6.4-25.86,9.68c-4.09,1.56-7.85,3.73-12.41,3.27c-0.37-0.04-0.8,0.04-1.08,0.25
		c-4.88,3.58-10.52,2.52-15.96,2.61c-4.5,0.07-9.02-0.18-13.51,0.05c-12.8,0.67-24.15-4.02-35.42-9.17
		c-3.43-1.57-6.83-3.1-9.54-5.81c-2.31-2.31-4.06,0.93-6.17,0.66c-1.69-1.65-0.49-3.09,0.63-4.09c2.8-2.5,3.75-5.74,4.26-9.23
		c1.04-4.29,2.14-8.57,3.17-12.87c1.45-3.16,1.09-6.51,1.05-9.82C677.62,448.31,677.87,446.15,680.25,444.96z"/>
	<path class="st49" d="M677.32,460.75c-0.99-2.43,2.31-5.57-0.39-7.2c-2.02-1.22-5.06-0.72-7.64-1.05
		c-2.91-0.37-5.89-0.35-8.66-1.51c0.27-1.72,1.63-1.97,2.99-2.28c5.54-1.24,11.07-2.5,16.61-3.75c-1.54,1.58-1.51,3.56-1.55,5.59
		C678.61,453.99,679.52,457.59,677.32,460.75z"/>
	<path class="st50" d="M668.2,486.29c4.98-2.99,4.92-2.91,9.86,1.18c3.05,2.53,6.96,3.66,10.44,5.42
		c5.94,3.02,12.88,3.67,18.98,6.57c0.95,0.45,2.2,0.37,3.31,0.37c10.15,0.03,20.3,0.02,30.45,0.02c0.25,0,0.56,0.1,0.74-0.01
		c5.5-3.34,12.5-1.59,17.92-5.38c1.48-1.03,3.47-1.3,5.19-2c5.76-2.34,11.8-4.01,17.26-7.07c2.01-1.13,4.19-0.3,6.26-0.69
		c2.08-0.66,2.14,1.15,2.66,2.27c3.5,7.6,4.87,15.86,7.06,23.85c0.76,2.77,1.52,4.53,4.54,4.84c1.47,0.15,2.83,0.91,4.2,1.5
		c1.54,1.32,3.62,1.1,5.36,1.87c0.33,0.25,0.51,0.58,0.55,0.99c-0.05,0.38-0.12,0.93-0.42,0.99c-4.73,0.98-8.8,4.12-13.9,3.96
		c-4.75-0.15-9.52-0.09-14.27,0c-4.42,0.08-7.62,1.74-10.15,5.78c-3.42,5.47-6.7,11.12-11.21,15.86c-1.47,1.55-1.18,2.66,0.99,3.1
		c1.61,0.33,3.24,0.27,4.87,0.25c2.76-0.03,5.47,0.17,8.17,0.93c4.03,1.14,5.58,0.31,7.85-3.14c4.18-6.36,9.92-11.1,16.31-15.09
		c1.33-0.83,2.89-0.69,4.39-0.75c6.2-0.22,8.98-2.82,9.38-9.07c0.17-2.7,1.93-2.85,3.89-2.98c7.01-0.31,13.42,2.59,20.15,3.8
		c3.78,0.68,7.44,1.99,11.33,2.37c1.91,0.18,4.08,0.25,5.15,2.42c0.19,1.63,1.43,1.45,2.55,1.47c5.09,0.09,9.38,1.48,11.68,6.62
		c1.34,2.98,4.29,4.62,6.79,6.28c6.38,4.23,11.88,9.66,18.55,13.46c0.53,0.3,1.2,0.77,1.68,0.65c5.28-1.3,6.85,2.89,9.11,6.06
		c0.03,3.26,0.06,6.53,0.09,9.79c1.39,1.68,1.07,3.59,0.44,5.34c-5.29,14.67-15.31,24.08-30.52,28.25
		c-10.42,2.85-20.93,2.29-31.23,0.93c-9.2-1.21-18.05-4.77-26.95-7.68c-6.61-2.16-13.47-3.8-20.06-5.9
		c-8.49-2.71-17.5-2.76-25.76-6.1c-1.25-1.05-2.76-1.02-4.27-1.02c-3.26,0-6.52-0.1-9.77,0.03c-3.17,0.13-5.86-0.49-8.1-2.99
		c-1.7-1.9-4.13-2.24-6.6-1.9c-3.12,0.43-6.23,0.71-9.29-0.4c-1.67-0.6-2.61,0.12-3.14,1.68c-0.52,1.53-0.9,3.14-2.04,4.4
		c-4.3,3.13-9.55,2.81-14.39,3.53c-6.45,0.95-12.74,2.6-19.04,4.02c-12.65,2.84-24.98,7.05-37.74,9.54
		c-9.42,1.83-18.83,3.58-28.34,5c-12.56,1.88-24.92,1.68-37.28-0.44c-16.77-2.88-30.42-10.61-37.7-26.81
		c-1.71-3.81-3.97-7.93-1.94-12.51c0.05-0.99,0.09-1.99,0.14-2.98c1.32-5.62,6.64-7.2,10.56-9.99c4.28-3.05,7.89-6.77,11.87-10.12
		c2.25-1.89,3.65-3.99,3.4-7.26c-0.14-1.88,6.52-6.47,8.62-6.46c2.73,0.02,4.84-1.37,6.95-2.83c2.49-3.06,6.26-2.87,9.58-3.47
		c7.34-1.32,14.67-3.01,22.22-2.3c5.88,0.12,11.78,0.23,17.66,0c6.04-0.23,10.84,2.75,15.24,6.01c7.66,5.66,13.98,12.73,20.01,20.18
		c4.35,5.36,10.66,8.92,16.33,13.01c8.41,6.07,18.12,8.65,27.92,11.04c4.21,1.03,6.43-1.11,8.12-4.95
		c2.3-5.24,2.26-10.98,4.42-16.21c1.7-4.14,1.14-5.33-2.5-7.81c-1.65-1.12-2.17-2.69-2.39-4.46c-0.59-4.85-3.07-9.03-5.2-13.19
		c-2.91-5.69-10.63-7.82-17.11-5.23c-3.28,1.31-6.61,2.35-10.02,3.15c-5.42,1.28-10.42,0.36-14.88-3.15
		c-4.62-3.63-8.52-8.14-13.73-11.06c-1.43-0.81-2.75-1.74-4.45-1.8c-2.65-0.08-3.86-1.48-3.78-4.08
		c-0.17-6.12,2.29-11.56,4.42-17.08C666.03,487.57,666.84,486.56,668.2,486.29z"/>
	<path class="st0" d="M807.41,518.04c-2.48-0.3-4.65-1.75-7.25-1.74c-1.52,0-2.3-1.27-2.56-2.79c-1.59-9.48-4.37-18.62-7.67-27.63
		c-0.25-0.68-0.68-1-1.31-1.17c-0.31-0.95-0.62-1.9-0.93-2.86c7.39-0.02,14.78-0.01,22.17-0.07c1.99-0.02,4.24,0.12,4.21-2.91
		c12.57,17.45,29.38,30.81,44.37,45.93c1.22,1.23,2.44,2.41,3.47,4.13c-2.37,0.53-4.34-1.06-6.42-0.47
		c-6.28-1.99-12.84-2.76-19.23-4.3c-5.74-1.38-11.43-3.71-17.55-3.31c-1.74-1.61-4.39,0.47-6.04-1.5l-0.02,0.01
		C811.02,518.42,809.03,518.96,807.41,518.04z"/>
	<path class="st51" d="M907.44,541.17c0.15-1.49-0.43-3.84,2.06-3.46c3.1,0.47,2.51,3.59,3.01,5.73c0.29,1.27-0.59,2.7-2.04,2.48
		C907.91,545.54,907.17,543.59,907.44,541.17z"/>
	<path class="st52" d="M914.86,539.59c0.14-1.54,0.23-3.22,1.85-3.4c1.78-0.2,2.49,1.3,2.7,2.91c0.23,1.81,0.98,3.68-0.38,5.34
		c-0.53,0.65-1.45,0.66-2.06,0.27C915.02,543.49,915.25,541.33,914.86,539.59z"/>
	<path class="st53" d="M668.2,486.29c-3.62,6.01-5.61,12.52-6.11,19.51c-0.13,4.74-3.71,5.73-7.28,7.24
		c-6.7,2.83-13.7,3.81-20.81,4.42c-3.31,0.28-5.85,1.38-6.29,5.14c-0.14,1.18-0.77,2.1-1.76,2.76c-11-0.17-21.68,1.82-32.21,4.77
		c-0.75-0.05-1.5-0.08-2.24-0.16c-0.58-0.06-1.38,0.23-1.61-0.52c-0.24-0.78,0.22-1.5,0.82-1.97c6.86-5.49,12.55-12.2,18.99-18.12
		c9.76-8.97,19.51-17.97,27.24-28.89c0.91-1.29,0.97-3.2,2.7-3.91c0.01,5.46,0.22,5.29,5.82,5.05c6.82-0.29,13.68,0.06,20.52,0.22
		c3,0.07,5.2-0.66,5.26-4.19c0.04-2.04,2.19-2.57,2.94-4.09c-0.23,3.62-1.03,6.97-4.16,9.31
		C668.89,483.67,668.28,484.86,668.2,486.29z"/>
	<path class="st54" d="M541.12,548.84c-0.04,2.19,0.15,4.72-2.47,4.88c-2.05,0.12-2.26-2.21-1.96-3.72
		c0.36-1.83-0.55-4.83,2.55-4.96C542.15,544.91,540.69,547.57,541.12,548.84z"/>
	<path class="st55" d="M529.09,548.27c0.65-1.48-0.18-4.27,2.74-4.59c1.25-0.14,2.52,1.1,2.13,2.43c-0.58,1.96,0.13,4.91-2.65,5.51
		C529.38,552.04,529.05,550.2,529.09,548.27z"/>
	<path class="st56" d="M528.26,535.97c1.09-1.67,2.35-3.12,4.55-3.22c2.32,0.71,1.91,2.46,1.07,3.81c-0.86,1.39-1.98,3.13-3.93,2.94
		C527.88,539.3,528.42,537.36,528.26,535.97z"/>
	<path class="st57" d="M549.49,551.66c-0.2,1.25,0.42,2.89-1.51,3c-1.94,0.11-1.64-1.47-1.69-2.67c-0.06-1.58,0.23-3.52,1.96-3.51
		C550.33,548.49,548.92,550.68,549.49,551.66z"/>
	<path class="st58" d="M193.57,422.25c-1.76,0.35-3.51,0.7-5.27,1.05c-5.13,1.73-10.37,0.73-15.58,0.62
		c-2.33-1.19-2.94-3.71-4.38-5.6c-0.73-2.8-3.56-4.71-3.37-7.91c3.7,0.53,3.99,4.19,5.43,6.49c2.42,3.89,5.35,5.47,9.76,4.72
		c1.05-0.18,2.07-0.22,2.14-1.56c0.57-12.12-1.66-23.47-9.24-33.33c-0.07-0.09-0.08-0.23-0.12-0.35c2.25,0.57,5.45,3.04,8.01,6.47
		c3.85,5.17,6.49,10.8,6.74,17.43c0.09,2.32,0.87,4.63,1.48,6.91c0.63,2.33,2.02,0.81,2.79,0.24c5.81-4.24,10.33-9.36,10.88-17.36
		C205.08,406.08,201.5,419.06,193.57,422.25z"/>
	<path class="st59" d="M113.88,447.17c-0.16,0.59-0.2,1.27-0.51,1.77c-1.48,2.36-3.62,4.33,0.58,6.65c1.97,1.09,1.56,4.53,1.86,6.96
		c0.12,1-0.93,2.37,0.53,2.89c1.1,0.39,1.5-1.02,2.15-1.71c0.21-0.22,0.58-0.29,0.96-0.47c-1.27,5.59-4.92,8.77-9.92,8.76
		c-1.62,0-3.25-0.06-4.87,0.01c-2.37,0.11-4.07-0.35-3.03-3.37c-2.58-0.27-2.44,2.84-5.37,3.29c2.17-3.04,4.01-5.43,5.64-7.94
		c3.22-4.97,7.39-9.39,8.91-15.35C111.15,446.76,112.21,446.34,113.88,447.17z"/>
	<path class="st60" d="M169.21,417.89c0.51,1.89,2.98,2.79,2.6,5.14c-0.47,1.01-1.37,1.54-2.38,1.62
		c-6.53,0.49-12.7,2.65-19.06,3.93c-1.98,0.05-3.55-0.7-4.59-2.42c-0.65-2.06-2.38-3.1-4.03-4.23c-1.11-0.76-2.45-1.3-2.96-2.73
		c2.43-1.26,4.51,0.26,6.64,0.94c3.73,1.2,7.39,2.63,11.34,3.01c3.04,0.29,3.98-1.17,3.79-3.98c-0.32-4.78-2.8-8.62-5.18-12.53
		c-0.98-1.61-2.44-3.25-0.91-5.33c5.72,3.14,9.13,8.42,12.61,13.63C167.77,415.95,167.99,417.28,169.21,417.89z"/>
	<path class="st61" d="M85.92,458.81c3.25-4.65,3.37-9.88,3.94-15c0.15-1.35,1.08-2.42,2.42-2.53c5.07-0.43,10.18-0.95,15.22-0.01
		c2.78,0.52,1.44,2.37,0.58,3.66c-2.05,3.06-5.49,4.35-8.54,5.89C94.9,453.16,90.07,455.1,85.92,458.81z"/>
	<path class="st62" d="M150.16,427.71c7.1-2.08,14.32-3.63,21.64-4.68c5.5,0.1,11.01-0.49,16.5,0.27c0.26,1.2,3.25-0.66,2.22,1.98
		c-0.76,1-1.84,0.99-2.93,0.95c-0.43-0.03-0.85-0.1-1.26-0.21c-5.01-0.56-10.01-0.6-15.01,0.06c-2.99,0.4-6.01,0.7-8.94,1.46
		c-0.57,0.16-1.15,0.28-1.74,0.36c-6.56,1.08-12.85,2.96-18.82,5.97c-1.63,0.82-3.33,1.81-5.33,1.49c-8,3.06-15.71,6.68-22.63,11.81
		c-1.29-0.05-2.37,0.31-3.06,1.49c-3.78,2.27-7.56,4.55-11.34,6.82c6.53-6.09,14.37-10.09,21.95-14.77
		c-8.18-0.03-16.2-1.09-24.73-1.24c0.93-1.45,1.89-1.23,2.62-1.13c7.93,1.16,16-0.18,23.92,1.26c0.41,0.07,0.9-0.32,1.35-0.49
		C132.5,433.94,140.8,429.64,150.16,427.71z"/>
	<path class="st63" d="M136.51,435.36c7.61-3.87,15.53-6.84,23.97-8.36c1.05,1.18,0.14,2.46,0.19,3.7c-0.07,0.55-0.22,1.09-0.44,1.6
		c-2.36,3.21-2.59,7.63-5.86,10.33c-1.28-1.26-0.04-2.29,0.34-3.38c0.37-1.05,1.17-2.07,1.19-3.11c0.03-1.88,1.06-4.09-0.95-5.58
		c-1.87-1.38-3.6,0-5.27,0.65c-6.75,2.66-10.54,8.54-14.81,13.87c-1.86,2.33-3.44,4.9-5.94,6.66c1.6-4.61,5.45-8.02,6.83-12.77
		C136.11,437.78,136.56,436.64,136.51,435.36z"/>
	<path class="st64" d="M150.16,427.71c-8.66,3.49-17.24,7.17-25.58,11.4c-1.06-1.52,0.48-1.59,1.18-1.92
		c5.39-2.48,10.12-6.18,15.69-8.32c2.23-0.86,2.1-2.15,0.54-3.62c-2.45-2.32-5.54-3.65-8.34-5.44c-0.88-0.56-2.4-0.44-2.38-2.05
		c6.13,0.56,11.05,3.37,14.98,8.02C147.28,426.99,148.46,427.87,150.16,427.71z"/>
	<path class="st65" d="M146.25,425.78c-4.6-3.41-9.14-6.93-14.98-8.02c-6.1-2.43-12.55-2.27-18.94-2.46
		c9.18-1.12,17.99,0.23,26.46,3.9C141.56,421.07,145.34,421.81,146.25,425.78z"/>
	<path class="st62" d="M169.21,417.89c-1.71-0.19-1.94-1.8-2.63-2.88c-3.34-5.18-7.21-9.88-12.09-13.69
		c3.03-0.35,3.87,2.53,5.65,3.96c1.82,1.46,3.24,3.41,4.84,5.14C166.33,412.94,168.29,415.12,169.21,417.89z"/>
	<path class="st66" d="M398.99,401.27c-2.88,2,0.3,2.65,1.16,4.54c-6.03,0.23-11.08,3.18-16.64,4.68c-3.79,1.02-5.8-0.68-8.02-2.88
		c-3.18-3.17-6.51-6.21-8.86-10.11c0.23-0.55,0.57-0.94,1.23-0.9c3.67,2.8,6.43,6.48,9.09,9.1c0.59,1.24,0.98,0.62,0.58,0.92
		c-0.05,0.04-0.15-0.05-0.23-0.29c-1.94-5.53-1.87-11.03,0.97-16.18c2.39-4.34,4.07-4.58,8.22-2.04
		C390.49,392.67,395,396.72,398.99,401.27z"/>
	<path class="st67" d="M328.19,350.95c-5.38-4.54-11.58-7.66-18.05-10.3c-4.02-1.6-8.22-2.85-11.18-6.32
		c-2.26-2.47-5.74-1.46-8.36-2.89c1.74-0.2,3.48-0.22,5.18,0.29c2.01,0.6,2.1-0.49,1.76-1.98c0.21-0.04,0.42-0.07,0.63-0.09
		c4.38,1.15,7.95,3.94,11.86,6.02c3.05,1.62,6.07,3.37,8.93,5.34c7.2,3.66,14.28,7.54,20.86,12.26c1.11,1.21,2.71,1.54,4.08,2.29
		c8.68,5.2,17.45,10.23,26.45,14.87c10.41-1.92,20.9-3.21,31.44-4.22c-9.87,2.5-19.95,3.83-31.07,5.37
		c8.4,4.71,16.49,8.03,24.35,11.8c0.04,1.31-0.64,1.11-1.42,0.68c-3.49-1.53-6.99-3.05-10.48-4.58c-1.06-0.66-2.37-0.23-3.45-0.82
		c-2.3-0.84-4.46-2-6.78-2.79c-6.41-3.14-12.68-6.58-19.2-9.51c-6.99-4.32-13.95-8.67-21.14-12.65
		C331.07,352.88,329.4,352.27,328.19,350.95z"/>
	<path class="st68" d="M416.38,388.31c-6.57-5.6-15.16-5.94-22.47-9.33c-2.22-1.03-4.13-2.34-5.49-4.34
		c-1.53-2.26-0.8-4.38,1.87-4.73c5.56-0.72,11.17-1.11,16.76-1.63c2.65-0.25,3.95,1.51,3.75,3.62
		C410.19,378.24,412.78,383.3,416.38,388.31z"/>
	<path class="st69" d="M328.19,350.95c1.35-0.22,2.36,0.55,3.43,1.18c6.85,4.02,13.7,8.04,20.56,12.05
		c0.74,0.43,1.66,0.65,1.65,1.77c0.25,0.3,0.46,0.62,0.64,0.96c0.39,9.57,4.14,17.87,9.59,25.55c0.9,1.27,2.23,2.45,1.8,4.32
		c-3.36-1.28-4.64-4.65-6.79-7.06c-5-5.64-7.52-12.78-10.72-19.5c-1.94-4.07-4.12-7.97-7.68-10.91c-5.24-4.34-9.78-2.71-11.78,3.71
		c-1.74,5.57-0.5,11.08-0.69,16.61c-0.06,1.7,0.58,3.5-0.56,5.08c-2.61-4.45-1.76-9.46-1.86-14.17c-0.13-6.16,0.14-12.43,1.73-18.49
		C327.74,351.67,327.96,351.31,328.19,350.95z"/>
	<path class="st70" d="M370.35,370.42c-1.5,0.53-2.63-0.41-3.81-1.02c-7.93-4.08-15.65-8.53-23.24-13.22
		c-0.99-1.46,0.03-2.39,0.98-3.17c6.53-5.38,13.73-9.51,21.99-11.59c0.36-0.09,0.72,0.15,1.02,0.38c0.66,1.93-1.21,1.75-2.03,2.2
		c-4.76,2.66-9.82,4.75-14.17,8.18c-2.05,1.61-2.26,2.53-0.07,4.19c5.72,4.34,11.6,8.44,17.72,12.18
		C369.5,369.01,370.34,369.35,370.35,370.42z"/>
	<path class="st71" d="M327.51,352.04c-0.24,6.32-1.17,12.59-0.98,18.94c0.14,4.6,0.34,9.18,1.11,13.72
		c1.17,6.8,3.32,13.32,5.67,19.81c-2.69-3.13-3.17-7.26-5.08-10.71c-2.31-2.65-1.39-6.08-2.19-9.09c-1.33-9-1.83-18.01-0.21-27.04
		C326.19,355.71,326.42,353.75,327.51,352.04z"/>
	<path class="st72" d="M367.29,341.8c-8.64,2.45-16.23,6.83-23.16,12.47c-0.62,0.5-1.05,1.05-0.84,1.91
		c-1.29-0.69-3.04-0.62-3.77-2.25c2.98-0.8,5.21-2.79,7.53-4.66c4.82-3.87,10.06-6.88,16.35-7.61c7.13-2.41,14.38-4.2,21.96-4.36
		c1.23,0.06,2.46,0.12,3.68,0.17c0.01,0.15,0.02,0.31,0.03,0.46c-1.24,0.09-2.48,0.18-3.72,0.27
		C379.17,338.55,373.14,339.68,367.29,341.8z"/>
	<path class="st73" d="M365.86,396.77c-5.22-7.34-10.38-14.73-11.67-23.97c-0.27-1.96-0.23-3.97-0.33-5.96
		c2.11,0.15,1.84,2,2.14,3.26c0.59,2.4,0.78,4.89,1.57,7.25c1.77,4.81,4.04,9.35,6.92,13.61c1.21,1.79,3.14,3.29,2.93,5.82
		c-0.25,0.23-0.51,0.47-0.76,0.7C366.38,397.25,366.12,397.01,365.86,396.77z"/>
	<path class="st74" d="M380.07,378.06c1.21,0.07,2.28,0.45,3.09,1.41c-2.45,0.77-0.27,1.78,0.07,2.24c5.1,6.89,10,13.98,17.02,19.17
		c0.24,0.18,0.34,0.53,0.53,0.82c-0.85,0.41-1.23-0.28-1.78-0.44c-4.62-3.9-8.85-8.2-12.83-12.74
		C383.14,385.62,380.14,382.69,380.07,378.06z"/>
	<path class="st75" d="M393.65,384.05c0.54-0.09,1.13-0.07,1.42-0.68c7.18,3.12,14.36,6.25,21.54,9.37
		c-0.13,0.31-0.26,0.62-0.39,0.92C408.57,390.76,401.04,387.58,393.65,384.05z"/>
	<path class="st13" d="M326.05,384.7c0.73,3.03,1.46,6.06,2.19,9.09c-2.04-0.16-2.31-1.56-2.25-3.2c0.05-1.51,0.05-3-0.74-4.36
		C325.89,385.93,325.92,385.29,326.05,384.7z"/>
	<path class="st13" d="M329.15,406.45c2.08,1,3.24,1.95,3.61,3.76C330.25,409.86,330.25,409.86,329.15,406.45z"/>
	<path class="st13" d="M321.5,370.43c1.01,1.89,1.52,3.91,1.43,6.06C319.64,375.13,321.44,372.58,321.5,370.43z"/>
	<path class="st13" d="M342.13,417.41c-0.36-1-2.3-1.37-0.69-2.86c0.3-0.28,0.59-0.98,1.11-0.3
		C343.34,415.28,343.22,416.3,342.13,417.41z"/>
	<path class="st13" d="M335.76,403.58c0.33,0.67,1.86,0.14,1.5,1.51c-0.5,0.56-0.52,2.11-1.49,1.55
		C334.58,405.95,334.68,404.61,335.76,403.58z"/>
	<path class="st76" d="M298.96,334.32c3.7,2.16,7.8,3.6,11.18,6.32c-0.21,0.16-0.42,0.32-0.63,0.48c-1.7,2.93-2.04,6.57-4.74,8.97
		c-3.37-10.89-3.68-8.38-11.36-4.73c-0.79,0.37-1.57,0.82-2.41,1.01c-10.52,2.44-15.76,10.03-19.28,19.45
		c-2.11,5.65-4.45,11.19-2.08,17.41c-4.5-5.99-4.63-18.08-0.21-24.85c6.49-9.96,15-17.58,26.5-21.36
		C297.43,336.53,298.63,335.99,298.96,334.32z"/>
	<path class="st77" d="M295.98,388.4c-0.07,0.49-0.13,0.98-0.2,1.48c-2.62-3.88-2.91-15.26-0.75-20.04
		c2.17-4.81,4.36-9.62,6.57-14.41c0.2-0.44,0.34-1.39,1.23-0.61c0.87,1.11,0.18,2.19-0.19,3.18
		C299.01,367.83,296.42,377.88,295.98,388.4z"/>
	<path class="st78" d="M261.97,339.56c4.32-7.29,11.52-8.37,19-8.67c2.46-0.1,4.94,0.32,7.41,0.49c-3.48,2.65-7.68,3.59-11.78,3.59
		c-5.31-0.01-10.16,0.31-13.73,4.84C262.8,339.91,262.28,339.65,261.97,339.56z"/>
	<path class="st79" d="M227.54,322.34c-0.09,1.55,0.26,3.18-0.89,4.52c-3.9,3.82-7.41,8.1-12.44,10.59c-5.27,2.61-10.5,5.3-16.3,6.7
		c4.13-2.76,8.66-4.82,12.27-8.26c2.88-2.75,5.83-5.42,8.63-8.24c1.6-1.61,0.84-2.49-1.17-2.27c-4.95,0.53-9.89,1.2-14.83,1.79
		c-10.51,1.26-20.37-0.64-29.49-6.11c-0.27-0.16-0.37-0.6-1.11-1.88c4.27,2.55,8.01,3.17,12.04,3.34
		c5.74,0.24,11.45-0.05,17.13-0.32c6.44-0.31,12.79-1.71,19.07-3.5c3.95-1.13,3.2-3.71,3.2-6.36c-0.01-3.13-2.32-2.51-4.26-2.79
		c-4.55-0.66-9.08-1.52-13.62-2.31c-0.06-0.01-0.15-0.23-0.15-0.23c0.28-0.19,0.56-0.36,0.85-0.54c1.82-1.45,3.61,0.09,5.38,0.19
		c3.27,0.2,6.59,0.11,9.62,0.48c-1.05-0.56-2.49-0.14-3.85-0.19c-10.08-0.37-19.6-3.14-28.95-6.66c-0.69-0.26-1.33-0.68-1.8-1.3
		c3.49-1.39,7.05-0.7,10.59-0.29c6.29,0.72,12.55,1.94,18.91,0.43c1.44-0.34,2.74-0.65,3.28-2.06c0.65-1.66-0.79-2.52-1.76-3.39
		c-4.42-4.01-8.94-7.92-13.35-11.95c-0.59-0.53-1.92-0.9-1.24-2.24c2.81-0.2,4.83,1.73,7.12,2.8c3.95,1.86,8.45,2,12.24,4.24
		c2.01,4.34,1.02,9.06,1.74,13.57c1.02,6.36,1.85,12.76,3.33,19.05C228.01,320.19,228.3,321.31,227.54,322.34z"/>
	<path class="st80" d="M186.89,298.97c11.26,4.71,23.04,7.12,35.18,8.03c-5.22,0.56-10.42,0.5-15.58-0.56
		c-7.04-1.99-14.13-3.82-20.88-6.72c-3.72-1.6-7.28-3.47-10.1-6.62C179.3,295.07,183.1,297.02,186.89,298.97z"/>
	<path class="st81" d="M222.24,286.17c-7.03-0.19-13.07-3.17-18.91-6.7c-0.97-0.76-1.94-1.51-2.91-2.27
		c0.26-0.26,0.52-0.52,0.78-0.78c1.1-0.33,1.97,0.27,2.78,0.81c5.55,3.73,11.87,5.69,18.07,7.92
		C222.35,285.44,222.41,285.78,222.24,286.17z"/>
	<path class="st82" d="M720.72,29.83c0.53,0.77,1.06,1.54,1.59,2.31c2.15,3.93,3.06,8.3,3.11,12.61
		c0.14,12.23,1.18,24.47-1.78,36.62c-4.3,17.67-14.13,31.01-29.84,40.01c-14.13,8.09-29.59,11.17-45.67,11.78
		c-0.62,0.02-1.25,0.08-1.8-0.32c-0.99-0.23-1.97-0.46-2.96-0.69c-20.07-10.58-33.18-26.44-37.19-49.16
		c-5.02-28.42,10.37-57.71,36.74-69.96c26.79-12.45,58.65-5.68,77.2,16.39C720.27,29.6,720.52,29.69,720.72,29.83z"/>
	<path class="st83" d="M646.33,132.84c8.78-1.45,17.84-1.44,26.39-3.94c10.38-3.03,20.34-7.13,28.95-14.07
		c16.29-13.15,22.66-30.69,22.9-50.94c0.09-7.73,0.66-15.5-0.72-23.2c-0.51-2.86-1.03-5.71-1.55-8.56
		c17.07,19.92,18.61,51.9,3.64,75.45c-16.49,25.93-49.62,37.02-77.99,26.1C647.39,133.48,646.87,133.13,646.33,132.84z"/>
	<path class="st84" d="M1081.88,75.63c-1.99,3.13-0.01,6.26-0.01,9.39c-0.01,55.63-0.03,111.26,0.03,166.89
		c0,3.62-2.32,6.79-1.68,10.5c0.15,0.84-0.77,1.19-1.58,1.22c-1,0.03-2,0.04-3.01,0.04c-58.26,0-116.52,0-174.79,0
		c-5.49,0-5.5-0.01-5.5-5.27c0-59.39,0-118.78,0-178.17c0-4.52,0.01-4.45,4.74-4.2c1.84,0.1,3.71-0.36,5.56-0.36
		c55.26-0.02,110.51-0.02,165.77,0.02c1.78,0,3.96-0.93,4.76,2.16c0.38,1.48,2.09,0.63,2.45-0.52
		C1079.19,75.47,1080.53,75.68,1081.88,75.63C1081.89,75.64,1081.88,75.63,1081.88,75.63z"/>
	<path class="st85" d="M228.45,314.09c0.16-0.19,0.31-0.37,0.47-0.56c2.59-1.43,5.32-2.23,8.32-1.76c-0.48,0.73-0.99,1.43-1.42,2.19
		c-1.19,2.09-1.42,3.67,1.72,4.14c5.29,0.8,9.84,4.25,15.39,4.25c7.54-0.01,14.71-1.51,22.01-5.43c-0.99,2.51-2.31,3.43-3.96,4.38
		c-5.28,3.02-11.05,3.09-16.85,3.36c-6.8,0.31-13.42-0.67-19.93-2.48c-1.22-0.34-2.4-0.61-3.66-0.59c-0.25-0.53-0.5-1.06-0.75-1.59
		C228.63,318.18,226.62,316.57,228.45,314.09z"/>
	<path class="st86" d="M228.45,314.09c-0.7,2.23,1.84,3.72,1.33,5.9c-0.66,0.87,1.01,3.95-2.24,2.36c-3.47-11.81-4.36-24-5.3-36.18
		c0.07-0.2,0.07-0.39,0-0.59c-0.92-0.98-1.1-2.19-1.13-3.46c-0.17-7.33-1.13-14.63-0.87-21.97c0.09-0.64-0.07-1.33,0.35-1.91
		c-0.01-1.89-0.01-3.79-0.02-5.68c-0.05-0.93-1.01-2.2,0.89-2.42c0.06,0.99,0.13,1.99,0.19,2.98c3.15,7.51,2.79,15.5,3.17,23.38
		c0.47,4.79-0.03,9.64,1.33,14.38c0.62,2.15,0.23,4.44-0.61,6.58C225.74,303.13,227.33,308.57,228.45,314.09z"/>
	<path class="st87" d="M231.13,327.29c2.54,4.62,3.24,9.17,3.88,13.73c2.38,16.83,3.24,33.78,3.91,50.75
		c0.79,19.99,1.38,39.98,1.4,59.99c0,0.72-0.11,1.45-0.39,2.17C237.45,411.91,239.78,369.55,231.13,327.29z"/>
	<path class="st88" d="M170.96,425.3c5.31-0.99,10.62-0.97,15.93,0.03c-1.39,1.52-3.31,0.72-4.95,1.12
		c-0.77,0.19-1.51,0.55-1.36,1.48c0.14,0.84,0.92,0.68,1.51,0.55c2.72-0.6,4.52,0.89,6.2,2.67c1.98,2.09,3.8,4.32,5.53,6.61
		c3.4,4.48,2.28,9.47,1.43,14.4c2.16-1.14,2.66-3.17,2.67-5.49c0.03-6.88-3.83-11.96-7.79-17.01c-1.02-1.3-2.93-2.1-2.53-4.26
		c0.97-0.04,1.95-0.07,2.92-0.11c3.06,1.54,6.12,3.07,9.18,4.61c4.57,2.51,8.34,5.87,10.69,10.59c2.49,5.01,1.04,9.67-3.87,12.44
		c-4.32,2.45-9.2,3.22-14,4.02c-13.38,2.24-26.6,4.94-38.74,11.35c-3.24,1.71-6.4,3.59-9.77,5.14c4.16-5.35,9.02-9.94,14.13-14.26
		c2.14,1.2,6.3-0.07,6.24-2.61c-0.11-4.81,3.49-3.78,5.82-4.87c3.51-6.68,4.8-13.98,6.03-21.3c0.46-2.74-0.19-4.38-3.35-4.16
		C172.16,426.3,171.41,426,170.96,425.3z"/>
	<path class="st89" d="M771.98,587.08c6.21,1.14,12.73,1.6,18.6,3.44c7.6,2.39,15.39,4.13,22.97,6.64
		c7.07,2.34,14.27,4.6,21.43,6.74c8.57,2.56,17.2,3.28,25.86,3.32c11.24,0.05,22.17-2.36,31.01-9.91
		c4.91-4.19,9.62-8.58,11.57-15.48c0.84-2.97,2.57-5.76,2.53-9.06c0.9-0.45,1.78-0.98,2.83-0.39c5.38,3.03,11.97,3.89,16.4,8.6
		c4.71,5.01,5.26,9.05-0.05,12.72c-8.7,6.02-18.41,9.47-28.82,11.63c-7.4,1.54-14.74,3.5-22.22,4.75c-11.65,1.93-23.37,3.39-35.06,5
		c-13.22,1.82-26.55,1.98-39.77,3.51c-4.2,0.48-8.48,0.49-12.69,0.64c-6.98,0.26-13.93,1.21-20.95,1
		c-14.88-0.46-29.74,1.01-44.63,0.77c-14.88-0.24-29.75-0.84-44.63-0.96c-16.69-0.13-33.33-2.01-49.98-3.07
		c-14.49-0.92-28.87-3.31-43.26-5.51c-13.46-2.05-26.67-4.92-39.68-8.7c-7.09-2.06-14.28-4.32-20.11-9.45
		c-3.84-3.38-4.33-7.62-0.84-11.32c4.17-4.43,9.74-6.35,15.21-8.35c4.71-1.71,9.29-4.04,14.51-3.9
		c0.45,11.23,5.91,20.16,14.04,27.15c7.88,6.78,17.67,9.66,27.96,11.45c8.62,1.5,17.2,1.49,25.78,1.13
		c6.21-0.26,12.43-1.39,18.61-2.42c3.89-0.65,7.72-1.68,11.7-2.1c5.37-0.56,10.59-2.42,15.94-3.34c7.45-1.28,14.44-4.19,21.81-5.87
		c6.38-1.46,12.93-2.44,19.17-4.52c4.66-1.55,9.57-1.53,14.33-2.47c2.32-0.46,4.56-1.12,6.85-1.66c0.68-0.59,1.46-1.01,2.35-1.03
		c6.47-0.18,12.96-0.64,19.41-0.47c5.95,0.15,11.91,0.77,17.88,0.75C769.38,586.35,770.81,586.1,771.98,587.08z"/>
	<path class="st90" d="M170.96,425.3c7.25,0.34,7.26,0.34,5.71,7.59c-1.03,4.83-1.75,9.74-3.39,14.43
		c-0.61,1.73-0.98,3.67-3.06,4.39c0.15-5.05,2.98-9.38,3.84-14.24c0.13-0.72,0.77-1.47,0.65-2.1c-0.3-1.54,1.9-3.51-0.01-4.4
		c-2.11-0.99-4.55-1.86-7.11-0.29c-4.63,2.84-6.79,7.76-10.26,11.56c-0.54,0.6-0.75,2.07-2.14,1.11c0.88-4.03,3.28-7.45,4.61-11.3
		c-0.01-0.44-0.03-0.88-0.04-1.32c0.99-1.18,1.19-2.78,2.14-3.99C164.83,425.71,167.87,425.35,170.96,425.3z"/>
	<path class="st62" d="M159.8,432.04c-0.35,4.25-2.97,7.57-4.61,11.3c-0.27-0.23-0.55-0.47-0.82-0.7
		C156.32,439.18,156.92,435.02,159.8,432.04z"/>
	<path class="st91" d="M204.91,238.13c-1.04-3.24-3.52-5.64-5.06-8.61c-1.15-2.23-1.14-4.18,1.28-4.84
		c5.4-1.47,8.57-5.14,11.12-9.99c-1.46,8.44,2.55,15.96,3.19,23.95c0.2,2.45,0.15,5.55-2.04,6.4c-2.44,0.94-3.93-1.98-5.4-3.79
		c-0.94-1.16-1.72-2.46-3.12-3.15L204.91,238.13z"/>
	<path class="st92" d="M229.7,235.08c0.29,1.55,0.6,0.76,1.12,0.07c1.49-1.95,1.02-4.52,2.35-6.63c1.03-1.64,1.64-1.77,2.61-0.46
		c3.43,4.62,7.86,8.28,11.72,12.48c2.05,2.23-1.16,3.53-1.14,5.82c-0.63-2.8-1.89-2.61-3.77-1.65c-1.97,1-4.11,1.79-6.26,2.27
		c-4.16,0.93-7.53-0.82-10.45-3.65C226.08,240.08,227.67,237.48,229.7,235.08z"/>
	<path class="st93" d="M223.88,276.47c-0.57-7.2-0.52-14.46-2.4-21.51c-0.15-0.56,0.11-1.23,0.18-1.85c2.18-1.01,0.62,1.81,2.09,1.7
		c0.94-0.47,1.52-1.64,2.41-2.48c1.31-1.23,2.79-0.88,4.02,0.21c0.98,0.88,2,1.32,3.35,1.39c4.42,0.23,4.55,0.48,3.78,4.87
		c-0.11,0.61-0.05,1.25-0.06,1.87c-0.84,5.12-5.26,7.35-8.57,10.44c-0.58,0.54-0.53,0.69-0.26,1.17
		C227.12,273.93,225.51,275.2,223.88,276.47z"/>
	<path class="st34" d="M223.88,276.47c-0.02-2.9,2.9-2.99,4.31-4.53c3.35-3.75,7.31-6.91,10.23-11.09c1.09-1.56,1.37-3.79,3.45-4.62
		c1.25,3.4-1.89,5.23-2.93,7.78c-1.88,4.63-6.17,7.7-8.62,12.07c-0.96,1.72-2.13,3.35-2.96,5.16c-1.51,3.31-2.5,6.67,0.62,9.66
		c3.02,2.89,6.22,0.71,9.06-0.22c2.89-0.95,5.41-2.96,8.14-4.44c1-0.54,1.82-1.89,3.27-0.95c-0.71,2.2-2.91,2.61-4.53,3.66
		c-4.94,3.2-10.25,5.73-15.7,7.96c-0.51,0.21-0.95,0.21-1.4-0.11c-0.42,0.21-0.84,0.43-1.27,0.64
		C224.99,290.46,224.43,283.46,223.88,276.47z"/>
	<path class="st94" d="M220.67,259.95c0.99,8.51,1.47,17.06,1.56,25.62c-7.79-1.27-14.51-5-21.03-9.16
		c-1.05-0.99-2.09-1.97-3.14-2.96c4.08,0.32,6.85,3.37,10.31,4.97c0.21,0.1,0.3,0.43,0.51,0.54c2.75,1.42,5.88,3.68,8.62,2.29
		c1.96-1,1.49-4.67,1.64-7.22c0.28-4.74-0.42-9.54,0.91-14.21C220.33,259.56,220.53,259.61,220.67,259.95z"/>
	<path class="st95" d="M226.81,296.81c7.74-2.84,14.84-6.88,21.63-11.51c6.24-4.13,11.24-9.59,16.25-15.07
		c-3.18,5.94-8.24,10.17-13.18,14.52c-6.34,4.6-12.98,8.7-20.32,11.5C229.87,296.74,228.47,298.28,226.81,296.81z"/>
	<path class="st96" d="M221.46,250.13c-0.98,0.56-0.65,1.59-0.89,2.42c-1.69-7.7-1.92-15.59-2.82-23.38
		c-0.6-5.19-1.71-10.35-1.28-15.64C218.28,225.71,220.59,237.82,221.46,250.13z"/>
	<path class="st96" d="M220.67,259.95c-0.21-0.04-0.41-0.08-0.62-0.14c-7.54-8.53-14.47-17.53-21.51-27.64
		c3.23,1.73,3.82,4.88,6.36,5.96c0,0-0.03-0.03-0.03-0.03c2.42,4.96,6.63,8.6,9.75,13.04c1.77,2.52,3.96,4.74,5.96,7.09
		C220.62,258.81,220.64,259.38,220.67,259.95z"/>
	<path class="st97" d="M241.87,256.23c-3.38,6.27-7.54,11.85-13.68,15.71c-1.61-0.12-0.77-0.56-0.17-1.09
		c3.46-3.04,6.8-6.19,9.22-10.18c3.56-3.73,5.15-8.65,7.99-12.86C244.93,250.93,242.7,253.31,241.87,256.23z"/>
	<path class="st96" d="M229.7,235.08c-1.27,2.75-2.54,5.5-3.81,8.25c-0.74,1.21-1.48,2.41-2.22,3.62
		c1.37-5.62,4.57-10.42,6.29-16.26C230.77,232.55,229.28,233.72,229.7,235.08z"/>
	<path class="st92" d="M231.22,227.84c-1.15-2.31-0.56-4.68-0.87-7.86C232.64,223,232.02,225.42,231.22,227.84z"/>
	<path class="st98" d="M318.51,341.63c-5.69-3.18-11.4-6.34-17.06-9.57c-1.17-0.67-2.19-1.6-3.28-2.41
		c-1.39-5.38-3.8-10.52-3.09-16.36c0.8-6.58,2.65-12.73,6.37-18.37c-3.92,10.02-0.93,19.56,1.38,29.42
		c4.84-3.06,7.33-7.83,10.54-11.85c6.4-8.02,14.19-13.74,24.05-16.75c-3.4,3.28-6.92,6.42-10.15,9.87
		c-6.67,7.11-12.66,14.62-16.94,23.5c-1.48,3.08-1.7,4.9,1.48,6.57c1.96,1.03,3.66,2.55,5.86,3.14
		C318.84,339.48,320.29,340.07,318.51,341.63z"/>
	<path class="st99" d="M318.51,341.63c1.01-1.32-0.67-1.84-0.84-2.82c0.51-0.48,1.02-0.95,1.52-1.43c0.86-0.69,1.58-0.34,2.26,0.29
		c1.19,1.15,1.41-0.38,1.84-0.8c7.74-7.36,16.6-13.17,25.7-18.64c0.7-0.42,1.44-1.09,2.41-0.56c1.3,2.58-1.54,3.13-2.48,4.27
		c-3.55,4.33-7.53,8.31-11.46,12.31c-2.14,2.18-3.83,4.6-4.94,7.41c-1.22,3.07-0.04,4.69,3.35,4.77c5.56,0.13,10.74-1.95,16.12-2.8
		c3.82-0.6,7.32-3.09,11.42-1.97c-7.44,2.4-14.13,6.12-19.64,11.7c-1.51,1.53-2.73,1.13-4.24,0.56
		C332.52,349.83,325.52,345.73,318.51,341.63z"/>
	<path class="st100" d="M351.41,317.68c-11.4,5.94-21.36,13.82-30.98,22.47c0.37-0.66,0.75-1.31,1.12-1.97
		c1.98-3.84,5.3-6.26,8.87-8.42c9.47-7.01,19.4-13.21,30.09-18.11c0.17,0.3,0.34,0.59,0.51,0.88
		C357.82,314.25,354.62,315.96,351.41,317.68z"/>
	<path class="st98" d="M330.43,329.76c-2.96,2.81-5.92,5.61-8.87,8.42c-0.79-0.27-1.57-0.53-2.36-0.8
		C322.55,334.26,325.66,330.79,330.43,329.76z"/>
	<path class="st101" d="M237.24,311.77c-2.77,0.59-5.54,1.17-8.32,1.76c1.37-1.91,3.64-1.92,5.58-2.54
		c10.25-3.29,20.88-5.45,30.55-10.44c0.29,1.77-1.37,1.71-2.23,2.13c-7.76,3.77-16.02,6.13-24.3,8.46
		C238.07,311.26,237.66,311.55,237.24,311.77z"/>
	<path class="st102" d="M625.95,525.35c0.3-7.12,4.37-9.17,11.02-9.21c6.82-0.05,13.36-2.26,19.68-4.92c2.2-0.92,4.6-1.42,4.33-4.62
		c-0.02-0.23,0.73-0.54,1.12-0.81c0.28,1.1-0.4,2.9,1.44,2.99c7.28,0.36,11.41,5.79,16.38,9.9c2.38,1.96,4.48,4.24,7.45,5.48
		c7.06,2.95,13.37,0,19.86-2.14c9.11-3.01,16.54-1.13,20.38,8.7c1.6,4.1,3.77,7.95,4.11,12.46c0.06,0.83,0.72,1.49,1.72,1.76
		c3.37,0.9,4.6,3.24,3.4,6.38c-2.21,5.76-2.04,12.17-5.01,17.71c-0.33,0.62-0.47,1.46-0.4,2.17c0.28,2.77-0.63,3.58-3.65,4.03
		c-8.26,1.24-15.16-2.55-22.46-4.99c-0.57-0.19-1.03-0.9-1.58-0.95c-7.02-0.64-11.21-6.35-16.59-9.72
		c-7.5-4.68-12.71-12.19-18.51-18.91c-3.59-4.16-7.8-8.21-12.55-10.84c-4.6-2.55-9.45-5.47-15.52-4.57
		C635.8,525.97,630.83,525.37,625.95,525.35z"/>
	<path class="st103" d="M812.66,519.35c2,0.56,4.56-1.12,6.04,1.5c-1.21,0.34-3.23-0.69-2.83,2.14c0.74,5.21-3.25,10.03-8.37,9.87
		c-5.82-0.19-9.31,3.14-13.44,6.57c-2.19,1.82-3.4,4.78-6.35,5.83c-1.3,0.47-1.56,2.19-2.14,3.41c-1.42,3-3.89,4.65-6.94,3.67
		c-4.54-1.47-9.1-1.22-13.7-1.41c-1.63-0.07-4.16,0.03-4.49-1.63c-0.3-1.51,1.37-3.05,2.74-4.46c2.78-2.88,5.22-6.26,7.11-9.8
		c3.69-6.91,7.9-12.36,16.97-11.21c4.06,0.51,8.25,0.04,12.37,0.11c2.07,0.04,4.12-0.3,5.72-1.44c1.63-1.16,3.19-1.79,5.15-1.62
		C811.64,520.99,812.49,520.62,812.66,519.35z"/>
	<path class="st104" d="M771.98,587.08c-14.53-0.95-29.06,0.12-43.59,0.02c0.2-0.72,0.38-1.44,0.61-2.14
		c1.65-5.14,1.63-4.99,6.8-4.03c2.16,0.4,4.46,0.33,6.7-0.16c3.35-0.73,6.4-0.35,8.61,2.71c1.18,1.64,2.77,2.22,4.84,2.15
		c4.37-0.15,8.75-0.05,13.12-0.02C770.25,585.62,771.72,585.22,771.98,587.08z"/>
	<path class="st103" d="M807.41,518.04c1.9-0.2,3.78-0.26,5.23,1.32C810.83,519.17,808.72,520.2,807.41,518.04z"/>
	<path class="st105" d="M187.61,425.39c3.21,3.49,6.24,7.11,8.56,11.29c1.61,2.9,2.41,5.93,2.75,9.21c0.47,4.47-1.77,6.89-5.83,8.76
		c0.12-2.28,1.47-3.81,1.88-5.68c2.01-9.23-4.44-13.96-9.69-19.3c-1.68-1.71-3.75,0.25-5.65,0.43c-0.61-4.73-0.61-4.72,3.89-4.67
		c1.12,0.01,2.24-0.06,3.37-0.1C187.13,425.31,187.37,425.33,187.61,425.39z"/>
	<path class="st30" d="M161.89,426.73c-0.36,1.52,0.12,3.49-2.14,3.99c0.24-1.24,0.48-2.47,0.72-3.71
		C160.95,426.92,161.42,426.82,161.89,426.73z"/>
	<path class="st12" d="M380.07,378.06c1.51,3.79,3.9,7.07,6.09,10.46c-1.79,1.23-1.94-2.94-4.15-1.14c-2.24,1.82-3.73,3.86-4.36,6.7
		c-0.9,4.13-0.72,9.52,0.22,13.7c-3.49-3.66-6.98-7.33-10.47-10.99c-4.25-5.89-8.34-11.86-10.44-18.93
		c0.11-3.61,1.23-4.92,4.65-5.27c2.9-0.3,5.59,0.47,8.26,1.55c1.08,0.44,1.99,1.61,3.39,1.04
		C375.75,375.63,377.85,377,380.07,378.06z"/>
	<path class="st106" d="M373.27,375.18c-2.81,0.87-5.12-0.99-7.68-1.46c-4.98-0.91-7.08-0.04-8.63,4.14
		c-2.05-3.39-1.01-7.64-3.11-11.02c-0.01-0.3-0.02-0.6-0.03-0.9c6.5,1.93,12.21,5.49,18.09,8.71
		C372.34,374.88,372.82,375.01,373.27,375.18z"/>
	<path class="st107" d="M648.99,96.96c5.08,4.68,5.08,4.68,7.88-1.03c2.7-5.51,5.44-10.99,8.08-16.53
		c2.36-4.95,3.66-10.17,3.66-15.68c-0.01-12.15-0.01-24.31,0-36.46c0-4.55,0.02-4.55-4.24-3.06c-0.55,0.19-1.12,0.36-2.65,0.84
		c3.34-4.66,5.59-8.88,7.65-13.98c2.28,4.86,4.24,9.26,7.19,13.11c-0.35,0.22-0.58,0.47-0.72,0.43c-5.48-1.58-5.48-1.58-5.49,4.02
		c0,12.15-0.01,24.31,0,36.46c0,2.07-0.32,4.13,1.36,5.98c0.98,1.09,0.65,3-0.86,3.48c-2.32,0.74-2.83,2.68-3.69,4.41
		c-3.33,6.73-6.42,13.59-9.95,20.21c-1.63,3.05-0.93,3.86,2.19,3.81c0.84-0.02,1.69,0.28,3.08,0.54c-4.65,2.64-8.57,5.43-12.76,9.05
		C649.96,107.14,649.78,102.39,648.99,96.96z"/>
	<path class="st108" d="M1072.88,253.89c-0.9,1.3-2.27,0.82-3.45,0.82c-54.17,0.02-108.35-0.01-162.52,0.1
		c-3.47,0.01-4.35-1.13-4.04-4.3c0.23-2.35,0-4.75-0.02-7.12c-1.07-1.73-0.72-3.65-0.72-5.51c-0.02-47.86-0.01-95.72-0.02-143.58
		c0-1.63,0.04-3.26-0.08-4.88c-0.29-3.96,0.05-4.22,3.97-4.36c48.32-1.63,96.66-0.33,144.99-0.74c6.01-0.05,12.03-0.06,18.04,0.02
		c3.88,0.05,4.56,0.83,4.56,4.65c-0.01,52.87,0,105.74-0.01,158.62C1073.58,249.71,1073.79,251.87,1072.88,253.89z"/>
	<path class="st17" d="M1072.88,253.89c-0.03-3.51-0.1-7.01-0.1-10.52c-0.01-51.24-0.04-102.47,0.08-153.71
		c0.01-3.53-1.06-4.39-4.43-4.38c-53.87,0.09-107.74,0.09-161.6,0.01c-3.15-0.01-3.94,0.9-3.94,4.01
		c0.1,49.73,0.07,99.47,0.06,149.2c0,1.63-0.07,3.25-0.1,4.88c-2.22-1.17-1.46-3.28-1.46-5.04c-0.03-47.48-0.02-94.97-0.06-142.45
		c0-2.68,0.63-5.45-1.19-7.99c-0.87-1.21,0.02-2.38,1.41-2.89c0.46-0.17,0.98-0.34,1.45-0.31c8.6,0.63,16.97-1.73,25.6-1.67
		c46.6,0.3,93.21,0.2,139.82,0.01c3.12-0.01,4.84,2.13,7.43,2.66c0.57,0.12,0.55,0.96,0.15,1.23c-2.79,1.94-1.6,4.82-1.6,7.27
		c-0.07,51.24-0.05,102.48-0.06,153.72C1074.34,250.02,1074.77,252.24,1072.88,253.89z"/>
	<path class="st109" d="M985.6,99.73c7.72-0.09,15.46,0.32,23.02,1.67c4.55,0.81,9.79,1.89,12.8,5.58
		c5.31,6.51,11.3,12.7,10.98,22.43c-0.3,9.06,0.29,18.25,1.59,27.22c0.62,4.32,0.58,8.7,1.46,12.88c0.67,3.2,2.75,6.1,3.74,9.44
		c1.72,5.83,4.17,11.46,7.08,16.87c4.1,7.63,8.13,15.28,7.08,24.49c-0.49,4.3-1.64,5.72-6.02,5.76c-8.5,0.07-16.93-0.4-25.29-2.16
		c-11.5-2.42-20.86,1.46-28.83,9.86c-5.13,5.4-11.77,9.03-19.11,9.28c-8.23,0.28-16.68-0.36-23.77-5.85
		c-2.05-1.59-4.5-2.68-6.8-3.95c-1.11-0.61-2.31-1.09-2.31-2.64c1.32-2.05,3.44-1.72,5.41-1.8c23.8-0.99,47.23-4.19,69.87-11.99
		c2.49-0.86,4.91-1.86,7.23-3.08c3.57-1.77,7.11-3.69,9.82-6.63c1.68-1.82,4.37-3.59,2.72-6.86c-9.53-0.79-18.97,0.65-28.44,1.05
		c-6.11,0.26-12.19,0.98-18.27,1.65c-8.58,0.94-17.05,2.4-25.49,4.17c-1.78,0.38-3.57,1.38-5.44,0.29c-0.99-1.33-0.08-2.32,0.6-3.36
		c17.38-26.49,30.09-55.25,41.07-84.84c1.65-4.45,3.51-8.82,4.48-13.49c-0.21-1.87-1.65-1.86-3.02-2c-2.35-0.24-4.67,0.29-7.01,0.33
		c-1.66-0.78-3.31-1.35-5.23-1.38C987.71,102.66,985.83,102.11,985.6,99.73z"/>
	<path class="st110" d="M985.6,99.73c1.65,1.56,3.39,2.96,5.85,1.92c1.94-0.82,2.12,1.16,3.12,1.81c0.45,1.19-0.54,1.58-1.23,1.95
		c-5.98,3.17-10.23,8.3-14.86,13c-5.48,6.92-10.64,14.07-15.2,21.64c-0.77,1.27-1.31,3.59-3.17,3.02c-1.45-0.44-0.95-2.61-1.03-4.07
		c-0.05-0.99,0.02-1.99-0.11-2.98c-0.16-1.23-0.98-1.26-1.92-1.04c-5.73,0.98-9.47,4.79-12.93,9.02c-2.15,2.63-3.86,5.54-5.53,8.49
		c-6.55,12.46-9.61,25.98-12.12,39.66c-0.77,4.17-1.25,8.39-1.62,12.62c-0.13,1.5-0.38,3-1.72,4c-1.44-0.73-2.38-1.97-2.72-3.44
		c-1.92-8.17-5.21-16.18-4.66-24.72c0.64-10.03,1.22-20.18,4.62-29.75c1.74-4.89,3.8-9.91,6.81-14.07
		c6.27-8.64,13.71-16.26,22.47-22.58c8.26-5.97,17.38-9.62,27.29-11.54C979.96,102.09,982.11,98.94,985.6,99.73z"/>
	<path class="st111" d="M1024.78,214.12c-7.93,4.78-16.85,6.85-25.68,8.92c-17.44,4.08-35.16,6.27-53.06,6.97
		c-1.61,0.06-3.21,0.4-4.82,0.61c-2.26-0.02-4.51-0.04-6.77-0.06c0.23-1.99,1.94-1.71,3.21-2.11c10.82-0.67,21.66-1.23,32.42-2.66
		c17.1-2.28,34.11-4.93,50.08-11.95c1.02-0.45,2.08-0.85,3.24-0.87C1024.14,213,1024.57,213.43,1024.78,214.12z"/>
	<path class="st112" d="M937.38,229.04c-0.98,0.51-1.96,1.01-2.94,1.52c-2.77,1.18-5.56,2.03-8.64,1.32
		c-4.41-1.02-4.57-1.26-3.19-5.73c0.24-1.15,0.53-2.28,1.17-3.29c0.16-0.29,0.36-0.56,0.57-0.82c0.69-0.75,1.57-1.23,2.39-1.8
		c0.6-0.38,1.21-0.66,1.95-0.49c0.53,0.26,0.78,0.67,0.67,1.27c-0.73,1.63-2.31,2.6-3.2,4.1c-0.43,0.73-1.2,1.5-0.6,2.36
		c0.7,1.01,1.82,0.68,2.73,0.31c2.45-0.99,4.58-2.47,6.43-4.38c1.03-1.06,1.96-2.28,3.43-2.82c0.62-0.02,0.98,0.3,1.16,0.87
		c-1.11,2.79-1.87,3.68-5.66,6.56c7.54-3.92,13.04-8.91,19.58-17.78c0.39-0.56,0.76-1.13,1.14-1.7c0.77-0.94,1.51-1.91,2.73-2.31
		c0.37-0.01,0.68,0.13,0.92,0.41c0.34,0.94,0.03,1.76-0.48,2.54c-4.15,5.93-8.9,11.33-14.12,16.34
		C941.69,227.2,939.75,228.48,937.38,229.04z"/>
	<path class="st113" d="M924.62,223.02c-0.67,1.04-1.34,2.08-2.01,3.12c-0.72-5.81,0.91-11.56,0.51-17.37
		c1.62-11.5,2.87-23.07,6.08-34.29c2.27-7.92,4.56-15.84,8.95-22.94c0.67,0.21,1.1,0.63,1.13,1.37c-2.21,6.74-5.31,13.14-7.24,20.01
		c-3.16,11.21-4.99,22.63-6.31,34.16C925.12,212.39,924.97,217.71,924.62,223.02z"/>
	<path class="st114" d="M957.65,206.54l-0.24,0.1l-0.26-0.04c-0.83-1.59,0.43-2.61,1.14-3.67c18.76-28.15,31.95-58.95,43.31-90.64
		c0.83-2.33,1.31-4.87,3.25-6.67c0.38-0.2,0.73-0.16,1.06,0.12c-3.45,11.77-8.13,23.07-12.76,34.4
		c-8.96,21.91-19.17,43.19-32.22,63.02c-0.76,1.15-1.58,2.25-2.37,3.37C958.26,206.94,957.96,206.94,957.65,206.54z"/>
	<path class="st115" d="M957.65,206.54c0.3,0,0.61,0,0.91,0c4.25,0.72,8.15-1.14,12.16-1.86c16.11-2.89,32.33-4.52,48.67-5.11
		c5.11-0.18,10.21-0.72,15.33-0.5c1.14,0.05,2.54-0.65,3.41,0.76c-0.86,0.94-0.87,2.98-2.98,2.31c-5.85-1.02-11.78-0.76-17.62-0.38
		c-16.49,1.07-32.96,2.46-49.18,5.82c-2.33,0.48-4.63,1.13-6.97,1.53c-1.45,0.25-2.95,0.8-4.33-0.28
		C957.26,208.06,957.46,207.3,957.65,206.54z"/>
	<path class="st116" d="M1005.91,105.74c-0.32,0.06-0.63,0.11-0.95,0.17c-9.62-2.21-15.89,3.37-22,9.39
		c-1.23,1.21-2.29,2.64-3.93,3.38c-0.64,0.06-1.08-0.1-0.94-0.88c4.53-5.88,10-10.68,16.47-14.34c3.09-0.8,6.17-1.73,9.36-0.45
		C1005.14,103.5,1006.72,103.76,1005.91,105.74z"/>
	<path class="st117" d="M1036.06,202.06c1-0.46,0.01-2.77,2.08-2.24c-0.05,5.16-3.63,8.02-7.22,10.74
		c-1.87,1.42-4.08,2.39-6.14,3.56c-0.26-0.25-0.51-0.5-0.77-0.75c0.18-1.15,1.11-1.61,1.98-2.06
		C1030.16,209.1,1033.02,205.49,1036.06,202.06z"/>
	<path class="st118" d="M978.09,117.8c0.2,0.23,0.41,0.45,0.61,0.68c0.55,0.79,0.11,1.47-0.35,2.02
		c-7.38,8.81-13.24,18.66-19.25,28.39c-0.9,0.2-1.49-0.14-1.77-1.02c0.37-3.97,1.38-7.9,0.76-11.92c0.58-1.4-1.32-0.94-1.41-1.84
		c2.42-1.15,3.46-0.44,3.3,2.28c-0.13,2.08-0.03,4.17-0.03,7.07C965.94,134.24,970.97,125.26,978.09,117.8z"/>
	<path class="st119" d="M956.68,134.11c0.37,0.62,2.1-0.79,1.64,1.09c-1.52,1.92-4.09,1.66-5.98,2.89
		c-4.17,2.71-7.54,6.13-10.09,10.4c-0.88,1.46-1.46,3.24-3.33,3.86c-0.25-0.26-0.51-0.52-0.76-0.78c3.15-5.97,6.9-11.45,12.7-15.21
		C952.63,135.19,954.52,134.27,956.68,134.11z"/>
	<path class="st109" d="M1036.06,202.06c-2.06,5.85-7.15,8.48-12.05,11.31c-19.75,8.79-40.71,12.3-62.04,14.29
		c-8.18,0.76-16.34,1.76-24.58,1.39c7.99-5.35,13.65-12.96,19.68-20.22c10.61-2.08,21.17-4.39,31.95-5.63
		c14.74-1.7,29.5-2.89,44.34-2.74C1034.55,200.45,1035.99,200.13,1036.06,202.06z"/>
	<path class="st109" d="M959.25,148.6c1.09-4.63,4.15-8.23,6.51-12.18c3.8-6.34,8.5-12.06,12.94-17.94
		c4.03-4.29,8.03-8.63,13.21-11.6c4.18-2.39,8.47-3.66,13.05-0.98c-9.87,28.16-21.13,55.71-36.02,81.66
		c-3.71,6.47-7.85,12.7-11.79,19.04c-0.8,0.72-1.6,1.44-2.41,2.16c-0.29,0.24-0.56,0.51-0.9,0.66c-2.48,1.14-5.62,3.16-7.62,1.52
		c-2.08-1.7,0.66-4.51,1.48-6.7c4.58-12.19,7.55-24.75,9.08-37.67c0.61-5.19,1.49-10.35,1.52-15.59
		C958.31,150.08,958.67,149.29,959.25,148.6z"/>
	<path class="st110" d="M938.92,152.34c2.6-4.71,5.56-9.12,9.72-12.65c2.84-2.41,6.04-3.88,9.69-4.49
		c1.65,4.29,1.02,8.48-0.58,12.62c-0.2,2.3-1.31,4.27-2.39,6.23c-10.78,19.65-19.32,40.3-27.19,61.24
		c-0.92,2.46-1.88,4.88-3.33,7.08c-0.06,0.22-0.13,0.44-0.2,0.65c-1.76-2.76-0.71-5.77-0.5-8.6c1.39-19.08,4.33-37.86,11.87-55.63
		C936.92,156.62,937.94,154.49,938.92,152.34z"/>
	<path class="st110" d="M928.32,219.91c-0.45,0.34-0.9,0.68-1.35,1.01c-2.05-0.56-0.63-1.88-0.37-2.58
		c6.1-16.54,12.73-32.86,20.4-48.74c2.67-5.52,5.36-11.03,8.31-16.4c0.77-1.4,1.31-2.98,2.81-3.97c1.33,0.95,0.81,2.33,0.71,3.42
		c-1.49,16.34-3.81,32.52-9.42,48.05c-0.17,0.47-0.35,0.94-0.49,1.42c-2.02,6.58-5.12,12.11-12.5,13.99
		C933.54,216.84,931.37,219.36,928.32,219.91z"/>
	<path class="st120" d="M928.32,219.91c3.46-3.2,7.71-5.09,12.03-6.66c2.73-0.99,4.28-2.67,5.41-5.21
		c5.32-11.98,8.48-24.56,10.44-37.46c1.03-6.79,1.62-13.65,2.52-21.5c-3.48,4.7-5.38,9.12-7.55,13.37
		c-9.25,18.19-17.06,37.02-24.07,56.18c-0.23,0.63-1.19,1.48-0.14,2.29c-0.35,1.02-1.53,0.82-2.15,1.45
		c4.77-15.15,10.99-29.73,17.49-44.19c4.66-10.36,9.46-20.66,15.42-30.36c0.32,0.63,0.89,0.75,1.52,0.78
		c-0.5,20.78-4.25,40.9-12.34,60.12c-0.24,0.57-0.51,1.14-0.84,1.86c3.1,0.02,5.67-2.02,8.67-1.82c-0.09,0.52,0.35,1.18-0.4,1.53
		c-1.17,0.4-2.2,1.16-3.42,1.4c-3.66,0.7-6.13,2.8-7.89,6.09c-0.86,1.6-1.54,3.78-4.03,3.83c-0.24-0.24-0.48-0.49-0.71-0.73
		c-0.49-2.45,1.92-3.53,2.46-5.6c-2.9,1.44-5.85,2.82-8.6,4.61c-0.88,0.57-1.75,1.51-3.01,0.84
		C928.87,220.46,928.59,220.18,928.32,219.91z"/>
	<path class="st121" d="M929.14,220.73c4.14-2.65,8.36-5.13,13.72-7.04c-1.75,2.77-3.16,4.98-4.56,7.19
		c-2.78,3.38-5.9,6.36-10.04,7.99c-1.35,0.53-3.11,1.23-4.15-0.15c-0.91-1.21,0.17-2.64,1.01-3.67
		C926.35,223.53,927.79,222.16,929.14,220.73z"/>
	<path class="st122" d="M939.01,221.61c1.59-1.1,2.64-2.74,3.31-4.39c2.25-5.53,7-6.4,12.03-6.93
		c-9.12,11.91-16.46,17.96-23.97,19.39C933.85,227.12,936.8,224.75,939.01,221.61z"/>
</g>
<g>
</g>
<g>
</g>
<g>
</g>
<g>
</g>
<g>
</g>
<g>
</g>
</svg>
