<?xml version="1.0" encoding="utf-8"?>
<!-- Generator: Adobe Illustrator 23.0.5, SVG Export Plug-In . SVG Version: 6.00 Build 0)  -->
<svg version="1.1" id="Capa_1" xmlns="http://www.w3.org/2000/svg" xmlns:xlink="http://www.w3.org/1999/xlink" x="0px" y="0px"
	 viewBox="0 0 850.39 850.39" style="enable-background:new 0 0 850.39 850.39;" xml:space="preserve">
<style type="text/css">
	.st0{fill:#E83B58;stroke:#E83B58;stroke-miterlimit:10;}
</style>
<path class="st0" d="M759.46,208.74H94.54c-41.72,0-75.54-33.82-75.54-75.54v0c0-41.72,33.82-75.54,75.54-75.54h664.91
	c41.72,0,75.54,33.82,75.54,75.54v0C835,174.91,801.18,208.74,759.46,208.74z"/>
<path class="st0" d="M759.46,501.56H94.54c-41.72,0-75.54-33.82-75.54-75.54v0c0-41.72,33.82-75.54,75.54-75.54h664.91
	c41.72,0,75.54,33.82,75.54,75.54v0C835,467.73,801.18,501.56,759.46,501.56z"/>
<path class="st0" d="M759.46,794.37H94.54c-41.72,0-75.54-33.82-75.54-75.54v0c0-41.72,33.82-75.54,75.54-75.54h664.91
	c41.72,0,75.54,33.82,75.54,75.54v0C835,760.55,801.18,794.37,759.46,794.37z"/>
<g>
</g>
<g>
</g>
<g>
</g>
<g>
</g>
<g>
</g>
<g>
</g>
</svg>
