<?xml version="1.0" encoding="utf-8"?>
<!-- Generator: Adobe Illustrator 23.0.5, SVG Export Plug-In . SVG Version: 6.00 Build 0)  -->
<svg version="1.1" id="Capa_1" xmlns="http://www.w3.org/2000/svg" xmlns:xlink="http://www.w3.org/1999/xlink" x="0px" y="0px"
	 viewBox="0 0 850.39 850.39" style="enable-background:new 0 0 850.39 850.39;" xml:space="preserve">
<style type="text/css">
	.st0{fill:#E83B58;stroke:#E83B58;stroke-miterlimit:10;}
</style>
<path class="st0" d="M245.33,137.51L715.5,607.68c29.5,29.5,29.5,77.33,0,106.83l0,0c-29.5,29.5-77.33,29.5-106.83,0L138.5,244.35
	c-29.5-29.5-29.5-77.33,0-106.83l0,0C168,108.01,215.83,108.01,245.33,137.51z"/>
<path class="st0" d="M715.5,244.35L245.33,714.51c-29.5,29.5-77.33,29.5-106.83,0l0,0c-29.5-29.5-29.5-77.33,0-106.83l470.16-470.16
	c29.5-29.5,77.33-29.5,106.83,0l0,0C745,167.01,745,214.85,715.5,244.35z"/>
<g>
</g>
<g>
</g>
<g>
</g>
<g>
</g>
<g>
</g>
<g>
</g>
</svg>
