<?xml version="1.0" encoding="utf-8"?>
<!-- Generator: Adobe Illustrator 23.0.5, SVG Export Plug-In . SVG Version: 6.00 Build 0)  -->
<svg version="1.1" id="Capa_1" xmlns="http://www.w3.org/2000/svg" xmlns:xlink="http://www.w3.org/1999/xlink" x="0px" y="0px"
	 viewBox="0 0 850.39 510.24" style="enable-background:new 0 0 850.39 510.24;" xml:space="preserve">
<style type="text/css">
	.st0{fill:#69A4B7;}
	.st1{fill:#AE3248;}
	.st2{fill:#898E92;}
	.st3{fill:#B6D0E1;}
	.st4{fill:#8A7E78;}
	.st5{fill:#3A332D;}
	.st6{fill:#3B3632;}
	.st7{fill:#EDCDA7;}
	.st8{fill:#5C5C5E;}
	.st9{fill:#EDCDA8;}
	.st10{fill:#5E5E60;}
	.st11{fill:#3E3631;}
	.st12{fill:#ECCCA7;}
	.st13{fill:#3D3731;}
	.st14{fill:#D4E9E3;}
	.st15{fill:#D5E9E3;}
	.st16{fill:#D9ECE7;}
	.st17{fill:#D0E7E3;}
	.st18{fill:#FFFFFF;}
</style>
<g>
	<path class="st0" d="M685.94,149.75c-5.9-1.81-11.81-3.62-17.71-5.44c-3.83-2-7.72-3.82-12.16-3.9
		c-1.87-17.38-9.02-32.11-21.25-44.69c-7.19-7.4-13.59-15.58-20.16-23.56c-10.12-12.3-23.08-18.94-38.88-20.35
		c-8.63-0.77-16.77-2.89-23.97-8.21c-8.87-6.55-18.33-7.37-28.29-2.07c-8.69,4.62-17.86,5.4-27.46,2.95
		c-12.22-3.12-23.9-2.4-34.67,5.27c-8.07,5.75-17.73,7.95-27.06,10.67c-15.3,4.45-26.53,13.76-34.37,27.47
		c-6.91,12.08-15.16,23.21-23.94,34c-15.18,18.66-17.05,39.68-9.42,61.77c4.16,12.05,13.81,18.74,25.47,22.87
		c18.37,6.51,37.78,6.17,56.75,8.68c15.2,2.01,30.54,3.02,45.67,5.46c22.37,3.61,36.4,20.17,37.12,42.95
		c0.3,9.45-0.08,18.92-0.1,28.39c-0.03,20.52,17.32,41.2,37.4,44.76c6.4,1.14,10.14-1.91,12.43-7.38
		c2.84-6.81,5.22-13.82,8.39-20.47c4.16-8.74,10.9-15.68,18.96-20.65c23.23-14.36,35.1-36.86,45.09-60.86
		c5.46-13.12,10.15-26.3,9.7-41.01c-0.21-6.82,4.9-12.69,9.98-16.75c4.4-3.52,19.35,6.68,19.56,12.62
		c1.46,42-10.84,79.71-35.44,113.58c-11.25,15.49-24.82,29.38-32.59,47.27c-9.44,21.74-12.27,44.22-7.39,67.48
		c5.1,24.29,13.36,47.69,20.34,71.45c3.21,10.91,2.71,11.94-8.42,11.98c-39.04,0.17-78.09,0.11-117.13,0.36
		c-15.66,0.1-31.33,0.65-46.98,1.24c-9.05,0.34-14.5-3.1-16.16-12.48c-2.47-13.93-5.57-27.74-8.19-41.64
		c-2.11-11.2-7.74-16.52-19.22-16.69c-18.1-0.28-35.6,4.89-53.54,6.35c-12.92,1.05-25.36,0.53-37.13-5.38
		c-7.24-3.64-10.78-9.41-11.13-17.7c-0.47-11.11,2.23-21.75,4.31-32.4c1.93-9.89,0.49-18.08-6.67-25.18
		c-3.64-3.6-4.66-8.6-1.84-12.11c4.38-5.44,2.26-8.67-2.1-11.54c-6.81-4.48-6.26-9.42-2.59-15.77c7.34-12.67,6.23-17.81-5.15-27.28
		c-4.08-3.4-8.52-6.36-12.77-9.56c-6.59-4.97-8.02-11.2-4.81-18.79c2.61-6.17,6.88-11.03,11.68-15.43
		c25.49-23.32,37.21-51.71,36.3-86.72c-1.47-56.48,25.99-96.41,75.03-122.69c20.91-11.21,42.35-21.08,65.95-24.73
		c41.09-6.34,80.22,1.24,116.6,20.48c46.44,24.55,77.87,62.29,93.35,112.84C691.66,147.2,691.52,148.25,685.94,149.75z"/>
	<path class="st1" d="M171.46,168.68c1.16-9.93-6.05-6.4-10.86-6.75c-5.3-2.52-9.52-6.01-10.86-12.09
		c-10.45-13.91-21.68-27.46-27.3-44.23c-8.4-25.05-6.08-49.03,9.83-70.71c23.59-32.16,74.62-28.25,96.46,2.55
		c24.62-35.03,78.26-29.47,98.74,10.36c15.78,30.69,10.79,59.25-9.08,86.35c-24.35,33.21-57.19,56.94-89.64,81.18
		c-3.58,2.68-5.21,0.53-7.44-1.29c-12.59-10.26-25.18-20.52-37.77-30.78c-1.01-3.11,1.51-4.8,2.82-6.97
		c1.41-2.34,2.74-4.82,0.71-7.29c-1.84-2.24-4.61-2.23-7.31-2.03C176.91,167.2,174.64,170.19,171.46,168.68z"/>
	<path class="st2" d="M737.25,477.86c-7.47-62.52-22.73-124.26-18.91-187.92c1.28-1.44,2.99-1.91,4.78-1.77
		c12.62,0.97,25.1,3.08,37.61,4.89c2.8,0.4,4.47,2.76,6.97,3.64c11.11,1.44,22.22,2.94,33.34,4.29c5.42,0.66,7.87,2.75,7.82,8.96
		c-0.13,16.82,0.78,33.65,1.01,50.47c0.1,7.24,2.47,13.89,4.35,20.68c8.37,30.07,16.88,60.11,25.28,90.18
		c0.46,1.66,0.42,3.46,0.62,5.2c-4.06,3.56-7.86,7.85-14.17,4.86c-20.8-41.91-41.6-83.82-63.26-127.45
		c-3.12,13.96-3.07,26.69-3.8,39.21c-1.8,30.58-5.99,61-5.94,91.7c0,0.72-0.84,1.44-1.28,2.16
		C749.28,480.08,741.7,481.45,737.25,477.86z"/>
	<path class="st3" d="M87.98,345c-1.19,0.58-2.39,1.16-3.58,1.74c-13.16,0.65-26.41,3.37-39.29-1.82c-5.11-1.83-5.96-5.47-5.1-10.46
		c4.67-26.92,9.84-53.78,13.43-80.85c2.52-18.94,2.82-38.17,4.02-57.28c0.26-4.13-0.11-8.3,0.22-12.42
		c0.88-11.12,1.27-11.27,10.48-5.92c10.97,6.37,21.95,12.71,32.94,19.05c0.77,0.44,1.59,1.16,2.37,1.14
		c12.89-0.43,10.84,8.7,10.81,16.65c-0.05,15.38,0.35,30.77-0.06,46.14c-0.63,23.26,5.24,45.01,15.03,65.74
		c3.4,7.19,5.11,13.44-0.54,19.96c-9.39-1.19-18.73-1.21-28.12,0.36C96.33,347.74,91.77,348.28,87.98,345z"/>
	<path class="st3" d="M767.7,296.69c-16.45-2.25-32.91-4.5-49.36-6.75c-4.28-0.43-4.36-3.46-3.7-6.5
		c5.91-26.95,11.87-53.89,17.95-80.8c0.75-3.33,2.44-6.55,6.78-3.92c5.45,3.31,11.43,2.76,17.24,2.39c6.94-0.44,9.29,2.14,9.22,9.14
		c-0.26,25.39-0.01,50.78,0.08,76.18C765.92,289.94,765.39,293.57,767.7,296.69z"/>
	<path class="st4" d="M87.98,345c11.11-0.67,22.21-1.41,33.32-1.97c3.01-0.15,6.8-1.33,7.42,3.64
		c-3.65,39.89-7.36,79.77-10.87,119.67c-0.38,4.29-1.67,6.35-6.28,6.47c-4.31,0.12-6.16-0.94-6.68-5.66
		c-2.53-23.12-5.33-46.21-8.32-69.28c-2.03-15.71-2.61-31.69-8.34-46.77C87.55,349.3,88.04,347.05,87.98,345z"/>
	<path class="st5" d="M734.09,55.91c-14.75-5.79-20.47-18.01-15.42-32.63c1.78-5.15,5.79-7.33,10.58-8.29
		c17.68-3.55,34.79-5.15,53.11,0.16c17.8,5.16,24.52,25.09,17.54,38.47c-3.89,7.46-9.07,13.73-16.31,18.17
		c-5.05-1.72-2.59-5.8-2.57-8.88c0.08-9.97-1.66-11.9-11.7-11.99c-4.45-0.04-9.02,0-12.95,2.2
		C749.24,57.1,741.77,56.99,734.09,55.91z"/>
	<path class="st4" d="M45.1,344.92c13.09,0.68,26.34-1.88,39.29,1.82c-3.85,39.95-18.99,76.92-30.2,114.93
		c-1.59,5.39-5.11,3.6-8.37,3.63c-4.05,0.03-4.75-2.44-4.5-5.89c1.38-18.51,2.27-37.06,4.1-55.52
		C47.39,384.18,48.22,364.56,45.1,344.92z"/>
	<path class="st6" d="M41.55,96.83c-9.55-3.78-12.8-15.9-5.43-24.31c4.97-5.66,6.54-11.7,6.55-18.54
		c0.02-9.05,3.05-15.33,12.82-17.09c6.11-1.1,9.91-6.12,14.54-9.68c9.98-7.67,19.98-5.47,25.18,5.99c1.61,3.55,3.81,6.34,6.28,9.26
		c5.89,6.96,9.3,14.65,6.45,24.34c-1.96,6.64-3.82,13.57,2.2,19.93c2.49,2.63,3.35,7.06,1.06,10.78c-2.57,4.18-6.98,3.29-10.37,2.11
		c-3.58-1.24-9.33-0.5-9.4-6.87c2.58-9.23,8.21-17.74,6.43-28.02c-0.45-2.61-0.42-5.3-1.37-7.83c-1.11-3-3.03-4.36-6.17-2.93
		c-4.85,2.21-10.05,3.53-14.86,5.86c-5.19,2.51-8.61,6.23-8.62,12.31c0,4.69-2.2,8.51-4.63,12.28c-0.59,1.37-1.4,2.7-1.55,4.16
		c-0.79,7.44-4.63,10.37-12.06,8.7C46.34,96.78,43.88,97.49,41.55,96.83z"/>
	<path class="st3" d="M85.94,96.14c4.31,1.77,6.9,5.06,9.03,9.16c9.25,17.87,16.61,45.86,15.06,59.89
		c-15.78-10.96-31.15-21.59-46.44-32.34c-1.08-0.76-2.28-2.3-2.3-3.49c-0.23-12.16,0.31-24.17,10.23-33.23
		c1.23,0.07,2.29,0.58,3.3,1.22C79.01,101.5,82.21,96.35,85.94,96.14z"/>
	<path class="st3" d="M776.46,89.15c2.58,2.35,1.71,5.47,1.76,8.32c0.19,12.07-1.71,23.96-3.47,35.85c-0.17,1.15-0.11,2.65-0.8,3.36
		c-10.11,10.41-20.33,20.72-30.53,31.05c-0.6-0.45-1.2-0.9-1.8-1.36c5.78-24.41,11.52-48.84,17.45-73.21
		c0.36-1.48,2.22-2.6,3.38-3.89C767.09,85.85,771.76,85.95,776.46,89.15z"/>
	<path class="st7" d="M85.94,96.14c-3.42,6.15-7.44,8.24-12.72,1.89c-1.97-6.9-10.19-9.14-12.03-16.13
		c2.78-2.83,4.4-5.93,3.72-10.18c-1.08-6.81,2.38-11.32,8.4-13.82c6.2-2.57,12.76-4.11,18.67-7.62c4.19-2.48,5.51,1.95,6.32,4.68
		c4.03,13.68,2.69,26.52-6.88,37.79C89.6,93.89,87.77,95.02,85.94,96.14z"/>
	<path class="st7" d="M776.46,89.15c-4.67,0.04-9.34,0.08-14.01,0.13c-1.01-5.06-2.53-9.57-8.54-10.86
		c-3.68-0.79-5.22-4.26-5.53-7.28c-0.93-8.95-4.36-15-14.29-15.24c6.58,0.6,12.72-0.47,18.53-3.93c2.7-1.61,5.92-2.59,9.04-3.22
		c19.09-3.83,23.35,0.11,20.97,19.14c-0.18,1.47-0.57,2.89,0.96,3.89C776.5,75.64,775.7,82.08,776.46,89.15z"/>
	<path class="st8" d="M46.6,469.69c9.17,0.4,20.79,11.94,20.23,19.26c-0.34,4.41-1.97,5.61-6.02,4.72
		c-8.64-1.89-15.1-7.77-22.09-12.47c-3.1-2.08-0.28-5.98,0.62-8.93C40.6,468.15,44.17,470.13,46.6,469.69z"/>
	<path class="st9" d="M656.06,140.42c6.03-4.85,9.24-0.92,12.16,3.9c-0.73,2.53-1.64,5.02-2.17,7.59
		c-1.24,5.97-4.07,8.81-10.88,8.64c-7.29-0.18-8.98-5.61-12.01-9.96c-1.58-2.27,0.95-2.96,2.3-3.81
		C648.96,144.59,652.53,142.53,656.06,140.42z"/>
	<path class="st10" d="M115.5,476.34c5.43,1.25,10.48,5.37,15.74,8.91c1.82,1.22,0.87,3.9,0.1,5.76c-0.82,1.99-2.77,1.83-4.56,1.56
		c-4.63-0.71-9.4-1.01-13.85-2.33c-3.43-1.02-9.6,1.67-9.03-6.16C104.42,476.87,109.46,477.01,115.5,476.34z"/>
	<path class="st11" d="M737.25,477.86c1.73,0.1,3.51,0.54,5.17,0.25c7.18-1.23,10.12,1.75,9.25,8.84c-2.94,1.78-5.97,3.42-8.79,5.36
		c-4.87,3.35-8.24,2.84-12.19-2.16c-4.69-5.94,1.98-6.46,3.43-9.39C734.7,479.57,736.18,478.81,737.25,477.86z"/>
	<path class="st12" d="M171.46,168.68c4.19-0.81,6.05-6.74,12.33-3.92c8.54,3.84,10.02,7.84,3.29,14.71
		c-1.21,1.24-2.36,2.53-3.54,3.8c-1.47-0.94-2.95-2.7-4.42-2.69C170.01,180.66,170.61,174.82,171.46,168.68z"/>
	<path class="st13" d="M825.95,481.33c5.43,0.44,8.96-4.66,14.17-4.86c2.22,9.47-0.8,15.6-9.35,20.2c-4.49,2.42-6.21-1.81-9.06-3.16
		c-3.42-1.62-1.03-3.75,0.08-5.59C823.13,485.7,824.56,483.53,825.95,481.33z"/>
	<path class="st14" d="M61.19,81.9c4.99,4.65,11.65,8.05,12.03,16.14c-0.57-0.63-1.14-1.27-1.71-1.9
		c-8.92-2.18-16.99,5.59-26.01,2.19c-1.32-0.5-2.64-1-3.95-1.5c2.32,0.04,4.63,0.12,6.95,0.11c5.11-0.02,10.25,0.3,8.89-7.67
		C56.92,86.48,58.53,83.65,61.19,81.9z"/>
	<path class="st15" d="M149.75,149.85c3.62,4.03,7.24,8.06,10.86,12.09c-2.91,0.29-5.85,0.41-8.73,0.92
		c-3.3,0.58-7.94,2.83-9.22-0.8c-1.29-3.66-0.69-8.97,5.08-10.57C148.5,151.28,149.08,150.42,149.75,149.85z"/>
	<path class="st16" d="M732.01,145.45c-5.51,21.07-3.22,18.12-19.87,12.02C720.63,156.53,723.6,147.33,732.01,145.45z"/>
	<path class="st17" d="M685.94,149.75c5.1-2.9,0.48-7.09,1.39-10.54c6.41,3.53,10.68,9.21,16.48,15.78
		C696.8,152.75,690.98,152.71,685.94,149.75z"/>
	<path class="st18" d="M185.12,111.55c0.25-14.95-1.66-12.95,11.96-13.03c19.69-0.11,19.59-0.03,19.77-19.89
		c0.03-3.98-2.09-10.21,1.36-11.49c5.2-1.94,11.57-1.02,17.42-0.76c3.48,0.15,2.48,3.45,2.52,5.6c0.11,6.5,0.33,13.03-0.05,19.51
		c-0.31,5.22,1.05,7.6,6.8,7.12c5.87-0.49,11.84,0.23,17.72-0.2c5.64-0.41,6.9,1.95,6.95,7.18c0.15,15.68,0.36,15.68-14.97,15.68
		c-16.41,0-16.41,0-16.41,16.74c0,0.89,0,1.77,0,2.66c0,13.49-4.7,16.93-18.03,13.68c-3.23-0.79-3.38-2.7-3.38-5.15
		c0-5.03-0.01-10.05-0.01-15.08c0-12.85,0-12.85-13.29-12.85c-2.37,0-4.76-0.24-7.09,0.04
		C187.73,122.36,182.24,120.46,185.12,111.55z"/>
</g>
<path class="st18" d="M778.92,90.56c12.54,1.42,25.56,42.29,28.22,212.99c-14.2-2.43-28.4-4.86-42.59-7.29
	c0.19-30.44,0.38-60.88,0.57-91.31c-24.6-3.89-44.13-10.13-57.85-15.38c-37.91-14.52-41.75-25.47-42.68-29.88
	c-1.04-4.98-0.62-12.46,3.64-15.36c6.87-4.67,16.82,7.28,35.58,10.67c4.32,0.78,25.73,4.65,38.68-6.32
	c16.14-13.67,5.18-38.54,24.54-52.85C769.75,93.81,774.79,90.09,778.92,90.56z"/>
<path class="st18" d="M51.73,102.74C13.21,131.7,10.02,305.98,9.58,341.8c22.36,1.13,44.72,2.27,67.08,3.4
	c-1.9-41.31-3.81-82.62-5.71-123.93c22.84-5.61,42.38-10.95,57.85-15.38c27.09-7.76,38.12-11.72,42.46-21.99
	c3.51-8.31,2.26-19.91-3.42-23.25c-7.75-4.55-17.37,9.98-35.58,10.67c-16.76,0.64-29.84-10.88-32.21-13.04
	c-23.18-21.23-13.15-56.81-28.54-62.14C63.97,93.53,55.45,99.94,51.73,102.74z"/>
<g>
</g>
<g>
</g>
<g>
</g>
<g>
</g>
<g>
</g>
<g>
</g>
</svg>
