<?xml version="1.0" encoding="utf-8"?>
<!-- Generator: Adobe Illustrator 23.0.5, SVG Export Plug-In . SVG Version: 6.00 Build 0)  -->
<svg version="1.1" id="Capa_1" xmlns="http://www.w3.org/2000/svg" xmlns:xlink="http://www.w3.org/1999/xlink" x="0px" y="0px"
	 viewBox="0 0 1296 1008" style="enable-background:new 0 0 1296 1008;" xml:space="preserve">
<style type="text/css">
	.st0{fill:#F5A9A2;}
	.st1{fill:#F0C755;}
	.st2{fill:#1F87A2;}
	.st3{fill:#1B7991;}
	.st4{fill:#4E3014;}
	.st5{fill:#944B15;}
	.st6{fill:#B4D389;}
	.st7{fill:#B3D389;}
	.st8{fill:#44A07D;}
	.st9{fill:#BDDAA4;}
	.st10{fill:#B8DFDD;}
	.st11{fill:#FAC354;}
	.st12{fill:#FBC355;}
	.st13{fill:#F5AAA3;}
	.st14{fill:#5DB291;}
	.st15{fill:#E6A73B;}
	.st16{fill:#45A07C;}
	.st17{fill:#B2D38A;}
	.st18{fill:#F1DBA3;}
	.st19{fill:#F1DEA3;}
	.st20{fill:#5D8EBA;}
	.st21{fill:#E5CA67;}
	.st22{fill:#466D6F;}
	.st23{fill:#1E7892;}
	.st24{fill:#F7D4CB;}
	.st25{fill:#5CB291;}
	.st26{fill:#E6E4DE;}
	.st27{fill:#E5E5E2;}
	.st28{fill:#5E654D;}
	.st29{fill:#506C65;}
	.st30{fill:#64624A;}
	.st31{fill:#616F76;}
	.st32{fill:#697E84;}
	.st33{fill:#F2F7E9;}
	.st34{fill:#F3F8EB;}
	.st35{fill:#F1F6E2;}
	.st36{fill:#EBF2D9;}
	.st37{fill:#F4F8ED;}
	.st38{fill:#F2F7E7;}
	.st39{fill:#F3F8EF;}
	.st40{fill:#E8CB63;}
	.st41{fill:#F4F8EB;}
	.st42{fill:#E3F1F0;}
	.st43{fill:#F3F8ED;}
	.st44{fill:#499B73;}
	.st45{fill:#E6F3F1;}
	.st46{fill:#DEEFED;}
	.st47{fill:#E3F1ED;}
	.st48{fill:#DFEFE9;}
	.st49{fill:#E7F4F0;}
	.st50{fill:#532E13;}
	.st51{fill:#4E2E13;}
	.st52{fill:#4B2613;}
	.st53{fill:#4A2613;}
	.st54{fill:#F1CC7E;}
</style>
<g>
	<path class="st0" d="M1267.16,947.38c0.04,13.07-0.21,26.15,0.25,39.2c0.22,6.25-2.32,7.99-7.97,7.49
		c-3.38-0.3-6.81-0.04-10.22-0.04c-407.96,0-815.92,0-1223.88,0c-15.88,0-15.88,0-15.88-15.58c0-34.94,0.22-69.89-0.17-104.83
		c-0.08-7.41,1.75-9.66,9.39-9.6c49.15,0.36,98.29,0.21,147.44,0.22c6.42,1,5.93,6.25,5.81,10.52c-0.19,7.14,3.02,9.25,9.74,9.15
		c18.07-0.26,36.14-0.07,54.21-0.1c12.47-0.02,12.47-0.06,13.1-12.71c0.17-1.43,0.39-2.86,1.02-4.18c0.89-2.08,2.98-2.01,4.7-2.64
		c46.1-0.1,92.2-0.21,138.31-0.31c6.78,0.53,9.85,6.25,13.54,10.48c11.05,12.69,23.66,23.21,38.73,30.75
		c2.01,1.01,4.06,2.02,5.19,4.16c2.8,7.15,3.92,14.75,6.36,22.04c7.5,22.39,24.31,31.51,46.16,34.42
		c14.48,1.93,28.81,0.34,43.16-1.14c3.12-0.32,6.21-0.56,9.34-0.22c13.38,7.34,27.19,2.7,40.56,0.63
		c15.86-2.45,31.85-4.51,47.44-8.62c3.3-0.87,6.69-1,10.09-0.93c21.57,3.47,42.91,8.21,64.49,11.71c11.5,1.86,23.12,2.7,34.57,4.89
		c5.89,1.13,11.25-0.55,15.8-4.59c2.12-1.88,4.2-3.86,7.09-4.56c16.73-0.78,33.27-2.99,49.51-7.23c5.5-1.43,10.8-3.42,16.13-5.36
		c17.46-6.35,26.86-19.09,29.92-37.02c0.38-2.23,0.51-4.52,1.77-6.51c2.91-2.87,6.77-3.89,10.46-5.08
		c11.24-3.62,22.03-8.17,32.08-14.44c2.61-1.63,5.45-2.88,8.61-3.17c5.1-0.39,10.22-0.46,15.32-0.17c7.63,0.44,8.44,1.51,7.61,9.13
		c3.68-1.4,7.52-1.98,9.67-6.11c1.63-3.14,5.28-2.96,8.4-2.97c50.8-0.09,101.61-0.01,152.41-0.1c6.37-0.01,10.26,2.33,11.42,11.08
		c2.94-6.88,4.88-11.84,11.65-11.04c4.46,0.53,8.58,0.84,9.94,6.1c0.87,3.17,3.04,5.37,5.46,7.41c1.5,1.26,3.48,2.52,2.83,4.8
		c-0.72,2.55-3.21,2.95-5.46,3.33c-3.09,0.53-6.22,0.4-9.33,0.4c-22.67,0.02-45.35-0.06-68.02,0.04
		c-12.2,0.05-13.66,1.61-13.78,13.78c-0.04,3.97-0.09,7.94,0.02,11.9c0.23,8.74,1.09,9.78,9.89,9.84
		c25.79,0.16,51.58,0.05,77.38,0.07c2.83,0,5.67-0.13,8.5,0.04c9.27,0.09,18.55-0.07,27.82,0.01c5.32,0.04,7.56-2.36,7.58-7.66
		c0.01-5.3-0.77-10.71,1.2-15.87c1.78-2.93,4.25-2.09,6.6-1.05c12.76,5.64,26.01,10.07,38.79,15.67c6.73,4.21,14.73,5.49,21.64,9.29
		C1263.83,943.39,1267.23,943.54,1267.16,947.38z"/>
	<path class="st1" d="M558.61,514.44c10.69-4.8,22.57-5.53,33.45-9.68c7.68-3.22,14.66,0.81,21.9,2.11
		c2.37,1.69,2.56,4.29,2.67,6.83c0.77,17.6,7.11,33.7,13.5,49.75c2.63,6.62,6.52,12.54,11.95,17.35c9.5,8.4,18.19,8.8,26.92-0.41
		c16.8-17.74,25.11-39.35,26.7-63.63c0.19-2.92-1.56-6.32,1.97-8.5c10.36-1.43,20.71-2.56,31.06-0.01
		c3.59,5.62,11.21,1.09,15.09,5.99c9.58,11.47,9.45,25.82,11.02,39.42c3.21,27.86,4.22,55.86,3.83,83.92
		c-0.45,31.99,1.19,63.93,3.37,95.85c0.45,6.53,1.75,12.9,3.3,19.23c0.24,3.92,0.88,7.73,2.31,11.45c1.35,3.51,1.83,7.11-1.26,10.17
		c-9.1,4.29-19.01,5.47-28.73,7.16c-34.61,6.02-69.38,11.89-104.53,11.64c-30.03-0.22-59.79-5.02-88.83-13.32
		c-3.55-1.01-7.07-2.15-9.81-4.83c-2.42-3.24-0.52-6.35,0.29-9.5c1.45-5.61,4.5-10.83,4-16.9c2.32-19.43,3.46-38.89,3.3-58.47
		c-0.36-42.76,0.11-85.52,5.22-128.04C549.24,545.8,550.31,529.22,558.61,514.44z"/>
	<path class="st2" d="M922.58,886.1c-15.54,9.14-31.77,16.68-49.32,21.1c-2.63,3.25-6.2,4.41-10.18,5.48
		c-20.98,5.61-42.3,9.88-63.19,15.83c-4.17,1.19-8.37,1.24-12.6,1.34c-39.54,11.23-79.96,18.57-120.08,27.26
		c-4.53,0.98-9.03-1.12-13.41,0.64c-15.77,2.69-31.53,5.47-47.32,8.04c-11.66,1.89-23.36,3.52-35.04,5.23
		c-6.34,0.93-11.36-2.52-16.63-5.13c-10.02-2.39-11.16-10.68-12.51-18.84c-0.04-4.17-0.02-8.35-0.06-12.52
		c-0.17-5.22,0.17-10.29,4.21-14.26c8.33-13.84,22.08-20.8,35.76-27.66c38.77-19.44,78.8-36.09,118.5-53.49
		c28-12.28,56.42-23.63,83.84-37.23c16.66-5.53,32.1-13.96,48.38-20.38c3.7-1.46,7.3-3.04,11.36-3.15
		c15.36-1.53,29.18,5.57,43.88,7.74c3.5,2.47,7.48,2.78,11.58,2.47c4.15-0.05,8.33-0.37,12.36,1c3.43,2.47,7.34,2.71,11.36,2.44
		c9.81-0.57,19.15,3.62,28.98,2.8c10.53,24.9,1.39,46.68-10.81,67.97C939.15,873.69,931.29,880.25,922.58,886.1z"/>
	<path class="st3" d="M785.11,802.7c-10.86,9.62-25,12.72-37.71,18.5c-32.1,14.57-64.74,27.94-96.97,42.2
		c-22.67,10.03-45.2,20.44-67.49,31.29c-13.01,6.33-26.09,12.98-34.36,25.82c-21.3-1.99-42.22-6.07-63.15-10.46
		c-11.65-2.44-23.72-3.7-35.7-0.95c-17.01-6.85-30.98-17.8-43.06-31.45c-4.26-4.81-9.1-9.12-13.67-13.66
		c-11.16-12.49-22.18-25.05-25.47-42.28c0.95-0.98,2.06-1.68,3.4-1.99c7.92,0.45,13.46-3.35,19.35-8.54
		c15.25-13.44,33.84-21.55,52.51-28.99c7.76-3.09,15.56-6.96,24.32-6.98c12.4,3.19,23.82,8.77,35.25,14.37
		c13.6,6.67,13.71,6.42,22.72-5.56c2.75-3.66,3.66-9.11,9.12-10.45c44.65,14.31,90.05,20.1,136.98,14.58
		c26.1-3.07,52.05-6.82,77.91-11.25c5.9-1.01,12.14-1.97,17.51-5.26c1.77-0.67,3.86-0.41,4.55,1.08
		C775.82,782.71,783.73,791.2,785.11,802.7z"/>
	<path class="st4" d="M728.72,508.25c-10.51,2.71-21.29,1.02-31.91,1.9c-6.4,2.94-9.99,0.04-10.87-6.08
		c-1.23-8.53-1.13-16.84,6.12-23.53c5.9-5.44,9.87-12.64,12.64-19.95c3.72-9.84,9.71-13.93,19.95-11.81
		c5.95,2.12,1.45,5.34,1.87,7.54c2.31-2.32,0.66-6.24,0.99-9.78c1.25-4.05,3.42-7.82,3.78-12.14c0.97-11.79-7.52-18.11-17.93-13.01
		c-4.28,2.1-6.22,1.05-7.52-3.08c-1.36-4.33-2.79-8.62-3.3-13.17c-1.14-10.17-6.66-16.36-16.57-19.15
		c-10.63-2.99-21.11-6.48-31.32-10.78c-6.4-2.7-12.01-2.06-15.84,5c-3.58,6.6-9.37,11.3-15.56,15.41
		c-4.17,2.76-7.47,6.09-8.11,11.35c-1.31,10.77-6.07,20.04-12.95,28.18c-4.07,4.82-4,9.37-1.48,14.85
		c5.12,11.14,10.73,21.91,19.49,30.67c6.28,6.27,5.72,13.96,4.27,21.51c-0.99,5.19-5.03,7.2-10.34,6.02
		c-7.58,0.29-14.69-2.5-22.09-3.45c-10.49-3.33-20.89-6.89-30.78-11.8c-13.01-6.46-13.43-11.1-15.45-24.74
		c-2.02-13.64-1.62-25.92,3.29-38.55c0.85-2.19-0.56-5.57-1.62-8.12c-1.21-2.93-1.07-5.5,0.4-8.1c4.66-8.24,7.25-17.09,8.24-26.48
		c0.52-5,3.59-8.79,6.59-12.59c3.98-5.07,8.92-9.58,9.24-16.78c0.06-1.42,1.45-3.28,2.76-4.07c17.56-10.67,31.58-26.71,54.18-29.74
		c11.71-1.57,21.37,7.77,33.17,2.05c10.71-5.19,22.23-1.56,33.23,1.37c5.79,1.54,11.41,3.75,15.84,7.8
		c7.09,6.5,14.17,12.93,22.83,17.34c0.98,0.5,2.3,1.29,2.53,2.18c3.66,14.55,19.29,23.25,19.33,39.53
		c0.01,3.78,1.13,7.29,2.85,10.54c3.74,7.08,7.37,13.8,3.03,22.28c-1.79,3.49,1.03,7.62,2.38,11.33c2.82,7.78,5.46,15.54,0.82,23.66
		c-0.77,1.35-0.84,3.39-0.58,5.01c3.24,19.94-10.74,28.74-24.45,37.48C736.63,506.42,732.46,506.99,728.72,508.25z"/>
	<path class="st5" d="M468.69,777.15c-15.39,1.51-29.31,7.76-42.66,14.74c-14.74,7.7-30.37,14.39-41.72,27.46
		c-3.71,4.28-8.92,2.05-13.54,2.19c-3.42-3.71-0.61-6.6,1.39-9.7c-2.14-0.06-4.34,1.75-6.19-0.44
		c-16.84-3.16-32.38-18.43-35.67-35.41c-0.63-3.28-0.52-6.8-0.13-10.14c0.24-2.04,0.38-4.88,3.03-5.56c2.93-0.75,3.5,2.32,4.96,3.85
		c0.89,0.93,1.55,2.07,2.59,3.5c1.32-8.81,2.15-16.9,3.84-24.81c1.57-7.36,6.19-8.76,12.25-4.16c3.18,2.42,5.63,5.53,7.26,9.26
		c1.24,2.84,2.37,5.79,4.05,8.37c2.67,4.1,32.16,8.29,36.03,5.13c18.94-15.43,40.43-26.97,60.85-40.14
		c33.18-21.4,27.11-13.72,33.36-50.71c5.98-35.41,10.94-71.02,22.37-105.23c5.11-15.3,10.93-30.38,22.71-42.16
		c4.26-4.26,8.81-8.02,15.13-8.74c-0.15,10.36-4.73,19.79-6.23,29.95c-2.78,18.76-5.38,37.53-5.94,56.44
		c-1.02,34.83-1.31,69.68-1.8,104.53c-0.21,15.02-1.63,29.93-3.61,44.8c-1.34,2.86-4.07,3.7-6.71,4.77
		c-17.85,7.22-36.03,13.55-54.12,20.1C476.42,776.41,472.49,776.27,468.69,777.15z"/>
	<path class="st6" d="M225.97,647.71c-0.08-26.72-4.19-52.98-9.03-79.15c-1.94-10.49-3.13-10.89-11.92-4.87
		c-6.03,4.13-11.85,8.85-19.64,9.2c-7.44,0.33-14.35-6.54-14.13-13.81c0.09-3.07,1.52-3.37,3.77-2.03
		c5.77,3.45,11.39,2.24,17.68-0.6c-5.09-4.42-11.59-4.55-16.84-7.4c-5.7-3.09-11.88-5.33-17.41-8.69
		c-19.9-12.09-22.85-20.07-16.4-42.27c0.47-1.64,0.41-3.79,2.21-4.29c2.65-0.74,2.94,2.02,3.93,3.53
		c6.81,10.43,15.22,18.89,27.37,22.98c5.91,1.99,11.64,1.92,17.29-0.87c6.42-3.17,7.07-6.59,1.77-11.46
		c-9.24-8.5-20.52-14-30.98-20.69c-3.58-2.29-7.18-4.56-10.6-7.08c-6.61-4.87-9.64-14.39-7.03-21.91c1.79-5.16,4.94-4.36,8.59-1.87
		c12.61,8.6,24.75,17.92,38.35,24.98c2.5,1.3,4.98,2.64,7.47,3.95c1.91,1.01,4.07,3.31,5.93,0.79c1.62-2.2-0.7-4.12-1.94-5.97
		c-9.93-14.8-22.91-27.24-32.49-42.34c-10.24-16.14-10.2-22.26,1.15-37.64c1.48-2,2.78-5.04,5.68-4.3c2.99,0.76,3.84,3.85,4.28,6.77
		c1.28,8.42,3.49,16.58,6.77,24.44c0.65,1.56,1.22,3.19,2.09,4.63c2.53,4.19,5.35,8.71,11.02,7.7c6.12-1.09,8.66-6.08,9.2-11.8
		c1.02-10.82-0.33-21.61-2.58-32.09c-2.74-12.77-0.16-24.08,6.48-34.83c1.77-2.87,3.79-6.3,7.68-5.81c3.55,0.45,5.1,3.86,7.17,6.63
		c10.77,14.45,4.92,29.8,2.88,44.96c-0.79,5.88-2.05,11.72-2.45,17.63c-0.42,6.2,2.35,11.46,8.21,13.58
		c6.01,2.17,9.32-2.53,12.12-6.95c5.39-8.5,7.37-18.24,9.92-27.77c0.65-2.44,1.25-4.94,2.23-7.25c1.45-3.41,3.33-3.93,6.29-1.05
		c11.05,10.78,12.51,23.52,4.31,36.74c-10.16,16.4-23.69,30.22-34.65,46c-1.56,2.24-4.66,4.9-2.59,7.25
		c2.13,2.41,5.27-0.42,7.57-1.71c15.31-8.64,29.06-19.59,43.3-29.81c2.08-1.49,3.8-3.91,6.63-2.77c3.33,1.33,2.63,4.62,2.77,7.4
		c0.43,8.83-2.12,15.67-10.34,20.66c-11.33,6.87-22.03,14.79-32.86,22.46c-2.73,1.93-5.26,4.34-7.36,6.96
		c-4.56,5.7-3.18,8.97,3.91,10.41c15.25,3.1,26.23-4.41,35.72-14.8c4.12-4.51,7.92-9.49,10.25-15.53
		c8.85,10.67,8.13,29.78-1.27,38.83c-12.69,12.21-28.22,19.53-44.49,25.53c-1.83,0.68-3.66,1.38-5.98,2.25
		c3.08,4.3,8.18,4.45,11.6,7.26c4.14,3.41,4.13,5.86-1.19,7.62c-11.73,3.87-22.24,0.82-32.81-6.53c5.24,26.42,9.89,51.97,9.99,78.08
		C231.04,643.84,230.2,647.44,225.97,647.71z"/>
	<path class="st5" d="M888.84,787.72c-14.07,0.07-26.8-7.29-40.85-7.34c-1.69-0.01-3.39-0.12-5.08-0.19
		c-20.79-1.48-39.71-9.94-59.21-16.13c-6.8-2.16-14.52-2.86-19.42-9.21c-4.54-5.75-4.11-12.88-4.68-19.45
		c-2.95-34.23-3.5-68.56-3.31-102.9c0.19-33.51-1.71-66.88-7.19-99.96c-1.03-6.22-3.49-12.21-5.29-18.31
		c19.02,7.44,28.55,23.5,35.95,40.91c12.66,29.75,17.09,61.46,20.58,93.3c1.88,17.19,3.63,34.4,5.15,51.62
		c0.69,7.81,6.04,11.96,11.61,15.83c23.02,15.99,48.22,28.35,72.02,43.06c2.72,1.68,5.35,1.53,8.11,0.46
		c16-6.18,33.18-9.59,47.11-20.62c3.29-2.61,7.18-4.54,10.96-6.44c7.44-3.74,10.46-2.02,10.62,6.03c0.15,7.38,0.03,14.76,0.03,22.69
		c3.09-1.6,3.74-4.93,5.48-7.38c0.94-1.32,1.95-3.53,3.78-2.68c1.19,0.55,2.06,2.68,2.29,4.22c1.41,9.53-1.3,18-7.44,25.28
		c-4.93,5.86-11.11,10.3-17.61,14.29c-9.93,6.55-19.44-1.98-29.21-0.82c-3.14-2.54-7.55-0.21-10.68-2.8
		c-4.39-0.16-8.78-0.32-13.17-0.48C896.38,787.96,891.88,790.43,888.84,787.72z"/>
	<path class="st7" d="M182.65,635.91c17.79,5.25,17.8,5.25,17.72,25.76c-0.01,2.84-0.14,5.68-0.09,8.52c0.09,5.37,1.9,9.18,8,10.08
		c5.25,0.78,10.15,2.97,15.4,6.65c0.91-9.41,1.69-17.5,2.47-25.6c4.39,0.12,8.24,1.01,9.03,6.31c-1.47,11.73-3.64,23.45,0.49,35.12
		c0.77,2.18,0.54,4.64-1.08,6.42c-10.1,11.11-9.1,25.49-11.34,38.84c-0.87,5.22-0.11,10.71-2.33,15.76
		c-3.36,12.67-14.07,17.07-24.62,21.24c-5.57,2.2-9.16-1.52-8.03-7.9c0.78-4.43,2.8-8.58,3.8-12.99c4.11-11.18,4.01-22-2.98-32.13
		c-1.6-2.32-3.61-4.87-6.7-4.48c-3.54,0.45-3.41,4-4.08,6.63c-2.54,10-1.02,20.15-0.92,30.25c-3.54,8.34-1.11,17.29-2.62,25.84
		c-0.61,2.37-2.02,4.17-3.99,5.56c-4.91,2.2-7.86,9.58-15.07,5.77c-4.17-4.02-2.66-9.23-2.93-14.06c2.44-3.39,0.63-7.04,0.68-10.58
		c0.08-5.24-1.09-10.7,2.25-15.48c-0.72-9.28,2.16-19.09-4.13-28.69c-7.99,13.93-10.71,28.78-15.94,42.66
		c-3.59,9.52-6.83,19.17-12.42,27.78c-4.45,6.84-23.27,11.83-30.09,7.77c-3.57-2.12-1.79-4.62,0.24-6.97
		c5.17-5.99,10.25-12.06,15.37-18.1c2.74-3.24,4.84-6.8,6.72-10.67c2.37-4.89,3.32-9.41-1.23-12.97c-4.42-3.45-9.35-2.83-14.19,0.09
		c-8.08,4.88-14.92,11.22-21.34,17.99c-8.87,9.35-19.06,15.7-32.29,16.68c-3.94,0.29-7.47,0.23-10.14-2.77
		c-2.85-3.19-0.55-6.42,0.59-9.53c5.72-15.64,19.13-22.14,33.17-27.96c7.86-3.26,15.47-6.89,21.8-12.89
		c3.96-3.76,5.49-7.96,3.75-12.97c-1.76-5.09-6.35-4.72-10.69-4.88c-11.43-0.42-21.22,5.25-31.73,8.23
		c-2.3,0.65-4.68,2.96-7.02,0.42c-2.18-2.36-0.55-4.92,0.44-7.14c3.51-7.93,6.01-16.69,15.36-20.22c3.64-3.95,8.55-3.75,13.32-4.09
		c13.33-0.92,26.35,2.22,39.55,2.86c4.2,0.65,8.43,0.88,12.66,0.27c1.31-0.08,2.8,0.73,3.86,0.02c0.52-0.35-0.83-1.03-1.45-1.49
		c-1-0.57-1.92-1.21-2.83-1.88c-7.69-4.79-16.16-7.97-24.26-11.89c-2.48-1.2-5.5-1.61-6.75-4.61c-0.45-0.32-0.86-0.73-1.36-0.94
		c-4.88-2.06-10.63-3.07-14.48-6.33c-7.37-6.26,6.56-6.23,4.23-11.59c5.91-6.62,13.13-5.41,19.95-2.51
		c9.37,3.98,18.67,8.16,27.81,12.66c4.59,2.26,9.3,4.18,14.23,5.53c2.44,0.67,5.19,1.68,7.21-0.52c2.28-2.48,0.94-5.38-0.12-7.98
		c-2.96-7.2-8.19-12.2-15.42-14.92c-7.71-2.9-15.63-5.02-24.02-4.5c-2.23,0.14-4.84,0.83-6.21-1.51c-1.48-2.53-0.11-5.02,1.41-7.08
		c4.78-6.51,10.98-11.53,18.18-14.96c3.48-1.66,6.95-3.72,10.88-4.42c1.49,8.77,7.77,7.58,13.91,6.71
		c4.72,2.14,8.89,5.91,14.68,4.87c1.92-0.35,3.45,0.42,3.64,2.4c0.42,4.3,4.03,5.69,6.79,7.86c2.28,1.55,4.55,3.12,7.22,5.06
		c-0.85-4.11-2.9-6.9-5.89-9.11C174.21,639.17,174.59,638.27,182.65,635.91z"/>
	<path class="st8" d="M234.14,666.44c-2.66-1.71-5.33-3.41-7.99-5.12c-2.43-4.5-1.56-9.05-0.18-13.61c2.24-2.22,3.09-5.81,6.64-6.74
		c2.06,7.42,5.74,13.52,14.57,16.68c-5.84-14.21-10.37-28.11-12.25-42.77c-2.38-18.58,9.08-33.1,28.89-35.23
		c-3.41,11.45-7.09,22.68-3.81,34.64c1.94,7.07,5.11,13.21,11.2,17.47c2.69,1.88,5.45,4.77,9.11,3c3.63-1.75,3.37-5.52,3.46-8.97
		c0.34-13.15-2.61-25.9-4.66-38.76c-1.73-10.84-1.63-20.75,9.53-27.32c6.26-3.68,8.04-3.14,8.91,4.43c1.9,16.6,2.7,33.35,6.63,49.67
		c0.71,2.94,1.72,5.8,2.73,9.14c5.66-5.76,6.16-8,9.28-26.93c2.25-13.67,4.53-27.38,10.01-40.27c4.07-9.58,21.65-17.45,31.41-14.33
		c4.05,1.29,2.92,3.48,1.36,5.73c-4.03,5.82-8.24,11.51-12.26,17.34c-2.89,4.2-5.29,8.67-6.92,13.57
		c-1.36,4.08-1.61,7.94,1.74,11.01c3.52,3.22,7.79,3.21,11.95,1.38c6.65-2.91,11.67-7.95,16.41-13.26c4.91-5.51,9.84-11,14.59-16.64
		c7.37-8.74,17.54-11.07,28.09-12c6.92-0.61,9.63,2.87,7.38,9.52c-3.39,10-7.88,19.25-18.06,24.65
		c-8.98,4.76-17.48,10.43-26.14,15.79c-3.16,1.96-5.94,4.44-7.9,7.63c-2.17,3.54-3.24,7.29-0.77,11.19
		c2.47,3.9,6.29,4.55,10.42,4.01c11.75-1.52,21.96-7.24,32.51-12.04c2.47-1.12,5.27-3.91,7.76-1.82c2.68,2.25,1.11,5.97,0.37,8.89
		c-4.22,16.6-10.16,20.9-28.94,22.97c-15.58,1.71-31.19,1.32-46.79,1.77c-4.89,0.14-12.44-0.75-13.25,3.81
		c-0.64,3.64,7.38,4.64,11.81,6.16c14.73,5.05,29.94,8.35,45.09,11.88c2.7,0.63,6.15,0.66,6.85,3.95c0.69,3.29-2.64,4.72-4.61,6.61
		c-6.17,5.93-12.89,7.99-21.65,5.2c-13.72-4.36-27.8-7.62-41.77-11.19c-2.71-0.69-5.61-0.94-8.41-0.87c-5.77,0.14-7.59,3.05-5.2,8.4
		c5.34,11.94,15.67,16.57,27.63,18.51c8.7,1.41,17.43,0.78,26.16-1.15c-2.54,16.2-20.41,26.64-38.16,22.72
		c-16.48-3.64-31.46-10.9-46.85-19.96c1.04,5.08,1.82,9.17,2.74,13.23c0.45,1.99,1.11,4.07-0.74,5.51
		c-2.14,1.67-4.45,0.67-6.29-0.68c-7.32-5.35-12.64-12.11-14.33-21.28c-3.54-3.97-0.93-9.41-3.27-13.66
		c-2.51-3.54-6.49-3.95-10.23-5.11C243.03,671.69,237.22,671.75,234.14,666.44z"/>
	<path class="st8" d="M138.34,627.44c-1.25,2.8-2.69,4.3-6.31,5.37c-10.53,3.09-18.3,10.27-24.64,20.95
		c14.64-1.57,27.17,0.51,38.47,7.8c5.46,3.53,8.84,8.68,10.83,14.8c0.99,3.03,2.01,6.24-0.39,8.86c-2.46,2.69-5.71,1.69-8.77,0.82
		c-13.18-3.75-25.22-10.23-37.37-16.29c-8.58-4.28-16.75-6.2-25.73-2.11c-10.33,1.73-20.66,3.46-30.99,5.2
		c-10.55,1.78-18.52-2.2-23.13-11.66c-2.51-5.14,0.26-6.28,4.81-6.9c15.16-2.05,30.28-4.37,45.4-6.65c4.75-0.72,9.25-2.22,14.3-5.09
		c-3.51-3.83-7.69-4.2-11.6-4.96c-17.21-3.35-34.82-4.67-51.62-10.09c-14.62-4.72-21.86-15.94-20.37-30.98
		c0.56-5.65,3.47-4.93,6.89-2.73c7.39,4.74,14.48,10.01,22.14,14.28c6.05,3.37,12.93,7.48,19.58,1.46
		c4.62-4.18,2.81-12.56-4.9-20.21c-8.24-8.17-17.2-15.63-26.09-23.11c-8.33-7.02-10.11-16.82-11.48-26.59
		c-0.95-6.75,2.81-9.77,9.43-7.53c9.33,3.15,18.57,6.54,24.02,16.14c5.3,9.33,11.57,18.12,17.55,27.06
		c2.05,3.07,4.67,5.65,7.87,7.65c3.4,2.12,6.91,2.64,10.5,0.96c3.93-1.84,4.61-5.4,4.39-9.34c-0.63-11.45-6.76-20.84-11.37-30.82
		c-1.61-3.49-5.89-7.63-3.29-10.71c3.28-3.87,8.37-0.15,12.69,0.72c13,2.61,17.25,11.73,19.17,23.67
		c3.04,18.85,2.09,37.95,4.59,56.78c0.33,2.5-0.85,6.83,2.87,6.94c3.06,0.09,3.28-4.14,4.2-6.7c5.54-15.51,8.45-31.68,11.96-47.71
		c0.42-1.93,0.74-3.89,1.24-5.8c1.37-5.24,3.47-6.57,8.03-2.28c8.05,7.57,10.16,15.99,7.14,26.75
		C144.48,599.25,139.98,613.03,138.34,627.44z"/>
	<path class="st9" d="M1158.36,944.14c-30.66,0.07-61.33,0.06-91.99,0.28c-5.05,0.04-7.22-1.5-7.01-6.8
		c0.31-7.65,0.32-15.34,0.01-22.99c-0.33-8.02,3.26-11.2,11.13-11.14c25.84,0.18,51.68,0.1,77.51,0.04c3.04-0.01,6.2,0.74,9.96-1.34
		c-4.74-3.26-11.25-5.05-9.86-12.39c1.84-5.04-2.02-4.23-4.59-4.24c-8.99-0.03-17.99,0.07-26.98,0.06
		c-53.09-0.06-106.19-0.45-159.28,0.17c-1.93,0.02-4.48,0.63-4.69-1.92c-0.2-2.37,2.45-2.7,4.31-3.08
		c3.64-0.75,7.35-0.52,11.04-0.52c53.1-0.01,106.2-0.4,159.3,0.25c14.1,0.17,25.98-0.72,31.09-16.26c4.64-3.04,9.26-1.34,13.87,0.08
		c14.02,2.42,26.1,10.42,39.71,13.87c14.32,3.63,25.92,13.38,40.14,17.1c2.11,0.55,3.1,2.33,3.4,4.46
		c-1.89,11.04-7.42,20.75-11.47,30.99c-0.73,1.86-2.17,3.35-4.49,3.38c-5.26,0.54-10.07-2.38-14.08-4.33
		c-9.66-4.71-20.29-7.05-29.49-12.65c-5.2,1.39-9.21-2-13.67-3.46c-4.31-1.41-8.44-3.33-12.72-4.83c-5.08-1.78-7.48-0.42-7.23,5.32
		c0.3,6.8,0.21,13.61,0.02,20.42C1162.19,938.21,1162.64,942.19,1158.36,944.14z"/>
	<path class="st10" d="M1093.18,710.4c0.02,7.68,1.86,14.34,5.95,21.37c6.78,11.67,10.17,24.8,9.99,38.82
		c-0.4,31.13-0.09,62.28-0.08,93.42c-2.53,4.11-6.52,3.99-10.57,3.61c-11.91-1.13-23.79-1.16-35.71,0.26
		c-3.72,0.44-8.69,2.18-10.16-3.97c0.01-32.64-0.48-65.28,0.26-97.9c0.32-14.17,4.94-27.82,13.83-39.17
		c4.17-5.32,2.12-10.82,3.11-16.2C1077.57,706.87,1085.36,707.1,1093.18,710.4z"/>
	<path class="st8" d="M1025.68,291.67c-1.38,4.04,3.56,10.8-5.33,11.74c-2.15,0.23-0.05,2.27,0.31,3.25
		c1.83,5.05,4.26,9.91,5.76,15.04c1.3,4.44,3.34,9.46-2.98,12.46c-2.87,1.36-1.14,3.91-0.7,5.97c1.37,6.35,3.08,12.65,4.12,19.05
		c0.81,4.94-1.19,8.32-6.68,5.84c-4.29-1.93-4.98-0.28-5.8,3.38c-1.04,4.67-2.63,9.24-4.3,13.73c-0.84,2.25-1.49,5.58-4.47,5.42
		c-2.22-0.12-3.29-2.92-4.06-5.07c-1.81-5.05-3.82-10.07-5.14-15.26c-1.04-4.08-2.2-6.04-7.23-5.8c-7.99,0.37-10.47-3.32-9.2-11.37
		c1.15-7.32,3.99-14.13,6.54-21.16c-2.25-1.68-4.23,0.27-6.25,0.29c-4.11,0.04-5.05-1.58-3.78-5.2c2.61-7.42,5.19-14.85,7.78-22.28
		c-1.94-1.8-4.3-0.82-6.47-0.92c-7.76-0.38-10.2-3.29-8.27-10.76c1.71-6.61,5.21-12.52,8.23-18.59c1.68-3.38,2.97-6.01-2.48-7.36
		c-7.43-1.84-7.63-7.95-5.81-13.62c1.97-6.12,4.62-12.2,10.07-16.35c4.64-0.88,7.32-5.08,11.67-6.82c-2.75-2.15-5.28-4.3-8.29-5.85
		c-3.27-1.68-4.12-4.54-3.25-7.9c0.94-3.62,3.72-3.26,6.75-3.3c5.9-0.08,10.16,0.88,11.21,8.01c0.76,5.21,4.02,5.5,7.76,1.89
		c4.06-3.92,8.05-7.93,12.85-11.01c2.69-1.72,3.34-4.22,2.67-7.38c-0.7-3.32,1.19-6.5,4.27-5.86c7.9,1.65,7.54-3.15,7.48-8.17
		c0.49-2.36,0.88-4.75,1.78-7c2.86-4.34,6.04-8.22,11.94-8.13c2.88,0.05,4.51-1.91,6.2-3.86c7.18-8.32,13.18-17.65,21.33-25.1
		c3.68-3.36,0.79-7.57,2.1-11.16l0.01,0.03c5.84-1.97,12.55,0.33,18.03-3.71c0.77-0.57,2.29-0.05,2.79,1.2
		c0.61,1.55-0.29,2.84-1.26,3.79c-4.05,3.98-8.63,7.34-13.07,10.87c-3.22,2.56-5.65,4.92-3.73,10c1.44,3.81,1.01,8.51-1.52,12.28
		c-2.3,3.44-6.19,4.95-9.7,3.56c-4.98-1.96,0.22-5.52,0.03-9.12c-3.09,4.01-5.48,7.51-8.45,10.8c5.45,3.06,9.42,8.03,15.33,10.13
		c-0.39,0.6-0.79,1.2-1.18,1.8c-3.52,1.8-7.18,3.24-11.02,4.2c-2.23,0.56-4.89,1.13-6.35-0.86c-6.36-8.61-7.99-0.37-9.9,3.07
		c-3.55,6.4-5.31,13.45-4.02,20.94c-2.04,10.13-11.17,9.7-18.3,11.99c-3.11,1-6.7-0.08-9.45,0.54c-1.76,10.4,0.77,19.49,5.36,28.23
		c1.18,2.24,1.74,5.23,0.84,7.46c-3.71,9.17-0.28,16.92,3.95,24.73C1025.61,286.56,1026.8,288.99,1025.68,291.67z"/>
	<path class="st8" d="M1034.06,187c0.75,4.34,2.69,8.94-2.5,12.03c-0.93,0.55-2.22,1.54-2.91,1.26c-1.84-0.75-2.35-5.24-5.54-2.06
		c-2.63,2.62,1.07,4.56,1.08,6.77c0.02,3.08-2.87,5.14-5.13,6.27c-5.15,2.58-8.37,7.15-12.49,10.74c-6.28,5.48-10.42,5.1-11-3.01
		c-0.72-10.09-8.72-4.27-12.67-6.96c-1.46-1-1.98,3.82-1.23,6.17c0.24,0.75,2.22,0.82,2.71,1.62c2.32,3.81,11.49,2.25,8.19,10.4
		c-5.72-2.78-5.91,7.78-11.7,4.85c-0.39-0.73-0.37-1.43,0.11-2.11c0.65-0.52,1.14-1.19,1.66-1.84c-0.89,0.06-1.1,1.03-1.83,1.38
		c-1.48,0.86-2.73,2.1-4.4,2.5c-2.1,0.51-4.46,1.72-6.12-0.67c-1.48-2.13-0.45-4.28,0.63-6.3c1.19-2.23,3.12-3.96,4.15-6.28
		c-2.72-9.48-4.4-10.85-13.16-10.27c-5.76,0.38-11.32,0.3-15.96-3.93c-1.26-1.15-3.03-2.07-4.63-0.95c-1.7,1.18-0.89,3.07-0.44,4.68
		c0.98,3.54,1.91,7.1,3.01,10.62c1.14,4.87,2.42,9.83,1.42,14.78c-1.01,5.05-3.35,8.63-9.08,4.24c-1.17-6.56,0.13-13.35-2.21-19.9
		c-1.34-3.73-2.68-6.76-6.81-7.83c-4.73-1.23-5.78,2.78-7.47,5.42c-9.14,14.28-13.78,30.39-18.51,46.45
		c-0.72,2.45-1.14,4.98-1.93,7.41c-0.94,2.89-1.19,6.38-4.75,7.51c-1.89,0.6-2.67-0.48-5.52-6.65c-2.48,2.45-3.62,5.72-5.72,8.37
		c-4.78,6.05-4.12,8.54,3.61,10.5c6.22,1.57,7.69,4.69,6.34,10.46c-0.45,1.94-2.02,3.69-1.66,5.62c1.4,7.53,1.16,13.26-9.22,10.82
		c-1.07-0.25-2.13,1.62-1.98,3.41c2.95,1.65,6.74-3.88,8.95,0.31c2.43,4.59-0.53,9.1-1.62,15.27c2.51-9.92,3.96-18.39,4.46-26.98
		c0.15-2.56,0.64-5,0.93-7.5c0.28-2.4,0.43-4.58,3.41-5.01c2.53-0.37,4.48,0.55,5.72,2.75c1.12,1.99,2.89,3.5,3.96,5.51
		c-1.64,3.66-1.35,7.58-1.68,11.44c-1.55,18.33-11.96,31.86-24.32,44.3c-1.95,1.96-4.15,3.23-6.8,2.03
		c-2.72-1.24-1.79-4.09-1.46-6.03c0.69-4.06,1.03-8.23,2.99-12.06c3.19-6.23,8.1-12.41-1.32-18.26c-3.38-2.1-0.4-6.5,0.78-9.24
		c2.65-6.13,6.23-11.85,9.51-17.87c-0.09-0.14-0.26-0.82-0.56-0.88c-13.86-2.98-15.41-6.08-9.13-18.8c1.61-3.25,3.46-6.38,5.32-9.5
		c1.76-2.97,4.04-5.65-1.51-7.37c-5.96-1.84-1.12-5.49-0.12-7.04c6.85-10.66,15.28-20.14,24.26-30.38
		c-5.32-0.65-9.75,2.72-14.26,0.76c3.66-9.22,10.14-14.18,35.72-27.35c-3.92-4.53-8.74-3.71-13.67-2.49
		c-7.15,1.77-14.24,6.05-21.61,0.32c-0.65-0.5-2.58,0.34-3.76,0.88c-7.1,3.25-13.84,5.9-21.23-0.15c-2.64-2.15-6.04,1.41-8.52,3.19
		c-3.5,2.51-6.71,4.96-12.31,3.08c12.16-18.83,31.43-17.87,49.5-19.83c6.55-1.19,13.1-1.11,19.65-0.06
		c7.49-0.75,14.49,2.08,21.75,2.98c8.23-1.31,16.36,1.18,24.56,0.6c5.99,2.93,2.89,5.99,0.05,8.96c-1.43,1.49-2.92,2.96-1.03,4.94
		c1.73,1.81,3.56,0.95,5.2-0.37c4.14-3.35,11.44-3.45,11.23-11.34c-0.04-1.42,1.88-2.69,3.9-2.15c-0.23,7.47,5.19,11.89,9.77,18.84
		c0.31-6.33,0.37-10.99,0.84-15.6c0.19-1.84,0.82-4.24,2.96-4.65c2.34-0.45,3.1,1.7,4.02,3.55c2.54,5.16,3.06,10.77,3.2,16.27
		c0.1,4.31,1.67,7.31,5.28,10.54c1.68-7.07,3.47-13.64,4.73-20.31c0.86-4.56,3.3-8.32,5.2-12.36c0.79-1.67,2.34-4.29,4.39-2.76
		c8.41,6.22,8.48-1.81,10.78-6.01c0.8-1.46,1.34-3.06,2-4.59C1037.68,175.65,1034.44,181.66,1034.06,187z"/>
	<path class="st0" d="M1052.62,863.9c2.74,3.1,6.4,1.97,9.52,1.54c12.63-1.73,25.23-1.94,37.82,0c3.29,0.51,6.08-0.85,9.09-1.44
		c16.41,0.08,32.83,0.16,49.24,0.25c-0.39,14.06-5.09,18.86-18.48,18.86c-59.08,0-118.16,0.01-177.24,0.01c-2.8,0-5.61,0-8.41,0
		c-0.01,0.5-0.02,1-0.03,1.51c2.83,0,5.65,0,8.48,0c59.65,0,119.3,0,178.94,0.01c2.27,0,4.75-0.51,6.77,0.22
		c4.2,1.5,3.95,3.46-0.21,4.94c-2.85-6.24-8.35-3.29-12.53-3.01c-4.43,0.3-0.88,3.98-1.15,6.09c-0.31,2.42-0.71,5.05-3.57,4.76
		c-3.06-0.31-7.14-1.87-6.18-5.54c1.68-6.38-1.95-5.72-5.8-5.72c-51.38,0.02-102.76,0.14-154.14-0.13
		c-7.72-0.04-9.04,2.82-5.56,10.37c-4.54-1.67-7.95-5.77-10.93-0.09c-1.04,1.98-3.85,1.85-5.88-0.23c-2.53-2.58-0.52-3.92,1.16-5.49
		c0.96-0.89,2.61-1.27,2.14-4.72c-7.53,0-15.32,0-23.1,0c6.57-7.61,13.89-14.59,19.08-23.33c1.25,1.5,2.98,1.42,4.68,1.42
		C981.76,864.1,1017.19,864,1052.62,863.9z"/>
	<path class="st8" d="M906.24,306.84c-1.89-0.26-4.28,0.26-4.98-2.26c-0.72-2.61-1.29-5.34-4.85-4.23
		c-3.37,1.06-2.33,4.23-2.26,6.57c0.33,10.48-2.55,20.39-5.14,30.35c-0.34,1.31-1.27,2.47-3.24,3.39c0.99-4.01,2.1-7.99,2.93-12.03
		c0.38-1.86,1.04-4.2-0.89-5.49c-1.85-1.23-3.08,0.74-4.24,1.82c-2.45,2.29-5.71,1.45-6.62-0.4c-1.27-2.59,1.19-5.36,3.22-7.17
		c1.24-1.1,2.48-5,5.08-1.76c1.3,1.62,2.01,3.87,4.35,2.05c1.74-1.35,1.63-4.04,0.64-5.53c-1.94-2.94-2.34-4.47,0.39-7.75
		c3.29-3.95,3.83-8.52-4.01-9.87c-10.81-1.85-11.71-6.06-4.57-14.57c2.82-3.36,4.64-7.55,7.07-11.63c3.13,3.1,2.43,7.21,4.73,10.74
		c4.13-4.35,3.79-9.99,5.27-14.84c5.29-17.36,10.34-34.82,20.84-49.97c1.43-2.06,3.56-7.04,5.27-5.02
		c2.93,3.45,9.49,0.75,10.25,8.01c0.81,7.73,4.59,15.15,1.34,23.13c3.53,7.68,4.27,15.85,3.68,24.09
		c-0.67,9.25-4.41,12.41-14.14,12.77c-1.34,0.05-2.01,0.76-2.56,1.78c-0.42,7-0.27,14.1-1.38,20.99
		C920.35,312.95,916.67,314.3,906.24,306.84z"/>
	<path class="st8" d="M1040.69,211.34c-4.23-11.37,2.56-19.84,7.67-28.69c1.68-2.91,4.99-4.36,6.24-0.47
		c2.25,6.99,6.4,4.61,10.46,3.1c2.73-1.01,5.42-1.39,8.25-1.18c-5.97,9.32-16.76,9.54-26.38,13.76c1.52,2.47,5.01,3.95,4.28,7.25
		c-0.75,3.41-4.91,3.74-6.29,6.76c0.22,0.3,0.42,0.91,0.72,0.96c27.46,4.85,39.93,25.65,50.9,47.94
		c5.29,10.74,13.07,19.8,19.55,29.74c3.21,4.93,4.81,9.98,5.13,15.86c0.33,6.07-1.38,7.56-7.01,5.2
		c-6.84-2.86-11.57-7.89-15.79-13.72c-1.14-1.57-1.56-6.41-5.52-1.36c-2.95,3.76-5.2-0.29-6.74-2.9c-4.2-7.1-6.58-14.98-9.41-22.66
		c-0.83-2.25-0.08-5.24-4.45-2.42c-3.57,2.3-6.14-1.63-7.76-4.58c-2.03-3.7-3.58-7.67-5.34-11.52c-3.73-2.71-3.4-10.09-10.42-9.09
		c-0.33,0.05-0.94-0.78-0.99-1.29C1046.58,231.53,1038.51,222.61,1040.69,211.34z"/>
	<path class="st11" d="M923.8,279.05c-0.36-2.17-0.24-3.73,2.72-3.87c9.92-0.47,11.98-2.37,11.9-12.24
		c-0.07-7.52-1.03-15.02-1.59-22.53c4.3,2.37,6.61,0.74,6.63-3.8c0.02-4.95-0.56-9.91-0.87-14.87c11.61-4.77,23.28-4.28,34.98-0.34
		c-0.63,4.91-7.51,6.79-6.3,13.19c3.42-0.94,6.56-1.81,9.7-2.68c0.44,0.24,0.65,0.55,0.63,0.92c-0.02,0.4-0.09,0.6-0.21,0.6
		c-0.16,0.55-0.33,1.1-0.49,1.65c-4.97,4.36-7.23,10.51-9.59,16.26c-3.34,8.12-0.5,10.52,12.74,11.73
		c-3.61,7.84-7.32,15.44-10.63,23.21c-4.78,11.21-3.81,12.7,8.25,13.83c1.18,0.11,2.17,0.38,2.63,1.6
		c-22.03,1.64-41.1-4.56-56.25-21.22C926.99,279.35,925.84,277.66,923.8,279.05z"/>
	<path class="st12" d="M254.7,864.3c-0.72,1.35-2.02,1.53-3.35,1.64c-3.06,1.5-6.13,0.53-9.15-0.06
		c-19.44-3.76-38.81-7.91-58.24-11.74c-2.99-0.59-6.87-0.88-7.53-4.4c-0.6-3.16,2.78-4.64,5.18-6.05
		c23.71-13.87,48.01-26.69,71.69-40.6c1.97-1.16,4.12-1.91,6.5-1.41c1.35,0.54,2.45,1.24,1.87,3c-0.13,13.82-3.47,27.19-5.72,40.72
		C254.92,851.66,253.7,857.9,254.7,864.3z"/>
	<path class="st12" d="M155.73,801.57c6.47,1.28,8.6-5.96,13.86-7.05c11.62-1.46,23.16,0.74,34.68,1.4
		c12.68,0.73,25.47,1.12,38.1,2.98c2.69,0.4,6.46-0.33,7.16,3.07c0.66,3.24-2.73,4.58-5.18,5.97
		c-26.13,14.88-52.68,29.03-78.47,44.54C161.24,835.76,158.63,818.64,155.73,801.57z"/>
	<path class="st12" d="M261.67,804.68c-0.59-0.61-1.18-1.22-1.77-1.82c-2.33-3.58-6.2-4.01-9.78-4.09
		c-20.14-0.46-40.13-3.12-60.25-3.76c-5.77-0.18-12.08,0.77-16.84-4.05c0.03-6.43,0.26-12.88,0-19.3c-0.14-3.4,1.01-5.91,3.27-8.17
		c5.81-3.46,11.57-3.63,17.27,0.28c-0.11,4.17,0.24,8.25-2.88,11.95c-1.42,1.69-1.71,5.2,0.19,7.14c2.24,2.29,4.28-0.03,6.61-1.05
		c9.01-3.92,17.96-7.65,21.35-18.11c3.81-3.47,8.48-0.5,12.6-1.7c2.32-0.22,4.53-0.09,6.19,1.86c8.14,2.55,16.58,2.57,24.99,2.96
		c2.69,0.12,6.74-0.49,5.52,3.97C265.07,781.94,266.35,793.88,261.67,804.68z"/>
	<path class="st8" d="M977.38,189.16c-0.24,0.15-0.69,0.3-0.68,0.45c0.25,9.99-9.21,11.42-14.52,16.5c-3.98,3.8-5.95-0.2-8.1-2.35
		c-2.3-2.31-3.04-4.48,1.04-6.38c2.37-1.1,7.64-2.07,3.17-6.84c-8.09-10.8-14.1-22.65-18.13-35.52
		c-6.54-17.11-13.75-33.98-16.49-52.33c-1.81-12.1-0.47-22.91,4.64-30.75c2.33,2.71,1.18,5.96,1.57,8.89
		c0.72,5.4-2.69,12.03,6.46,14.45c3.47,0.92,2.35,7.11,3.51,10.84c1.08,3.48,1.21,7.25,2.15,10.78c0.99,3.73,3.02,2.05,4.83,0.54
		c0.62-0.75,1.31-0.79,2.07-0.22c5.73,2.28,5.21,7.87,5.84,12.32c1.91,13.36,12.22,23.86,12.19,37.98
		c-0.01,4.16-2.34,11.34,6.86,11.8C975.64,179.4,977.1,185.41,977.38,189.16z"/>
	<path class="st11" d="M1040.69,211.34c-0.31,4.03,0.34,7.61,3.27,10.83c4.07,4.47,2.61,10.65,4.21,15.92
		c1.43,4.68,3,8.52,7.23,0.42c0.47,5.71,4.05,9.22,3.8,13.91c-6.83,13.17-14.67,25.54-26.51,34.96c-2.21,1.76-4.21,3.6-7.02,4.29
		c-3.09-6.3-6.07-12.65-9.32-18.86c-1-1.91-1.88-3.95-0.7-5.58c6.98-9.67,1.03-17.48-3.31-25.61c-1.45-2.71-4.41-4.66,0.03-8.52
		c3.92-3.4-2.37-7.03-3.46-11.29c8.26-2.01,16.74,0.34,24.84-3.54C1037.57,216.44,1039.23,214.53,1040.69,211.34z"/>
	<path class="st12" d="M251.27,869.32c0.38,17.09,0.38,17.08-16.75,17.07c-19.25-0.01-38.5-0.19-57.75,0.07
		c-5.55,0.07-7.4-1.78-7.36-7.3c0.04-5.08,2.04-10.91-3.29-14.92c0.01-3.41,0.02-6.82,0.04-10.23c2.34-2.07,5.1-2.22,7.95-1.65
		c24.51,4.92,48.92,10.32,73.49,14.95C249.01,867.57,250.18,868.41,251.27,869.32z"/>
	<path class="st13" d="M1253.71,899.8c-5.73-5.14-13.49-6.07-20.04-9.68c-19.54-10.77-42.02-14.71-61.5-25.79
		c29.25-0.04,58.49,0.01,87.73-0.22c5.31-0.04,7.79,1.19,7.5,7.07c-0.52,10.76-0.42,21.55-0.58,32.33
		C1261.17,906.78,1257.62,902.66,1253.71,899.8z"/>
	<path class="st14" d="M1253.71,899.8c5-0.99,8.19,4.41,13.11,3.72c3.8,1.8,7.55,3.69,11.4,5.37c10.05,4.4,10.08,4.37,5.75,14.72
		c-2.61,6.25-5.5,12.4-7.83,18.75c-1.66,4.52-4.28,6.38-8.97,5.01c-7.39-4.32-15.36-7.32-23.48-9.84c-2.11-0.66-3.47-1.43-4.21-3.4
		C1245.53,923.24,1249.84,911.61,1253.71,899.8z"/>
	<path class="st15" d="M251.27,869.32c-17.5-0.78-34.12-6.34-51.2-9.39c-11.29-2.02-22.6-3.95-33.91-5.92
		c-0.23-0.48-0.33-0.99-0.28-1.53c3.73-7.5,11.7-9.46,18.07-13.17c20.56-11.97,41.52-23.24,62.32-34.8c0.94-0.52,2.1-0.97,1.75-3.15
		c-18.31-1.2-36.78-2.43-55.25-3.6c-7.82-0.49-15.63-0.95-23.19-3.23c1.15-1.19,2.29-2.38,3.44-3.57
		c15.34,2.02,30.8,2.55,46.23,3.43c11.24,0.65,22.43,1.92,33.73,1.98c2.74,0.02,9.99-1.27,6.93,6.49
		c-13.43,5.39-25.2,13.83-37.84,20.66c-15.07,8.14-29.91,16.71-46.87,26.21c26.94,5.73,51.54,10.97,76.15,16.2
		C251.32,867.06,251.3,868.19,251.27,869.32z"/>
	<path class="st8" d="M176.33,650.97c-2.49-2.82-8.18-3.11-6.81-9.03c0.39-1.69-0.68-2.09-2.57-1.37
		c-6.83,2.57-11.08-1.31-14.7-6.41c14.27-12.53,13.42-28.93,11.61-45.56c-0.2-1.82-2.34-3.94-0.14-5.33
		c1.81-1.15,3.78,0.42,5.36,1.66c17.55,13.89,20.77,16.74,16.1,41.12c-0.64,3.32-1.67,6.57-2.52,9.86c-1.81,2.51-9.2,3.06-2.94,8.39
		C181.03,647.76,179.16,649.61,176.33,650.97z"/>
	<path class="st16" d="M96.05,686.52c11.25,4.58,23.04,8.05,32.74,15.85c-2.67,4.84-7.15,5.61-12.08,5.39
		c-6.7,2.65-13.31-0.19-19.78-0.93c-11.77-1.35-23.35-1.66-34.98,0.49c-3.68-6.16-9.22-11.38-10.19-20.12
		C67,692.21,81.74,695.09,96.05,686.52z"/>
	<path class="st8" d="M1074.49,182.3c-4.6-0.44-9.53,0.41-11.79-5.63c-1.84-4.92-4.52,3.82-7.34-1.83
		c1.9-5.67,7.67-10.52,11.89-16.31c0.49-0.68,2.26-1.17,2.94-0.81c1.37,0.72,1.54,2.54,0.92,3.76c-1.25,2.44-2.91,4.67-5.16,8.16
		c4.39-1.39,9.08,0.27,10.21-4.29c0.98-3.95,3.71-8.61-1.33-12.43c-3.06-2.32,0.14-4.07,1.54-5.31c6.45-5.71,13.1-11.19,19.41-17.81
		c-6.17,5.91-12.85,5.29-19.74,2.72c1.81-3.85,3.78-6.68,9.03-4.66c3.07,1.18,5.57-2.09,8.36-3.24c4.83-1.99,9.12-5.54,15.23-5.6
		c-0.09,4.18-2.34,6.69-4.21,9.34c-1.86,2.63-3.61,4.87,0.27,7.64c4.45,3.18,1.71,6.02-1.55,7.72c-5.98,3.12-12.2,5.78-18.33,8.63
		c7.47,7.66,7.28,10.09-1.92,15.89c-4.5,2.83-9.39,5.06-14.31,7.67C1071.06,177.91,1075.03,178.12,1074.49,182.3z"/>
	<path class="st17" d="M237.61,763.86c-2.21-0.03-4.43-0.07-6.64-0.1c-4.21-5.85-0.23-11.48,0.85-16.97
		c4.2-21.37,10.75-42.02,20.8-61.43c1.78-3.44,3.11-7.38,7.43-8.7c2.96,4.88,0.62,10.24,1.39,15.32
		c-7.54,5.68-8.02,14.94-11.09,22.76C244.13,730.55,240.68,747.18,237.61,763.86z"/>
	<path class="st18" d="M1034.06,187c0.05-5.26,0.2-10.54-3.53-14.91c-0.84-9.65-1.09-19.39-2.68-28.9
		c-2.38-14.19-3.84-28.51-6.35-42.63c-1.68-9.46-2.22-18.99-3.8-28.37c-2.45-14.46-4.27-28.97-6.35-43.47
		c-1.31-9.13-4.51-17.98-2.65-27.53c2.71,1.24,2.87,3.64,2.92,5.81c0.46,19.49,4.79,38.57,7.69,57.67
		c4.08,26.89,6.61,54.08,12.52,80.71c1.44,6.49-1,13.7,3.49,19.69c1.64,5.13,2.98,10.27,0.35,15.5
		C1034.86,182.64,1036.39,185.31,1034.06,187z"/>
	<path class="st8" d="M1035.68,180.57c0.19-5.17-3.67-10.25-0.35-15.5c4.8-3.41,7.73,0.85,11.48,2.9c2.64-5.55,4.99-11.2,7.97-16.5
		c2.39-4.25,3.38-9.58,11.22-8.71c4.59,0.51,5.4-7.9,10.04-10.3c4.69,5.88,2.3,9.89-2.49,14.76c-7.47,7.59-13.92,16.19-20.66,24.49
		c-1.26,1.55-2.54,4.26-4.29,3.4C1041.86,171.81,1039.94,178.78,1035.68,180.57z"/>
	<path class="st19" d="M948.9,117.21c-0.69,0.07-1.38,0.15-2.07,0.22c-0.36-20.42,4.36-40.33,5.93-60.51
		c1.21-15.51,4.83-30.76,4.51-46.38c-0.07-3.58-0.14-7.24,3.46-10.55c1.87,19.2-2.95,37.06-4.28,55.12
		c-1.4,19.06-5.69,37.93-6.29,57.18C950.11,113.95,949.34,115.58,948.9,117.21z"/>
	<path class="st20" d="M1093.18,710.4c-7.79,0.08-15.57,0.16-23.36,0.24c0.49-4.96-4.27-12.36,6.81-11.94
		C1096.32,699.44,1093.26,696.47,1093.18,710.4z"/>
	<path class="st21" d="M155.73,761.46c0.05,6.44,0.18,12.89,0.1,19.33c-0.04,2.58,1.12,5.92-3.03,6.73
		c-1.25-5.97-2.52-11.94-3.74-17.92C147.96,764.19,149.55,760.92,155.73,761.46z"/>
	<path class="st22" d="M365.97,811.4c3.81,0.52,6.16-5.41,10.78-2.24c-1.21,4.46-8.14,6.34-5.98,12.38
		c-1.08,0.06-2.16,0.11-3.23,0.17C367.02,818.27,366.49,814.84,365.97,811.4z"/>
	<path class="st8" d="M911.72,185.54c-6.55,0.02-13.1,0.04-19.65,0.06C898.61,183.78,905.16,183.93,911.72,185.54z"/>
	<path class="st5" d="M449.74,909.1c6.91-2.92,12.9-6.78,21.71-3.28c7.16,2.84,15.82,2.6,23.8,3.92
		c16.45,2.71,32.68,7.33,49.55,7.23c2.41-0.01,3.66,1.14,3.78,3.54c-3.06,3.94-4.5,8.41-4.39,13.39c-1.88,4.7-2.18,9.37,0.2,14.01
		c0.59,7.67,5.07,13.08,10.43,17.99c-19.97,2.67-40,5.57-60.01,0.9C466.26,960.13,449.87,938.87,449.74,909.1z"/>
	<path class="st5" d="M786.87,927.44c10.17,0.38,19.29-4,28.9-6.15c10.5-2.35,21.05-4.42,31.42-7.41
		c8.62-2.49,17.38-4.48,26.07-6.69c0.35,17.77-6.25,32.26-22.05,40.8c-23.33,12.61-48.99,16.17-75.15,16.91
		c0.18-12.13,5.32-23.2,7.6-34.88C783.86,928.99,785.8,928.35,786.87,927.44z"/>
	<path class="st23" d="M786.87,927.44c-3.28,3.13-4.48,7.07-3.59,11.36c2.08,10-5.77,17.15-7.21,26.1
		c-10.3,11.16-22.8,10.26-36.48,8.12c-28.72-4.48-57.28-9.67-85.79-15.28c22.76-4.95,45.56-9.72,68.26-14.9
		C743.71,937.91,765.71,934.42,786.87,927.44z"/>
	<path class="st24" d="M34.96,888.09c0,21.8-0.18,43.6,0.09,65.39c0.1,8.09-3.65,18.55,1.93,23.63c5.05,4.6,15.23,1.3,23.14,1.3
		c105.09,0.07,210.19,0.04,315.28,0.08c3.19,0,6.58-0.73,10.12,1.18c-1.95,2.85-4.37,2.13-6.39,2.13
		c-112.76,0.04-225.52,0.04-338.29,0.05c-4.11,0-7.89,0.45-7.85-5.81c0.2-29.21,0.09-58.42,0.09-87.63
		C33.71,888.31,34.33,888.2,34.96,888.09z"/>
	<path class="st25" d="M1158.36,944.14c3.47-10.51,1.72-21.36,1.32-31.96c-0.32-8.39,3.46-8.22,8.79-6.24
		c9.25,3.45,18.3,7.44,27.44,11.21c-0.01,6.8-0.24,13.61,0.05,20.4c0.22,5.23-1.94,6.99-7,6.84
		C1178.76,944.1,1168.56,944.2,1158.36,944.14z"/>
	<path class="st5" d="M725.46,449.51c-1.25,0.64-2.78,2.1-3.7,1.79c-9.34-3.23-11.2,3.06-14.43,9.68
		c-4.27,8.75-8.94,17.44-16.36,24.39c-6.22,5.82-3,13.88-2.53,20.89c0.29,4.42,5.31,3.03,8.37,3.89c3.79,19-4.02,35.46-11.72,51.8
		c-3.61,7.66-8.32,14.76-14.62,20.68c-9.61,9.03-19.47,9.28-29.4,0.44c-3.61-3.21-6.96-6.68-9.16-11.05
		c-10.12-20.1-17.38-41-17.78-63.81c10.5-4.6,12.97-17.39,4.58-25.72c-10.32-10.24-16.19-23.07-21.98-35.99
		c-1.8-4.03-0.9-7.38,2.16-10.83c7.61-8.6,13.32-18.2,14.06-30.15c0.3-4.83,3.25-8.11,7.45-10.69c7.79-4.8,14.45-10.69,18.61-19.3
		c3.54-7.32,11.09-5.11,15.68-2.9c11.06,5.33,22.75,8.53,34.32,12.03c9.97,3.02,14.58,9.8,15.55,19.05
		c0.66,6.3,3.56,11.71,4.22,19.04c6.11-6.13,11.72-10.45,18.9-3.7c7.63,7.17,8.1,16.33,1.2,27.73
		C727.37,447.22,726.68,448.69,725.46,449.51z"/>
	<path class="st26" d="M699.54,610.08c-5.75-2.2-5.2,0.68-3.63,4.31c0.45,1.04,1.43,2,1.48,3.03c0.29,6.58-10.44,3.56-9.51,10.73
		c0.82,6.3-0.13,10.19-8.19,9.71c-7.61-0.45-8.13,2.6-6.99,10.22c0.68,4.58,2.16,7.69,4.56,11.28c1.48,2.21,1.54,6.2-1.39,8.5
		c-3.58,2.8-7.57,2.64-10.97-0.12c-2.84-2.31-5.66-5.32-3.51-9.47c2.73-5.27,5.45-10.01,5.22-16.65c-0.19-5.45,4.93-8.3,11.02-7.9
		c2.9,0.19,7.97,1.35,4.11-4.84c-0.58-0.93-0.33-3.54,0.36-3.93c10.99-6.23,8.62-18.98,13.64-28.12c2.65-4.83,6.19-8.01,10.51-9.83
		c6.29-2.65,9.84-6.14,8.96-13.26c-0.19-1.54-0.63-3.82,1.77-4.01c1.95-0.15,2.63,1.9,3.36,3.38c2.01,4.1-2.04,13.83-7.22,16.18
		c-2.31,1.04-4.41,2.5-6.69,3.36c-5.85,2.22-6.53,5.89-3.17,10.44c1.35,1.84,2,3.49,1.31,5.38
		C703.65,611.01,701.32,610.07,699.54,610.08z"/>
	<path class="st27" d="M631.27,629.2c-2.03,4.6,0.99,4.78,4.09,4.6c8.74-0.5,12.9,3.67,11.69,12.22c-0.65,4.61,3.1,6.96,4.07,10.75
		c1.28,4.99,1.22,8.79-3.34,11.79c-3.74,2.46-7.96,1.56-10.03-1.25c-2.9-3.93-1.34-7.85,2.01-12.06c2.56-3.2,3.58-8.94,2.81-13.1
		c-0.69-3.74-5.39-5.19-9.82-4.54c-5.3,0.78-7.13-1.88-6.61-6.95c0.24-2.38,1.17-5.27-1.93-6.76c-5.16-2.47-10.59-4.34-5.43-12.01
		c1.45-2.15-1.9-2.18-3.96-1.9c-6.38,0.86-7.25-2.28-4.13-6.83c3.93-5.74,1.9-8.31-3.83-10.75c-5.62-2.39-11.06-5.45-13.23-12.08
		c-0.94-2.87-1.32-5.46-0.1-8.21c0.74-1.67,1.82-2.95,3.87-2.49c1.89,0.42,1.79,2.09,1.58,3.4c-1.26,7.85,2.91,11.24,9.55,14.54
		c9.24,4.59,13.15,13.86,14.33,23.67c0.46,3.81,1.64,6.42,4.37,8.47C630.5,622.18,631.86,625.23,631.27,629.2z"/>
	<path class="st28" d="M544.38,947.9c-5.06-4.6-4.96-9.27-0.2-14.01C544.25,938.56,544.32,943.23,544.38,947.9z"/>
	<path class="st29" d="M888.84,787.72c3.66,0.51,8.3-2.45,10.57,2.98C895.75,790.21,891.09,793.22,888.84,787.72z"/>
	<path class="st30" d="M912.58,791.18c3.68,0.46,8.31-2.67,10.68,2.8C919.54,793.64,914.99,796.47,912.58,791.18z"/>
	<path class="st31" d="M594.1,444.32c-1.43,5.76,0.41,12.66-6.07,15.67c-3.53,1.64-6.07-1.74-7.97-6
		C595,463.99,587.65,446.12,594.1,444.32z"/>
	<path class="st32" d="M725.46,449.51c0.66-1.51-0.1-4.81,3.42-2.74c-0.42,4.12,0.77,8.54-2.49,12.38
		C723.15,456.18,728.49,452.33,725.46,449.51z"/>
	<path class="st33" d="M264.69,534.41c-4.8,4.47-9.12,6.2-14.31,4.33c-2.3-0.83-3.71-3.01-3.19-5.27c0.59-2.58,3.2-1.7,4.99-1.44
		C255.98,532.59,259.74,533.45,264.69,534.41z"/>
	<path class="st34" d="M271.4,417.17c-2.88,5.8-4.33,10.71-8.72,13.7c-1.1,0.75-2.24,2.1-3.61,1.01c-1.26-1-0.93-2.71-0.14-3.83
		C261.88,423.88,264.17,418.89,271.4,417.17z"/>
	<path class="st35" d="M267.33,479.91c4.71-4.08,7.93-6.87,11.75-10.18C278.72,478.22,277.66,479.19,267.33,479.91z"/>
	<path class="st36" d="M178.1,419.77c-0.41,2.04,0.43,5.22-2.87,4.99c-2.26-0.16-2.36-2.84-2.33-4.84c0.04-2.33,0.39-5.08,3.26-4.94
		C179,415.13,177.63,418.05,178.1,419.77z"/>
	<path class="st37" d="M197.33,716.9c9.92-1.81,11.4-0.28,12.29,12.31C203.52,726.72,201.68,720.95,197.33,716.9z"/>
	<path class="st38" d="M114.3,800.36c-2.02-7.11,0.3-11.46,1.78-15.86c0.45-1.32,1.7-3.3,3.64-2.72c1.88,0.56,1.97,2.57,1.85,4.28
		C121.23,791.17,117.37,794.33,114.3,800.36z"/>
	<path class="st39" d="M176.33,650.97c1.13-2.23,2.26-4.45,3.38-6.68c5.78,2.7,6.82,8.25,9.25,15.54
		C183.7,656.14,180.01,653.55,176.33,650.97z"/>
	<path class="st40" d="M163.27,763.68c7.89,6.51,7.89,6.94,0.59,13.21C161.88,772.72,162.85,768.74,163.27,763.68z"/>
	<path class="st41" d="M218.02,716.28c-1.03-4.29-2.07-8.59-3.44-14.3c9.21,3.38,5.16,9.23,5.65,13.71
		C219.49,715.89,218.75,716.08,218.02,716.28z"/>
	<path class="st42" d="M116.71,707.76c4.03-1.8,8.05-3.6,12.08-5.39c0.59,0.48,1.18,0.96,1.77,1.43c0.7,2.06-0.34,3.15-2.13,3.82
		C124.55,709.85,120.64,710.05,116.71,707.76z"/>
	<path class="st43" d="M68.72,716.49c-2.47,2.86-3.9,5.65-7.49,5.38c-0.31-0.02-0.9-2.09-0.64-3
		C61.85,714.53,64.94,715.95,68.72,716.49z"/>
	<path class="st44" d="M128.42,707.63c0.71-1.27,1.42-2.55,2.13-3.82c2.87,0.15,6.82,0.85,5.58,4.08
		C135.14,710.48,130.99,710.19,128.42,707.63z"/>
	<path class="st45" d="M309.09,697.8c-6.24-1.19-10.47-2.53-12.62-7.07c-1.2-2.54-0.73-5.46,1.8-6.73c2.29-1.15,3.18,1.47,4.18,3.11
		C304.36,690.23,306.31,693.33,309.09,697.8z"/>
	<path class="st45" d="M383.24,626.3c5.97-3.47,11.71-3.25,17.92-0.69C392.58,631.46,390.35,631.56,383.24,626.3z"/>
	<path class="st46" d="M368.67,667c-7.9,5.66-9.23,5.41-14.36-1.87C359.18,664.09,363.24,666.78,368.67,667z"/>
	<path class="st47" d="M344.53,552.7c-2.25,4.05-5.39,5.73-9.68,7.92C335.64,554.49,337.45,551.18,344.53,552.7z"/>
	<path class="st48" d="M96.22,547.11c2.05,7.91,5.92,13.63,0.21,20.36C92.75,561.04,91.99,555.2,96.22,547.11z"/>
	<path class="st46" d="M138.4,580.38c3.46,6.91,3.27,11.45-2.34,15.19C134.49,590.41,136.25,586.06,138.4,580.38z"/>
	<path class="st49" d="M23.37,607.21c4.03,2.63,5.89,5.67,7.72,9.47C24.67,616.77,22.16,614.12,23.37,607.21z"/>
	<path class="st8" d="M1044.7,180.83c-0.37,5.08-4.11,7.05-6.55,10.58C1035.97,185.19,1038.81,182.49,1044.7,180.83z"/>
	<path class="st8" d="M900.61,239.85c0.87,8.83-4,15.55-7.68,22.63c-0.62,1.18-1.91,2.63-3.27,1.89c-1.03-0.56-1.65-2.22-2.04-3.52
		C885.64,254.24,892.6,242.81,900.61,239.85z"/>
	<path class="st8" d="M910.98,218.77c-0.21,2.04-1.16,4.4-4,3.71c-2.54-0.62-6.69-0.48-6.88-3.8c-0.19-3.5,3.61-3.64,6.36-3.9
		C908.95,214.54,911.03,215.17,910.98,218.77z"/>
	<path class="st8" d="M1020.49,187.61c-1.24,5.73-2.1,9.71-3.03,14.02C1012.91,196.73,1013.38,194.09,1020.49,187.61z"/>
	<path class="st8" d="M906.81,193.39c-3.87,0.63-7.74,1.25-12.23,1.98C898.38,190.22,898.38,190.22,906.81,193.39z"/>
	<path class="st8" d="M937.5,194.43c1.83,0.15,3.44,0.9,3.55,2.84c0.1,1.83-1.6,2.02-3.01,2c-1.59-0.02-3.77,0.43-3.93-1.89
		C933.97,195.43,935.7,194.67,937.5,194.43z"/>
	<path class="st8" d="M981.38,233.43c-0.18-0.49-0.32-1-0.42-1.52c0.03-0.84,0.02-1.69,0.09-2.53c0.16-1.93,0.04-4.6,2.9-3.97
		c3.33,0.73,0.78,3.1,0.64,4.74C984.43,232.07,983.32,233.2,981.38,233.43z"/>
	<path class="st50" d="M636.21,407.28c2.07,0.35,5.28,0.07,4.5,1.75c-2.71,5.88-9.36,4.75-14.34,6.6c-1.49,0.55-5.17,0.59-4.23-2.08
		C624.58,406.69,632.1,410.11,636.21,407.28z"/>
	<path class="st51" d="M668.15,410.79c7.2-3.01,13.15-1.15,19.25,4.35C679.54,416.91,673.76,414.23,668.15,410.79z"/>
	<path class="st52" d="M671.78,426.73c5.71,5.18,12.19,1.07,19.03,1.52C680.75,435,676.08,434.64,671.78,426.73z"/>
	<path class="st53" d="M621.1,428.32c6.21,0.42,12.36,2.62,19.68-3.24C634.56,434.38,629.95,434.79,621.1,428.32z"/>
	<path class="st54" d="M644.76,660.03c1.28,0.19,2.06,0.9,2.08,2.2c0.03,2.36-1.55,2.77-3.41,2.5c-1.03-0.15-2.61-0.2-2.4-1.74
		C641.31,661.02,643.32,660.78,644.76,660.03z"/>
</g>
<g>
</g>
<g>
</g>
<g>
</g>
<g>
</g>
<g>
</g>
<g>
</g>
</svg>
